<?xml version="1.0" encoding="UTF-8"?>
<svg width="16px" height="16px" viewBox="0 0 16 16" version="1.1" xmlns="http://www.w3.org/2000/svg" xmlns:xlink="http://www.w3.org/1999/xlink">
    <!-- Generator: Sketch 50.2 (55047) - http://www.bohemiancoding.com/sketch -->
    <title>icons/16x16/人体 copy 2</title>
    <desc>Created with Sketch.</desc>
    <defs></defs>
    <g id="布控" stroke="none" stroke-width="1" fill="none" fill-rule="evenodd">
        <g id="4.1-布控-云眼地图" transform="translate(-1826.000000, -314.000000)">
            <g id="select" transform="translate(1476.000000, 70.000000)">
                <g id="下啦" transform="translate(229.000000, 47.000000)">
                    <g id="icons/16x16/人体-copy-2" transform="translate(121.000000, 197.000000)">
                        <path d="M11.1842651,1 L15,1 L15,4.48217773 M15,11.6784668 L15,15 L11.2457886,15 M4.83432007,15 L1,15 L1,11.7426758 M1,4.45581055 L1,1 L4.92532349,1" id="Rectangle" stroke="#107EFF" stroke-width="2"></path>
                        <g id="material，可访问性,人体" stroke-width="1" fill-rule="evenodd" transform="translate(3.000000, 2.000000)" fill="#107EFF">
                            <path d="M5.10778809,0.349487305 C5.9365381,0.349487305 6.60778809,1.02073731 6.60778809,1.84948731 C6.60778809,2.67823732 5.93653808,3.3494873 5.10778809,3.3494873 C4.27903809,3.3494873 3.60778809,2.6782373 3.60778809,1.84948731 C3.60778809,1.02073733 4.27903809,0.349487322 5.10778809,0.349487305 Z" id="Path"></path>
                            <path d="M8.85089188,5.3963623 L7.08886719,5.3963623 L7.08886719,10.9247437 C7.08886719,11.3337324 6.75731634,11.6652832 6.34832764,11.6652832 L6.34832764,11.6652832 C5.93933894,11.6652832 5.60778809,11.3337324 5.60778809,10.9247437 L5.60778809,8.66762512 L4.60778808,8.66762512 L4.60778808,10.9307251 C4.60778808,11.3364103 4.27891522,11.6652832 3.87322998,11.6652832 L3.87322998,11.6652832 C3.46754474,11.6652832 3.13867188,11.3364103 3.13867188,10.9307251 L3.13867188,5.3963623 L1.36468429,5.3963623 C0.94666206,5.3963623 0.607788086,5.05748833 0.607788086,4.6394661 L0.607788086,4.6394661 C0.607788086,4.22144387 0.94666206,3.88256989 1.36468429,3.88256989 L8.85089188,3.88256989 C9.26891411,3.88256989 9.60778809,4.22144387 9.60778809,4.6394661 L9.60778809,4.6394661 C9.60778809,5.05748833 9.26891411,5.3963623 8.85089188,5.3963623 Z" id="Path"></path>
                        </g>
                    </g>
                </g>
            </g>
        </g>
    </g>
</svg>