<?xml version="1.0" encoding="utf-8"?>
<!-- Generator: Adobe Illustrator 22.0.1, SVG Export Plug-In . SVG Version: 6.00 Build 0)  -->
<svg version="1.1" id="图层_1" xmlns="http://www.w3.org/2000/svg" xmlns:xlink="http://www.w3.org/1999/xlink" x="0px" y="0px"
	 viewBox="0 0 92 62" style="enable-background:new 0 0 92 62;" xml:space="preserve">
<style type="text/css">
	.st0{fill:#D3D3D3;}
	.st1{fill:#FFFFFF;}
	.st2{fill:#EDEDED;}
</style>
<path class="st0" d="M16.2,34.7c-0.8,0-1.5-0.7-1.5-1.5s0.7-1.5,1.5-1.5s1.5,0.7,1.5,1.5S17,34.7,16.2,34.7z M16.2,32.3
	c-0.5,0-0.9,0.4-0.9,0.9s0.4,0.9,0.9,0.9s0.9-0.4,0.9-0.9S16.7,32.3,16.2,32.3z"/>
<path class="st0" d="M76.2,24.7c-0.8,0-1.5-0.7-1.5-1.5s0.7-1.5,1.5-1.5s1.5,0.7,1.5,1.5S77,24.7,76.2,24.7z M76.2,22.3
	c-0.5,0-0.9,0.4-0.9,0.9s0.4,0.9,0.9,0.9c0.5,0,0.9-0.4,0.9-0.9S76.7,22.3,76.2,22.3z"/>
<path class="st0" d="M26.6,26.7h-4.8c-0.2,0-0.3-0.1-0.3-0.3s0.1-0.3,0.3-0.3h4.8c0.2,0,0.3,0.1,0.3,0.3S26.8,26.7,26.6,26.7z
	 M17,26.7h-4.8c-0.2,0-0.3-0.1-0.3-0.3s0.1-0.3,0.3-0.3H17c0.2,0,0.3,0.1,0.3,0.3S17.2,26.7,17,26.7z M7.4,26.7
	C7.4,26.7,7.4,26.7,7.4,26.7c-1.9-0.1-3.5-0.8-4.6-1.9c-0.1-0.1-0.1-0.3,0-0.4c0.1-0.1,0.3-0.1,0.4,0c1,1,2.5,1.6,4.1,1.7
	c0.2,0,0.3,0.2,0.3,0.3C7.7,26.5,7.6,26.7,7.4,26.7z M2.9,20.7c-0.1,0-0.2,0-0.2-0.1c-0.1-0.1-0.1-0.3,0-0.4c1-0.9,2.6-1.4,4.7-1.4
	c0.2,0,0.3,0.1,0.3,0.3s-0.1,0.3-0.3,0.3c-1.9,0.1-3.4,0.5-4.3,1.3C3.1,20.6,3,20.7,2.9,20.7z"/>
<path class="st0" d="M84.7,51.4C84.7,51.4,84.7,51.4,84.7,51.4c-1.9-0.4-2.9-1.7-3.2-3.6c0-0.2,0.1-0.3,0.3-0.3
	c0.2,0,0.3,0.1,0.3,0.3c0.2,1.7,1.1,2.8,2.7,3.1c0.2,0,0.3,0.2,0.2,0.4C85,51.3,84.9,51.4,84.7,51.4z M88.8,49.7c0,0-0.1,0-0.1,0
	c-0.1-0.1-0.2-0.3-0.1-0.4c0.4-0.7,0.6-1.5,0.6-2.3c0-0.7-0.2-1.4-0.5-2.1c-0.1-0.1,0-0.3,0.1-0.4c0.1-0.1,0.3,0,0.4,0.1
	c0.4,0.7,0.6,1.5,0.6,2.3c0,0.9-0.2,1.8-0.6,2.6C89,49.7,88.9,49.7,88.8,49.7z M85,42.5C85,42.5,84.9,42.5,85,42.5
	c-0.7-0.1-1.4-0.2-2.2-0.2h-2.6c-0.2,0-0.3-0.1-0.3-0.3s0.1-0.3,0.3-0.3h2.6c0.8,0,1.6,0.1,2.2,0.2c0.2,0,0.3,0.2,0.2,0.4
	C85.2,42.4,85.1,42.5,85,42.5z M75.4,42.3h-4.8c-0.2,0-0.3-0.1-0.3-0.3s0.1-0.3,0.3-0.3h4.8c0.2,0,0.3,0.1,0.3,0.3
	S75.6,42.3,75.4,42.3z M65.8,42.3H61c-0.2,0-0.3-0.1-0.3-0.3s0.1-0.3,0.3-0.3h4.8c0.2,0,0.3,0.1,0.3,0.3S66,42.3,65.8,42.3z"/>
<path class="st1" d="M57.3,60H26c-0.2,0-0.4-0.1-0.5-0.4s-0.1-0.5,0.1-0.6l11.8-13.4c0.2-0.2,0.6-0.3,0.8-0.1
	c0.2,0.2,0.3,0.6,0.1,0.8L27.3,58.8h30c0.3,0,0.6,0.3,0.6,0.6S57.7,60,57.3,60z"/>
<path class="st1" d="M60.1,18.7c-2.6,0-4.7-2.1-4.7-4.7s2.1-4.7,4.7-4.7s4.7,2.1,4.7,4.7S62.7,18.7,60.1,18.7z M60.1,10.6
	c-1.9,0-3.5,1.6-3.5,3.5s1.6,3.5,3.5,3.5s3.5-1.6,3.5-3.5S62,10.6,60.1,10.6z"/>
<path class="st1" d="M72.2,10.9c-0.3,0-0.6-0.3-0.6-0.6c0-4.2-3.4-7.7-7.6-7.7c-0.3,0-0.6-0.3-0.6-0.6s0.3-0.6,0.6-0.6
	c4.8,0,8.8,4,8.8,8.9C72.8,10.6,72.5,10.9,72.2,10.9z"/>
<path class="st1" d="M67.8,12.4c-0.3,0-0.6-0.3-0.6-0.6c0-2.3-1.9-4.2-4.2-4.2c-0.3,0-0.6-0.3-0.6-0.6s0.3-0.6,0.6-0.6
	c3,0,5.4,2.4,5.4,5.4C68.4,12.1,68.2,12.4,67.8,12.4z"/>
<path class="st1" d="M50.6,45.9c-4.1,0-8.5-1.2-12.7-3.6c-9.8-5.6-14.4-16-10.4-23c2.6-4.5,8.4-6.8,15.2-5.9c0.3,0,0.6,0.3,0.5,0.7
	c0,0.3-0.3,0.6-0.7,0.5c-6.3-0.8-11.6,1.3-14,5.4c-3.7,6.5,0.7,16.1,9.9,21.4c9.2,5.3,19.7,4.4,23.5-2.1c1.5-2.6,1.7-5.7,0.7-9
	c-0.1-0.3,0.1-0.7,0.4-0.8c0.3-0.1,0.7,0.1,0.8,0.4c1.1,3.7,0.9,7.1-0.8,10C60.7,43.8,56,45.9,50.6,45.9z"/>
<path class="st1" d="M50.1,35.2c-0.1,0-0.2,0-0.2-0.1c-0.3-0.1-0.4-0.5-0.3-0.8L56,19.6c-9.1,6-13.9,9.2-14.7,9.7
	c-0.3,0.2-0.7,0.1-0.8-0.2c-0.2-0.3-0.1-0.7,0.2-0.8c0.8-0.5,6.3-4.1,16.3-10.8c0.2-0.1,0.5-0.1,0.7,0c0.2,0.2,0.3,0.5,0.2,0.7
	l-7.2,16.6C50.6,35,50.4,35.2,50.1,35.2z"/>
<path class="st1" d="M61.5,16.4c-0.2,0-0.3-0.1-0.4-0.2l-2.8-2.8c-0.2-0.2-0.2-0.6,0-0.8s0.6-0.2,0.8,0l2.8,2.8
	c0.2,0.2,0.2,0.6,0,0.8C61.8,16.3,61.6,16.4,61.5,16.4z"/>
<path class="st1" d="M59,16.4c-0.2,0-0.3-0.1-0.4-0.2c-0.2-0.2-0.2-0.6,0-0.8l2.8-2.8c0.2-0.2,0.6-0.2,0.8,0s0.2,0.6,0,0.8l-2.8,2.8
	C59.3,16.3,59.2,16.4,59,16.4z"/>
<path class="st0" d="M12.2,49.5c-0.1,0-0.2,0-0.2-0.1l-2.2-2.2c-0.1-0.1-0.1-0.3,0-0.4s0.3-0.1,0.4,0l2.2,2.2c0.1,0.1,0.1,0.3,0,0.4
	C12.4,49.5,12.3,49.5,12.2,49.5z"/>
<path class="st0" d="M10,49.4c-0.1,0-0.2,0-0.2-0.1c-0.1-0.1-0.1-0.3,0-0.4l2.1-2.1c0.1-0.1,0.3-0.1,0.4,0s0.1,0.3,0,0.4l-2.1,2.1
	C10.2,49.3,10.1,49.4,10,49.4z"/>
<path class="st0" d="M68.8,55.5c-0.1,0-0.2,0-0.2-0.1l-2.2-2.2c-0.1-0.1-0.1-0.3,0-0.4s0.3-0.1,0.4,0L69,55c0.1,0.1,0.1,0.3,0,0.4
	C68.9,55.5,68.8,55.5,68.8,55.5z"/>
<path class="st0" d="M67,55.4c-0.1,0-0.2,0-0.2-0.1c-0.1-0.1-0.1-0.3,0-0.4l2.1-2.1c0.1-0.1,0.3-0.1,0.4,0s0.1,0.3,0,0.4l-2.1,2.1
	C67.2,55.3,67.1,55.4,67,55.4z"/>
<path class="st2" d="M6.9,19.7c-0.1,0-0.1,0-0.2-0.1c-0.1-0.1-0.1-0.3,0-0.4l0.9-1l-1.1-1c-0.1-0.1-0.1-0.3,0-0.4
	c0.1-0.1,0.3-0.1,0.4,0L8.1,18c0.1,0.1,0.1,0.3,0,0.4l-1.1,1.2C7,19.7,6.9,19.7,6.9,19.7z"/>
</svg>
