<?xml version="1.0" encoding="UTF-8"?>
<svg width="110px" height="32px" viewBox="0 0 110 32" version="1.1" xmlns="http://www.w3.org/2000/svg" xmlns:xlink="http://www.w3.org/1999/xlink">
    <!-- Generator: Sketch 51 (57462) - http://www.bohemiancoding.com/sketch -->
    <title>LOGO_font</title>
    <desc>Created with Sketch.</desc>
    <defs></defs>
    <g id="LOGO_font" stroke="none" stroke-width="1" fill="none" fill-rule="evenodd">
        <path d="M18.6306695,15.8728493 L23.4043443,15.8728493 L23.4043443,9.9062901 L18.6306695,9.9062901 L18.6306695,15.8728493 Z M17.4278117,16.9966326 L17.4278117,8.78179441 L24.607202,8.78179441 L24.607202,16.9966326 L17.4278117,16.9966326 Z M36.8173303,23.3416093 L36.4636324,21.2999212 L37.8588334,21.2999212 L38.2121751,23.3416093 L36.8173303,23.3416093 Z M30.5690595,7.90766553 L31.7509019,7.90766553 L31.7509019,8.69164241 L35.1852977,8.68986146 L35.1852977,9.87170393 L31.7509019,9.87384108 L31.7509019,10.8936165 L35.2241225,10.8936165 L35.2241225,12.0761714 L31.7509019,12.0761714 L31.7509019,12.9039598 L35.2219854,12.9221256 L35.2219854,14.1046804 L31.7509019,14.0868709 L31.7509019,14.6606949 L30.5690595,14.6606949 L30.5690595,14.0868709 L27.2611116,14.0861585 L27.2611116,12.9039598 L30.5690595,12.9039598 L30.5690595,12.0761714 L27.2611116,12.0761714 L27.2611116,10.8936165 L30.5690595,10.8936165 L30.5690595,9.87384108 L27.2611116,9.88986968 L27.2611116,8.70767102 L30.5690595,8.69164241 L30.5690595,7.90766553 Z M39.3270892,7.90766553 L40.5085755,7.90766553 L40.5085755,8.69164241 L43.9429713,8.68986146 L43.9429713,9.87170393 L40.5085755,9.87384108 L40.5085755,10.8936165 L43.9821523,10.8936165 L43.9821523,12.0761714 L40.5085755,12.0761714 L40.5085755,12.9039598 L43.979659,12.9221256 L43.979659,14.1046804 L40.5085755,14.0868709 L40.5085755,14.6606949 L39.3270892,14.6606949 L39.3270892,14.0868709 L36.0187852,14.0861585 L36.0187852,12.9039598 L39.3270892,12.9039598 L39.3270892,12.0761714 L36.0187852,12.0761714 L36.0187852,10.8936165 L39.3270892,10.8936165 L39.3270892,9.87384108 L36.0187852,9.88986968 L36.0187852,8.70767102 L39.3270892,8.69164241 L39.3270892,7.90766553 Z M43.6600842,15.2152846 L43.6600842,20.6147874 L27.591942,20.6147874 L27.591942,19.4329449 L42.4775294,19.4329449 L42.4775294,18.5478097 L27.7575709,18.5478097 L27.7575709,17.3656111 L42.4775294,17.3656111 L42.4775294,16.3978395 L27.591942,16.3978395 L27.591942,15.2152846 L43.6600842,15.2152846 Z M42.16287,21.2998856 L43.6371455,21.2998856 L44.5525569,24.7731062 L43.0779253,24.7731062 L42.16287,21.2998856 Z M28.7318608,21.2864216 L30.1819152,21.2864216 L28.7104893,24.7546555 L27.2593662,24.7546555 L28.7318608,21.2864216 Z M30.8998899,21.2864216 L32.1643687,21.2864216 L32.1643687,23.7380857 L40.2662943,23.7680058 L39.7989714,21.3138483 L41.0976446,21.2999568 L41.8456461,24.7731774 L30.8995337,24.7731774 L30.8998899,21.2864216 Z M64.9004079,10.9630382 L70.4074804,10.9630382 L70.401069,12.1138921 L68.7533284,14.7400899 L70.4302767,16.9235421 L70.4089052,18.3116193 L68.4491411,15.9678811 L68.4491411,24.7732843 L67.25127,24.7732843 L67.25127,17.0841844 L65.7737888,19.5248066 L64.418125,19.5248066 L69.1187806,12.0825472 L64.9004079,12.0825472 L64.9004079,10.9630382 Z M66.6558608,7.96793309 L68.0054693,7.96793309 L69.6717318,10.4502297 L68.230226,10.4502297 L66.6558608,7.96793309 Z M76.1034411,7.9862057 L77.3013122,7.9862057 L77.3198342,13.2350395 L82.4123001,13.2350395 L82.3930657,14.4507202 L77.3013122,14.4507202 L77.3013122,23.5809698 L82.7855885,23.5809698 L82.7855885,24.7004788 L70.1493487,24.7004788 L70.1493487,23.5809698 L76.1034411,23.5809698 L76.1034411,14.4507202 L70.8542511,14.4507202 L70.8734854,13.2350395 L76.1219631,13.2350395 L76.1034411,7.9862057 Z M89.3889107,22.7920062 L87.7176615,22.7920062 L93.6411215,16.2672954 L88.0410831,10.2373342 L89.8010239,10.2373342 L94.5162833,15.1958722 L99.4010897,9.82272764 L101.067352,9.82272764 L95.3989252,16.1782476 L101.669315,22.7920062 L99.7341285,22.7920062 L94.5205576,17.1705964 L89.3889107,22.7920062 Z M85.4211898,7.99678458 L101.377844,7.99678458 L101.377844,9.18290135 L86.6902991,9.18290135 L86.6902991,23.5142552 L101.896102,23.5142552 L101.896102,24.7003719 L85.4211898,24.7003719 L85.4211898,7.99678458 Z M8.2963511,18.0932029 L24.6074157,18.0932029 L24.6074157,24.8473008 L8.2963511,24.8473008 L8.2963511,20.5769243 L22.2351822,20.5769243 L22.2351822,21.7014199 L9.49920885,21.7014199 L9.49920885,23.7228051 L23.404558,23.7228051 L23.404558,19.2169862 L8.2963511,19.2169862 L8.2963511,18.0932029 Z M9.05610697,7.99550229 L10.2710752,7.99550229 L10.2806924,8.85997838 L16.7437821,8.85997838 L16.7437821,9.98411788 L13.2046661,9.98411788 L13.2046661,12.713255 L16.7067382,12.7360513 L16.7067382,13.8601908 L13.690511,13.8377507 L16.2625678,16.9305591 L14.5973738,16.9305591 L12.6550631,14.5625999 L10.7636877,16.9305591 L8.95281152,16.9305591 L11.5480208,13.8377507 L8,13.8462993 L8,12.7221598 L12.0021646,12.713255 L12.0021646,9.98411788 L9.92877547,9.98411788 L9.27195885,12.2291912 L8.05093534,12.2291912 L9.07035462,8.78161631 L9.05610697,7.99550229 Z M61.8975022,8.81741353 L61.9103251,10.1755707 L46.8038992,10.1755707 L46.7910763,8.81741353 L61.8975022,8.81741353 Z M63.3476279,22.036489 C63.4135233,22.3809259 63.5453141,24.854674 63.5356969,24.968299 L62.8058611,24.968299 L62.8090668,24.9793409 L46.8470696,25 L50.3690884,15.7044777 L45.4344152,15.7044777 L45.4472381,14.3573625 L63.2667725,14.3573625 L63.2535934,15.7044777 L52.0182537,15.7044777 L48.7968603,23.8594757 L62.3068372,23.8473652 C62.2658752,23.1032817 62.207816,22.2309694 62.1707721,22.036489 C61.8697906,20.4557124 60.7428015,19.08402 59.1328172,19.08402 C58.3360174,19.08402 57.6129493,19.400674 57.0907729,19.9125208 C56.7844485,20.2135024 56.5418822,20.5771736 56.3994058,20.9892868 C56.1988701,20.6088746 55.887559,20.2975635 55.5025163,20.1023707 C55.2278928,19.9655933 54.9165817,19.8861626 54.589242,19.8861626 C53.4708015,19.8861626 52.5628701,20.7937379 52.5628701,21.9125345 C52.5628701,22.0617786 52.5810359,22.2067484 52.6120245,22.3467316 L51.4191401,22.3467316 C51.3995496,22.2042551 51.3860143,22.0599977 51.3860143,21.9125345 C51.3860143,20.1444013 52.8268078,18.7093068 54.589242,18.7093068 C55.1751765,18.7093068 55.7240672,18.8678119 56.1988701,19.147422 C56.9429536,18.3819671 57.9823196,17.9071642 59.1328172,17.9071642 C61.3917819,17.9071642 62.9241166,19.8177739 63.3476279,22.036489 Z" id="Combined-Shape" fill="#FFFFFF"></path>
    </g>
</svg>