<?xml version="1.0" encoding="UTF-8"?>
<svg width="166px" height="196px" viewBox="0 0 166 196" version="1.1" xmlns="http://www.w3.org/2000/svg" xmlns:xlink="http://www.w3.org/1999/xlink">
    <!-- Generator: Sketch 51.1 (57501) - http://www.bohemiancoding.com/sketch -->
    <title>qsy/1</title>
    <desc>Created with Sketch.</desc>
    <defs>
        <linearGradient x1="66.4588619%" y1="9.04514116%" x2="55.3393388%" y2="26.688667%" id="linearGradient-1">
            <stop stop-color="#E0E8F1" offset="0%"></stop>
            <stop stop-color="#FFFFFF" offset="100%"></stop>
        </linearGradient>
        <linearGradient x1="54.9716616%" y1="77.888906%" x2="54.9716616%" y2="0%" id="linearGradient-2">
            <stop stop-color="#EAEDF1" offset="0%"></stop>
            <stop stop-color="#DDE3EB" offset="100%"></stop>
        </linearGradient>
        <linearGradient x1="50%" y1="-20.284437%" x2="50%" y2="97.8255961%" id="linearGradient-3">
            <stop stop-color="#FFFFFF" offset="0%"></stop>
            <stop stop-color="#CCE8FF" offset="100%"></stop>
        </linearGradient>
        <linearGradient x1="59.9060007%" y1="90.5154193%" x2="18.9585099%" y2="-6.75113036%" id="linearGradient-4">
            <stop stop-color="#CCE8FF" stop-opacity="0" offset="0%"></stop>
            <stop stop-color="#CCE8FF" offset="100%"></stop>
        </linearGradient>
        <linearGradient x1="72.0532564%" y1="100%" x2="50%" y2="0%" id="linearGradient-5">
            <stop stop-color="#F2F5F9" offset="0%"></stop>
            <stop stop-color="#E0E8F1" offset="100%"></stop>
        </linearGradient>
    </defs>
    <g id="qsy/1" stroke="none" stroke-width="1" fill="none" fill-rule="evenodd">
        <g id="彩色" transform="translate(0.000000, 17.000000)">
            <g id="Group-55" transform="translate(3.000000, 26.000000)">
                <g id="Group-3" transform="translate(6.209607, 51.208633)" fill="#F1F4F8">
                    <path d="M147.39741,6.013246 L24.479733,6.013246 C22.8938633,6.013246 21.5963334,4.72794588 21.5963334,3.15702352 C21.5963334,1.58610115 22.8938633,0.300801031 24.479733,0.300801031 L147.39741,0.300801031 C148.98328,0.300801031 150.28081,1.58610115 150.28081,3.15702352 C150.28081,4.72794588 148.98328,6.013246 147.39741,6.013246" id="Fill-1"></path>
                    <path d="M126.198821,28.4597273 L3.28114397,28.4597273 C1.6952742,28.4597273 0.397744379,27.1744271 0.397744379,25.6035048 C0.397744379,24.0325824 1.6952742,22.7472823 3.28114397,22.7472823 L126.198821,22.7472823 C127.784691,22.7472823 129.082221,24.0325824 129.082221,25.6035048 C129.082221,27.1744271 127.784691,28.4597273 126.198821,28.4597273" id="Fill-3"></path>
                    <path d="M135.314648,17.08984 L12.3969706,17.08984 C10.8111008,17.08984 9.51357101,15.8045399 9.51357101,14.2336175 C9.51357101,12.6626952 10.8111008,11.377395 12.3969706,11.377395 L135.314648,11.377395 C136.900517,11.377395 138.198047,12.6626952 138.198047,14.2336175 C138.198047,15.8045399 136.900517,17.08984 135.314648,17.08984" id="Fill-5"></path>
                    <path d="M140.869393,39.7885665 L19.2533653,39.7885665 C17.6674955,39.7885665 16.3699657,38.5032664 16.3699657,36.932344 C16.3699657,35.3614217 17.6674955,34.0761216 19.2533653,34.0761216 L140.869393,34.0761216 C142.455263,34.0761216 143.752793,35.3614217 143.752793,36.932344 C143.752793,38.5032664 142.455263,39.7885665 140.869393,39.7885665" id="Fill-7"></path>
                    <path d="M82.7398929,11.3957565 C81.2462919,11.3957565 80.0237304,10.1847181 80.0237304,8.70519489 C80.0237304,7.22567164 81.2462919,6.01463331 82.7398929,6.01463331 L87.6235479,6.01463331 L87.6235479,4.15972082 L42.3129829,4.15972082 L42.3129829,6.00484055 L44.9171046,6.00484055 C46.4107056,6.00484055 47.633267,7.21506282 47.633267,8.69540213 C47.633267,10.1749254 46.4107056,11.3859637 44.9171046,11.3859637 L42.3129829,11.3859637 L42.3129829,14.88198 L87.6235479,14.88198 L87.6235479,11.3957565 L82.7398929,11.3957565 Z" id="Fill-9"></path>
                    <path d="M106.486419,22.7855557 C104.992818,22.7855557 103.770256,21.5100483 103.770256,19.9505508 C103.770256,18.3910534 104.992818,17.115546 106.486419,17.115546 L111.370074,17.115546 L111.370074,15.1618898 L24.8680858,15.1618898 L24.8680858,17.1057532 L27.4722075,17.1057532 C28.9658085,17.1057532 30.1883699,18.3812606 30.1883699,19.9407581 C30.1883699,21.4994395 28.9658085,22.7749468 27.4722075,22.7749468 L24.8680858,22.7749468 L24.8680858,26.4594739 L111.370074,26.4594739 L111.370074,22.7855557 L106.486419,22.7855557 Z" id="Fill-11"></path>
                    <path d="M114.450039,34.0833029 C112.956438,34.0833029 111.733876,32.8077956 111.733876,31.2482981 C111.733876,29.6888006 112.956438,28.4132932 114.450039,28.4132932 L119.333694,28.4132932 L119.333694,26.4596371 L24.5934214,26.4596371 L24.5934214,28.4035005 L27.1975431,28.4035005 C28.6911441,28.4035005 29.9137055,29.6790078 29.9137055,31.2376893 C29.9137055,32.7971867 28.6911441,34.0726941 27.1975431,34.0726941 L24.5934214,34.0726941 L24.5934214,37.756405 L119.333694,37.756405 L119.333694,34.0833029 L114.450039,34.0833029 Z" id="Fill-13"></path>
                </g>
                <g id="Group-18" transform="translate(88.973473, 0.000000)">
                    <path d="M0.436711465,2.19577365 L30.8582249,2.19577365" id="Fill-15" fill="#FFFFFF"></path>
                    <path d="M0.436711465,1.19577365 L34.5265268,1.19577365" id="Stroke-17" stroke="#B5BBC7" stroke-linecap="round"></path>
                </g>
                <g id="Group-22" transform="translate(99.683243, 6.080318)">
                    <path d="M0.534582285,0.193325459 L16.009376,0.193325459" id="Fill-19" fill="#FFFFFF"></path>
                    <path d="M0.534582285,0.193325459 L16.009376,0.193325459" id="Stroke-21" stroke="#B5BBC7" stroke-linecap="round"></path>
                </g>
                <g id="Group-26" transform="translate(88.973473, 9.344572)">
                    <path d="M0.436711465,0.783094599 L15.9115052,0.783094599" id="Fill-23" fill="#FFFFFF"></path>
                    <path d="M0.436711465,1.7830946 L15.9115052,1.7830946" id="Stroke-25" stroke="#B5BBC7" stroke-linecap="round"></path>
                </g>
                <g id="Group-30" transform="translate(88.973473, 6.080318)">
                    <path d="M0.436711465,0.193325459 L6.88728827,0.193325459" id="Fill-27" fill="#FFFFFF"></path>
                    <path d="M0.436711465,0.193325459 L6.88728827,0.193325459" id="Stroke-29" stroke="#B5BBC7" stroke-linecap="round"></path>
                </g>
                <path d="M8.54013531,54.4425298 L10.4983755,54.4425298" id="Stroke-31" stroke="#B5BBC7" stroke-linecap="round"></path>
                <path d="M11.8354491,52.9155933 L11.8354491,50.9766262" id="Stroke-33" stroke="#B5BBC7" stroke-linecap="round"></path>
                <path d="M15.1397427,54.3656566 L13.1815024,54.3656566" id="Stroke-35" stroke="#B5BBC7" stroke-linecap="round"></path>
                <path d="M11.8354491,55.767409 L11.8354491,57.706376" id="Stroke-37" stroke="#B5BBC7" stroke-linecap="round"></path>
                <path d="M151.31595,32.4753227 L153.27419,32.4753227" id="Stroke-39" stroke="#B5BBC7" stroke-linecap="round"></path>
                <path d="M154.611264,30.9487942 L154.611264,29.0090111" id="Stroke-41" stroke="#B5BBC7" stroke-linecap="round"></path>
                <path d="M157.915558,32.3984495 L155.957317,32.3984495" id="Stroke-43" stroke="#B5BBC7" stroke-linecap="round"></path>
                <path d="M154.611264,33.8002835 L154.611264,35.7392505" id="Stroke-45" stroke="#B5BBC7" stroke-linecap="round"></path>
                <path d="M6.89247839,44.4273897 C6.89247839,46.138675 5.49197002,47.525983 3.76440175,47.525983 C2.03683347,47.525983 0.636325099,46.138675 0.636325099,44.4273897 C0.636325099,42.7161044 2.03683347,41.3287963 3.76440175,41.3287963 C5.49197002,41.3287963 6.89247839,42.7161044 6.89247839,44.4273897 Z" id="Stroke-47" stroke="#B5BBC7"></path>
                <path d="M146.881776,39.0141952 C146.881776,40.7254805 145.481268,42.1127886 143.753699,42.1127886 C142.026131,42.1127886 140.625623,40.7254805 140.625623,39.0141952 C140.625623,37.3029099 142.026131,35.9156018 143.753699,35.9156018 C145.481268,35.9156018 146.881776,37.3029099 146.881776,39.0141952 Z" id="Stroke-49" stroke="#B5BBC7"></path>
                <g id="Group-54" transform="translate(85.678159, 34.642543)">
                    <path d="M30.4889849,27.1629206 L30.4889849,58.8939203 C30.4889849,58.8939203 30.3299861,61.5779534 27.0099574,61.7362697 C23.6907525,61.89377 23.1577355,60.0258005 23.1577355,60.0258005 L23.1577355,42.4763535 C23.1577355,42.4763535 22.9987366,40.5814539 21.1500656,40.4239536 C19.3013945,40.2664533 18.4858043,42.3180372 18.4858043,42.3180372 L18.4858043,57.4739697 C18.4858043,57.4739697 17.2615953,59.6838699 14.2332019,59.9996865 C11.2056323,60.3155031 9.85372978,57.63147 9.85372978,57.63147 L9.85372978,23.6897541 C9.85372978,23.6897541 1.16481105,13.1127542 0.527167829,12.3236207 C-0.109651567,11.5344873 -0.12942345,8.55830345 0.527167829,7.56188983 C2.28851307,4.89091378 11.3646312,0.659624181 11.3646312,0.659624181 L14.5544949,3.75903361 L6.47026631,9.82156985 L19.0880229,15.4320069 C19.0880229,15.4320069 30.6125592,15.6686653 32.4464014,16.743421 C35.4294842,18.4922452 35.4294842,23.6897541 35.4294842,28.2678707 L35.4294842,39.7923204 C35.4294842,39.7923204 34.9516637,41.686404 33.3575556,41.686404 C31.7642714,41.686404 30.4889849,40.108137 30.4889849,40.108137" id="Fill-51" fill="url(#linearGradient-1)"></path>
                    <path d="M30.4889849,27.1629206 L30.4889849,58.8939203 C30.4889849,58.8939203 30.3299861,61.5779534 27.0099574,61.7362697 C23.6907525,61.89377 23.1577355,60.0258005 23.1577355,60.0258005 L23.1577355,42.4763535 C23.1577355,42.4763535 22.9987366,40.5814539 21.1500656,40.4239536 C19.3013945,40.2664533 18.4858043,42.3180372 18.4858043,42.3180372 L18.4858043,57.4739697 C18.4858043,57.4739697 17.2615953,59.6838699 14.2332019,59.9996865 C11.2056323,60.3155031 9.85372978,57.63147 9.85372978,57.63147 L9.85372978,23.6897541 C9.85372978,23.6897541 1.16481105,13.1127542 0.527167829,12.3236207 C-0.109651567,11.5344873 -0.12942345,8.55830345 0.527167829,7.56188983 C2.28851307,4.89091378 11.3646312,0.659624181 11.3646312,0.659624181 L14.5544949,3.75903361 L6.47026631,9.82156985 L19.0880229,15.4320069 C19.0880229,15.4320069 30.6125592,15.6686653 32.4464014,16.743421 C35.4294842,18.4922452 35.4294842,23.6897541 35.4294842,28.2678707 L35.4294842,39.7923204 C35.4294842,39.7923204 34.9516637,41.686404 33.3575556,41.686404 C31.7642714,41.686404 30.4889849,40.108137 30.4889849,40.108137" id="Stroke-53" stroke="#B5BBC7"></path>
                </g>
            </g>
            <path d="M112.558352,46 C112.997712,46 113.354691,46.1167582 113.615561,46.364011 C113.869565,46.5975275 114,46.9203297 114,47.3324176 C114,47.6414835 113.910755,47.9093407 113.745995,48.135989 C113.677346,48.2184066 113.485126,48.396978 113.183066,48.6648352 C113.038902,48.7884615 112.935927,48.9120879 112.867277,49.0357143 C112.778032,49.1868132 112.736842,49.3585165 112.736842,49.543956 L112.736842,49.7019231 L112.180778,49.7019231 L112.180778,49.543956 C112.180778,49.3173077 112.221968,49.1181319 112.311213,48.9464286 C112.400458,48.7403846 112.633867,48.4793956 113.004577,48.1497253 C113.114416,48.0398352 113.189931,47.9574176 113.237986,47.9024725 C113.368421,47.7307692 113.437071,47.5521978 113.437071,47.3598901 C113.437071,47.0851648 113.361556,46.8722527 113.210526,46.7211538 C113.045767,46.5563187 112.819222,46.4807692 112.530892,46.4807692 C112.194508,46.4807692 111.940503,46.5906593 111.768879,46.8173077 C111.624714,47.0096154 111.549199,47.2706044 111.549199,47.6071429 L111,47.6071429 C111,47.1263736 111.1373,46.7417582 111.405034,46.4532967 C111.686499,46.1510989 112.070938,46 112.558352,46 Z M112.462243,50.1826923 C112.578947,50.1826923 112.675057,50.217033 112.757437,50.2994505 C112.832952,50.375 112.874142,50.4711538 112.874142,50.5879121 C112.874142,50.7115385 112.832952,50.8076923 112.757437,50.8832418 C112.675057,50.9587912 112.572082,51 112.462243,51 C112.338673,51 112.242563,50.9587912 112.167048,50.8832418 C112.084668,50.8008242 112.043478,50.7046703 112.043478,50.5879121 C112.043478,50.4711538 112.084668,50.375 112.167048,50.2994505 C112.242563,50.217033 112.338673,50.1826923 112.462243,50.1826923 Z" id="?" fill="#B5BBC7"></path>
            <path d="M120.558352,48 C120.997712,48 121.354691,48.1167582 121.615561,48.364011 C121.869565,48.5975275 122,48.9203297 122,49.3324176 C122,49.6414835 121.910755,49.9093407 121.745995,50.135989 C121.677346,50.2184066 121.485126,50.396978 121.183066,50.6648352 C121.038902,50.7884615 120.935927,50.9120879 120.867277,51.0357143 C120.778032,51.1868132 120.736842,51.3585165 120.736842,51.543956 L120.736842,51.7019231 L120.180778,51.7019231 L120.180778,51.543956 C120.180778,51.3173077 120.221968,51.1181319 120.311213,50.9464286 C120.400458,50.7403846 120.633867,50.4793956 121.004577,50.1497253 C121.114416,50.0398352 121.189931,49.9574176 121.237986,49.9024725 C121.368421,49.7307692 121.437071,49.5521978 121.437071,49.3598901 C121.437071,49.0851648 121.361556,48.8722527 121.210526,48.7211538 C121.045767,48.5563187 120.819222,48.4807692 120.530892,48.4807692 C120.194508,48.4807692 119.940503,48.5906593 119.768879,48.8173077 C119.624714,49.0096154 119.549199,49.2706044 119.549199,49.6071429 L119,49.6071429 C119,49.1263736 119.1373,48.7417582 119.405034,48.4532967 C119.686499,48.1510989 120.070938,48 120.558352,48 Z M120.462243,52.1826923 C120.578947,52.1826923 120.675057,52.217033 120.757437,52.2994505 C120.832952,52.375 120.874142,52.4711538 120.874142,52.5879121 C120.874142,52.7115385 120.832952,52.8076923 120.757437,52.8832418 C120.675057,52.9587912 120.572082,53 120.462243,53 C120.338673,53 120.242563,52.9587912 120.167048,52.8832418 C120.084668,52.8008242 120.043478,52.7046703 120.043478,52.5879121 C120.043478,52.4711538 120.084668,52.375 120.167048,52.2994505 C120.242563,52.217033 120.338673,52.1826923 120.462243,52.1826923 Z" id="?" fill="#B5BBC7" transform="translate(120.500000, 50.500000) rotate(30.000000) translate(-120.500000, -50.500000) "></path>
            <path d="M126.558352,54 C126.997712,54 127.354691,54.1167582 127.615561,54.364011 C127.869565,54.5975275 128,54.9203297 128,55.3324176 C128,55.6414835 127.910755,55.9093407 127.745995,56.135989 C127.677346,56.2184066 127.485126,56.396978 127.183066,56.6648352 C127.038902,56.7884615 126.935927,56.9120879 126.867277,57.0357143 C126.778032,57.1868132 126.736842,57.3585165 126.736842,57.543956 L126.736842,57.7019231 L126.180778,57.7019231 L126.180778,57.543956 C126.180778,57.3173077 126.221968,57.1181319 126.311213,56.9464286 C126.400458,56.7403846 126.633867,56.4793956 127.004577,56.1497253 C127.114416,56.0398352 127.189931,55.9574176 127.237986,55.9024725 C127.368421,55.7307692 127.437071,55.5521978 127.437071,55.3598901 C127.437071,55.0851648 127.361556,54.8722527 127.210526,54.7211538 C127.045767,54.5563187 126.819222,54.4807692 126.530892,54.4807692 C126.194508,54.4807692 125.940503,54.5906593 125.768879,54.8173077 C125.624714,55.0096154 125.549199,55.2706044 125.549199,55.6071429 L125,55.6071429 C125,55.1263736 125.1373,54.7417582 125.405034,54.4532967 C125.686499,54.1510989 126.070938,54 126.558352,54 Z M126.462243,58.1826923 C126.578947,58.1826923 126.675057,58.217033 126.757437,58.2994505 C126.832952,58.375 126.874142,58.4711538 126.874142,58.5879121 C126.874142,58.7115385 126.832952,58.8076923 126.757437,58.8832418 C126.675057,58.9587912 126.572082,59 126.462243,59 C126.338673,59 126.242563,58.9587912 126.167048,58.8832418 C126.084668,58.8008242 126.043478,58.7046703 126.043478,58.5879121 C126.043478,58.4711538 126.084668,58.375 126.167048,58.2994505 C126.242563,58.217033 126.338673,58.1826923 126.462243,58.1826923 Z" id="?" fill="#B5BBC7" transform="translate(126.500000, 56.500000) rotate(59.000000) translate(-126.500000, -56.500000) "></path>
            <g id="Group-118">
                <path d="M165.476728,136.3162 C165.476728,136.3162 142.765286,107.688618 84.9543403,107.688618 C27.143395,107.688618 0.302599005,136.3162 0.302599005,136.3162 L165.476728,136.3162 Z" id="Fill-56" fill="url(#linearGradient-2)"></path>
                <path d="M122.94439,66.6841883 C122.94439,73.2178203 117.596878,78.5131049 111.000649,78.5131049 C104.403594,78.5131049 99.0560816,73.2178203 99.0560816,66.6841883 C99.0560816,60.1513742 104.403594,54.8552717 111.000649,54.8552717 C117.596878,54.8552717 122.94439,60.1513742 122.94439,66.6841883" id="Fill-58" fill="#FFFFFF"></path>
                <path d="M122.94439,66.6841883 C122.94439,73.2178203 117.596878,78.5131049 111.000649,78.5131049 C104.403594,78.5131049 99.0560816,73.2178203 99.0560816,66.6841883 C99.0560816,60.1513742 104.403594,54.8552717 111.000649,54.8552717 C117.596878,54.8552717 122.94439,60.1513742 122.94439,66.6841883 Z" id="Stroke-60" stroke="#B5BBC7"></path>
                <path d="M110.378273,56.4748566 C109.125427,56.1403229 107.683457,55.9243892 106.353805,55.783705 C102.52672,57.3860317 99.7303224,60.9113138 99.171208,65.1334731 C101.393626,66.0266537 105.354501,67.6592437 107.072312,68.6211305 C109.525148,69.9936185 112.511497,70.733028 114.217745,70.2054626 C115.923994,69.6770792 117.630243,64.0791602 117.09673,61.7562364 C116.564044,59.4324948 113.816372,57.3925751 110.378273,56.4748566" id="Fill-62" fill="url(#linearGradient-3)"></path>
                <path d="M110.378273,56.4748566 C109.125427,56.1403229 107.683457,55.9243892 106.353805,55.783705 C102.52672,57.3860317 99.7303224,60.9113138 99.171208,65.1334731 C101.393626,66.0266537 105.354501,67.6592437 107.072312,68.6211305 C109.525148,69.9936185 112.511497,70.733028 114.217745,70.2054626 C115.923994,69.6770792 117.630243,64.0791602 117.09673,61.7562364 C116.564044,59.4324948 113.816372,57.3925751 110.378273,56.4748566 Z" id="Stroke-64" stroke="#B5BBC7"></path>
                <g id="Group-69" transform="translate(105.537313, 99.605500)">
                    <path d="M1.16467861,1.47137358 L8.24817114,1.47137358" id="Fill-66" fill="#FFFFFF"></path>
                    <path d="M0.962686567,1.47137358 L6.96268657,1.47137358" id="Stroke-68" stroke="#B5BBC7" stroke-linecap="round"></path>
                </g>
                <g id="Group-73" transform="translate(0.000000, 107.148947)" stroke="#B5BBC7" stroke-linecap="round">
                    <path d="M0.302599005,29.1672522 C0.302599005,29.1672522 27.143395,0.539670805 84.9543403,0.539670805 C142.765286,0.539670805 165.476728,29.1672522 165.476728,29.1672522" id="Stroke-72"></path>
                </g>
                <path d="M27.8251512,54.368521 C27.8251512,54.368521 22.898007,37.4528921 35.5437383,28.9946687 C48.1894697,20.5372633 60.0142856,24.9287343 63.9561662,28.0188772 C67.8972209,31.1090201 71.6747532,37.4528921 71.6747532,37.4528921 L27.8251512,54.368521 Z" id="Fill-74" fill="#FFFFFF"></path>
                <path d="M27.8251512,54.368521 C27.8251512,54.368521 22.898007,37.4528921 35.5437383,28.9946687 C48.1894697,20.5372633 60.0142856,24.9287343 63.9561662,28.0188772 C67.8972209,31.1090201 71.6747532,37.4528921 71.6747532,37.4528921 L27.8251512,54.368521 Z" id="Stroke-76" stroke="#B5BBC7"></path>
                <path d="M87.2599234,39.679709 C89.3617642,45.2964405 75.4400627,55.5851932 56.1650677,62.6611134 C36.8892468,69.7362156 19.560003,70.9189437 17.4581622,65.3022123 C15.3554955,59.6846629 29.277197,49.3959101 48.5530179,42.3208079 C67.8280129,35.2457056 85.1580826,34.0629775 87.2599234,39.679709" id="Fill-78" fill="#FFFFFF"></path>
                <path d="M87.2599234,39.679709 C89.3617642,45.2964405 75.4400627,55.5851932 56.1650677,62.6611134 C36.8892468,69.7362156 19.560003,70.9189437 17.4581622,65.3022123 C15.3554955,59.6846629 29.277197,49.3959101 48.5530179,42.3208079 C67.8280129,35.2457056 85.1580826,34.0629775 87.2599234,39.679709 Z" id="Stroke-80" stroke="#B5BBC7"></path>
                <path d="M76.6925781,54.3226351 C78.0313144,58.5047158 70.1525085,64.7111754 59.0932746,68.18411 C48.0348667,71.6562266 37.9840209,71.0812212 36.6452846,66.8983226 C35.3065483,62.7162419 43.1853542,56.5097823 54.2445881,53.0376656 C65.302996,49.5647311 75.3538418,50.1397365 76.6925781,54.3226351" id="Fill-82" fill="#FFFFFF"></path>
                <path d="M53.2583333,107.827012 L47.0333333,65.3559503 C46.5722222,62.6158818 49.5694444,60.3324914 56.025,58.5057791 C62.4805556,56.6790667 66.1694444,56.9074058 67.0916667,59.1907962 L91.9916667,101.661858 L53.2583333,107.827012 Z" id="Path-9" fill="url(#linearGradient-4)"></path>
                <path d="M47.9457842,70.3780152 C41.9492745,70.7805672 37.5041964,69.5820036 36.6452846,66.8983226 C35.3065483,62.7162419 43.1853542,56.5097823 54.2445881,53.0376656 C65.302996,49.5647311 75.3538418,50.1397365 76.6925781,54.3226351 C77.5395282,56.9684239 74.6972063,60.4244595 69.6942964,63.4859725" id="Stroke-84" stroke="#B5BBC7"></path>
                <path d="M40.581797,26.2525554 C40.581797,26.2525554 37.9613095,17.6242024 40.581797,13.6196127 C43.2022846,9.61502306 48.4597771,5.41004033 48.4597771,5.41004033" id="Stroke-90" stroke="#B5BBC7"></path>
                <path d="M54.8283134,3.55734505 C54.8283134,5.5203792 53.2211692,7.1112548 51.2399055,7.1112548 C49.2578159,7.1112548 47.6506716,5.5203792 47.6506716,3.55734505 C47.6506716,1.5943109 49.2578159,0.00261737887 51.2399055,0.00261737887 C53.2211692,0.00261737887 54.8283134,1.5943109 54.8283134,3.55734505" id="Fill-92" fill="#CCE8FF"></path>
                <path d="M54.8283134,3.55734505 C54.8283134,5.5203792 53.2211692,7.1112548 51.2399055,7.1112548 C49.2578159,7.1112548 47.6506716,5.5203792 47.6506716,3.55734505 C47.6506716,1.5943109 49.2578159,0.00261737887 51.2399055,0.00261737887 C53.2211692,0.00261737887 54.8283134,1.5943109 54.8283134,3.55734505 Z" id="Stroke-94" stroke="#B5BBC7"></path>
                <path d="M30.9764259,63.1009966 C30.9764259,63.8911179 29.6938488,64.5323757 28.1123065,64.5323757 C26.5307642,64.5323757 25.2481871,63.8911179 25.2481871,63.1009966 C25.2481871,62.3100575 26.5307642,61.6696176 28.1123065,61.6696176 C29.6938488,61.6696176 30.9764259,62.3100575 30.9764259,63.1009966 Z" id="Stroke-98" stroke="#B5BBC7" fill="#CCE8FF"></path>
                <path d="M40.066206,54.368521 C40.066206,55.1586422 38.7836289,55.7999001 37.2020866,55.7999001 C35.6205443,55.7999001 34.3379672,55.1586422 34.3379672,54.368521 C34.3379672,53.5775818 35.6205443,52.9371419 37.2020866,52.9371419 C38.7836289,52.9371419 40.066206,53.5775818 40.066206,54.368521" id="Fill-100" stroke="#B5BBC7" fill="#CCE8FF"></path>
                <path d="M55.2229144,47.4792527 C55.2229144,48.2693739 53.9403373,48.9106317 52.358795,48.9106317 C50.7772527,48.9106317 49.4946756,48.2693739 49.4946756,47.4792527 C49.4946756,46.6891314 50.7772527,46.0478736 52.358795,46.0478736 C53.9403373,46.0478736 55.2229144,46.6891314 55.2229144,47.4792527" id="Fill-104" stroke="#B5BBC7" fill="#CCE8FF"></path>
                <path d="M69.6372478,43.7358283 C69.6372478,44.5267675 68.3546706,45.1672074 66.7731284,45.1672074 C65.1915861,45.1672074 63.909009,44.5267675 63.909009,43.7358283 C63.909009,42.9457071 65.1915861,42.3044493 66.7731284,42.3044493 C68.3546706,42.3044493 69.6372478,42.9457071 69.6372478,43.7358283" id="Fill-108" fill="url(#linearGradient-5)"></path>
                <path d="M69.6372478,43.7358283 C69.6372478,44.5267675 68.3546706,45.1672074 66.7731284,45.1672074 C65.1915861,45.1672074 63.909009,44.5267675 63.909009,43.7358283 C63.909009,42.9457071 65.1915861,42.3044493 66.7731284,42.3044493 C68.3546706,42.3044493 69.6372478,42.9457071 69.6372478,43.7358283 Z" id="Stroke-110" stroke="#B5BBC7" fill="#CCE8FF"></path>
                <path d="M82.0560299,44.1863447 C81.9296716,44.9666507 80.5603781,45.3977003 78.9986567,45.1490493 C77.4369353,44.9003983 76.2741095,44.0661088 76.4004677,43.2858027 C76.5276517,42.5054967 77.8961194,42.0736292 79.4578408,42.3230981 C81.0195622,42.5717491 82.1823881,43.4052207 82.0560299,44.1863447" id="Fill-112" stroke="#B5BBC7" fill="#CCE8FF"></path>
                <path d="M94.2837881,71.4260609 L95.6803353,70.3701121" id="Stroke-116" stroke="#B5BBC7" stroke-linecap="round"></path>
            </g>
        </g>
        <path d="M47.0458716,82 C46.587156,79.5757576 49.5688073,77.3939394 55.9908257,75.4545455 C62.412844,73.5151515 66.0825688,73.5151515 67,75.4545455" id="Path-12" stroke="#D2DADF" stroke-linecap="round"></path>
        <text id="页面出错" font-family="PingFangSC-Regular, PingFang SC" font-size="14" font-weight="normal" fill="#A2A7B8">
            <tspan x="55" y="186">页面出错</tspan>
        </text>
    </g>
</svg>