<?xml version="1.0" encoding="UTF-8"?>
<svg width="64px" height="64px" viewBox="0 0 64 64" version="1.1" xmlns="http://www.w3.org/2000/svg" xmlns:xlink="http://www.w3.org/1999/xlink">
    <!-- Generator: Sketch 51.1 (57501) - http://www.bohemiancoding.com/sketch -->
    <title>64/Notice/Yes</title>
    <desc>Created with Sketch.</desc>
    <defs></defs>
    <g id="64/Notice/Yes" stroke="none" stroke-width="1" fill="none" fill-rule="evenodd">
        <path d="M7.80654975,44 L22.9985376,44 C25.5057697,45.8837315 28.6225256,47 32,47 C35.3774744,47 38.4942303,45.8837315 41.0014624,44 L56.1934502,44 C51.7753318,52.8903119 42.6011629,59 32,59 C21.3988371,59 12.2246682,52.8903119 7.80656004,44.0000022 Z M7.80656004,19.9999978 C12.2246682,11.1096881 21.3988371,5 32,5 C42.6011629,5 51.7753318,11.1096881 56.19344,19.9999978 L41.0014624,20 C38.4942303,18.1162685 35.3774744,17 32,17 C28.6225256,17 25.5057697,18.1162685 22.9985376,20 L7.80654975,20 Z M24.7848268,44 L39.2151732,44 C37.1080876,45.2696397 34.6393362,46 32,46 C29.3606638,46 26.8919124,45.2696397 24.7848268,44 Z M24.7848268,20 C26.8919124,18.7303603 29.3606638,18 32,18 C34.6393362,18 37.1080876,18.7303603 39.2151732,20 L24.7848268,20 Z M32,12.73158 L33.854102,13.7063391 L33.5,11.6417662 L35,10.1796276 L32.927051,9.87841046 L32,8 L31.072949,9.87841046 L29,10.1796276 L30.5,11.6417662 L30.145898,13.7063391 L32,12.73158 Z M43.3256931,16.4115208 L44.2527441,18.2899312 L45.1797951,16.4115208 L47.2527441,16.1103036 L45.7527441,14.648165 L46.1068461,12.5835921 L44.2527441,13.5583512 L42.3986421,12.5835921 L42.7527441,14.648165 L41.2527441,16.1103036 L43.3256931,16.4115208 Z M43.3256931,47.5884792 L41.2527441,47.8896964 L42.7527441,49.351835 L42.3986421,51.4164079 L44.2527441,50.4416488 L46.1068461,51.4164079 L45.7527441,49.351835 L47.2527441,47.8896964 L45.1797951,47.5884792 L44.2527441,45.7100688 L43.3256931,47.5884792 Z M32,51.26842 L30.145898,50.2936609 L30.5,52.3582338 L29,53.8203724 L31.072949,54.1215895 L32,56 L32.927051,54.1215895 L35,53.8203724 L33.5,52.3582338 L33.854102,50.2936609 L32,51.26842 Z M20.6743069,47.5884792 L19.7472559,45.7100688 L18.8202049,47.5884792 L16.7472559,47.8896964 L18.2472559,49.351835 L17.8931539,51.4164079 L19.7472559,50.4416488 L21.6013579,51.4164079 L21.2472559,49.351835 L22.7472559,47.8896964 L20.6743069,47.5884792 Z M20.6743069,16.4115208 L22.7472559,16.1103036 L21.2472559,14.648165 L21.6013579,12.5835921 L19.7472559,13.5583512 L17.8931539,12.5835921 L18.2472559,14.648165 L16.7472559,16.1103036 L18.8202049,16.4115208 L19.7472559,18.2899312 L20.6743069,16.4115208 Z" id="Oval-20" fill="#CAD8F4"></path>
        <rect id="Rectangle" fill="#ABBEE5" x="0" y="21" width="64" height="22" rx="2"></rect>
        <text id="有-效" font-family="PingFang-SC-Regular, PingFang SC" font-size="12" font-weight="normal" fill="#FFFFFF">
            <tspan x="8.012" y="36">有      效</tspan>
        </text>
        <g id="16/Bar/Yes&amp;No_Yes_Light" transform="translate(24.000000, 24.000000)" fill="#FFFFFF">
            <path d="M3,1 L10.1715729,1 C10.7020059,1 11.2107137,1.21071368 11.5857864,1.58578644 L13.4142136,3.41421356 C13.7892863,3.78928632 14,4.29799415 14,4.82842712 L14,14 C14,14.5522847 13.5522847,15 13,15 L3,15 C2.44771525,15 2,14.5522847 2,14 L2,2 C2,1.44771525 2.44771525,1 3,1 Z M7,9 L4.5,7 L4,7.5 L6.5,11 L7.5,11 L12,5.5 L11.5,5 L7,9 Z" id="Rectangle-44"></path>
        </g>
    </g>
</svg>