<?xml version="1.0" encoding="UTF-8"?>
<svg width="104px" height="128px" viewBox="0 0 104 128" version="1.1" xmlns="http://www.w3.org/2000/svg" xmlns:xlink="http://www.w3.org/1999/xlink">
    <!-- Generator: Sketch 52.6 (67491) - http://www.bohemiancoding.com/sketch -->
    <title>Person</title>
    <desc>Created with Sketch.</desc>
    <defs>
        <rect id="path-1" x="0" y="0" width="104" height="128" rx="3"></rect>
    </defs>
    <g id="Symbols" stroke="none" stroke-width="1" fill="none" fill-rule="evenodd">
        <g id="Card/Library/Skid_2" transform="translate(-8.000000, -8.000000)">
            <g id="Person" transform="translate(8.000000, 8.000000)">
                <mask id="mask-2" fill="white">
                    <use xlink:href="#path-1"></use>
                </mask>
                <use id="BG" fill="#EAEDF1" xlink:href="#path-1"></use>
                <path d="M116,128.559795 C114.934356,118.509576 109.067236,105.169367 95.386106,98.5310666 C87.4838251,94.6967554 78.8220306,92.5087087 71.5651082,88.7678908 C69.1417279,87.4196101 66.7227538,85.7717115 65.7578078,83.2249592 C65.2731318,79.7837592 65.4361592,76.3425592 65.4361592,72.896953 C66.7227538,72.0465669 67.6392321,70.75116 68.3926831,69.5042206 C69.9524588,66.8561269 71.1333059,63.9128214 71.5651082,60.8681746 C72.7459553,60.669898 73.7109013,60.0177884 74.4158846,59.1189346 C75.5923256,57.4269746 76.0814078,55.3781167 76.2929028,53.4306002 C76.5616777,51.6813602 75.7068854,49.8351851 74.1999835,48.7909285 C76.1871553,43.0497203 77.4781561,37.061768 76.7775789,31.0209418 C76.4030565,27.4255267 75.001902,23.781644 71.9969105,21.336233 C69.8423051,19.5385255 67.1545561,18.6440778 64.4139333,18.2915862 C63.7177622,17.4456061 62.9070314,16.59522 61.8363379,16.0444517 C59.0384352,14.4978945 55.6545151,14.0484676 52.3763425,14 C46.6219159,14.1013414 40.6559943,15.0001951 35.8753259,18.0933096 C33.4563518,19.6398668 31.5749275,21.7371923 30.442548,24.1826033 C28.8871784,27.0774412 28.239475,30.271897 28.0808537,33.5148205 C27.8649526,38.6567928 28.9400522,43.8472327 30.2839267,48.8393961 C28.8871784,49.8880588 28.1337275,51.4830837 28.1866012,53.1794499 C28.3496286,54.8317546 28.6712773,56.4267794 29.4247282,57.9733367 C30.0107457,59.3700849 31.2532788,60.6170242 32.9672696,60.9210483 C33.3990719,63.7630125 34.4741715,66.5080414 35.9810734,69.0503876 C36.8402719,70.451542 37.9462145,71.9011641 39.2328091,72.896953 C39.3209321,74.5448516 39.3958365,79.7837592 38.9111605,83.2249592 C37.9418084,85.7717115 35.5228342,87.4196101 33.1082663,88.7678908 C24.8751559,92.6961095 20.0343715,92.8840804 10.0812099,97.579777 C-4.40827361,104.415617 -8.54862721,114.48357 -12,128.559795 C2.72080658,128.559795 45.3874733,128.559795 116,128.559795 Z" id="Path" fill="#B5BBC7" mask="url(#mask-2)"></path>
            </g>
        </g>
    </g>
</svg>