<?xml version="1.0" encoding="UTF-8"?>
<svg width="136px" height="38px" viewBox="0 0 136 38" version="1.1" xmlns="http://www.w3.org/2000/svg" xmlns:xlink="http://www.w3.org/1999/xlink">
    <!-- Generator: Sketch 52.3 (67297) - http://www.bohemiancoding.com/sketch -->
    <title>Logo_CloudEye</title>
    <desc>Created with Sketch.</desc>
    <g id="0_Login" stroke="none" stroke-width="1" fill="none" fill-rule="evenodd">
        <g id="1_Login" transform="translate(-976.000000, -932.000000)" fill="#A7AEBC">
            <g id="Down" transform="translate(808.000000, 929.000000)">
                <g id="Logo">
                    <path d="M192.79683,40.7544999 L198.98382,37.0660962 L211.079633,37.0660962 C215.535839,37.0660962 219.161232,33.4407028 219.161232,28.9848038 C219.161232,24.5282901 215.535839,20.903204 211.079633,20.903204 C210.903511,20.903204 210.714481,20.9108882 210.483955,20.9277934 L208.402159,21.0805548 L208.506971,18.995992 C208.517114,18.7968182 208.522339,18.5961075 208.522339,18.3944748 C208.522339,11.9397684 203.270975,6.68840366 196.816268,6.68840366 C192.01243,6.68840366 187.748943,9.56996902 185.954534,14.0298638 L185.42617,15.3435502 L184.020581,15.1723468 C183.550925,15.1148692 183.111697,15.0872062 182.678002,15.0872062 C176.618263,15.0872062 171.688404,20.017065 171.688404,26.0768049 C171.688404,32.1362374 176.618263,37.0660962 182.678002,37.0660962 C185.01645,37.0660962 187.839616,36.7464346 189.75359,36.2706305 C197.008065,34.4670011 201.199014,30.375332 201.199014,27.6413028 C201.199014,25.426109 193.504697,20.8156044 190.481742,20.8156044 C186.529925,20.8156044 185.511926,26.0248599 184.913482,29.9164331 C184.374361,27.1024885 183.989845,19.6181027 188.014508,17.3826227 C193.459206,14.3587464 205.749889,21.1749164 205.749889,26.6835473 C205.749889,31.2338079 195.151876,40.7544999 182.678002,40.7544999 C174.584415,40.7544999 168,34.1700846 168,26.0768049 C168,17.9832178 174.584415,11.3988025 182.678002,11.3988025 C182.816932,11.3988025 182.957399,11.4009541 183.099095,11.4052572 C185.712636,6.25747517 190.959083,3 196.816268,3 C204.925224,3 211.589554,9.30133029 212.169556,17.2645938 C218.150303,17.8166249 222.849636,22.8623611 222.849636,28.9848038 C222.849636,35.4745501 217.569686,40.7544999 211.079633,40.7544999 L192.79683,40.7544999 Z M228.315761,15.4096899 L239.491423,15.4096899 L239.491423,16.5084208 L228.315761,16.5084208 L228.315761,15.4096899 Z M226.80893,19.7889173 L240.888381,19.7889173 L240.888381,20.9190405 L233.354227,20.9190405 C231.91018,23.8856139 230.638792,25.9418103 229.571453,27.1033258 C232.396761,26.9463642 235.206373,26.6795296 238.015985,26.3028218 C237.450923,25.2982679 236.823077,24.2623216 236.132446,23.1949831 L237.042823,22.6299215 C238.48687,24.7959909 239.601297,26.6952257 240.386104,28.2962336 L239.38155,29.0025606 C239.130412,28.4531951 238.863577,27.9038297 238.56535,27.3387681 C235.379031,27.7468681 231.91018,28.0607913 228.143103,28.3119297 L227.844876,27.1661104 C227.970445,27.1347181 228.048926,27.0876296 228.111711,27.0562373 C229.116265,26.3028218 230.450438,24.2623216 232.098534,20.9190405 L226.80893,20.9190405 L226.80893,19.7889173 Z M251.702377,21.7823291 L250.007192,21.7823291 L250.007192,27.2131989 C250.870481,26.9777565 251.718073,26.6795296 252.565665,26.3028218 L252.816804,27.2916796 C251.749465,27.7468681 250.415292,28.1863605 248.798588,28.6101567 L248.563146,27.7154758 C248.782892,27.6212989 248.908461,27.4643373 248.908461,27.2602873 L248.908461,15.1271591 L255.48515,15.1271591 L255.48515,21.7823291 L252.722627,21.7823291 C252.895285,22.7554907 253.193512,23.6344754 253.633004,24.4349793 C254.355027,24.0268793 255.045658,23.4147292 255.704896,22.582833 L256.395527,23.2734638 C255.736289,24.1367524 254.982873,24.7959909 254.135281,25.2511794 C254.825912,26.2243411 255.704896,27.0562373 256.787931,27.7468681 L256.160085,28.7357259 C253.695789,27.0562373 252.204654,24.7332063 251.702377,21.7823291 Z M247.495807,15.3469053 L247.495807,27.8253489 L246.397076,27.8253489 L246.397076,26.6324411 L244.026957,26.6324411 L244.026957,28.1863605 L242.943922,28.1863605 L242.943922,15.3469053 L247.495807,15.3469053 Z M244.026957,25.5651025 L246.397076,25.5651025 L246.397076,23.1949831 L244.026957,23.1949831 L244.026957,25.5651025 Z M244.026957,22.174733 L246.397076,22.174733 L246.397076,19.8046135 L244.026957,19.8046135 L244.026957,22.174733 Z M244.026957,18.7686672 L246.397076,18.7686672 L246.397076,16.4142439 L244.026957,16.4142439 L244.026957,18.7686672 Z M250.007192,19.0041095 L250.007192,20.7777751 L254.386419,20.7777751 L254.386419,19.0041095 L250.007192,19.0041095 Z M254.386419,17.9995556 L254.386419,16.1631054 L250.007192,16.1631054 L250.007192,17.9995556 L254.386419,17.9995556 Z M258.388283,18.6274018 L264.494088,18.6274018 C264.619657,17.7170248 264.682442,16.7752555 264.698138,15.7863977 L264.698138,14.5150091 L265.859653,14.5150091 L265.859653,15.5352592 C265.859653,16.6339901 265.781173,17.6542402 265.655603,18.6274018 L272.169508,18.6274018 L272.169508,19.7261327 L265.985223,19.7261327 C267.083954,23.2734638 269.250023,26.0045949 272.467735,27.9195259 L271.761408,28.8299029 C268.606481,26.8835796 266.440411,24.1524485 265.2632,20.6051174 C264.290038,24.4192832 262.123968,27.1975027 258.780687,28.939776 L258.07436,27.9980066 C261.417641,26.3499103 263.489534,23.5873869 264.305734,19.7261327 L258.388283,19.7261327 L258.388283,18.6274018 Z M276.155676,22.378783 C275.559222,23.0066292 274.884287,23.6344754 274.162264,24.2623216 L273.816949,23.08511 C275.920233,21.2800521 277.332887,19.5220827 278.039214,17.7955056 L274.17796,17.7955056 L274.17796,16.7124709 L276.62656,16.7124709 C276.359726,16.0061439 276.045803,15.3312092 275.684791,14.6719706 L276.767826,14.3580475 C277.144534,15.1428553 277.442761,15.8805746 277.662507,16.5398131 L277.207318,16.7124709 L279.169338,16.7124709 L279.169338,17.6699363 C278.761238,18.8157557 278.133391,19.9458789 277.285799,21.0603059 C278.149088,21.5939752 278.933895,22.2061253 279.624526,22.88106 L278.980984,23.8542216 C278.415922,23.2263754 277.835164,22.6927061 277.270103,22.2532137 L277.270103,28.8926875 L276.155676,28.8926875 L276.155676,22.378783 Z M287.001719,15.1271591 L287.001719,23.8071331 L285.8559,23.8071331 L285.8559,16.2101939 L281.44528,16.2101939 L281.44528,23.8071331 L280.330853,23.8071331 L280.330853,15.1271591 L287.001719,15.1271591 Z M286.6721,28.641549 L285.165269,28.641549 C284.30198,28.641549 283.878184,28.1863605 283.878184,27.2759835 L283.878184,23.7757408 L284.976915,23.7757408 L284.976915,27.0405412 C284.976915,27.4172489 285.149573,27.6056027 285.494888,27.6056027 L286.46805,27.6056027 C286.703492,27.6056027 286.860454,27.5114258 286.954631,27.3544643 C287.0802,27.1504142 287.174377,26.5539603 287.221465,25.5807987 L288.273108,25.910418 C288.178931,27.1975027 288.006273,27.9980066 287.755135,28.2805374 C287.519692,28.5159798 287.158681,28.641549 286.6721,28.641549 Z M283.07768,17.3246209 L284.176411,17.3246209 L284.176411,20.3225866 C284.113627,22.6770099 283.705527,24.5448524 282.952111,25.9418103 C282.198696,27.2445912 280.990092,28.2648413 279.294907,28.9868644 L278.682757,27.9980066 C280.330853,27.2759835 281.476673,26.3342142 282.120215,25.1413063 C282.716669,23.9170062 283.046288,22.3003022 283.07768,20.3225866 L283.07768,17.3246209 Z M291.348899,15.111463 L302.179246,15.111463 L302.179246,21.3428367 L299.165584,21.3428367 C300.20153,22.5514407 301.818234,23.5089062 304,24.2152332 L303.513419,25.204091 C301.990892,24.6390294 300.7352,23.9640947 299.762038,23.1949831 L299.762038,28.9240798 L298.631915,28.9240798 L298.631915,23.0223254 L299.557988,23.0223254 C298.898749,22.4886561 298.380776,21.9235945 297.988372,21.3428367 L295.461291,21.3428367 C294.362561,22.8496676 292.557503,24.0896639 290.046118,25.0785217 L289.449664,24.0896639 C291.631429,23.3676408 293.248134,22.4572638 294.28408,21.3428367 L291.348899,21.3428367 L291.348899,15.111463 Z M301.096211,20.3382828 L301.096211,18.6744903 L297.282045,18.6744903 L297.282045,20.3382828 L301.096211,20.3382828 Z M296.183315,20.3382828 L296.183315,18.6744903 L292.431933,18.6744903 L292.431933,20.3382828 L296.183315,20.3382828 Z M292.431933,17.732721 L296.183315,17.732721 L296.183315,16.1160169 L292.431933,16.1160169 L292.431933,17.732721 Z M297.282045,16.1160169 L297.282045,17.732721 L301.096211,17.732721 L301.096211,16.1160169 L297.282045,16.1160169 Z M293.95446,23.0066292 L295.084584,23.0066292 C295.084584,24.2466255 294.89623,25.2982679 294.535218,26.1615564 C294.064334,27.2916796 292.981299,28.2177528 291.317506,28.939776 L290.564091,28.0293989 C291.976745,27.4486412 292.93421,26.726618 293.405095,25.8476333 C293.75041,25.0942179 293.938764,24.1524485 293.95446,23.0066292 Z" id="Logo_CloudEye"></path>
                </g>
            </g>
        </g>
    </g>
</svg>