<?xml version="1.0" encoding="UTF-8"?>
<svg width="24px" height="32px" viewBox="0 0 24 32" version="1.1" xmlns="http://www.w3.org/2000/svg" xmlns:xlink="http://www.w3.org/1999/xlink">
    <!-- Generator: Sketch 52.6 (67491) - http://www.bohemiancoding.com/sketch -->
    <title>Btn/Point/Place_S_Red</title>
    <desc>Created with Sketch.</desc>
    <defs>
        <linearGradient x1="50%" y1="0%" x2="50%" y2="94.6679401%" id="linearGradient-1">
            <stop stop-color="#FF5F57" offset="0%"></stop>
            <stop stop-color="#FF4343" offset="100%"></stop>
        </linearGradient>
    </defs>
    <g id="Btn/Point/Place_S_Red" stroke="none" stroke-width="1" fill="none" fill-rule="evenodd">
        <path d="M0.500315,12.08606 L0.5002472,12.0869287 C0.521936687,15.8931382 1.66416359,18.0728863 4.79839614,21.6193031 C4.91605183,21.7524317 5.3806765,22.2759521 5.49461677,22.4048471 C6.33123428,23.3512706 6.87127572,23.9950343 7.4,24.7 C7.93304454,25.4107261 8.19367717,26.1020124 8.66222301,27.74241 C8.66521371,27.7528806 8.66521371,27.7528806 8.66820323,27.7633469 C9.4879241,30.6331398 10.1089337,31.5 12.0001108,31.5 C13.8912725,31.5 14.5122156,30.633182 15.3318525,27.7633614 C15.3348285,27.7529415 15.3348285,27.7529415 15.3378056,27.7425172 C15.806319,26.1020498 16.0669381,25.4107492 16.6,24.7 C17.1287243,23.9950343 17.6687657,23.3512706 18.5053832,22.4048471 C18.6193235,22.2759521 19.0839482,21.7524317 19.2016039,21.6193031 C22.3565005,18.0495047 23.5,15.8528925 23.5,12 C23.5,5.64872538 18.3512746,0.5 12,0.5 C5.64872538,0.5 0.5,5.64872538 0.5,12 C0.500052563,12.0430557 0.500052563,12.0430557 0.500315,12.08606 Z" id="Oval-2" stroke="#FFFFFF" fill="url(#linearGradient-1)"></path>
        
    </g>
</svg>