<?xml version="1.0" encoding="UTF-8"?>
<svg width="32px" height="42px" viewBox="0 0 32 42" version="1.1" xmlns="http://www.w3.org/2000/svg" xmlns:xlink="http://www.w3.org/1999/xlink">
    <!-- Generator: Sketch 53.1 (72631) - https://sketchapp.com -->
    <title>Pin/Place_icon_OnLine_Hover</title>
    <desc>Created with Sketch.</desc>
    <defs>
        <linearGradient x1="50%" y1="0%" x2="50%" y2="99.6212809%" id="linearGradient-1">
            <stop stop-color="#FFAA11" offset="0%"></stop>
            <stop stop-color="#FF8800" offset="99.9458092%"></stop>
        </linearGradient>
    </defs>
    <g id="Pin/Place_icon_OnLine_Hover" stroke="none" stroke-width="1" fill="none" fill-rule="evenodd">
        <path d="M1.00434423,15.6354044 C1.19794088,7.51958091 7.83760558,1 16,1 C24.2842712,1 31,7.71572875 31,16 C30.9998244,16.0897703 30.9998244,16.0897703 30.9989602,16.1782909 C30.950438,20.7384914 29.4952742,23.5356184 25.6561981,28.2624877 C25.6757749,28.2383837 25.2318977,28.7844158 25.1092526,28.9357569 C24.5496714,29.6262667 24.1663135,30.111582 23.8,30.6 C23.1834823,31.4220235 22.6648739,32.3836815 22.1216089,33.6454584 C21.9722216,33.9924223 21.8251655,34.3508267 21.6378581,34.8202592 C21.6374881,34.8211867 21.2753944,35.7339452 21.1721398,35.9896234 C19.7447263,39.5241711 18.5293378,41 16,41 C13.4706622,41 12.2552737,39.5241711 10.8278602,35.9896234 C10.7246056,35.7339452 10.3625119,34.8211867 10.3621419,34.8202592 C10.1748345,34.3508267 10.0277784,33.9924223 9.87839109,33.6454584 C9.33512606,32.3836815 8.81651766,31.4220235 8.2,30.6 C7.8336798,30.1115731 7.45031455,29.626249 6.89072268,28.9357269 C6.76807506,28.7843829 6.32418912,28.2383409 6.34376549,28.2624443 C2.50470807,23.5356048 1.04953566,20.7385012 1.00094829,16.1783675 L0.995229017,15.6415888 L1.00434423,15.6354044 Z" stroke="#EE6600" stroke-width="2" fill="url(#linearGradient-1)"></path>
    </g>
</svg>