<?xml version="1.0" encoding="UTF-8"?>
<svg width="16px" height="16px" viewBox="0 0 16 16" version="1.1" xmlns="http://www.w3.org/2000/svg" xmlns:xlink="http://www.w3.org/1999/xlink">
    <!-- Generator: Sketch 50.2 (55047) - http://www.bohemiancoding.com/sketch -->
    <title>16/Video/Download</title>
    <desc>Created with Sketch.</desc>
    <defs></defs>
    <g id="16/Video/Download" stroke="none" stroke-width="1" fill="none" fill-rule="evenodd">
        <path d="M1.5,8 L5,8 L7.29289322,10.2928932 C7.68341751,10.6834175 8.31658249,10.6834175 8.70710678,10.2928932 L11,8 L14.5,8 C14.7761424,8 15,8.22385763 15,8.5 L15,13.5 C15,13.7761424 14.7761424,14 14.5,14 L1.5,14 C1.22385763,14 1,13.7761424 1,13.5 L1,8.5 C1,8.22385763 1.22385763,8 1.5,8 Z M13,13 C13.5522847,13 14,12.5522847 14,12 C14,11.4477153 13.5522847,11 13,11 C12.4477153,11 12,11.4477153 12,12 C12,12.5522847 12.4477153,13 13,13 Z M10,13 C10.5522847,13 11,12.5522847 11,12 C11,11.4477153 10.5522847,11 10,11 C9.44771525,11 9,11.4477153 9,12 C9,12.5522847 9.44771525,13 10,13 Z M8.35355339,9.64644661 C8.15829124,9.84170876 7.84170876,9.84170876 7.64644661,9.64644661 L3.85355339,5.85355339 C3.7597852,5.7597852 3.70710678,5.63260824 3.70710678,5.5 C3.70710678,5.22385763 3.93096441,5 4.20710678,5 L5.5,5 C5.77614237,5 6,4.77614237 6,4.5 L6,1.5 C6,1.22385763 6.22385763,1 6.5,1 L9.5,1 C9.77614237,1 10,1.22385763 10,1.5 L10,4.5 C10,4.77614237 10.2238576,5 10.5,5 L11.7928932,5 C11.9255015,5 12.0526784,5.05267842 12.1464466,5.14644661 C12.3417088,5.34170876 12.3417088,5.65829124 12.1464466,5.85355339 L8.35355339,9.64644661 Z" id="Rectangle-20" fill="#FFFFFF"></path>
    </g>
</svg>