<?xml version="1.0" encoding="UTF-8"?>
<svg width="16px" height="16px" viewBox="0 0 16 16" version="1.1" xmlns="http://www.w3.org/2000/svg" xmlns:xlink="http://www.w3.org/1999/xlink">
    <!-- Generator: Sketch 50.2 (55047) - http://www.bohemiancoding.com/sketch -->
    <title>16/Video/Exit</title>
    <desc>Created with Sketch.</desc>
    <defs></defs>
    <g id="16/Video/Exit" stroke="none" stroke-width="1" fill="none" fill-rule="evenodd">
        <path d="M5,5 L11,5 C11.5522847,5 12,5.44771525 12,6 L12,10 C12,10.5522847 11.5522847,11 11,11 L5,11 C4.44771525,11 4,10.5522847 4,10 L4,6 C4,5.44771525 4.44771525,5 5,5 Z M4,3.5 C4,4.5 3.5,5 2.5,5 C1.83333333,5 1,5 0,5 L1.5,3.5 L0.5,2.5 L1.5,1.5 L2.5,2.5 L4,1 C4,2 4,2.83333333 4,3.5 Z M4,12.5 C4,13.1666667 4,14 4,15 L2.5,13.5 L1.5,14.5 L0.5,13.5 L1.5,12.5 L0,11 C1,11 1.83333333,11 2.5,11 C3.5,11 4,11.5 4,12.5 Z M12,3.5 C12,2.83333333 12,2 12,1 L13.5,2.5 L14.5,1.5 L15.5,2.5 L14.5,3.5 L16,5 C15,5 14.1666667,5 13.5,5 C12.5,5 12,4.5 12,3.5 Z M12,12.5 C12,11.5 12.5,11 13.5,11 C14.1666667,11 15,11 16,11 L14.5,12.5 L15.5,13.5 L14.5,14.5 L13.5,13.5 L12,15 C12,14 12,13.1666667 12,12.5 Z" id="Rectangle-9-Copy" fill="#FFFFFF"></path>
    </g>
</svg>