<?xml version="1.0" encoding="UTF-8"?>
<svg width="16px" height="16px" viewBox="0 0 16 16" version="1.1" xmlns="http://www.w3.org/2000/svg" xmlns:xlink="http://www.w3.org/1999/xlink">
    <!-- Generator: Sketch 50.2 (55047) - http://www.bohemiancoding.com/sketch -->
    <title>16/Video/Full</title>
    <desc>Created with Sketch.</desc>
    <defs></defs>
    <g id="16/Video/Full" stroke="none" stroke-width="1" fill="none" fill-rule="evenodd">
        <path d="M5,5 L11,5 C11.5522847,5 12,5.44771525 12,6 L12,10 C12,10.5522847 11.5522847,11 11,11 L5,11 C4.44771525,11 4,10.5522847 4,10 L4,6 C4,5.44771525 4.44771525,5 5,5 Z M1,3.5 C1,2.5 1.5,2 2.5,2 C3.16666667,2 4,2 5,2 L3.5,3.5 L4.5,4.5 L3.5,5.5 L2.5,4.5 L1,6 C1,5 1,4.16666667 1,3.5 Z M1,12.5 C1,11.8333333 1,11 1,10 L2.5,11.5 L3.5,10.5 L4.5,11.5 L3.5,12.5 L5,14 C4,14 3.16666667,14 2.5,14 C1.5,14 1,13.5 1,12.5 Z M15,3.5 C15,4.16666667 15,5 15,6 L13.5,4.5 L12.5,5.5 L11.5,4.5 L12.5,3.5 L11,2 C12,2 12.8333333,2 13.5,2 C14.5,2 15,2.5 15,3.5 Z M15,12.5 C15,13.5 14.5,14 13.5,14 C12.8333333,14 12,14 11,14 L12.5,12.5 L11.5,11.5 L12.5,10.5 L13.5,11.5 L15,10 C15,11 15,11.8333333 15,12.5 Z" id="Rectangle-9" fill="#FFFFFF"></path>
    </g>
</svg>