<?xml version="1.0" encoding="UTF-8"?>
<svg width="22px" height="16px" viewBox="0 0 22 16" version="1.1" xmlns="http://www.w3.org/2000/svg" xmlns:xlink="http://www.w3.org/1999/xlink">
    <!-- Generator: Sketch 50.2 (55047) - http://www.bohemiancoding.com/sketch -->
    <title>16px/Video/Cloud</title>
    <desc>Created with Sketch.</desc>
    <defs></defs>
    <g id="16px/Video/Cloud" stroke="none" stroke-width="1" fill="none" fill-rule="evenodd">
        <path d="M14.4733193,10.9157668 C14.3346809,11.7435017 13.6143415,12.3749289 12.7474207,12.3749289 C11.9323374,12.3749289 11.2468298,11.8167563 11.0525382,11.0620511 C11.0341687,11.0620751 11.0157998,11.0620871 10.9974316,11.0620871 C5.56196561,11.0620871 0.0599999987,10.0103437 0.0599999987,7.99960625 C0.0599999987,6.91898801 1.65599002,6.11836801 3.97035056,5.60649621 C3.86360123,5.91624427 3.77960175,6.23386729 3.71572715,6.55936525 C1.93598827,6.99686252 0.93499453,7.54985906 0.93499453,7.99960625 C0.93499453,8.89210067 4.85497003,10.1870926 10.9974316,10.1870926 C11.0158868,10.1870926 11.0343219,10.1870809 11.0527369,10.1870576 C11.2472968,9.43274328 11.932615,8.87495078 12.7474207,8.87495078 C13.5103924,8.87495078 14.1598273,9.36403247 14.3991085,10.045579 C18.5496645,9.68574557 21.0598687,8.71380382 21.0598687,7.99960625 C21.0598687,7.54985906 20.058875,6.99686252 18.2800111,6.55936525 C18.2152615,6.23386729 18.1312621,5.91624427 18.0253877,5.60649621 C20.3388733,6.11836801 21.9348633,6.91898801 21.9348633,7.99960625 C21.9348633,9.57595806 18.5533317,10.5629081 14.4733193,10.9157668 Z M14.8281566,11.315398 C15.6777763,11.2340235 16.529146,11.1176493 17.3446409,10.9697752 C16.2263979,13.3488853 13.815788,15 11.0131805,15 C8.20969799,15 5.79733807,13.3471353 4.67997006,10.9671502 C6.69770744,11.3346479 8.95869331,11.485147 10.7594321,11.4973969 C11.0971799,12.2700171 11.8671751,12.8125137 12.7631695,12.8125137 C13.7265385,12.8125137 14.5367835,12.1825176 14.8281566,11.315398 Z M10.7471832,9.74644533 C7.86320123,9.72982044 5.64946506,9.42969731 4.08934982,9.07619952 C4.03422516,8.72445172 3.99747539,8.36657896 3.99747539,7.99995625 C3.99747539,4.13335542 7.1317058,1 10.9974316,1 C14.8640325,1 17.9973879,4.13335542 17.9973879,7.99995625 C17.9973879,8.36395398 17.9615131,8.71832676 17.9081384,9.06744958 C17.0313939,9.27044831 15.9560256,9.45507216 14.6575338,9.58019637 C14.2847861,8.90295061 13.5734155,8.43745352 12.7474207,8.43745352 C11.8540513,8.43745352 11.0866811,8.97732514 10.7471832,9.74644533 Z" id="Fill-8" fill="#FFFFFF"></path>
    </g>
</svg>