<?xml version="1.0" encoding="UTF-8"?>
<svg width="41px" height="41px" viewBox="0 0 41 41" version="1.1" xmlns="http://www.w3.org/2000/svg" xmlns:xlink="http://www.w3.org/1999/xlink">
    <!-- Generator: Sketch 51 (57462) - http://www.bohemiancoding.com/sketch -->
    <title>LD_BG_Close</title>
    <desc>Created with Sketch.</desc>
    <defs></defs>
    <g id="2_云烟监控" stroke="none" stroke-width="1" fill="none" fill-rule="evenodd">
        <g id="2_Video_2_Now_CloudHide" transform="translate(-10.000000, -1029.000000)">
            <g id="LD" transform="translate(10.000000, 1029.000000)">
                <g id="LD_BG_Close">
                    <path d="M4.54747351e-13,31 L4.54747351e-13,11 L11,0 L18,7 L23,7 L34,18 L34,23 L41,30 L30,41 L10,41 L4.54747351e-13,31 Z M1,11.5 L1,30.5 L10.5,40 L29.5,40 L39.5,30 L33,23.5 L33,18.5 L22.5,8 L17.5,8 L11,1.5 L1,11.5 Z" id="BG" fill-opacity="0.6" fill="#36C6FF"></path>
                    <polygon id="Rectangle-7" fill-opacity="0.8" fill="#365A89" points="1 11.5 11 1.5 17.5 8 22.5 8 33 18.5 33 23.5 39.5 30 29.5 40 10.5 40 1 30.5"></polygon>
                </g>
            </g>
        </g>
    </g>
</svg>