<?xml version="1.0" encoding="UTF-8"?>
<svg width="232px" height="103px" viewBox="0 0 232 103" version="1.1" xmlns="http://www.w3.org/2000/svg" xmlns:xlink="http://www.w3.org/1999/xlink">
    <!-- Generator: Sketch 51 (57462) - http://www.bohemiancoding.com/sketch -->
    <title>LD_BG</title>
    <desc>Created with Sketch.</desc>
    <defs></defs>
    <g id="2_云烟监控" stroke="none" stroke-width="1" fill="none" fill-rule="evenodd">
        <g id="1_监控列表_2_列表" transform="translate(-392.000000, -428.000000)">
            <g id="Video" transform="translate(382.000000, 114.000000)">
                <g id="1" transform="translate(0.000000, 27.000000)">
                    <g id="LD" transform="translate(10.000000, 287.000000)">
                        <g id="LD_BG">
                            <path d="M1.42108547e-14,93 L1.42108547e-14,73 L10,63 L10,41 L21,30 L21,1 L22,-7.10542736e-15 L22,31 L12,41 L12,63 L18,69 L23,69 L34,80 L34,85 L40,91 L62,91 L72,81 L197,81 L206.968372,91 L231.5,91 L229,93 L206.968372,93 L197,103 L72,103 L62,93 L40,93 L30,103 L10,103 L1.42108547e-14,93 Z M14,34 L20,28 L20,30 L14,36 L14,34 Z M14,31 L20,25 L20,27 L14,33 L14,31 Z M14,28 L20,22 L20,24 L14,30 L14,28 Z M14,25 L20,19 L20,21 L14,27 L14,25 Z M14,22 L20,16 L20,18 L14,24 L14,22 Z M14,19 L20,13 L20,15 L14,21 L14,19 Z M207,94 L209,94 L204,99 L202,99 L207,94 Z M210,94 L212,94 L207,99 L205,99 L210,94 Z M213,94 L215,94 L210,99 L208,99 L213,94 Z M216,94 L218,94 L213,99 L211,99 L216,94 Z M219,94 L221,94 L216,99 L214,99 L219,94 Z M24,32 L36,32 L71,67 L71,79 L61,89 L41,89 L36,84 L36,78 L25,67 L19,67 L14,62 L14,42 L24,32 Z M1,73.5 L1,92.5 L10.5,102 L29.5,102 L39.5,92 L33,85.5 L33,80.5 L22.5,70 L17.5,70 L11,63.5 L1,73.5 Z M19.5,66 L25.5,66 L30.5,71 L52,49.5 L35.5,33 L24.5,33 L15,42.5 L15,61.5 L19.5,66 Z M52.5,50 L31,71.5 L37,77.5 L37,83.5 L41.5,88 L60.5,88 L70,78.5 L70,67.5 L52.5,50 Z M72.5,82 L62.5,92 L72.5,102 L196.5,102 L206.5,92 L196.5,82 L72.5,82 Z" id="Line" fill-opacity="0.6" fill="#36C6FF"></path>
                            <path d="M72.5,82 L196.5,82 L206.5,92 L196.5,102 L72.5,102 L62.5,92 L72.5,82 Z M19.5,66 L15,61.5 L15,42.5 L24.5,33 L35.5,33 L52,49.5 L30.5,71 L25.5,66 L19.5,66 Z M52.5,50 L70,67.5 L70,78.5 L60.5,88 L41.5,88 L37,83.5 L37,77.5 L31,71.5 L52.5,50 Z M1,73.5 L11,63.5 L17.5,70 L22.5,70 L33,80.5 L33,85.5 L39.5,92 L29.5,102 L10.5,102 L1,92.5 L1,73.5 Z" id="BG" fill-opacity="0.8" fill="#35497D"></path>
                        </g>
                    </g>
                </g>
            </g>
        </g>
    </g>
</svg>