<?xml version="1.0" encoding="UTF-8"?>
<svg width="16px" height="16px" viewBox="0 0 16 16" version="1.1" xmlns="http://www.w3.org/2000/svg" xmlns:xlink="http://www.w3.org/1999/xlink">
    <!-- Generator: Sketch 50.2 (55047) - http://www.bohemiancoding.com/sketch -->
    <title>16/Bar/Open_White</title>
    <desc>Created with Sketch.</desc>
    <defs>
        <path d="M3,3 C3.55228475,3 4,3.44771525 4,4 L4,12 L12,12 C12.5522847,12 13,12.4477153 13,13 C13,13.5522847 12.5522847,14 12,14 L2,14 L2,4 C2,3.44771525 2.44771525,3 3,3 Z M7,4 C7.55228475,4 8,4.44771525 8,5 L8,8 L11,8 C11.5522847,8 12,8.44771525 12,9 C12,9.55228475 11.5522847,10 11,10 L6,10 L6,5 C6,4.44771525 6.44771525,4 7,4 Z" id="path-1"></path>
        <filter x="-68.2%" y="-68.2%" width="236.4%" height="236.4%" filterUnits="objectBoundingBox" id="filter-2">
            <feOffset dx="0" dy="0" in="SourceAlpha" result="shadowOffsetOuter1"></feOffset>
            <feGaussianBlur stdDeviation="2.5" in="shadowOffsetOuter1" result="shadowBlurOuter1"></feGaussianBlur>
            <feColorMatrix values="0 0 0 0 0.0196078431   0 0 0 0 0.0352941176   0 0 0 0 0.270588235  0 0 0 0.5 0" type="matrix" in="shadowBlurOuter1"></feColorMatrix>
        </filter>
    </defs>
    <g id="16/Bar/Open_White" stroke="none" stroke-width="1" fill="none" fill-rule="evenodd">
        <g id="Rectangle-5" transform="translate(7.500000, 8.500000) scale(-1, -1) translate(-7.500000, -8.500000) ">
            <use fill="black" fill-opacity="1" filter="url(#filter-2)" xlink:href="#path-1"></use>
            <use fill="#FFFFFF" fill-rule="evenodd" xlink:href="#path-1"></use>
        </g>
    </g>
</svg>