<?xml version="1.0" encoding="UTF-8"?>
<svg width="64px" height="64px" viewBox="0 0 64 64" version="1.1" xmlns="http://www.w3.org/2000/svg" xmlns:xlink="http://www.w3.org/1999/xlink">
    <!-- Generator: Sketch 51 (57462) - http://www.bohemiancoding.com/sketch -->
    <title>64/Photo/PlaySource</title>
    <desc>Created with Sketch.</desc>
    <defs></defs>
    <g id="64/Photo/PlaySource" stroke="none" stroke-width="1" fill="none" fill-rule="evenodd" fill-opacity="0.4">
        <path d="M13,14 L51,14 C52.6568542,14 54,15.3431458 54,17 L54,47 C54,48.6568542 52.6568542,50 51,50 L13,50 C11.3431458,50 10,48.6568542 10,47 L10,17 C10,15.3431458 11.3431458,14 13,14 Z M12,18 L12,22 L16,22 L16,18 L12,18 Z M12,24 L12,28 L16,28 L16,24 L12,24 Z M12,30 L12,34 L16,34 L16,30 L12,30 Z M12,36 L12,40 L16,40 L16,36 L12,36 Z M12,42 L12,46 L16,46 L16,42 L12,42 Z M48,18 L48,22 L52,22 L52,18 L48,18 Z M48,24 L48,28 L52,28 L52,24 L48,24 Z M48,30 L48,34 L52,34 L52,30 L48,30 Z M48,36 L48,40 L52,40 L52,36 L48,36 Z M48,42 L48,46 L52,46 L52,42 L48,42 Z M25.4856429,22.8253572 C25.3370849,22.742825 25.1699442,22.6995145 25,22.6995145 C24.4477153,22.6995145 24,23.1472297 24,23.6995145 L24,40.3004855 C24,40.4704298 24.0433105,40.6375705 24.1258427,40.7861285 C24.3940559,41.2689122 25.0028592,41.442856 25.4856429,41.1746428 L39.6397754,33.3112359 C39.8846355,33.1752025 40.0865135,32.9733245 40.2225469,32.7284644 C40.6248666,32.0042888 40.363951,31.0910839 39.6397754,30.6887641 L25.4856429,22.8253572 Z" id="Rectangle-29" fill="#FFFFFF"></path>
    </g>
</svg>