<?xml version="1.0" encoding="UTF-8"?>
<svg width="64px" height="64px" viewBox="0 0 64 64" version="1.1" xmlns="http://www.w3.org/2000/svg" xmlns:xlink="http://www.w3.org/1999/xlink">
    <!-- Generator: Sketch 51 (57462) - http://www.bohemiancoding.com/sketch -->
    <title>64/Photo/RePlay</title>
    <desc>Created with Sketch.</desc>
    <defs></defs>
    <g id="64/Photo/RePlay" stroke="none" stroke-width="1" fill="none" fill-rule="evenodd" fill-opacity="0.4">
        <path d="M19.7818416,18.7818416 L23,22 L13.9999949,22.9999898 L15,14 L18.3666459,17.3666459 C21.9388294,14.0371143 26.7315148,11.9999949 31.9999949,11.9999949 C43.0456899,11.9999949 51.9999949,20.9542999 51.9999949,31.9999949 C51.9999949,43.0456899 43.0456899,51.9999949 31.9999949,51.9999949 C20.9542999,51.9999949 11.9999949,43.0456899 11.9999949,31.9999949 C11.9999949,31.4477102 12.4477102,30.9999949 12.9999949,30.9999949 C13.5522797,30.9999949 13.9999949,31.4477102 13.9999949,31.9999949 C14,41.9411255 22.0588745,50 32,50 C41.9411255,50 50,41.9411255 50,32 C50,22.0588745 41.9411255,14 32,14 C27.2838146,14 22.9912607,15.8137817 19.7818416,18.7818416 Z M28.4961337,24.8549361 L38.7208607,30.6976352 C39.440137,31.10865 39.6900322,32.024932 39.2790173,32.7442082 C39.1461334,32.9767553 38.9534078,33.1694808 38.7208607,33.3023648 L28.4961337,39.1450639 C28.0166162,39.4190737 27.4057616,39.2524769 27.1317517,38.7729594 C27.0454102,38.6218618 26.9999949,38.4508475 26.9999949,38.2768206 L26.9999949,25.7231794 C26.9999949,25.1708946 27.4477102,24.7231794 27.9999949,24.7231794 C28.1740218,24.7231794 28.3450361,24.7685947 28.4961337,24.8549361 Z" id="Oval-18" fill="#FFFFFF"></path>
    </g>
</svg>