<?xml version="1.0" encoding="UTF-8"?>
<svg width="16px" height="16px" viewBox="0 0 16 16" version="1.1" xmlns="http://www.w3.org/2000/svg" xmlns:xlink="http://www.w3.org/1999/xlink">
    <!-- Generator: Sketch 51 (57462) - http://www.bohemiancoding.com/sketch -->
    <title>16/Photo/Scissors_Blue</title>
    <desc>Created with Sketch.</desc>
    <defs></defs>
    <g id="16/Photo/Scissors_Blue" stroke="none" stroke-width="1" fill="none" fill-rule="evenodd">
        <path d="M2.4722088,1 C1.31012566,4.56715805 5.96106815,7.57904785 5.96106815,7.57904785 L7.72931368,5.84081682 L2.4722088,1 Z M5.7959884,8.63673272 L4.43163364,8.63673272 C2.81280812,8.63673272 1.5,9.94758337 1.5,11.5683664 C1.5,13.1871919 2.81280812,14.5 4.43163364,14.5 C6.05241663,14.5 7.36391977,13.1871919 7.36391977,11.5683664 C7.36391977,11.0666022 7.23733688,10.5948526 7.01744804,10.181827 C7.6621073,9.78968101 8.46727888,9.88168197 9.09823586,10.0676414 C8.83724021,10.5054616 8.68521025,11.0189705 8.68521025,11.5683664 C8.68521025,13.1871919 9.99736588,14.5 11.6174964,14.5 C13.2369744,14.5 14.5497825,13.1871919 14.5497825,11.5683664 C14.550435,9.94758337 13.2369744,8.63673272 11.6181489,8.63673272 L9.90732238,8.63673272 C9.53736104,8.47687289 9.77682455,7.85113581 9.77682455,7.85113581 C9.77682455,7.85113581 12.0474867,6.07179797 12.867013,4.90971484 C13.6858869,3.74697922 13.5540841,1.21401643 13.5540841,1.21401643 L5.7959884,8.63673272 Z M2.60857902,11.5683664 C2.60857902,10.5615756 3.42549541,9.74400677 4.43163364,9.74400677 C5.43907685,9.74400677 6.25468826,10.5615756 6.25468826,11.5683664 C6.25468826,12.5751571 5.43907685,13.390116 4.43163364,13.390116 C3.42549541,13.390116 2.60857902,12.5751571 2.60857902,11.5683664 Z M9.79574674,11.5683664 C9.79574674,11.1507733 9.9360319,10.7684147 10.1728855,10.4604398 L10.2289995,10.3880135 C10.5650314,9.99586757 11.0622281,9.74531174 11.6181489,9.74531174 C12.6249396,9.74531174 13.4412035,10.5622281 13.4412035,11.5696713 C13.4412035,12.5751571 12.6249396,13.390116 11.6181489,13.390116 C10.6107057,13.390116 9.79574674,12.5751571 9.79574674,11.5683664 Z" id="Fill-1" fill="#3594FF"></path>
    </g>
</svg>