<?xml version="1.0" encoding="UTF-8"?>
<svg width="16px" height="16px" viewBox="0 0 16 16" version="1.1" xmlns="http://www.w3.org/2000/svg" xmlns:xlink="http://www.w3.org/1999/xlink">
    <!-- Generator: Sketch 50.2 (55047) - http://www.bohemiancoding.com/sketch -->
    <title>16/Video/Speed</title>
    <desc>Created with Sketch.</desc>
    <defs></defs>
    <g id="16/Video/Speed" stroke="none" stroke-width="1" fill="none" fill-rule="evenodd">
        <path d="M7.81438031,7.51137181 C7.07353681,7.60280444 6.5,8.23442387 6.5,9 C6.5,9.82842712 7.17157288,10.5 8,10.5 C8.76557613,10.5 9.39719556,9.92646319 9.48862819,9.18561969 L12,5 L7.81438031,7.51137181 Z M3.10101726,14 C1.80446721,12.729483 1,10.9586882 1,9 C1,5.13400675 4.13400675,2 8,2 C11.8659932,2 15,5.13400675 15,9 C15,10.9586882 14.1955328,12.729483 12.8989827,14 L3.10101726,14 Z M5.5,12 C5.22385763,12 5,12.2238576 5,12.5 C5,12.7761424 5.22385763,13 5.5,13 L10.5,13 C10.7761424,13 11,12.7761424 11,12.5 C11,12.2238576 10.7761424,12 10.5,12 L5.5,12 Z" id="Combined-Shape" fill="#FFFFFF"></path>
    </g>
</svg>