<?xml version="1.0" encoding="UTF-8"?>
<svg width="32px" height="32px" viewBox="0 0 32 32" version="1.1" xmlns="http://www.w3.org/2000/svg" xmlns:xlink="http://www.w3.org/1999/xlink">
    <!-- Generator: Sketch 51 (57462) - http://www.bohemiancoding.com/sketch -->
    <title>32/index/Data_1_0</title>
    <desc>Created with Sketch.</desc>
    <defs>
        <linearGradient x1="50%" y1="0%" x2="50%" y2="100%" id="linearGradient-1">
            <stop stop-color="#FF6A6A" offset="0%"></stop>
            <stop stop-color="#FF4466" offset="100%"></stop>
        </linearGradient>
        <linearGradient x1="50%" y1="0%" x2="50%" y2="100%" id="linearGradient-2">
            <stop stop-color="#FFFFFF" offset="0%"></stop>
            <stop stop-color="#FFFFFF" stop-opacity="0.9" offset="100%"></stop>
        </linearGradient>
    </defs>
    <g id="32/index/Data_1_0" stroke="none" stroke-width="1" fill="none" fill-rule="evenodd">
        <rect id="Rectangle" fill="url(#linearGradient-1)" x="0" y="0" width="32" height="32" rx="3"></rect>
        <path d="M6,10 L21,10 C21.5522847,10 22,10.4477153 22,11 L22,21 C22,21.5522847 21.5522847,22 21,22 L6,22 C5.44771525,22 5,21.5522847 5,21 L5,11 C5,10.4477153 5.44771525,10 6,10 Z M9,20 C10.1045695,20 11,19.1045695 11,18 C11,16.8954305 10.1045695,16 9,16 C7.8954305,16 7,16.8954305 7,18 C7,19.1045695 7.8954305,20 9,20 Z M22.5,13 L26.5,11 C26.8333333,12.3333333 27,14 27,16 C27,18 26.8333333,19.6666667 26.5,21 L22.5,19 L22.5,13 Z" id="Rectangle-7" fill="url(#linearGradient-2)"></path>
    </g>
</svg>