<?xml version="1.0" encoding="UTF-8"?>
<svg width="24px" height="24px" viewBox="0 0 24 24" version="1.1" xmlns="http://www.w3.org/2000/svg" xmlns:xlink="http://www.w3.org/1999/xlink">
    <!-- Generator: Sketch 51 (57462) - http://www.bohemiancoding.com/sketch -->
    <title>map_sq_icon</title>
    <desc>Created with Sketch.</desc>
    <defs>
        <linearGradient x1="50%" y1="0%" x2="50%" y2="97.9746207%" id="linearGradient-1">
            <stop stop-color="#E2E7EE" offset="0%"></stop>
            <stop stop-color="#C6CED9" offset="100%"></stop>
        </linearGradient>
        <linearGradient x1="50%" y1="-26.8798828%" x2="50%" y2="81.2825521%" id="linearGradient-2">
            <stop stop-color="#6A9BF3" offset="0%"></stop>
            <stop stop-color="#3B53B4" offset="100%"></stop>
        </linearGradient>
    </defs>
    <g id="map_sq_icon" stroke="none" stroke-width="1" fill="none" fill-rule="evenodd">
        <g id="Group-43">
            <circle id="Oval-15-Copy-8" fill="url(#linearGradient-1)" cx="12" cy="12" r="12"></circle>
            <g id="Group-42" transform="translate(5.000000, 5.000000)">
                <g id="Group" transform="translate(1.000000, 0.000000)" fill="url(#linearGradient-2)">
                    <path d="M8,4 L12,4 C12.5522847,4 13,4.44771525 13,5 L13,12 L8,12 L0,12 L0,1 C-6.76353751e-17,0.44771525 0.44771525,1.01453063e-16 1,0 L7,0 C7.55228475,-1.01453063e-16 8,0.44771525 8,1 L8,4 Z" id="Combined-Shape"></path>
                </g>
                <rect id="Rectangle-41" fill="#3C54B4" x="0" y="12" width="15" height="1"></rect>
                <rect id="Rectangle-40" fill="#DCE2E9" x="3" y="3" width="4" height="1"></rect>
                <rect id="Rectangle-40" fill="#DCE2E9" x="3" y="6" width="4" height="1"></rect>
                <rect id="Rectangle-40" fill="#DCE2E9" x="3" y="9" width="4" height="1"></rect>
                <rect id="Rectangle-40" fill="#DCE2E9" x="10" y="6" width="3" height="1"></rect>
                <rect id="Rectangle-40" fill="#DCE2E9" x="10" y="9" width="3" height="1"></rect>
            </g>
        </g>
    </g>
</svg>