<?xml version="1.0" encoding="UTF-8"?>
<svg width="20px" height="20px" viewBox="0 0 20 20" version="1.1" xmlns="http://www.w3.org/2000/svg" xmlns:xlink="http://www.w3.org/1999/xlink">
    <!-- Generator: Sketch 51.1 (57501) - http://www.bohemiancoding.com/sketch -->
    <title>20/date_icon/1</title>
    <desc>Created with Sketch.</desc>
    <defs></defs>
    <g id="20/date_icon/1" stroke="none" stroke-width="1" fill="none" fill-rule="evenodd">
        <g id="日期icon" transform="translate(1.000000, 3.000000)" fill="#D7DBE5">
            <rect id="Rectangle-7" x="4" y="0" width="2" height="3" rx="1"></rect>
            <rect id="Rectangle-7-Copy" x="13" y="0" width="2" height="3" rx="1"></rect>
            <path d="M1,1 L18,1 C18.5522847,1 19,1.44771525 19,2 L19,14 C19,14.5522847 18.5522847,15 18,15 L1,15 C0.44771525,15 6.76353751e-17,14.5522847 0,14 L0,2 C-6.76353751e-17,1.44771525 0.44771525,1 1,1 Z M2,5 C1.44771525,5 1,5.44771525 1,6 L1,13 C1,13.5522847 1.44771525,14 2,14 L17,14 C17.5522847,14 18,13.5522847 18,13 L18,6 C18,5.44771525 17.5522847,5 17,5 L2,5 Z" id="Combined-Shape"></path>
            <rect id="Rectangle-11" x="3" y="7" width="3" height="1" rx="0.5"></rect>
            <rect id="Rectangle-11-Copy-3" x="3" y="10" width="3" height="1" rx="0.5"></rect>
            <rect id="Rectangle-11-Copy" x="8" y="7" width="3" height="1" rx="0.5"></rect>
            <rect id="Rectangle-11-Copy-4" x="8" y="10" width="3" height="1" rx="0.5"></rect>
            <rect id="Rectangle-11-Copy-2" x="13" y="7" width="3" height="1" rx="0.5"></rect>
            <rect id="Rectangle-11-Copy-5" x="13" y="10" width="1" height="1" rx="0.5"></rect>
        </g>
    </g>
</svg>