<?xml version="1.0" encoding="UTF-8"?>
<svg width="60px" height="60px" viewBox="0 0 60 60" version="1.1" xmlns="http://www.w3.org/2000/svg" xmlns:xlink="http://www.w3.org/1999/xlink">
    <!-- Generator: Sketch 51.1 (57501) - http://www.bohemiancoding.com/sketch -->
    <title>60/水电煤/2</title>
    <desc>Created with Sketch.</desc>
    <defs>
        <circle id="path-1" cx="30" cy="30" r="30"></circle>
    </defs>
    <g id="60/水电煤/2" stroke="none" stroke-width="1" fill="none" fill-rule="evenodd">
        <g id="2">
            <g id="Path-4-+-Path-5-+-Path-6-Mask">
                <mask id="mask-2" fill="white">
                    <use xlink:href="#path-1"></use>
                </mask>
                <use id="Mask" stroke="#F85B5B" opacity="0.100000001" transform="translate(30.000000, 30.000000) scale(-1, 1) translate(-30.000000, -30.000000) " xlink:href="#path-1"></use>
                <path d="M-11,29 C-11,29 4,26 18,32 C32,38 41,35 47,29 C53,23 61,23.4444444 67,27 C73,30.5555556 57,68 55,68 C53,68 -14,70 -14,68 C-14,66 -11,29 -11,29 Z" id="Path-4" fill="#F85B5B" opacity="0.049999997" mask="url(#mask-2)" transform="translate(27.169251, 46.640793) scale(-1, 1) translate(-27.169251, -46.640793) "></path>
                <path d="M-10,29 C-4,35 2.66666667,37.3333333 10,36 C21,34 28,25 39,33 C46.3333333,38.3333333 57.6666667,38.3333333 73,33 L58,71 L6,73 C-3.33333333,51.6666667 -8,40.3333333 -8,39 C-8,37.6666667 -8.66666667,34.3333333 -10,29 Z" id="Path-5" fill="#F85B5B" opacity="0.100000001" mask="url(#mask-2)" transform="translate(31.500000, 51.000000) scale(-1, 1) translate(-31.500000, -51.000000) "></path>
                <path d="M-5,37 C8.33333333,29 19,26.3333333 27,29 C39,33 57,34 61,29 C63.6666667,25.6666667 64.3333333,37.3333333 63,64 L20,68 L-2,52 L-5,37 Z" id="Path-6" fill="#F85B5B" opacity="0.119999997" mask="url(#mask-2)"></path>
            </g>
            <polygon id="Path-2" fill="#F85B5B" points="32.375 13 18 32.9330093 29.25 32.9330093 26.125 47.0166028 40.5 26.858616 29.25 26.858616"></polygon>
        </g>
    </g>
</svg>