<?xml version="1.0" encoding="UTF-8"?>
<svg width="60px" height="60px" viewBox="0 0 60 60" version="1.1" xmlns="http://www.w3.org/2000/svg" xmlns:xlink="http://www.w3.org/1999/xlink">
    <!-- Generator: Sketch 51.1 (57501) - http://www.bohemiancoding.com/sketch -->
    <title>60/水电煤/3</title>
    <desc>Created with Sketch.</desc>
    <defs>
        <circle id="path-1" cx="30" cy="30" r="30"></circle>
    </defs>
    <g id="60/水电煤/3" stroke="none" stroke-width="1" fill="none" fill-rule="evenodd">
        <g id="3">
            <g id="Path-4-+-Path-5-+-Path-6-Mask">
                <mask id="mask-2" fill="white">
                    <use xlink:href="#path-1"></use>
                </mask>
                <use id="Mask" stroke="#F7A319" opacity="0.100000001" xlink:href="#path-1"></use>
                <path d="M-10,32 C-10,32 5,29 19,35 C33,41 42,38 48,32 C54,26 62,26.4444444 68,30 C74,33.5555556 58,71 56,71 C54,71 -13,73 -13,71 C-13,69 -10,32 -10,32 Z" id="Path-4" fill="#F7A319" opacity="0.049999997" mask="url(#mask-2)" transform="translate(28.169251, 49.640793) scale(-1, 1) translate(-28.169251, -49.640793) "></path>
                <path d="M-9,30 C-3,36 3.66666667,38.3333333 11,37 C22,35 29,26 40,34 C47.3333333,39.3333333 58.6666667,39.3333333 74,34 L59,72 L7,74 C-2.33333333,52.6666667 -7,41.3333333 -7,40 C-7,38.6666667 -7.66666667,35.3333333 -9,30 Z" id="Path-5" fill="#F7A319" opacity="0.100000001" mask="url(#mask-2)"></path>
                <path d="M-4,37 C9.33333333,29 20,26.3333333 28,29 C40,33 58,34 62,29 C64.6666667,25.6666667 65.3333333,37.3333333 64,64 L21,68 L-1,52 L-4,37 Z" id="Path-6" fill="#F7A319" opacity="0.119999997" mask="url(#mask-2)" transform="translate(30.333333, 48.000000) scale(-1, 1) translate(-30.333333, -48.000000) "></path>
            </g>
            <path d="M19.6644246,23.849349 C19.6644246,25.8183473 19.2526882,27.8758325 18.4292153,30.0218046 C17.7138565,33.2407627 17.8926962,35.9232278 18.9657344,38.0691999 C20.5752918,41.288158 24.3309258,44 29.0254682,44 C36.1343467,44 41.4995381,38.6056929 40.963019,30.5582976 C40.6053395,26.2663534 38.8431076,22.8360984 35.6763232,20.2675326 C35.6763232,21.9400861 35.3954127,23.3338808 34.8335917,24.4489165 C33.0627248,19.7713676 30.277195,16.6217288 26.4770023,15 C26.2536039,20.7225922 25.1063866,25.0661698 23.0353507,28.0307328 C22.1106703,26.1391559 20.9870283,24.7453612 19.6644246,23.849349 Z" id="Path-3" fill="#F7A319"></path>
        </g>
    </g>
</svg>