<?xml version="1.0" encoding="UTF-8"?>
<svg width="24px" height="24px" viewBox="0 0 24 24" version="1.1" xmlns="http://www.w3.org/2000/svg" xmlns:xlink="http://www.w3.org/1999/xlink">
    <!-- Generator: Sketch 51.1 (57501) - http://www.bohemiancoding.com/sketch -->
    <title>24/map_sq_icon copy</title>
    <desc>Created with Sketch.</desc>
    <defs></defs>
    <g id="24/map_sq_icon-copy" stroke="none" stroke-width="1" fill="none" fill-rule="evenodd">
        <g id="Group-43">
            <circle id="Oval-15-Copy-8" stroke="#D7DBE5" fill="#FFFFFF" cx="12" cy="12" r="11.5"></circle>
            <path d="M6,17 L6,6 C6,5.44771525 6.44771525,5 7,5 L13,5 C13.5522847,5 14,5.44771525 14,6 L14,9 L18,9 C18.5522847,9 19,9.44771525 19,10 L19,17 L20,17 L20,18 L5,18 L5,17 L6,17 Z M8,8 L8,9 L12,9 L12,8 L8,8 Z M8,11 L8,12 L12,12 L12,11 L8,11 Z M8,14 L8,15 L12,15 L12,14 L8,14 Z M15,11 L15,12 L18,12 L18,11 L15,11 Z M15,14 L15,15 L18,15 L18,14 L15,14 Z" id="Combined-Shape" fill="#8D96A9"></path>
        </g>
    </g>
</svg>