<?xml version="1.0" encoding="UTF-8"?>
<svg width="28px" height="38px" viewBox="0 0 28 38" version="1.1" xmlns="http://www.w3.org/2000/svg" xmlns:xlink="http://www.w3.org/1999/xlink">
    <!-- Generator: Sketch 52.6 (67491) - http://www.bohemiancoding.com/sketch -->
    <title>Img/Pin/3_Camera</title>
    <desc>Created with Sketch.</desc>
    <defs>
        <linearGradient x1="50%" y1="0%" x2="50%" y2="100%" id="linearGradient-1">
            <stop stop-color="#FFAA00" offset="0%"></stop>
            <stop stop-color="#FF8800" offset="100%"></stop>
        </linearGradient>
        <linearGradient x1="50%" y1="0%" x2="50%" y2="100%" id="linearGradient-2">
            <stop stop-color="#FF8800" offset="0%"></stop>
            <stop stop-color="#FF6600" offset="100%"></stop>
        </linearGradient>
    </defs>
    <g id="Img/Pin/3_Camera" stroke="none" stroke-width="1" fill="none" fill-rule="evenodd">
        <path d="M0.500633004,14.1623887 L0.500863157,14.1623862 C0.544875507,18.2931353 1.86577771,20.8321473 5.50811726,25.3167779 C5.48788342,25.291865 5.9325999,25.8389287 6.05609639,25.9913202 C6.62652455,26.6952139 7.02005591,27.1934079 7.4,27.7 C8.09875918,28.6316789 8.66992842,29.6908007 9.25611696,31.0522708 C9.41172898,31.4136923 9.56346452,31.7835013 9.75533293,32.2643647 C9.75723074,32.2691211 10.1175158,33.1773207 10.218723,33.4279288 C11.4318549,36.4318745 12.3114876,37.5 14,37.5 C15.6885124,37.5 16.5681451,36.4318745 17.781277,33.4279288 C17.8824842,33.1773207 18.2427693,32.2691211 18.2446671,32.2643647 C18.4365355,31.7835013 18.588271,31.4136923 18.743883,31.0522708 C19.3300716,29.6908007 19.9012408,28.6316789 20.6,27.7 C20.9799371,27.1934171 21.373461,26.6952322 21.9438782,25.991351 C22.0673722,25.8389624 22.5120799,25.2919086 22.4918456,25.3168221 C26.1342003,20.8321665 27.4550918,18.2931386 27.4990512,14.1617843 C27.4998416,14.0809696 27.4998416,14.0809696 27.5,14 C27.5,6.54415588 21.4558441,0.5 14,0.5 C6.54415588,0.5 0.5,6.54415588 0.5,14 C0.500158431,14.0809696 0.500158431,14.0809696 0.500948766,14.1617843 L0.500633004,14.1623887 Z" id="BG" stroke="url(#linearGradient-2)" fill="url(#linearGradient-1)"></path>
        <g id="16/Point/1_Camera_0_Light" transform="translate(6.000000, 6.000000)" fill="#FFFFFF">
            <path d="M1.5,5 L11,5 C11.2761424,5 11.5,5.22385763 11.5,5.5 L11.5,10.5 C11.5,10.7761424 11.2761424,11 11,11 L1.5,11 C1.22385763,11 1,10.7761424 1,10.5 L1,5.5 C1,5.22385763 1.22385763,5 1.5,5 Z M3,10 C3.55228475,10 4,9.55228475 4,9 C4,8.44771525 3.55228475,8 3,8 C2.44771525,8 2,8.44771525 2,9 C2,9.55228475 2.44771525,10 3,10 Z M12,6.5 L14.2763932,5.3618034 C14.5233825,5.23830877 14.823719,5.33842095 14.9472136,5.5854102 C14.9819275,5.65483791 15,5.73139445 15,5.80901699 L15,10.190983 C15,10.4671254 14.7761424,10.690983 14.5,10.690983 C14.4223775,10.690983 14.3458209,10.6729105 14.2763932,10.6381966 L12,9.5 L12,6.5 Z" id="Rectangle-7"></path>
        </g>
    </g>
</svg>