<?xml version="1.0" encoding="UTF-8"?>
<svg width="16px" height="16px" viewBox="0 0 16 16" version="1.1" xmlns="http://www.w3.org/2000/svg" xmlns:xlink="http://www.w3.org/1999/xlink">
    <!-- Generator: Sketch 52 (66869) - http://www.bohemiancoding.com/sketch -->
    <title>16/Point/3_Alarm_2_Light</title>
    <desc>Created with Sketch.</desc>
    <g id="16/Point/3_Alarm_2_Light" stroke="none" stroke-width="1" fill="none" fill-rule="evenodd">
        <path d="M5,2.5 L11,2.5 C11.2761424,2.5 11.5,2.72385763 11.5,3 L11.5,10 L4.5,10 L4.5,3 C4.5,2.72385763 4.72385763,2.5 5,2.5 Z M4.5,10.5 L11.5,10.5 L11.5,13 C11.5,13.2761424 11.2761424,13.5 11,13.5 L5,13.5 C4.72385763,13.5 4.5,13.2761424 4.5,13 L4.5,10.5 Z M8,13 C8.55228475,13 9,12.5522847 9,12 C9,11.4477153 8.55228475,11 8,11 C7.44771525,11 7,11.4477153 7,12 C7,12.5522847 7.44771525,13 8,13 Z" id="Rectangle-2" fill="#FFFFFF"></path>
    </g>
</svg>