<?xml version="1.0" standalone="no"?><!DOCTYPE svg PUBLIC "-//W3C//DTD SVG 1.1//EN" "http://www.w3.org/Graphics/SVG/1.1/DTD/svg11.dtd"><svg t="1543371418404" class="icon" style="" viewBox="0 0 1024 1024" version="1.1" xmlns="http://www.w3.org/2000/svg" p-id="20625" xmlns:xlink="http://www.w3.org/1999/xlink" width="16" height="16"><defs><style type="text/css"></style></defs><path d="M224 392.576l642.56-172.16 8.256 30.912L224 425.728V800h32v32H128v-32h32V442.88l-44.608 11.936-8.256-30.912L160 409.728V352a32 32 0 0 1 64 0v40.576zM192 432a16 16 0 1 0 0-32 16 16 0 0 0 0 32z m662.912 86.592c0.544 0.448 0.896 0.928 1.344 1.472 24 20.896 39.68 59.52 39.744 87.52v83.424c0 20.256-7.84 38.624-20.48 52.352v32.32a34.56 34.56 0 0 1-34.72 34.368h-41.984a34.592 34.592 0 0 1-34.72-34.336v-8.288H387.904v8.288c0 18.976-15.552 34.336-34.72 34.336H311.2a34.56 34.56 0 0 1-34.688-34.336V743.36A76.864 76.864 0 0 1 256 691.008v-83.424c0-28.096 15.648-66.72 39.648-87.616 0.448-0.448 0.8-1.024 1.344-1.472l22.4-21.984c-18.624-4.352-38.656-20.16-38.656-36.48 0-18.88 25.792-25.6 47.904-25.6 23.04 0 25.728 16.096 25.984 27.456l57.824-56.704c11.776-11.84 34.08-21.184 50.72-21.184h225.504c16.64 0 38.912 9.344 50.688 21.184l57.92 56.8c0.256-11.36 2.976-27.456 25.984-27.456 22.112 0 47.904 6.72 47.904 25.6 0 16.32-20.032 32.192-38.656 36.48l22.4 21.984zM348.608 703.36c15.808 0 67.392 6.208 67.392-20.16 0-26.336-51.584-75.2-67.392-75.2-15.808 0-28.608 21.344-28.608 47.68s12.8 47.68 28.608 47.68z m454.784 0.032c15.808 0 28.608-21.312 28.608-47.744 0-26.336-12.8-47.648-28.608-47.648S736 656.8 736 683.136s51.584 20.256 67.392 20.256z m-353.248-22.4a64 64 0 0 0 49.152 23.008h153.408a64 64 0 0 0 49.152-23.04l12.288-14.72a16 16 0 0 0-12.32-26.24h-251.648a16 16 0 0 0-12.32 26.24l12.288 14.72z m28.992-259.328a64 64 0 0 0-46.528 20.064l-67.328 71.296a12.8 12.8 0 0 0 9.28 21.6h402.88a12.8 12.8 0 0 0 9.28-21.6l-67.328-71.296a64 64 0 0 0-46.528-20.064h-193.728z" p-id="20626" fill="#ffffff"></path></svg>