<?xml version="1.0" encoding="UTF-8"?>
<svg width="16px" height="16px" viewBox="0 0 16 16" version="1.1" xmlns="http://www.w3.org/2000/svg" xmlns:xlink="http://www.w3.org/1999/xlink">
    <!-- Generator: Sketch 52 (66869) - http://www.bohemiancoding.com/sketch -->
    <title>16/Point/1_Camera_1_Light</title>
    <desc>Created with Sketch.</desc>
    <g id="16/Point/1_Camera_1_Light" stroke="none" stroke-width="1" fill="none" fill-rule="evenodd">
        <path d="M1.5,5 L11.25,5 C11.5261424,5 11.75,5.22385763 11.75,5.5 C11.75,5.56601301 11.7369281,5.63137261 11.7115385,5.69230769 L9.62820513,10.6923077 C9.55057035,10.8786312 9.36851709,11 9.16666667,11 L1.5,11 C1.22385763,11 1,10.7761424 1,10.5 L1,5.5 C1,5.22385763 1.22385763,5 1.5,5 Z M2,6 L2,7 L6,7 L6,6 L2,6 Z M12,6 L14.5,6 C14.7761424,6 15,6.22385763 15,6.5 L15,9.5 C15,9.77614237 14.7761424,10 14.5,10 L10.5,10 L12,6 Z" id="Rectangle-15-Copy" fill="#FFFFFF"></path>
    </g>
</svg>