<?xml version="1.0" encoding="UTF-8"?>
<svg width="16px" height="16px" viewBox="0 0 16 16" version="1.1" xmlns="http://www.w3.org/2000/svg" xmlns:xlink="http://www.w3.org/1999/xlink">
    <!-- Generator: Sketch 52 (66869) - http://www.bohemiancoding.com/sketch -->
    <title>16/Point/1_Camera_3_Light</title>
    <desc>Created with Sketch.</desc>
    <g id="16/Point/1_Camera_3_Light" stroke="none" stroke-width="1" fill="none" fill-rule="evenodd">
        <path d="M6.08611094,8.92269245 C6.23645357,8.98183459 6.30996669,9.15152277 6.25027182,9.30241813 L6.1292239,9.60863068 C6.07008177,9.75897331 5.90039358,9.83248643 5.75005096,9.77279156 L5.14481134,9.53345937 C5.02929072,9.48758276 4.89939912,9.54451397 4.85352251,9.65948186 L4.59595022,10.3089399 C4.48706236,10.5825414 4.2228573,10.7621787 3.92825209,10.7627314 L2.2468467,10.7649423 L2.2468467,10.84343 C2.2468467,11.0672858 2.06555118,11.249134 1.8411427,11.249134 C1.61728695,11.249134 1.4354387,11.0672858 1.4354387,10.84343 L1.4354387,9.95463981 C1.4354387,9.73078406 1.61728695,9.54893581 1.8411427,9.54893581 C2.06555118,9.54893581 2.2468467,9.73078406 2.2468467,9.95463981 L2.2468467,10.0519203 L3.63198868,10.0519203 C3.75414206,10.0519203 3.86468811,9.97951267 3.9138811,9.86786116 L4.12834043,9.37924763 C4.17919161,9.26372701 4.12447132,9.12886083 4.00729251,9.08132603 L3.48054059,8.86576124 C3.32688158,8.80385545 3.25613211,8.62698177 3.3235652,8.47608642 L3.455115,8.18258666 C3.51867898,8.03942953 3.68394532,7.97254917 3.82931337,8.03003311 L6.08611094,8.92269245 Z M12.0703002,7.19950066 L12.7374456,7.46370571 C12.9519049,7.54827344 13.1807352,7.59083367 13.410671,7.58917548 L14.8096312,7.57535722 C14.9478138,7.57425176 15.0401197,7.71685616 14.9826358,7.84232593 L13.4134346,11.245486 C13.353187,11.3753776 13.1757606,11.393065 13.0911929,11.2775444 L12.4605277,10.4163907 C12.2864177,10.1781639 12.0559292,9.98691926 11.7895132,9.86034403 L10.5961686,9.28992642 L12.0703002,7.19950066 Z M3.60744745,3.18380492 C3.6594041,3.0373314 3.82190679,2.96271282 3.96672211,3.01853857 L12.1029112,6.15749361 C12.271494,6.22271578 12.3333998,6.42998962 12.2278283,6.57646313 L10.2584504,9.32076877 C9.90857219,9.80772411 9.27293241,9.99565239 8.71467487,9.77677122 L2.42239382,7.30827797 C2.28365853,7.2541104 2.21290906,7.09879321 2.26320751,6.95895246 L3.60744745,3.18380492 Z" id="Fill-7" fill="#FFFFFF"></path>
    </g>
</svg>