<?xml version="1.0" encoding="UTF-8"?>
<svg width="56px" height="56px" viewBox="0 0 56 56" version="1.1" xmlns="http://www.w3.org/2000/svg" xmlns:xlink="http://www.w3.org/1999/xlink">
    <!-- Generator: Sketch 51 (57462) - http://www.bohemiancoding.com/sketch -->
    <title>56/mb/icon-3</title>
    <desc>Created with Sketch.</desc>
    <defs>
        <linearGradient x1="50%" y1="0%" x2="50%" y2="100%" id="linearGradient-1">
            <stop stop-color="#FFFFFF" stop-opacity="0.8" offset="0%"></stop>
            <stop stop-color="#FFFFFF" stop-opacity="0.7" offset="100%"></stop>
        </linearGradient>
    </defs>
    <g id="56/mb/icon-3" stroke="none" stroke-width="1" fill="none" fill-rule="evenodd">
        <g id="32/tbxs/icon_qc" transform="translate(1.000000, 12.000000)" fill="url(#linearGradient-1)">
            <path d="M49.1280953,10.9886364 L50.9266047,13.1868098 C51.6574952,14.0801204 52.0568182,15.1987869 52.0568182,16.3529987 L52.0568182,32.6590909 C52.0568182,33.2113757 51.6091029,33.6590909 51.0568182,33.6590909 L44.7045455,33.6590909 C44.1522607,33.6590909 43.7045455,33.2113757 43.7045455,32.6590909 L43.7045455,29.8448381 L10.4935771,30.0795455 L10.4935771,32.6590909 C10.4935771,33.2113757 10.0458618,33.6590909 9.49357707,33.6590909 L2.94318182,33.6590909 C2.39089707,33.6590909 1.94318182,33.2113757 1.94318182,32.6590909 L1.94318182,16.3529987 C1.94318182,15.1987869 2.34250479,14.0801204 3.07339532,13.1868098 L4.87190083,10.9886364 L1.75,10.9886364 C1.19771525,10.9886364 0.75,10.5409211 0.75,9.98863636 C0.75,9.92424242 0.75,9.85984848 0.75,9.79545455 C0.75,8.60227273 1.94318182,7.40909091 3.13636364,7.40909091 C4.32954545,7.40909091 4.32954545,7.40909091 5.52272727,7.40909091 C6.05964055,7.40909091 6.59655383,7.68089387 7.13346711,8.2244998 L11.9598579,2.32557768 C12.4292317,1.75189867 13.0943677,1.37229477 13.827032,1.259946 C18.2180214,0.586648666 22.6090107,0.25 27,0.25 C31.3909812,0.25 35.7819625,0.586647425 40.1729437,1.25994228 C40.9056066,1.37228577 41.5707407,1.75188845 42.0401131,2.32556575 L46.8665281,8.22450467 C47.403443,7.6808955 47.9403578,7.40909091 48.4772727,7.40909091 C49.6704545,7.40909091 49.6704545,7.40909091 50.8636364,7.40909091 C52.0568182,7.40909091 53.25,8.60227273 53.25,9.79545455 C53.25,9.85984848 53.25,9.92424242 53.25,9.98863636 C53.25,10.5409211 52.8022847,10.9886364 52.25,10.9886364 L49.1280953,10.9886364 Z M17.4545455,26.5 C16.2613636,26.5 15.0681818,25.3068182 15.0681818,24.1136364 C15.0681818,22.9204545 17.4545455,20.9162382 19.8409091,20.9162382 C22.2272727,20.9162382 31.7727273,20.9162382 34.1590909,20.9162382 C36.5454545,20.9162382 38.9318182,22.9204545 38.9318182,24.1136364 C38.9318182,25.3068182 37.7386364,26.5 36.5454545,26.5 C35.3522727,26.5 18.6477273,26.5 17.4545455,26.5 Z M16.2613636,3.12909625 C17.2345498,2.61426676 22.1245352,2.63636364 27,2.63636364 C32.0709452,2.63636364 36.7654431,2.61426303 37.7386364,3.12909625 C39.9774253,4.31344779 41.8661575,6.36115289 43.404833,9.27221157 L43.4048331,9.27221147 C43.5080665,9.46752118 43.4334238,9.70953812 43.2381141,9.81277144 C43.1805128,9.84321733 43.1163463,9.85913214 43.0511936,9.85913214 L10.9487917,9.85911924 C10.7278849,9.85911924 10.5488046,9.68003891 10.5488046,9.45913214 C10.5488046,9.39398167 10.5647188,9.32981733 10.5951637,9.2722179 C12.1338398,6.36115587 14.0225731,4.31344865 16.2613636,3.12909625 Z M7.4966855,14.5681818 L9.58725061,14.5681818 C10.0529859,14.5681818 10.5123251,14.6766171 10.9288914,14.8849002 L14.3633898,16.6021494 C14.8573683,16.8491387 15.0575926,17.4498117 14.8106034,17.9437902 C14.6571586,18.2506799 14.3570902,18.4574728 14.0156799,18.4916138 L6.93712668,19.1994692 C6.38758282,19.2544235 5.89754016,18.8534795 5.84258577,18.3039357 C5.83112617,18.1893397 5.83954822,18.0736253 5.86748046,17.9618963 L6.526543,15.3256462 C6.63783475,14.8804792 7.03781786,14.5681818 7.4966855,14.5681818 Z M46.5033145,14.5681818 C46.9621821,14.5681818 47.3621653,14.8804792 47.473457,15.3256462 L48.1325195,17.9618963 C48.1604518,18.0736253 48.1688738,18.1893397 48.1574142,18.3039357 C48.1024598,18.8534795 47.6124172,19.2544235 47.0628733,19.1994692 L39.9843201,18.4916138 C39.6429098,18.4574728 39.3428414,18.2506799 39.1893966,17.9437902 C38.9424074,17.4498117 39.1426317,16.8491387 39.6366102,16.6021494 L43.0711086,14.8849002 C43.4876749,14.6766171 43.9470141,14.5681818 44.4127494,14.5681818 L46.5033145,14.5681818 Z" id="Fill-1"></path>
        </g>
    </g>
</svg>