<?xml version="1.0" encoding="UTF-8"?>
<svg width="56px" height="56px" viewBox="0 0 56 56" version="1.1" xmlns="http://www.w3.org/2000/svg" xmlns:xlink="http://www.w3.org/1999/xlink">
    <!-- Generator: Sketch 51 (57462) - http://www.bohemiancoding.com/sketch -->
    <title>56/mb/icon-2</title>
    <desc>Created with Sketch.</desc>
    <defs>
        <linearGradient x1="50%" y1="0%" x2="50%" y2="100%" id="linearGradient-1">
            <stop stop-color="#FFFFFF" stop-opacity="0.8" offset="0%"></stop>
            <stop stop-color="#FFFFFF" stop-opacity="0.7" offset="100%"></stop>
        </linearGradient>
    </defs>
    <g id="56/mb/icon-2" stroke="none" stroke-width="1" fill="none" fill-rule="evenodd">
        <g id="Group-25" transform="translate(3.500000, 0.875000)" fill="url(#linearGradient-1)">
            <path d="M25.3965423,33.8095995 C26.572043,33.8095995 27.4894101,32.69563 27.3722572,31.411622 L25.9624506,15.9359471 C25.7579294,13.708008 24.0502763,12.0098039 22.0110209,12.0098039 L20.2120283,12.0098039 C19.4813116,12.0098039 18.7446381,12.1972822 18.1429882,12.6528979 C16.8721767,13.6120889 15.3491884,14.1897835 13.6911765,14.1897835 C12.0331645,14.1897835 10.5081906,13.6120889 9.23936472,12.6528979 C8.63771487,12.1972822 7.89905565,12.0098039 7.16833901,12.0098039 L5.37133203,12.0098039 C3.33207661,12.0098039 1.62243793,13.708008 1.41990234,15.9359471 L0.0100957613,31.411622 C-0.107057179,32.69563 0.810309916,33.8095995 1.98581061,33.8095995 L2.08112148,33.8095995 C3.05011529,33.8095995 3.88011409,33.0378868 4.03896554,31.9893166 L5.74860422,20.7297222 L5.74860422,33.8095995 L3.92379824,51.9850159 C3.8066453,53.2690238 4.72401239,54.3829934 5.89951309,54.3829934 L8.00429474,54.3829934 C8.96534598,54.3829934 9.78740221,53.6287205 9.95816751,52.5932302 L13.1729236,34.7578907 C13.2781627,34.1256966 14.1041902,34.1256966 14.2094293,34.7578907 L17.3070325,52.5932302 C17.4797834,53.6287205 18.3018397,54.3829934 19.2609053,54.3829934 L21.3676726,54.3829934 C22.5431732,54.3829934 23.4605403,53.2690238 23.3433874,51.9850159 L21.6337487,33.8095995 L21.6337487,20.7297222 L23.3433874,31.9893166 C23.5022388,33.0378868 24.330252,33.8095995 25.3012315,33.8095995 L25.3965423,33.8095995 Z M8.21470588,6.00490196 C8.21470588,2.68819444 10.6663392,0 13.6911765,0 C16.7160137,0 19.1676471,2.68819444 19.1676471,6.00490196 C19.1676471,9.32160948 16.7160137,12.0098039 13.6911765,12.0098039 C10.6663392,12.0098039 8.21470588,9.32160948 8.21470588,6.00490196" id="Fill-1"></path>
            <g id="Group-24" transform="translate(25.941176, 0.000000)">
                <path d="M21.2820456,28.0010173 C22.3338094,28.0010173 23.1546115,27.053412 23.0497905,25.9611625 L21.1967675,15.3045997 C21.0137748,13.4093891 19.4858747,11.964801 17.6612777,11.964801 L16.0516528,11.964801 C15.3978537,11.964801 14.7387247,12.1242805 14.2004064,12.511853 C13.0633645,13.3277949 12.5585261,13.8192145 11.0750417,13.8192145 C9.59155732,13.8192145 8.90555055,13.3277949 7.77028525,12.511853 C7.23196697,12.1242805 6.57106135,11.964801 5.91726224,11.964801 L4.3094139,11.964801 C3.13216625,11.964801 2.12111259,12.511853 0.773924169,15.3045997 C1.21009144,19.6656212 1.47555183,21.5488076 1.57030532,20.954159 L3.70231151,16.8745363 L4.92731151,26.7239903 L2.12111259,38.5163915 L6.73007597,38.5163915 L8.55951215,54.5617676 L12.4504064,54.5617676 L15.3206277,38.5163915 L19.4965345,38.5163915 L16.6903355,26.7239903 L17.9153355,16.8745363 L19.4450123,26.4525821 C19.5871425,27.344555 20.3279964,28.0010173 21.1967675,28.0010173 L21.2820456,28.0010173 Z M5.76470588,5.25834658 C5.76470588,2.35398649 8.02278922,0 10.8088235,0 C13.5948578,0 15.8529412,2.35398649 15.8529412,5.25834658 C15.8529412,8.16270668 13.5948578,10.5166932 10.8088235,10.5166932 C8.02278922,10.5166932 5.76470588,8.16270668 5.76470588,5.25834658" id="Fill-1"></path>
            </g>
        </g>
    </g>
</svg>