<?xml version="1.0" encoding="UTF-8"?>
<svg width="56px" height="56px" viewBox="0 0 56 56" version="1.1" xmlns="http://www.w3.org/2000/svg" xmlns:xlink="http://www.w3.org/1999/xlink">
    <!-- Generator: Sketch 51 (57462) - http://www.bohemiancoding.com/sketch -->
    <title>56/mb/icon-1</title>
    <desc>Created with Sketch.</desc>
    <defs>
        <linearGradient x1="50%" y1="5.7897565%" x2="50%" y2="98.740065%" id="linearGradient-1">
            <stop stop-color="#FFFFFF" stop-opacity="0.8" offset="0%"></stop>
            <stop stop-color="#FFFFFF" stop-opacity="0.7" offset="100%"></stop>
        </linearGradient>
    </defs>
    <g id="56/mb/icon-1" stroke="none" stroke-width="1" fill="none" fill-rule="evenodd">
        <g id="Group-6" transform="translate(0.000000, 2.000000)" fill="url(#linearGradient-1)">
            <path d="M29.1484375,26.1345656 L29.1484375,19.4806053 C29.1484375,18.9283205 28.7007222,18.4806053 28.1484375,18.4806053 C27.8340607,18.4806053 27.5379846,18.6284433 27.3490867,18.8797406 L19.9466543,28.7274502 C19.6148059,29.1689194 19.7036712,29.7958172 20.1451405,30.1276656 C20.3183919,30.2578971 20.529265,30.3283148 20.7460051,30.3283148 L25.5509878,30.3283148 L25.5509878,36.6712044 C25.5509878,37.2234891 25.9987031,37.6712044 26.5509878,37.6712044 C26.8788764,37.6712044 27.1859341,37.5104625 27.372767,37.2410105 L33.9852924,27.7043717 C34.2999877,27.2505157 34.1871756,26.6274817 33.7333195,26.3127865 C33.5659626,26.1967444 33.3671652,26.1345656 33.1635133,26.1345656 L29.1484375,26.1345656 Z M10.6797565,28.0000051 C10.6710572,27.7788611 10.6666667,27.5566099 10.6666667,27.3333333 C10.6666667,18.1285875 18.1285875,10.6666667 27.3333333,10.6666667 C36.5380792,10.6666667 44,18.1285875 44,27.3333333 C44,27.5566099 43.9956095,27.7788611 43.9869101,28.0000051 L44,28 L44,45.3333333 L10.6666667,45.3333333 L10.6666667,28 L10.6797563,28 Z M6.33333333,46.6666667 L49.6666667,46.6666667 C50.2189514,46.6666667 50.6666667,47.1143819 50.6666667,47.6666667 L50.6666667,50.6666667 L5.33333333,50.6666667 L5.33333333,47.6666667 C5.33333333,47.1143819 5.78104858,46.6666667 6.33333333,46.6666667 Z M27.6190476,0 L28.3809524,0 C29.6433175,-2.31892715e-16 30.6666667,1.02334914 30.6666667,2.28571429 L30.6666667,5.71428571 C30.6666667,6.97665086 29.6433175,8 28.3809524,8 L27.6190476,8 C26.3566825,8 25.3333333,6.97665086 25.3333333,5.71428571 L25.3333333,2.28571429 C25.3333333,1.02334914 26.3566825,2.31892715e-16 27.6190476,0 Z M7.56886553,8.10761355 L8.10761355,7.56886553 C9.00024051,6.67623858 10.4474747,6.67623858 11.3401017,7.56886553 L13.7644678,9.99323164 C14.6570948,10.8858586 14.6570948,12.3330928 13.7644678,13.2257198 L13.2257198,13.7644678 C12.3330928,14.6570948 10.8858586,14.6570948 9.99323164,13.7644678 L7.56886553,11.3401017 C6.67623858,10.4474747 6.67623858,9.00024051 7.56886553,8.10761355 Z M47.8923864,7.56886553 L48.4311345,8.10761355 C49.3237614,9.00024051 49.3237614,10.4474747 48.4311345,11.3401017 L46.0067684,13.7644678 C45.1141414,14.6570948 43.6669072,14.6570948 42.7742802,13.7644678 L42.2355322,13.2257198 C41.3429052,12.3330928 41.3429052,10.8858586 42.2355322,9.99323164 L44.6598983,7.56886553 C45.5525253,6.67623858 46.9997595,6.67623858 47.8923864,7.56886553 Z M56,27.6190476 L56,28.3809524 C56,29.6433175 54.9766509,30.6666667 53.7142857,30.6666667 L50.2857143,30.6666667 C49.0233491,30.6666667 48,29.6433175 48,28.3809524 L48,27.6190476 C48,26.3566825 49.0233491,25.3333333 50.2857143,25.3333333 L53.7142857,25.3333333 C54.9766509,25.3333333 56,26.3566825 56,27.6190476 Z M8,27.6190476 L8,28.3809524 C8,29.6433175 6.97665086,30.6666667 5.71428571,30.6666667 L2.28571429,30.6666667 C1.02334914,30.6666667 0,29.6433175 0,28.3809524 L0,27.6190476 C0,26.3566825 1.02334914,25.3333333 2.28571429,25.3333333 L5.71428571,25.3333333 C6.97665086,25.3333333 8,26.3566825 8,27.6190476 Z" id="Combined-Shape"></path>
        </g>
    </g>
</svg>