<?xml version="1.0" encoding="UTF-8"?>
<svg width="24px" height="24px" viewBox="0 0 24 24" version="1.1" xmlns="http://www.w3.org/2000/svg" xmlns:xlink="http://www.w3.org/1999/xlink">
    <!-- Generator: Sketch 51.1 (57501) - http://www.bohemiancoding.com/sketch -->
    <title>24/sb_icon/9</title>
    <desc>Created with Sketch.</desc>
    <defs></defs>
    <g id="24/sb_icon/9" stroke="none" stroke-width="1" fill="none" fill-rule="evenodd">
        <g id="icon/24x24/门禁/active" transform="translate(4.000000, 2.000000)" fill="#FFFFFF">
            <path d="M15.2380952,8.57142857 L11.4285714,8.57142857 C10.3766005,8.57142857 9.52380952,9.42421952 9.52380952,10.4761905 L9.52380952,12.3809524 C9.52380952,13.4329233 10.3766005,14.2857143 11.4285714,14.2857143 L15.2380952,14.2857143 L15.2380952,18 C15.2380952,19.1045695 14.3426647,20 13.2380952,20 L2,20 C0.8954305,20 1.3527075e-16,19.1045695 0,18 L0,2 C-1.3527075e-16,0.8954305 0.8954305,2.02906125e-16 2,0 L13.2380952,0 C14.3426647,7.78148667e-16 15.2380952,0.8954305 15.2380952,2 L15.2380952,8.57142857 Z M2.38095238,9.52380952 C2.11795964,9.52380952 1.9047619,9.73700726 1.9047619,10 L1.9047619,16.6666667 C1.9047619,16.9296594 2.11795964,17.1428571 2.38095238,17.1428571 C2.64394512,17.1428571 2.85714286,16.9296594 2.85714286,16.6666667 L2.85714286,10 C2.85714286,9.73700726 2.64394512,9.52380952 2.38095238,9.52380952 Z M4.28571429,9.52380952 C4.02272155,9.52380952 3.80952381,9.73700726 3.80952381,10 L3.80952381,16.6666667 C3.80952381,16.9296594 4.02272155,17.1428571 4.28571429,17.1428571 C4.54870702,17.1428571 4.76190476,16.9296594 4.76190476,16.6666667 L4.76190476,10 C4.76190476,9.73700726 4.54870702,9.52380952 4.28571429,9.52380952 Z M6.19047619,9.52380952 C5.92748345,9.52380952 5.71428571,9.73700726 5.71428571,10 L5.71428571,16.6666667 C5.71428571,16.9296594 5.92748345,17.1428571 6.19047619,17.1428571 C6.45346893,17.1428571 6.66666667,16.9296594 6.66666667,16.6666667 L6.66666667,10 C6.66666667,9.73700726 6.45346893,9.52380952 6.19047619,9.52380952 Z M2.9047619,1.9047619 C2.35247715,1.9047619 1.9047619,2.35247715 1.9047619,2.9047619 L1.9047619,5.66666667 C1.9047619,6.21895142 2.35247715,6.66666667 2.9047619,6.66666667 L12.3333333,6.66666667 C12.8856181,6.66666667 13.3333333,6.21895142 13.3333333,5.66666667 L13.3333333,2.9047619 C13.3333333,2.35247715 12.8856181,1.9047619 12.3333333,1.9047619 L2.9047619,1.9047619 Z M11.4285714,9.52380952 L15.2380952,9.52380952 C15.7640807,9.52380952 16.1904762,9.950205 16.1904762,10.4761905 L16.1904762,12.3809524 C16.1904762,12.9069379 15.7640807,13.3333333 15.2380952,13.3333333 L11.4285714,13.3333333 C10.902586,13.3333333 10.4761905,12.9069379 10.4761905,12.3809524 L10.4761905,10.4761905 C10.4761905,9.950205 10.902586,9.52380952 11.4285714,9.52380952 Z" id="Combined-Shape"></path>
        </g>
    </g>
</svg>