<?xml version="1.0" encoding="UTF-8"?>
<svg width="32px" height="32px" viewBox="0 0 32 32" version="1.1" xmlns="http://www.w3.org/2000/svg" xmlns:xlink="http://www.w3.org/1999/xlink">
    <!-- Generator: Sketch 51.1 (57501) - http://www.bohemiancoding.com/sketch -->
    <title>32/syrk_icon/3</title>
    <desc>Created with Sketch.</desc>
    <defs></defs>
    <g id="32/syrk_icon/3" stroke="none" stroke-width="1" fill="none" fill-rule="evenodd">
        <g id="Group-21">
            <g id="icon/36/bg" fill-rule="nonzero">
                <path d="M16,32 C7.163444,32 0,24.836556 0,16 C0,7.163444 7.163444,0 16,0 C24.836556,0 32,7.163444 32,16 C32,24.836556 24.836556,32 16,32 Z" id="Path" fill="#FF8822"></path>
                <path d="M16,31 C24.2842712,31 31,24.2842712 31,16 C31,7.71572875 24.2842712,1 16,1 C7.71572875,1 1,7.71572875 1,16 C1,24.2842712 7.71572875,31 16,31 Z" id="Mask" fill="#FF9933"></path>
            </g>
            <g id="icon/24x24/门禁/active" transform="translate(8.000000, 5.000000)" fill="#FFFFFF">
                <path d="M16,9 L12,9 C10.8954305,9 10,9.8954305 10,11 L10,13 C10,14.1045695 10.8954305,15 12,15 L16,15 L16,19 C16,20.1045695 15.1045695,21 14,21 L2,21 C0.8954305,21 1.3527075e-16,20.1045695 0,19 L0,2 C-1.3527075e-16,0.8954305 0.8954305,2.02906125e-16 2,0 L14,0 C15.1045695,-2.02906125e-16 16,0.8954305 16,2 L16,9 Z M2.5,10 C2.22385763,10 2,10.2238576 2,10.5 L2,17.5 C2,17.7761424 2.22385763,18 2.5,18 C2.77614237,18 3,17.7761424 3,17.5 L3,10.5 C3,10.2238576 2.77614237,10 2.5,10 Z M4.5,10 C4.22385763,10 4,10.2238576 4,10.5 L4,17.5 C4,17.7761424 4.22385763,18 4.5,18 C4.77614237,18 5,17.7761424 5,17.5 L5,10.5 C5,10.2238576 4.77614237,10 4.5,10 Z M6.5,10 C6.22385763,10 6,10.2238576 6,10.5 L6,17.5 C6,17.7761424 6.22385763,18 6.5,18 C6.77614237,18 7,17.7761424 7,17.5 L7,10.5 C7,10.2238576 6.77614237,10 6.5,10 Z M3,2 C2.44771525,2 2,2.44771525 2,3 L2,6 C2,6.55228475 2.44771525,7 3,7 L13,7 C13.5522847,7 14,6.55228475 14,6 L14,3 C14,2.44771525 13.5522847,2 13,2 L3,2 Z M12,10 L16,10 C16.5522847,10 17,10.4477153 17,11 L17,13 C17,13.5522847 16.5522847,14 16,14 L12,14 C11.4477153,14 11,13.5522847 11,13 L11,11 C11,10.4477153 11.4477153,10 12,10 Z" id="Combined-Shape"></path>
            </g>
        </g>
    </g>
</svg>