<?xml version="1.0" encoding="UTF-8"?>
<svg width="16px" height="16px" viewBox="0 0 16 16" version="1.1" xmlns="http://www.w3.org/2000/svg" xmlns:xlink="http://www.w3.org/1999/xlink">
    <!-- Generator: Sketch 51.1 (57501) - http://www.bohemiancoding.com/sketch -->
    <title>16/Bar/Add_White</title>
    <desc>Created with Sketch.</desc>
    <defs></defs>
    <g id="16/Bar/Add_White" stroke="none" stroke-width="1" fill="none" fill-rule="evenodd">
        <path d="M2.00025925,7.05636388 C2.00008654,7.03759638 2,7.0188083 2,7 C2,3.6862915 4.6862915,1 8,1 C11.3137085,1 14,3.6862915 14,7 C14,7.0188083 13.9999135,7.03759638 13.9997408,7.05636388 C13.9733856,10.5157419 11.5206897,11.9689654 10.5,13.5 C9.5,15 9,16 8,16 C7,16 6.5,15 5.5,13.5 C4.47931026,11.9689654 2.0266144,10.5157419 2.00021482,7.05639452 Z M8,9 C9.1045695,9 10,8.1045695 10,7 C10,5.8954305 9.1045695,5 8,5 C6.8954305,5 6,5.8954305 6,7 C6,8.1045695 6.8954305,9 8,9 Z" id="BG" fill="#FFFFFF"></path>
    </g>
</svg>