<?xml version="1.0" encoding="UTF-8"?>
<svg width="12px" height="12px" viewBox="0 0 12 12" version="1.1" xmlns="http://www.w3.org/2000/svg" xmlns:xlink="http://www.w3.org/1999/xlink">
    <!-- Generator: Sketch 51 (57462) - http://www.bohemiancoding.com/sketch -->
    <title>12/dz_icon/1</title>
    <desc>Created with Sketch.</desc>
    <defs></defs>
    <g id="12/dz_icon/1" stroke="none" stroke-width="1" fill="none" fill-rule="evenodd">
        <g id="Group-2" transform="translate(1.000000, 0.000000)" stroke="#848999">
            <path d="M5,11.3344826 C5.12543332,11.2215052 5.27316471,11.0859145 5.4388409,10.9302182 C6.01462063,10.3891219 6.59035691,9.80567038 7.12646298,9.20316349 C8.6105748,7.5352331 9.5,6.04442983 9.5,5 C9.5,2.51471863 7.48528137,0.5 5,0.5 C2.51471863,0.5 0.5,2.51471863 0.5,5 C0.5,5.55879351 0.761165035,6.26618421 1.25613675,7.07797974 C1.663911,7.74676406 2.21507579,8.46314681 2.87353702,9.20316349 C3.40964309,9.80567038 3.98537937,10.3891219 4.5611591,10.9302182 C4.72683529,11.0859145 4.87456668,11.2215052 5,11.3344826 Z" id="Oval-4"></path>
            <circle id="Oval-5" cx="5" cy="5" r="2"></circle>
        </g>
    </g>
</svg>