<?xml version="1.0" encoding="UTF-8"?>
<svg width="24px" height="24px" viewBox="0 0 24 24" version="1.1" xmlns="http://www.w3.org/2000/svg" xmlns:xlink="http://www.w3.org/1999/xlink">
    <!-- Generator: Sketch 51.1 (57501) - http://www.bohemiancoding.com/sketch -->
    <title>24/sb_icon/4</title>
    <desc>Created with Sketch.</desc>
    <defs></defs>
    <g id="24/sb_icon/4" stroke="none" stroke-width="1" fill="none" fill-rule="evenodd">
        <path d="M3.79411765,6.52941176 L3,6.52941176 L3,4.43582888 C3,3.83941593 3.48647476,3.35294118 4.0828877,3.35294118 L6.17647059,3.35294118 L6.17647059,4.14705882 L4.15508021,4.14705882 C3.95737551,4.14705882 3.79411765,4.31031669 3.79411765,4.50802139 L3.79411765,6.52941176 Z M3.79411765,17.3529412 L3.79411765,19.3743316 C3.79411765,19.5720363 3.95737551,19.7352941 4.15508021,19.7352941 L6.17647059,19.7352941 L6.17647059,20.5294118 L4.0828877,20.5294118 C3.48647476,20.5294118 3,20.042937 3,19.4465241 L3,17.3529412 L3.79411765,17.3529412 Z M20.3823529,6.52941176 L20.3823529,4.50802139 C20.3823529,4.31031669 20.2190951,4.14705882 20.0213904,4.14705882 L18,4.14705882 L18,3.35294118 L20.0935829,3.35294118 C20.6899958,3.35294118 21.1764706,3.83941593 21.1764706,4.43582888 L21.1764706,6.52941176 L20.3823529,6.52941176 Z M20.3823529,17.3529412 L21.1764706,17.3529412 L21.1764706,19.4465241 C21.1764706,20.042937 20.6899958,20.5294118 20.0935829,20.5294118 L18,20.5294118 L18,19.7352941 L20.0213904,19.7352941 C20.2190951,19.7352941 20.3823529,19.5720363 20.3823529,19.3743316 L20.3823529,17.3529412 Z M16.0736182,14.8642352 C16.4827076,14.8642352 16.8019632,14.4713905 16.7611924,14.0185811 L16.2705616,8.561037 C16.1993855,7.77534746 15.6051003,7.17647059 14.8954131,7.17647059 L14.2693405,7.17647059 C14.0150417,7.17647059 13.7586698,7.24258536 13.5492879,7.40325965 C13.1070291,7.74152129 12.5770095,7.94524705 12,7.94524705 C11.4229905,7.94524705 10.8922799,7.74152129 10.4507121,7.40325965 C10.2413302,7.24258536 9.9842673,7.17647059 9.72996849,7.17647059 L9.1045869,7.17647059 C8.39489973,7.17647059 7.79992343,7.77534746 7.72943843,8.561037 L7.23880757,14.0185811 C7.19803684,14.4713905 7.51729241,14.8642352 7.92638181,14.8642352 L7.95955122,14.8642352 C8.29677355,14.8642352 8.58562383,14.5920884 8.64090618,14.2223069 L9.23588248,10.2515765 L9.23588248,14.8642352 L8.62086633,21.1543459 C8.5800956,21.6071552 8.89935117,22 9.30844057,22 L10.0409317,22 C10.3753899,22 10.6614761,21.7340033 10.7209046,21.3688345 L11.8196413,15.198653 C11.8562659,14.9757078 12.1437341,14.9757078 12.1803587,15.198653 L13.2784044,21.3688345 C13.3385239,21.7340033 13.6246101,22 13.9583773,22 L14.6915594,22 C15.1006488,22 15.4199044,21.6071552 15.3791337,21.1543459 L14.7641175,14.8642352 L14.7641175,10.2515765 L15.3590938,14.2223069 C15.4143762,14.5920884 15.7025354,14.8642352 16.0404488,14.8642352 L16.0736182,14.8642352 Z M9.35294118,4 C9.35294118,2.53794118 10.5379412,1.35294118 12,1.35294118 C13.4620588,1.35294118 14.6470588,2.53794118 14.6470588,4 C14.6470588,5.46205882 13.4620588,6.64705882 12,6.64705882 C10.5379412,6.64705882 9.35294118,5.46205882 9.35294118,4" id="Fill-10" fill="#FFFFFF"></path>
    </g>
</svg>