<?xml version="1.0" encoding="UTF-8"?>
<svg width="24px" height="24px" viewBox="0 0 24 24" version="1.1" xmlns="http://www.w3.org/2000/svg" xmlns:xlink="http://www.w3.org/1999/xlink">
    <!-- Generator: Sketch 51.1 (57501) - http://www.bohemiancoding.com/sketch -->
    <title>24/sb_icon/8</title>
    <desc>Created with Sketch.</desc>
    <defs></defs>
    <g id="24/sb_icon/8" stroke="none" stroke-width="1" fill="none" fill-rule="evenodd">
        <path d="M3.11111111,5 L20.8888889,5 C21.5022222,5 22,5.40636364 22,5.90909091 L22,6.81818182 L2,6.81818182 L2,5.90909091 C2,5.40636364 2.49777778,5 3.11111111,5 Z M2.90909091,7.72727273 L21.0909091,7.72727273 L21.0909091,11.3636364 C21.0909091,16.3844068 17.0207705,20.4545455 12,20.4545455 C6.97922955,20.4545455 2.90909091,16.3844068 2.90909091,11.3636364 L2.90909091,7.72727273 Z M12,10.4545455 C10.4937689,10.4545455 9.27272727,11.675587 9.27272727,13.1818182 L9.27272727,15.9090909 C9.27272727,17.415322 10.4937689,18.6363636 12,18.6363636 C13.5062311,18.6363636 14.7272727,17.415322 14.7272727,15.9090909 L14.7272727,13.1818182 C14.7272727,11.675587 13.5062311,10.4545455 12,10.4545455 Z M12,17.7272727 C13.0036364,17.7272727 13.8181818,16.9136364 13.8181818,15.9090909 C13.8181818,14.9045455 13.0036364,14.0909091 12,14.0909091 C10.9963636,14.0909091 10.1818182,14.9045455 10.1818182,15.9090909 C10.1818182,16.9136364 10.9963636,17.7272727 12,17.7272727 Z" id="Fill-1" fill="#FFFFFF"></path>
    </g>
</svg>