<?xml version="1.0" encoding="UTF-8"?>
<svg width="20px" height="20px" viewBox="0 0 20 20" version="1.1" xmlns="http://www.w3.org/2000/svg" xmlns:xlink="http://www.w3.org/1999/xlink">
    <!-- Generator: Sketch 51.1 (57501) - http://www.bohemiancoding.com/sketch -->
    <title>20/icon/底部控制面板/1</title>
    <desc>Created with Sketch.</desc>
    <defs></defs>
    <g id="20/icon/底部控制面板/1" stroke="none" stroke-width="1" fill="none" fill-rule="evenodd">
        <path d="M15.1818182,6.87098964 L18.3682412,6.00054473 C18.6346232,5.92777634 18.9095589,6.08473119 18.9823273,6.3511132 C18.9940566,6.39405041 19,6.43836157 19,6.48287202 L19,13.5172537 C19,13.793396 18.7761424,14.0172537 18.5,14.0172537 C18.4554896,14.0172537 18.4111784,14.0113102 18.3682412,13.999581 L15.1818182,13.129136 L15.1818182,15.5 C15.1818182,15.7761424 14.9579606,16 14.6818182,16 L1.5,16 C1.22385763,16 1,15.7761424 1,15.5 L1,4.5 C1,4.22385763 1.22385763,4 1.5,4 L14.6818182,4 C14.9579606,4 15.1818182,4.22385763 15.1818182,4.5 L15.1818182,6.87098964 Z M4.27272727,8 C4.87521973,8 5.36363636,7.55228475 5.36363636,7 C5.36363636,6.44771525 4.87521973,6 4.27272727,6 C3.67023482,6 3.18181818,6.44771525 3.18181818,7 C3.18181818,7.55228475 3.67023482,8 4.27272727,8 Z M4.18181818,11 C3.62953343,11 3.18181818,11.4477153 3.18181818,12 C3.18181818,12.5522847 3.62953343,13 4.18181818,13 L9.81818182,13 C10.3704666,13 10.8181818,12.5522847 10.8181818,12 C10.8181818,11.4477153 10.3704666,11 9.81818182,11 L4.18181818,11 Z" id="Combined-Shape" fill="#FFFFFF"></path>
    </g>
</svg>