<?xml version="1.0" encoding="UTF-8"?>
<svg width="16px" height="16px" viewBox="0 0 16 16" version="1.1" xmlns="http://www.w3.org/2000/svg" xmlns:xlink="http://www.w3.org/1999/xlink">
    <!-- Generator: Sketch 51.1 (57501) - http://www.bohemiancoding.com/sketch -->
    <title>16/Header/Tabicon_10_Body_Dark</title>
    <desc>Created with Sketch.</desc>
    <defs></defs>
    <g id="16/Header/Tabicon_10_Body_Dark" stroke="none" stroke-width="1" fill="none" fill-rule="evenodd">
        <path d="M11.8473061,9.74204758 C12.2336683,9.74204758 12.5351874,9.39752895 12.4966817,9.00042235 L12.0333081,4.21424277 C11.9660863,3.52520551 11.4048169,3 10.7345568,3 L10.143266,3 C9.90309491,3 9.6609659,3.05798161 9.46321632,3.1988904 C9.04552745,3.4955405 8.54495345,3.67420476 8,3.67420476 C7.45504655,3.67420476 6.95381991,3.4955405 6.53678368,3.1988904 C6.3390341,3.05798161 6.09625245,3 5.85608135,3 L5.26544318,3 C4.59518307,3 4.03326102,3.52520551 3.96669185,4.21424277 L3.50331826,9.00042235 C3.46481257,9.39752895 3.76633172,9.74204758 4.15269393,9.74204758 L4.18402059,9.74204758 C4.50250836,9.74204758 4.7753114,9.5033791 4.82752251,9.17908661 L5.38944456,5.69681903 L5.38944456,9.74204758 L4.80859598,15.2583748 C4.77009029,15.6554814 5.07160944,16 5.45797165,16 L6.14976884,16 C6.46564604,16 6.73583853,15.7667252 6.79196547,15.4464779 L7.82966126,10.0353266 C7.86425112,9.83980727 8.13574888,9.83980727 8.17033874,10.0353266 L9.20738189,15.4464779 C9.26416147,15.7667252 9.53435396,16 9.84957853,16 L10.5420284,16 C10.9283906,16 11.2299097,15.6554814 11.191404,15.2583748 L10.6105554,9.74204758 L10.6105554,5.69681903 L11.1724775,9.17908661 C11.2246886,9.5033791 11.496839,9.74204758 11.8159794,9.74204758 L11.8473061,9.74204758 Z M6.5,1.5 C6.5,0.6715 7.1715,0 8,0 C8.8285,0 9.5,0.6715 9.5,1.5 C9.5,2.3285 8.8285,3 8,3 C7.1715,3 6.5,2.3285 6.5,1.5" id="Fill-1" fill="#8D96A9"></path>
    </g>
</svg>