<?xml version="1.0" encoding="UTF-8"?>
<svg width="32px" height="32px" viewBox="0 0 32 32" version="1.1" xmlns="http://www.w3.org/2000/svg" xmlns:xlink="http://www.w3.org/1999/xlink">
    <!-- Generator: Sketch 51.1 (57501) - http://www.bohemiancoding.com/sketch -->
    <title>32/syrk_icon/2</title>
    <desc>Created with Sketch.</desc>
    <defs></defs>
    <g id="32/syrk_icon/2" stroke="none" stroke-width="1" fill="none" fill-rule="evenodd">
        <g id="Group-23" fill-rule="nonzero">
            <g id="icon/36/bg">
                <path d="M16,32 C7.163444,32 0,24.836556 0,16 C0,7.163444 7.163444,0 16,0 C24.836556,0 32,7.163444 32,16 C32,24.836556 24.836556,32 16,32 Z" id="Path" fill="#2299FF"></path>
                <path d="M16,31 C24.2842712,31 31,24.2842712 31,16 C31,7.71572875 24.2842712,1 16,1 C7.71572875,1 1,7.71572875 1,16 C1,24.2842712 7.71572875,31 16,31 Z" id="Mask" fill="#44AAFF"></path>
            </g>
        </g>
        <g id="icon/24x24/安防设备/active" transform="translate(6.000000, 10.000000)" fill="#FFFFFF">
            <path d="M17,3.3180001 L21.3572025,2.01952339 C21.6218436,1.94065849 21.9003103,2.09125989 21.9791752,2.35590103 C21.9929854,2.40224279 22,2.45034283 22,2.49869858 L22,9.50142711 C22,9.77756949 21.7761424,10.0014271 21.5,10.0014271 C21.4516442,10.0014271 21.4035442,9.99441247 21.3572025,9.9806023 L17,8.68212559 L17,11.5 C17,11.7761424 16.7761424,12 16.5,12 L0.5,12 C0.223857625,12 3.38176876e-17,11.7761424 0,11.5 L0,0.5 C-3.38176876e-17,0.223857625 0.223857625,5.07265313e-17 0.5,0 L16.5,0 C16.7761424,-5.07265313e-17 17,0.223857625 17,0.5 L17,3.3180001 Z M3,4 C3.55228475,4 4,3.55228475 4,3 C4,2.44771525 3.55228475,2 3,2 C2.44771525,2 2,2.44771525 2,3 C2,3.55228475 2.44771525,4 3,4 Z M3,7 C2.44771525,7 2,7.44771525 2,8 C2,8.55228475 2.44771525,9 3,9 L11,9 C11.5522847,9 12,8.55228475 12,8 C12,7.44771525 11.5522847,7 11,7 L3,7 Z" id="Combined-Shape"></path>
        </g>
    </g>
</svg>