<?xml version="1.0" encoding="UTF-8"?>
<svg width="24px" height="24px" viewBox="0 0 24 24" version="1.1" xmlns="http://www.w3.org/2000/svg" xmlns:xlink="http://www.w3.org/1999/xlink">
    <!-- Generator: Sketch 51.1 (57501) - http://www.bohemiancoding.com/sketch -->
    <title>24/sb_icon/7</title>
    <desc>Created with Sketch.</desc>
    <defs></defs>
    <g id="24/sb_icon/7" stroke="none" stroke-width="1" fill="none" fill-rule="evenodd">
        <path d="M8.2285104,13.4533625 C8.49451407,13.5603354 8.62458204,13.8672575 8.51896293,14.1401883 L8.30479087,14.6940477 C8.20014972,14.9659787 7.89991764,15.098945 7.63391398,14.9909724 L6.56305364,14.5580822 C6.35866112,14.4751033 6.12884178,14.5780771 6.04767154,14.7860244 L5.59194467,15.9607263 C5.39928761,16.4556007 4.93182529,16.7805183 4.41057546,16.781518 L1.43563742,16.785517 L1.43563742,16.927481 C1.43563742,17.3323783 1.1148683,17.6612948 0.717818711,17.6612948 C0.321747079,17.6612948 0,17.3323783 0,16.927481 L0,15.3198889 C0,14.9149917 0.321747079,14.5860751 0.717818711,14.5860751 C1.1148683,14.5860751 1.43563742,14.9149917 1.43563742,15.3198889 L1.43563742,15.4958443 L3.88639177,15.4958443 C4.10251975,15.4958443 4.29811068,15.3648775 4.38514864,15.1629287 L4.76459504,14.279153 C4.85456687,14.070206 4.75774936,13.8262679 4.55042297,13.7402897 L3.6184322,13.3503887 C3.3465608,13.2384171 3.22138261,12.9184982 3.34069308,12.6455675 L3.57344628,12.1147022 C3.68591107,11.8557679 3.97831951,11.7347986 4.23552158,11.8387722 L8.2285104,13.4533625 Z M18.8164342,10.3365534 L19.9968254,10.8144321 C20.3762719,10.9673933 20.7811451,11.0443738 21.1879742,11.0413745 L23.6631774,11.0163809 C23.9076661,11.0143814 24.0709845,11.2723159 23.9692772,11.4992584 L21.192864,17.6546965 C21.0862669,17.8896369 20.7723435,17.9216288 20.6227164,17.7126818 L19.5068702,16.155077 C19.1988145,15.7241863 18.7910074,15.3782741 18.3196332,15.1493322 L16.2082291,14.117594 L18.8164342,10.3365534 Z M3.84297058,3.07319639 C3.93489832,2.80826361 4.22241699,2.67329786 4.4786411,2.77427224 L18.8741335,8.45183162 C19.1724097,8.56980168 19.2819406,8.94470655 19.0951513,9.20963933 L15.6106989,14.1733798 C14.9916536,15.0541563 13.8670057,15.3940701 12.8792715,14.9981706 L1.74623582,10.5333035 C1.5007692,10.4353283 1.37559101,10.1543996 1.46458488,9.90146379 L3.84297058,3.07319639 Z" id="Fill-7" fill="#FFFFFF"></path>
    </g>
</svg>