<?xml version="1.0" encoding="UTF-8"?>
<svg width="24px" height="24px" viewBox="0 0 24 24" version="1.1" xmlns="http://www.w3.org/2000/svg" xmlns:xlink="http://www.w3.org/1999/xlink">
    <!-- Generator: Sketch 51.1 (57501) - http://www.bohemiancoding.com/sketch -->
    <title>24/sb_icon/3</title>
    <desc>Created with Sketch.</desc>
    <defs></defs>
    <g id="24/sb_icon/3" stroke="none" stroke-width="1" fill="none" fill-rule="evenodd">
        <path d="M4,8 L16,8 C16.5522847,8 17,8.44771525 17,9 L17,17 C17,17.5522847 16.5522847,18 16,18 L4,18 C3.44771525,18 3,17.5522847 3,17 L3,9 C3,8.44771525 3.44771525,8 4,8 Z M6.5,15 C7.32842712,15 8,14.3284271 8,13.5 C8,12.6715729 7.32842712,12 6.5,12 C5.67157288,12 5,12.6715729 5,13.5 C5,14.3284271 5.67157288,15 6.5,15 Z M18,10.6 L20.6666667,9 C20.8888889,10.0666667 21,11.4 21,13 C21,14.6 20.8888889,15.9333333 20.6666667,17 L18,15.4 L18,10.6 Z" id="Rectangle-7" fill="#FFFFFF"></path>
    </g>
</svg>