<?xml version="1.0" encoding="UTF-8"?>
<svg width="24px" height="24px" viewBox="0 0 24 24" version="1.1" xmlns="http://www.w3.org/2000/svg" xmlns:xlink="http://www.w3.org/1999/xlink">
    <!-- Generator: Sketch 51.1 (57501) - http://www.bohemiancoding.com/sketch -->
    <title>24/sb_icon/1</title>
    <desc>Created with Sketch.</desc>
    <defs></defs>
    <g id="24/sb_icon/1" stroke="none" stroke-width="1" fill="none" fill-rule="evenodd">
        <g id="Group-23" transform="translate(3.000000, 3.000000)" fill="#FFFFFF">
            <g id="Group-25">
                <path d="M8.90379314,11.3202469 C9.31591283,11.3202469 9.63753326,10.9472637 9.59646052,10.5173478 L9.10219536,5.33572884 C9.0304921,4.58976258 8.43180472,4.02116402 7.71686061,4.02116402 L7.08615041,4.02116402 C6.82996791,4.02116402 6.57169696,4.08393613 6.36076408,4.23648697 C5.91522928,4.55764661 5.38128368,4.75107231 4.8,4.75107231 C4.21871632,4.75107231 3.68407457,4.55764661 3.23923592,4.23648697 C3.02830304,4.08393613 2.76933595,4.02116402 2.51315344,4.02116402 L1.88313939,4.02116402 C1.16819528,4.02116402 0.568811751,4.58976258 0.497804643,5.33572884 L0.00353948066,10.5173478 C-0.0375332582,10.9472637 0.284087171,11.3202469 0.696206856,11.3202469 L0.729621966,11.3202469 C1.06934225,11.3202469 1.36033216,11.0618593 1.41602401,10.7107735 L2.01540754,6.94079716 L2.01540754,11.3202469 L1.39583571,17.292339 C1.35476297,17.722255 1.6763834,18.0952381 2.08850309,18.0952381 L2.82642009,18.0952381 C3.16335578,18.0952381 3.4515611,17.8426898 3.51142984,17.4959834 L4.61830534,11.637757 C4.65520119,11.4260836 4.94479881,11.4260836 4.98169466,11.637757 L6.08787401,17.4959834 C6.1484389,17.8426898 6.43664422,18.0952381 6.77288376,18.0952381 L7.51149691,18.0952381 C7.9236166,18.0952381 8.24523703,17.722255 8.20416429,17.292339 L7.58459246,11.3202469 L7.58459246,6.94079716 L8.18397599,10.7107735 C8.23966784,11.0618593 8.52996161,11.3202469 8.87037803,11.3202469 L8.90379314,11.3202469 Z M2.88,2.01058201 C2.88,0.900070547 3.73952,0 4.8,0 C5.86048,0 6.72,0.900070547 6.72,2.01058201 C6.72,3.12109347 5.86048,4.02116402 4.8,4.02116402 C3.73952,4.02116402 2.88,3.12109347 2.88,2.01058201" id="Fill-1"></path>
                <g id="Group-24" transform="translate(9.000000, 0.000000)">
                    <path d="M7.75274519,9.41880193 C8.13588771,9.41880193 8.4348942,9.10005257 8.39670939,8.73264869 L7.72167958,5.14806271 C7.65501796,4.51056397 7.09842578,4.02464272 6.43375118,4.02464272 L5.84738779,4.02464272 C5.60921812,4.02464272 5.36910685,4.07828743 5.17300518,4.20865655 C4.75879706,4.48311784 4.57489165,4.6484184 4.03447948,4.6484184 C3.49406731,4.6484184 3.24416484,4.48311784 2.83060391,4.20865655 C2.63450225,4.07828743 2.39374378,4.02464272 2.1555741,4.02464272 L1.56985792,4.02464272 C1.14100342,4.02464272 0.772691014,4.20865655 0.281929519,5.14806271 C0.440819025,6.61499504 0.537522451,7.24844917 0.572039795,7.0484251 L1.34869919,5.67614789 L1.79494919,8.98924381 L0.772691014,12.9558958 L2.45167053,12.9558958 L3.20083402,18.2142715 L4.6182312,18.2142715 L5.58108582,12.9558958 L7.10230899,12.9558958 L6.08005081,8.98924381 L6.52630081,5.67614789 L7.08354018,8.89794925 C7.1353162,9.19798535 7.40519868,9.41880193 7.72167958,9.41880193 L7.75274519,9.41880193 Z M2.1,1.76876877 C2.1,0.791818819 2.9225875,0 3.9375,0 C4.9524125,0 5.775,0.791818819 5.775,1.76876877 C5.775,2.74571872 4.9524125,3.53753754 3.9375,3.53753754 C2.9225875,3.53753754 2.1,2.74571872 2.1,1.76876877" id="Fill-1"></path>
                </g>
            </g>
        </g>
    </g>
</svg>