<?xml version="1.0" encoding="UTF-8"?>
<svg width="28px" height="28px" viewBox="0 0 28 28" version="1.1" xmlns="http://www.w3.org/2000/svg" xmlns:xlink="http://www.w3.org/1999/xlink">
    <!-- Generator: Sketch 51.1 (57501) - http://www.bohemiancoding.com/sketch -->
    <title>28/maps_4</title>
    <desc>Created with Sketch.</desc>
    <defs>
        <linearGradient x1="50%" y1="1.80410043%" x2="50%" y2="100%" id="linearGradient-1">
            <stop stop-color="#FF6A6A" offset="0%"></stop>
            <stop stop-color="#F22F66" offset="100%"></stop>
        </linearGradient>
    </defs>
    <g id="28/maps_4" stroke="none" stroke-width="1" fill="none" fill-rule="evenodd">
        <g id="Group">
            <circle id="Oval-3" fill="url(#linearGradient-1)" cx="14" cy="14" r="14"></circle>
            <path d="M12.4225736,12.3333333 L12.2475736,14.5 L11.8392403,19.5555556 L16.1607597,19.5555556 L15.7524264,14.5 L15.5774264,12.3333333 L15.344093,9.44444444 L12.655907,9.44444444 L12.4225736,12.3333333 Z M10.146861,8 L17.8529124,8 C18.5629011,8 19.1688269,8.51048551 19.2855483,9.20697924 L20.9800119,19.3180904 C21.1118824,20.1049808 20.5773716,20.8491984 19.7861486,20.9803468 C19.7072378,20.9934266 19.6273753,21 19.547376,21 L8.45239739,21 C7.65026046,21 7,20.3533002 7,19.5555556 C7,19.4759943 7.00660963,19.3965691 7.01976143,19.3180904 L8.71422505,9.20697924 C8.83094647,8.51048551 9.43687229,8 10.146861,8 Z M15.05,14.5 L12.95,14.5 L13.125,12.3333333 L14.875,12.3333333 L15.05,14.5 Z M15.1083333,15.2222222 L15.4,18.8333333 L12.6,18.8333333 L12.8916667,15.2222222 L15.1083333,15.2222222 Z M14.8166667,11.6111111 L13.1833333,11.6111111 L13.3,10.1666667 L14.7,10.1666667 L14.8166667,11.6111111 Z" id="Combined-Shape" fill="#FFFFFF"></path>
        </g>
    </g>
</svg>