<?xml version="1.0" encoding="UTF-8"?>
<svg width="24px" height="24px" viewBox="0 0 24 24" version="1.1" xmlns="http://www.w3.org/2000/svg" xmlns:xlink="http://www.w3.org/1999/xlink">
    <!-- Generator: Sketch 51.1 (57501) - http://www.bohemiancoding.com/sketch -->
    <title>24/sb_icon/10</title>
    <desc>Created with Sketch.</desc>
    <defs></defs>
    <g id="24/sb_icon/10" stroke="none" stroke-width="1" fill="none" fill-rule="evenodd">
        <g id="icon/24x24/闸机/active" transform="translate(3.000000, 4.000000)" fill="#FFFFFF">
            <path d="M4.04596414,0 L13.9537445,0 C14.8665871,0 15.6456346,0.636143477 15.795705,1.50408182 L17.9743011,14.1040818 C18.1438488,15.0846684 17.4566207,16.012078 16.439334,16.1755091 C16.3378772,16.1918085 16.2351968,16.2 16.1323405,16.2 L1.86736807,16.2 C0.836049161,16.2 0,15.3941125 0,14.4 C0,14.3008545 0.00849809055,14.2018784 0.0254075521,14.1040818 L2.20400363,1.50408182 C2.35407403,0.636143477 3.13312152,0 4.04596414,0 Z M10.35,8.1 L10.125,5.4 L7.875,5.4 L7.65,8.1 L10.35,8.1 Z M10.425,9 L7.575,9 L7.2,13.5 L10.8,13.5 L10.425,9 Z M10.05,4.5 L9.9,2.7 L8.1,2.7 L7.95,4.5 L10.05,4.5 Z" id="Combined-Shape"></path>
        </g>
    </g>
</svg>