<?xml version="1.0" encoding="UTF-8"?>
<svg width="32px" height="32px" viewBox="0 0 32 32" version="1.1" xmlns="http://www.w3.org/2000/svg" xmlns:xlink="http://www.w3.org/1999/xlink">
    <!-- Generator: Sketch 51.1 (57501) - http://www.bohemiancoding.com/sketch -->
    <title>32/syrk_icon/1</title>
    <desc>Created with Sketch.</desc>
    <defs></defs>
    <g id="32/syrk_icon/1" stroke="none" stroke-width="1" fill="none" fill-rule="evenodd">
        <g id="Group-23">
            <g id="icon/36/bg" fill-rule="nonzero">
                <path d="M16,32 C7.163444,32 0,24.836556 0,16 C0,7.163444 7.163444,0 16,0 C24.836556,0 32,7.163444 32,16 C32,24.836556 24.836556,32 16,32 Z" id="Path" fill="#2299FF"></path>
                <path d="M16,31 C24.2842712,31 31,24.2842712 31,16 C31,7.71572875 24.2842712,1 16,1 C7.71572875,1 1,7.71572875 1,16 C1,24.2842712 7.71572875,31 16,31 Z" id="Mask" fill="#44AAFF"></path>
            </g>
            <g id="Group-25" transform="translate(7.000000, 6.000000)" fill="#FFFFFF">
                <path d="M9.89310349,12.5118518 C10.3510143,12.5118518 10.7083703,12.0996073 10.6627339,11.624437 L10.1135504,5.89738451 C10.0338801,5.07289548 9.36867191,4.44444444 8.57428956,4.44444444 L7.87350046,4.44444444 C7.58885323,4.44444444 7.30188551,4.51382415 7.06751564,4.68243296 C6.57247698,5.03739889 5.97920409,5.25118518 5.33333333,5.25118518 C4.68746258,5.25118518 4.09341619,5.03739889 3.59915103,4.68243296 C3.36478116,4.51382415 3.07703994,4.44444444 2.79239271,4.44444444 L2.0923771,4.44444444 C1.29799475,4.44444444 0.632013057,5.07289548 0.55311627,5.89738451 L0.00393275629,11.624437 C-0.0417036202,12.0996073 0.315652413,12.5118518 0.773563173,12.5118518 L0.810691073,12.5118518 C1.18815805,12.5118518 1.51148018,12.2262656 1.57336001,11.8382233 L2.23934171,7.67140739 L2.23934171,12.5118518 L1.55092857,19.1125852 C1.50529219,19.5877555 1.86264823,20 2.32055899,20 L3.14046677,20 C3.51483975,20 3.83506789,19.7208677 3.90158871,19.3376659 L5.13145038,12.862784 C5.17244577,12.6288292 5.4942209,12.6288292 5.53521629,12.862784 L6.76430446,19.3376659 C6.83159878,19.7208677 7.15182691,20 7.5254264,20 L8.34610768,20 C8.80401844,20 9.16137447,19.5877555 9.1157381,19.1125852 L8.42732496,12.5118518 L8.42732496,7.67140739 L9.09330666,11.8382233 C9.15518649,12.2262656 9.47773512,12.5118518 9.85597559,12.5118518 L9.89310349,12.5118518 Z M3.2,2.22222222 C3.2,0.994814815 4.15502222,0 5.33333333,0 C6.51164444,0 7.46666667,0.994814815 7.46666667,2.22222222 C7.46666667,3.44962963 6.51164444,4.44444444 5.33333333,4.44444444 C4.15502222,4.44444444 3.2,3.44962963 3.2,2.22222222" id="Fill-1"></path>
                <g id="Group-24" transform="translate(10.000000, 0.000000)">
                    <path d="M8.61416132,10.4102548 C9.03987523,10.4102548 9.37210467,10.0579528 9.3296771,9.65187487 L8.57964398,5.68996405 C8.50557551,4.98536018 7.88713976,4.44828932 7.14861242,4.44828932 L6.49709755,4.44828932 C6.23246458,4.44828932 5.96567427,4.50758084 5.74778354,4.65167303 C5.28755228,4.95502498 5.08321294,5.1377256 4.48275498,5.1377256 C3.88229701,5.1377256 3.6046276,4.95502498 3.14511546,4.65167303 C2.92722472,4.50758084 2.65971531,4.44828932 2.39508234,4.44828932 L1.74428658,4.44828932 C1.26778158,4.44828932 0.858545571,4.65167303 0.313255021,5.68996405 C0.489798917,7.3113103 0.597247168,8.01144381 0.635599772,7.79036458 L1.49855466,6.27363714 L1.99438799,9.93548 L0.858545571,14.3196743 L2.72407837,14.3196743 L3.55648224,20.1315632 L5.131368,20.1315632 L6.20120646,14.3196743 L7.89145443,14.3196743 L6.75561201,9.93548 L7.25144534,6.27363714 L7.8706002,9.83457548 C7.92812911,10.1661943 8.22799853,10.4102548 8.57964398,10.4102548 L8.61416132,10.4102548 Z M2.33333333,1.95495495 C2.33333333,0.875168168 3.24731944,0 4.375,0 C5.50268056,0 6.41666667,0.875168168 6.41666667,1.95495495 C6.41666667,3.03474174 5.50268056,3.90990991 4.375,3.90990991 C3.24731944,3.90990991 2.33333333,3.03474174 2.33333333,1.95495495" id="Fill-1"></path>
                </g>
            </g>
        </g>
    </g>
</svg>