<?xml version="1.0" encoding="UTF-8"?>
<svg width="20px" height="20px" viewBox="0 0 20 20" version="1.1" xmlns="http://www.w3.org/2000/svg" xmlns:xlink="http://www.w3.org/1999/xlink">
    <!-- Generator: Sketch 51 (57462) - http://www.bohemiancoding.com/sketch -->
    <title>20/btn_icon/1</title>
    <desc>Created with Sketch.</desc>
    <defs>
        <linearGradient x1="50%" y1="0%" x2="50%" y2="100%" id="linearGradient-1">
            <stop stop-color="#44AAFF" offset="0%"></stop>
            <stop stop-color="#44AAFF" offset="100%"></stop>
        </linearGradient>
    </defs>
    <g id="20/btn_icon/1" stroke="none" stroke-width="1" fill="none" fill-rule="evenodd">
        <g id="Group-16" transform="translate(0.000000, 2.000000)">
            <g id="Group-17">
                <rect id="Rectangle-21" fill="url(#linearGradient-1)" x="0" y="0" width="20" height="16" rx="1"></rect>
                <path d="M12.4166667,5 C12.1405243,5 11.9166667,4.77614237 11.9166667,4.5 C11.9166667,4.22385763 12.1405243,4 12.4166667,4 L16.5833333,4 C16.8594757,4 17.0833333,4.22385763 17.0833333,4.5 C17.0833333,4.77614237 16.8594757,5 16.5833333,5 L12.4166667,5 Z" id="Line-2" fill="#FFFFFF" fill-rule="nonzero"></path>
                <path d="M12.4166667,8 C12.1405243,8 11.9166667,7.77614237 11.9166667,7.5 C11.9166667,7.22385763 12.1405243,7 12.4166667,7 L16.5833333,7 C16.8594757,7 17.0833333,7.22385763 17.0833333,7.5 C17.0833333,7.77614237 16.8594757,8 16.5833333,8 L12.4166667,8 Z" id="Line-2" fill="#FFFFFF" fill-rule="nonzero"></path>
                <path d="M12.4166667,11 C12.1405243,11 11.9166667,10.7761424 11.9166667,10.5 C11.9166667,10.2238576 12.1405243,10 12.4166667,10 L16.5833333,10 C16.8594757,10 17.0833333,10.2238576 17.0833333,10.5 C17.0833333,10.7761424 16.8594757,11 16.5833333,11 L12.4166667,11 Z" id="Line-2" fill="#FFFFFF" fill-rule="nonzero"></path>
                <path d="M6.5,9.5 C4.84314575,9.5 3.5,8.15685425 3.5,6.5 C3.5,4.84314575 4.84314575,3.5 6.5,3.5 C8.15685425,3.5 9.5,4.84314575 9.5,6.5 C9.5,8.15685425 8.15685425,9.5 6.5,9.5 Z M6.5,8.5 C7.6045695,8.5 8.5,7.6045695 8.5,6.5 C8.5,5.3954305 7.6045695,4.5 6.5,4.5 C5.3954305,4.5 4.5,5.3954305 4.5,6.5 C4.5,7.6045695 5.3954305,8.5 6.5,8.5 Z" id="Oval-5" fill="#FFFFFF" fill-rule="nonzero"></path>
                <path d="M10.6861905,10.7562618 C10.8390286,10.9862512 10.7764852,11.2965942 10.5464958,11.4494324 C10.3165065,11.6022705 10.0061634,11.5397271 9.85332528,11.3097377 C9.09989009,10.1759758 7.92112046,9.5 6.64730977,9.5 C5.36033722,9.5 4.17065467,10.1901674 3.41890384,11.3437616 C3.26813964,11.5751158 2.95837147,11.6404469 2.72701726,11.4896827 C2.49566306,11.3389185 2.43033196,11.0291503 2.58109616,10.7977961 C3.51179209,9.36960288 5.01077834,8.5 6.64730977,8.5 C8.26726217,8.5 9.75300377,9.35201162 10.6861905,10.7562618 Z" id="Oval-6" fill="#FFFFFF" fill-rule="nonzero"></path>
            </g>
        </g>
    </g>
</svg>