<?xml version="1.0" encoding="UTF-8"?>
<svg width="24px" height="24px" viewBox="0 0 24 24" version="1.1" xmlns="http://www.w3.org/2000/svg" xmlns:xlink="http://www.w3.org/1999/xlink">
    <!-- Generator: Sketch 51.1 (57501) - http://www.bohemiancoding.com/sketch -->
    <title>24/sb_icon/6</title>
    <desc>Created with Sketch.</desc>
    <defs></defs>
    <g id="24/sb_icon/6" stroke="none" stroke-width="1" fill="none" fill-rule="evenodd">
        <path d="M2,6 L17.0040869,6 C17.5563717,6 18.0040869,6.44771525 18.0040869,7 C18.0040869,7.09869222 17.9894771,7.19684081 17.9607326,7.29125429 L15.131976,16.5825086 C14.8756145,17.4245466 14.0988831,18 13.2186847,18 L2,18 C1.44771525,18 1,17.5522847 1,17 L1,7 C1,6.44771525 1.44771525,6 2,6 Z M18.7142857,9 L22,9 C22.5522847,9 23,9.44771525 23,10 L23,14 C23,14.5522847 22.5522847,15 22,15 L17,15 L18.7142857,9 Z M3,8 L3,9 L8,9 L8,8 L3,8 Z" id="Rectangle-15" fill="#FFFFFF"></path>
    </g>
</svg>