<?xml version="1.0" encoding="UTF-8"?>
<svg width="150px" height="180px" viewBox="0 0 150 180" version="1.1" xmlns="http://www.w3.org/2000/svg" xmlns:xlink="http://www.w3.org/1999/xlink">
    <!-- Generator: Sketch 52.3 (67297) - http://www.bohemiancoding.com/sketch -->
    <title>Img/DefaultPage/NoData</title>
    <desc>Created with Sketch.</desc>
    <defs>
        <linearGradient x1="50%" y1="0%" x2="50%" y2="100%" id="linearGradient-1">
            <stop stop-color="#C6CAD1" offset="0%"></stop>
            <stop stop-color="#D1D4DA" offset="100%"></stop>
        </linearGradient>
        <linearGradient x1="50%" y1="77.9296875%" x2="50%" y2="100%" id="linearGradient-2">
            <stop stop-color="#E3E6EB" offset="0%"></stop>
            <stop stop-color="#CED1D8" offset="100%"></stop>
        </linearGradient>
        <linearGradient x1="50%" y1="0%" x2="50%" y2="100%" id="linearGradient-3">
            <stop stop-color="#FFBB22" offset="0%"></stop>
            <stop stop-color="#FFAA00" offset="100%"></stop>
        </linearGradient>
    </defs>
    <g id="Img/DefaultPage/NoData" stroke="none" stroke-width="1" fill="none" fill-rule="evenodd">
        <path d="M34,50 L54.8578644,50 C57.5100293,50 60.0535684,51.0535684 61.9289322,52.9289322 L66.6568542,57.6568542 C68.1571453,59.1571453 70.1919766,60 72.3137085,60 L116,60 C118.761424,60 121,62.2385763 121,65 L121,73 C121,75.7614237 118.761424,78 116,78 L34,78 C31.2385763,78 29,75.7614237 29,73 L29,55 C29,52.2385763 31.2385763,50 34,50 Z" id="Rectangle" fill="url(#linearGradient-1)"></path>
        <path d="M28.0002982,69 L121.092997,69 C123.854421,69 126.092997,71.2385763 126.092997,74 C126.092997,74.1445866 126.086725,74.2891051 126.0742,74.4331481 L120.943765,133.433148 C120.719088,136.016936 118.5561,138 115.962562,138 L33.1307329,138 C30.5371947,138 28.3742072,136.016936 28.14953,133.433148 L23.0190952,74.4331481 C22.7798741,71.6821057 24.8161077,69.2580181 27.5671501,69.0187971 C27.7111931,69.0062716 27.8557116,69 28.0002982,69 Z" id="Rectangle" fill="url(#linearGradient-2)"></path>
        <polygon id="Rectangle" fill="#4C586E" points="110.99979 121.065641 116 126 113 129.167594 108 124"></polygon>
        <path d="M118.991177,125.976074 L125.992417,132.941962 C127.64926,134.59044 127.656042,137.269932 126.007564,138.926776 C126.005046,138.929307 126.002525,138.931835 126,138.934359 L126,138.934359 C124.343146,140.591213 121.656854,140.591213 120,138.934359 L112.983635,131.917994 C111.344857,130.279216 111.344857,127.622233 112.983635,125.983455 C112.989075,125.978015 112.99453,125.97259 113,125.96718 L113,125.96718 C114.660737,124.324611 117.335324,124.328581 118.991177,125.976074 Z" id="Rectangle" fill="#5F6F8D"></path>
        <path d="M99,128 C90.163444,128 83,120.836556 83,112 C83,103.163444 90.163444,96 99,96 C107.836556,96 115,103.163444 115,112 C115,120.836556 107.836556,128 99,128 Z M99,124 C105.627417,124 111,118.627417 111,112 C111,105.372583 105.627417,100 99,100 C92.372583,100 87,105.372583 87,112 C87,118.627417 92.372583,124 99,124 Z" id="Oval-2" fill="url(#linearGradient-3)"></path>
        <circle id="Oval" fill="#FFFFFF" cx="99" cy="112" r="12"></circle>
        <path d="M93,24 C93.5522847,24 94,24.4477153 94,25 L94,28 C94,28.5522847 93.5522847,29 93,29 C92.4477153,29 92,28.5522847 92,28 L92,25 C92,24.4477153 92.4477153,24 93,24 Z M93,31 C93.5522847,31 94,31.4477153 94,32 L94,35 C94,35.5522847 93.5522847,36 93,36 C92.4477153,36 92,35.5522847 92,35 L92,32 C92,31.4477153 92.4477153,31 93,31 Z M88,29 L91,29 C91.5522847,29 92,29.4477153 92,30 C92,30.5522847 91.5522847,31 91,31 L88,31 C87.4477153,31 87,30.5522847 87,30 C87,29.4477153 87.4477153,29 88,29 Z M95,29 L98,29 C98.5522847,29 99,29.4477153 99,30 C99,30.5522847 98.5522847,31 98,31 L95,31 C94.4477153,31 94,30.5522847 94,30 C94,29.4477153 94.4477153,29 95,29 Z" id="Rectangle-2" fill="#DBE0EB"></path>
        <path d="M17,50 C17.5522847,50 18,50.4477153 18,51 L18,53 C18,53.5522847 17.5522847,54 17,54 C16.4477153,54 16,53.5522847 16,53 L16,51 C16,50.4477153 16.4477153,50 17,50 Z M17,56 C17.5522847,56 18,56.4477153 18,57 L18,59 C18,59.5522847 17.5522847,60 17,60 C16.4477153,60 16,59.5522847 16,59 L16,57 C16,56.4477153 16.4477153,56 17,56 Z M13,54 L15,54 C15.5522847,54 16,54.4477153 16,55 C16,55.5522847 15.5522847,56 15,56 L13,56 C12.4477153,56 12,55.5522847 12,55 C12,54.4477153 12.4477153,54 13,54 Z M19,54 L21,54 C21.5522847,54 22,54.4477153 22,55 C22,55.5522847 21.5522847,56 21,56 L19,56 C18.4477153,56 18,55.5522847 18,55 C18,54.4477153 18.4477153,54 19,54 Z" id="Rectangle-2" fill="#DBE0EB"></path>
        <path d="M132,53 C128.686292,53 126,50.3137085 126,47 C126,43.6862915 128.686292,41 132,41 C135.313708,41 138,43.6862915 138,47 C138,50.3137085 135.313708,53 132,53 Z M132,51 C134.209139,51 136,49.209139 136,47 C136,44.790861 134.209139,43 132,43 C129.790861,43 128,44.790861 128,47 C128,49.209139 129.790861,51 132,51 Z" id="Oval-2" fill="#DBE0EB"></path>
        <path d="M44,30 C41.2385763,30 39,27.7614237 39,25 C39,22.2385763 41.2385763,20 44,20 C46.7614237,20 49,22.2385763 49,25 C49,27.7614237 46.7614237,30 44,30 Z M44,28 C45.6568542,28 47,26.6568542 47,25 C47,23.3431458 45.6568542,22 44,22 C42.3431458,22 41,23.3431458 41,25 C41,26.6568542 42.3431458,28 44,28 Z" id="Oval-2" fill="#DBE0EB"></path>
    </g>
</svg>