<?xml version="1.0" encoding="UTF-8"?>
<svg width="150px" height="180px" viewBox="0 0 150 180" version="1.1" xmlns="http://www.w3.org/2000/svg" xmlns:xlink="http://www.w3.org/1999/xlink">
    <!-- Generator: Sketch 52.3 (67297) - http://www.bohemiancoding.com/sketch -->
    <title>Img/DefaultPage/404</title>
    <desc>Created with Sketch.</desc>
    <defs>
        <linearGradient x1="100%" y1="0%" x2="16.961364%" y2="100%" id="linearGradient-1">
            <stop stop-color="#C6CAD1" offset="0%"></stop>
            <stop stop-color="#ADB5C4" offset="100%"></stop>
        </linearGradient>
        <linearGradient x1="100%" y1="0%" x2="0%" y2="100%" id="linearGradient-2">
            <stop stop-color="#B7BECD" offset="0%"></stop>
            <stop stop-color="#818A9C" offset="100%"></stop>
        </linearGradient>
        <linearGradient x1="100%" y1="0%" x2="28.5566304%" y2="69.0643506%" id="linearGradient-3">
            <stop stop-color="#EAECF1" offset="0%"></stop>
            <stop stop-color="#D5DAE4" offset="100%"></stop>
        </linearGradient>
    </defs>
    <g id="Img/DefaultPage/404" stroke="none" stroke-width="1" fill="none" fill-rule="evenodd">
        <path d="M48,56 L23,56 C19.1340068,56 16,52.8659932 16,49 C16,45.7813253 18.1723606,43.0700326 21.1308858,42.2523179 C21.0451227,41.8484057 21,41.4294723 21,41 C21,37.6862915 23.6862915,35 27,35 C27.927767,35 28.806352,35.2105728 29.5905692,35.5865325 C31.3706437,32.8270173 34.4719605,31 38,31 C43.1853991,31 47.4489842,34.9467549 47.9506396,40.0001491 C47.9670813,40.0000497 47.9835349,40 48,40 C52.418278,40 56,43.581722 56,48 C56,52.418278 52.418278,56 48,56 Z" id="Oval-2" fill="#E6E9F0"></path>
        <path d="M125,152 L105,152 C100.581722,152 97,148.418278 97,144 C97,139.581722 100.581722,136 105,136 C105.016465,136 105.032919,136.00005 105.04936,136.000149 C105.551016,130.946755 109.814601,127 115,127 C120.185399,127 124.448984,130.946755 124.95064,136.000149 C124.967081,136.00005 124.983535,136 125,136 C129.418278,136 133,139.581722 133,144 C133,148.418278 129.418278,152 125,152 Z" id="Oval-2" fill="#E6E9F0"></path>
        <g id="Plane" transform="translate(23.000000, 48.000000)">
            <polygon id="Path-44" fill="url(#linearGradient-1)" points="28 59 40 83 98 0"></polygon>
            <polygon id="Path-42" fill="url(#linearGradient-2)" points="40 65 40 83 98 1.42108547e-14"></polygon>
            <polygon id="Path-43" fill="url(#linearGradient-3)" points="28 59 0 44 98 0 75.5857864 84 40 65 98 0"></polygon>
        </g>
        <path d="M33.375,63.7499167 L28.0313109,63.7490263 C26.8045982,63.6723567 26.0401472,63.0353142 25.875,61.84375 C25.875,61.3648006 26.0316256,60.8949238 26.3125213,60.4766501 L31.6465364,50.8388932 C32.235948,49.66007 33.2353616,49.0834852 34.565651,49.1574348 C36.6371212,49.3002948 37.7725327,50.5114005 37.84375,52.65625 L37.84375,59.5702246 C39.0948379,59.6764817 39.8285739,60.3993578 39.9052763,61.6874391 C39.8291206,62.9059307 39.1052625,63.6257486 37.84375,63.7406954 L37.84375,65.3125 C37.84375,66.7198742 37.0202839,67.5 35.5887794,67.4993089 C34.1047756,67.5774144 33.2975856,66.7702244 33.375,65.3125 L33.375,63.7499167 Z M33.375,59.5625 L33.375,55.4122577 L31.38756,59.5625 L33.375,59.5625 Z M33.875,53.4511444 L33.875,53.90625 L33.78125,53.90625 L33.78125,53.40625 L33.875,53.4511444 Z M46.53125,63.5 C47.9034964,63.5 48.65625,61.9138406 48.6563194,58.4604178 C48.714748,54.9547059 47.9629685,53.34375 46.53125,53.34375 C45.1671015,53.34375 44.4415259,54.9561401 44.5,58.46875 C44.5,61.9122064 45.2266174,63.5 46.53125,63.5 Z M46.5389414,67.5936908 L46.5234385,67.593689 C42.2143505,67.5263595 39.9456301,64.4111015 39.7504719,58.4470314 C40.0105959,52.4641789 42.2721826,49.2912066 46.5466273,49.1564865 C50.9137651,49.29086 53.2107786,52.4661433 53.4059785,58.4852246 C53.2105919,64.4119526 50.9085603,67.5264659 46.5389414,67.5936908 Z M60.75,63.7499167 L55.4063109,63.7490263 C54.1795982,63.6723567 53.4151472,63.0353142 53.25,61.84375 C53.25,61.3648006 53.4066256,60.8949238 53.6875213,60.4766501 L59.0215364,50.8388932 C59.610948,49.66007 60.6103616,49.0834852 61.940651,49.1574348 C64.0121212,49.3002948 65.1475327,50.5114005 65.21875,52.65625 L65.21875,59.5702246 C66.4698379,59.6764817 67.2035739,60.3993578 67.2802763,61.6874391 C67.2041206,62.9059307 66.4802625,63.6257486 65.21875,63.7406954 L65.21875,65.3125 C65.21875,66.7198742 64.3952839,67.5 62.9637794,67.4993089 C61.4797756,67.5774144 60.6725856,66.7702244 60.75,65.3125 L60.75,63.7499167 Z M60.75,59.5625 L60.75,55.4122577 L58.76256,59.5625 L60.75,59.5625 Z M61.25,53.4511444 L61.25,53.90625 L61.15625,53.90625 L61.15625,53.40625 L61.25,53.4511444 Z" id="404" stroke="#FFFFFF" fill="#FFAA00"></path>
        <path d="M112,24 C112.552285,24 113,24.4477153 113,25 L113,28 C113,28.5522847 112.552285,29 112,29 C111.447715,29 111,28.5522847 111,28 L111,25 C111,24.4477153 111.447715,24 112,24 Z M112,31 C112.552285,31 113,31.4477153 113,32 L113,35 C113,35.5522847 112.552285,36 112,36 C111.447715,36 111,35.5522847 111,35 L111,32 C111,31.4477153 111.447715,31 112,31 Z M107,29 L110,29 C110.552285,29 111,29.4477153 111,30 C111,30.5522847 110.552285,31 110,31 L107,31 C106.447715,31 106,30.5522847 106,30 C106,29.4477153 106.447715,29 107,29 Z M114,29 L117,29 C117.552285,29 118,29.4477153 118,30 C118,30.5522847 117.552285,31 117,31 L114,31 C113.447715,31 113,30.5522847 113,30 C113,29.4477153 113.447715,29 114,29 Z" id="Rectangle-2" fill="#DBE0EB"></path>
        <path d="M22,111 C22.5522847,111 23,111.447715 23,112 L23,116 C23,116.552285 22.5522847,117 22,117 C21.4477153,117 21,116.552285 21,116 L21,112 C21,111.447715 21.4477153,111 22,111 Z M22,121 C22.5522847,121 23,121.447715 23,122 L23,126 C23,126.552285 22.5522847,127 22,127 C21.4477153,127 21,126.552285 21,126 L21,122 C21,121.447715 21.4477153,121 22,121 Z M15,118 L19,118 C19.5522847,118 20,118.447715 20,119 C20,119.552285 19.5522847,120 19,120 L15,120 C14.4477153,120 14,119.552285 14,119 C14,118.447715 14.4477153,118 15,118 Z M25,118 L29,118 C29.5522847,118 30,118.447715 30,119 C30,119.552285 29.5522847,120 29,120 L25,120 C24.4477153,120 24,119.552285 24,119 C24,118.447715 24.4477153,118 25,118 Z" id="Rectangle-2" fill="#DBE0EB"></path>
        <path d="M130,94 C126.686292,94 124,91.3137085 124,88 C124,84.6862915 126.686292,82 130,82 C133.313708,82 136,84.6862915 136,88 C136,91.3137085 133.313708,94 130,94 Z M130,92 C132.209139,92 134,90.209139 134,88 C134,85.790861 132.209139,84 130,84 C127.790861,84 126,85.790861 126,88 C126,90.209139 127.790861,92 130,92 Z" id="Oval-2" fill="#DBE0EB"></path>
        <path d="M45,148 C42.2385763,148 40,145.761424 40,143 C40,140.238576 42.2385763,138 45,138 C47.7614237,138 50,140.238576 50,143 C50,145.761424 47.7614237,148 45,148 Z M45,146 C46.6568542,146 48,144.656854 48,143 C48,141.343146 46.6568542,140 45,140 C43.3431458,140 42,141.343146 42,143 C42,144.656854 43.3431458,146 45,146 Z" id="Oval-2" fill="#DBE0EB"></path>
    </g>
</svg>