<?xml version="1.0" encoding="UTF-8"?>
<svg width="150px" height="180px" viewBox="0 0 150 180" version="1.1" xmlns="http://www.w3.org/2000/svg" xmlns:xlink="http://www.w3.org/1999/xlink">
    <!-- Generator: Sketch 52.3 (67297) - http://www.bohemiancoding.com/sketch -->
    <title>Img/DefaultPage/NoAlarm</title>
    <desc>Created with Sketch.</desc>
    <defs>
        <linearGradient x1="50%" y1="0%" x2="50%" y2="100%" id="linearGradient-1">
            <stop stop-color="#C6CAD1" offset="0%"></stop>
            <stop stop-color="#D1D4DA" offset="100%"></stop>
        </linearGradient>
        <linearGradient x1="50%" y1="0%" x2="50%" y2="100%" id="linearGradient-2">
            <stop stop-color="#FFBB22" offset="0%"></stop>
            <stop stop-color="#FFAA00" offset="100%"></stop>
        </linearGradient>
    </defs>
    <g id="Img/DefaultPage/NoAlarm" stroke="none" stroke-width="1" fill="none" fill-rule="evenodd">
        <path d="M41,128 L109,128 C111.209139,128 113,129.790861 113,132 L113,138 L37,138 L37,132 C37,129.790861 38.790861,128 41,128 Z" id="Path" fill="#A7AEBC"></path>
        <path d="M43,90 C43,72.326888 57.326888,58 75,58 C92.673112,58 107,72.326888 107,90 L107,126 L43,126 L43,90 Z" id="Oval-6" fill="#CED1D8"></path>
        <path d="M72.0018836,113.814554 C60.162037,112.339096 51,102.239502 51,90 C51,77.760498 60.162037,67.6609043 72.0018836,66.1854465 C66.3994913,72.5319104 63,80.8689584 63,90 C63,99.1310416 66.3994913,107.46809 72.0018836,113.814554 Z" id="Oval-7" fill-opacity="0.6" fill="#FFFFFF"></path>
        <path d="M75,38 C77.209139,38 79,39.790861 79,42 L79,50 C79,52.209139 77.209139,54 75,54 C72.790861,54 71,52.209139 71,50 L71,42 C71,39.790861 72.790861,38 75,38 Z M37.3431458,52.3431458 C38.9052429,50.7810486 41.4379028,50.7810486 43,52.3431458 L48.6568542,58 C50.2189514,59.5620972 50.2189514,62.0947571 48.6568542,63.6568542 C47.0947571,65.2189514 44.5620972,65.2189514 43,63.6568542 L37.3431458,58 C35.7810486,56.4379028 35.7810486,53.9052429 37.3431458,52.3431458 Z M112.656854,52.3431458 C114.218951,53.9052429 114.218951,56.4379028 112.656854,58 L107,63.6568542 C105.437903,65.2189514 102.905243,65.2189514 101.343146,63.6568542 C99.7810486,62.0947571 99.7810486,59.5620972 101.343146,58 L107,52.3431458 C108.562097,50.7810486 111.094757,50.7810486 112.656854,52.3431458 Z M127,90 C127,92.209139 125.209139,94 123,94 L115,94 C112.790861,94 111,92.209139 111,90 C111,87.790861 112.790861,86 115,86 L123,86 C125.209139,86 127,87.790861 127,90 Z M39,90 C39,92.209139 37.209139,94 35,94 L27,94 C24.790861,94 23,92.209139 23,90 C23,87.790861 24.790861,86 27,86 L35,86 C37.209139,86 39,87.790861 39,90 Z" id="Rectangle-15" fill="url(#linearGradient-1)"></path>
        <polygon id="Rectangle" fill="#4C586E" points="111.99979 129 117 133.934359 114 137.101953 109 131.934359"></polygon>
        <path d="M119.236625,133.238225 L126.237865,140.204113 C127.894709,141.852591 127.90149,144.532083 126.253013,146.188927 C126.250494,146.191458 126.247973,146.193985 126.245448,146.19651 L126.245448,146.19651 C124.588594,147.853364 121.902303,147.853364 120.245448,146.19651 L113.229083,139.180145 C111.590306,137.541367 111.590306,134.884384 113.229083,133.245606 C113.234523,133.240166 113.239978,133.234741 113.245448,133.22933 L113.245448,133.22933 C114.906186,131.586762 117.580772,131.590732 119.236625,133.238225 Z" id="Rectangle" fill="#5F6F8D"></path>
        <path d="M100,136 C91.163444,136 84,128.836556 84,120 C84,111.163444 91.163444,104 100,104 C108.836556,104 116,111.163444 116,120 C116,128.836556 108.836556,136 100,136 Z M100,132 C106.627417,132 112,126.627417 112,120 C112,113.372583 106.627417,108 100,108 C93.372583,108 88,113.372583 88,120 C88,126.627417 93.372583,132 100,132 Z" id="Oval-2" fill="url(#linearGradient-2)"></path>
        <circle id="Oval" fill="#FFFFFF" cx="100" cy="120" r="12"></circle>
        <path d="M132,20 C132.552285,20 133,20.4477153 133,21 L133,24 C133,24.5522847 132.552285,25 132,25 C131.447715,25 131,24.5522847 131,24 L131,21 C131,20.4477153 131.447715,20 132,20 Z M132,27 C132.552285,27 133,27.4477153 133,28 L133,31 C133,31.5522847 132.552285,32 132,32 C131.447715,32 131,31.5522847 131,31 L131,28 C131,27.4477153 131.447715,27 132,27 Z M127,25 L130,25 C130.552285,25 131,25.4477153 131,26 C131,26.5522847 130.552285,27 130,27 L127,27 C126.447715,27 126,26.5522847 126,26 C126,25.4477153 126.447715,25 127,25 Z M134,25 L137,25 C137.552285,25 138,25.4477153 138,26 C138,26.5522847 137.552285,27 137,27 L134,27 C133.447715,27 133,26.5522847 133,26 C133,25.4477153 133.447715,25 134,25 Z" id="Rectangle-2" fill="#DBE0EB"></path>
        <path d="M48,26 C48.5522847,26 49,26.4477153 49,27 L49,29 C49,29.5522847 48.5522847,30 48,30 C47.4477153,30 47,29.5522847 47,29 L47,27 C47,26.4477153 47.4477153,26 48,26 Z M48,32 C48.5522847,32 49,32.4477153 49,33 L49,35 C49,35.5522847 48.5522847,36 48,36 C47.4477153,36 47,35.5522847 47,35 L47,33 C47,32.4477153 47.4477153,32 48,32 Z M44,30 L46,30 C46.5522847,30 47,30.4477153 47,31 C47,31.5522847 46.5522847,32 46,32 L44,32 C43.4477153,32 43,31.5522847 43,31 C43,30.4477153 43.4477153,30 44,30 Z M50,30 L52,30 C52.5522847,30 53,30.4477153 53,31 C53,31.5522847 52.5522847,32 52,32 L50,32 C49.4477153,32 49,31.5522847 49,31 C49,30.4477153 49.4477153,30 50,30 Z" id="Rectangle-2" fill="#DBE0EB"></path>
        <path d="M102,44 C98.6862915,44 96,41.3137085 96,38 C96,34.6862915 98.6862915,32 102,32 C105.313708,32 108,34.6862915 108,38 C108,41.3137085 105.313708,44 102,44 Z M102,42 C104.209139,42 106,40.209139 106,38 C106,35.790861 104.209139,34 102,34 C99.790861,34 98,35.790861 98,38 C98,40.209139 99.790861,42 102,42 Z" id="Oval-2" fill="#DBE0EB"></path>
        <path d="M17,66 C14.2385763,66 12,63.7614237 12,61 C12,58.2385763 14.2385763,56 17,56 C19.7614237,56 22,58.2385763 22,61 C22,63.7614237 19.7614237,66 17,66 Z M17,64 C18.6568542,64 20,62.6568542 20,61 C20,59.3431458 18.6568542,58 17,58 C15.3431458,58 14,59.3431458 14,61 C14,62.6568542 15.3431458,64 17,64 Z" id="Oval-2" fill="#DBE0EB"></path>
    </g>
</svg>