<?xml version="1.0" encoding="UTF-8"?>
<svg width="150px" height="180px" viewBox="0 0 150 180" version="1.1" xmlns="http://www.w3.org/2000/svg" xmlns:xlink="http://www.w3.org/1999/xlink">
    <!-- Generator: Sketch 52.3 (67297) - http://www.bohemiancoding.com/sketch -->
    <title>Img/DefaultPage/NoNet</title>
    <desc>Created with Sketch.</desc>
    <defs>
        <linearGradient x1="50%" y1="0%" x2="50%" y2="100%" id="linearGradient-1">
            <stop stop-color="#C6CAD1" offset="0%"></stop>
            <stop stop-color="#D1D4DA" offset="100%"></stop>
        </linearGradient>
        <linearGradient x1="50%" y1="0%" x2="50%" y2="100%" id="linearGradient-2">
            <stop stop-color="#FFBB22" offset="0%"></stop>
            <stop stop-color="#FFAA00" offset="100%"></stop>
        </linearGradient>
    </defs>
    <g id="Img/DefaultPage/NoNet" stroke="none" stroke-width="1" fill="none" fill-rule="evenodd">
        <path d="M76.7793219,64.1033906 L78.7634603,54.1826983 C96.5363369,55.1722303 114.02421,62.455667 127.601551,76.0330086 C129.554173,77.98563 129.554173,81.1514549 127.601551,83.1040764 C125.64893,85.0566979 122.483105,85.0566979 120.530483,83.1040764 C108.400787,70.9743801 92.6698344,64.6408181 76.7793219,64.1033906 Z M66.6915597,64.5422015 C52.7704929,66.2320238 39.2913627,72.4193154 28.6066017,83.1040764 C26.6539803,85.0566979 23.4881554,85.0566979 21.5355339,83.1040764 C19.5829124,81.1514549 19.5829124,77.98563 21.5355339,76.0330086 C34.6970922,62.8714503 51.533342,55.6242186 68.7417373,54.2913136 L66.6915597,64.5422015 Z M78.0398567,84.1992834 L76.0169949,74.0849745 C89.6060685,74.4407479 103.088409,79.8041378 113.459415,90.1751442 C115.412037,92.1277657 115.412037,95.2935906 113.459415,97.246212 C111.506794,99.1988335 108.340969,99.1988335 106.388348,97.246212 C98.4850981,89.3429624 88.3735061,84.9939862 78.0398567,84.1992834 Z M70.0582489,84.2912445 C60.0877568,85.2897231 50.3869038,89.6080456 42.7487373,97.246212 C40.7961159,99.1988335 37.630291,99.1988335 35.6776695,97.246212 C33.7250481,95.2935906 33.7250481,92.1277657 35.6776695,90.1751442 C44.7661832,81.0866305 56.2441063,75.8438132 68.0893384,74.4466922 L70.0582489,84.2912445 Z M75.1852843,104.073578 L77.1675885,94.1620575 C85.2399138,94.759522 93.1445961,98.1445961 99.3172798,104.31728 C101.269901,106.269901 101.269901,109.435726 99.3172798,111.388348 C97.3646584,113.340969 94.1988335,113.340969 92.246212,111.388348 C87.5215239,106.66366 81.3762292,104.225403 75.1852843,104.073578 Z M69.0647858,104.676067 C64.6033466,105.678384 60.3634102,107.91581 56.890873,111.388348 C54.9382515,113.340969 51.7724266,113.340969 49.8198052,111.388348 C47.8671837,109.435726 47.8671837,106.269901 49.8198052,104.31728 C55.7843634,98.3527216 63.366093,94.9909614 71.1536002,94.2319992 L69.0647865,104.676068 Z" id="Rectangle-3" fill="url(#linearGradient-1)"></path>
        <circle id="Oval" fill="url(#linearGradient-2)" cx="75" cy="129" r="15"></circle>
        <circle id="Oval" fill="#FFFFFF" cx="75" cy="129" r="8"></circle>
        <path d="M93,26 C93.5522847,26 94,26.4477153 94,27 L94,30 C94,30.5522847 93.5522847,31 93,31 C92.4477153,31 92,30.5522847 92,30 L92,27 C92,26.4477153 92.4477153,26 93,26 Z M93,33 C93.5522847,33 94,33.4477153 94,34 L94,37 C94,37.5522847 93.5522847,38 93,38 C92.4477153,38 92,37.5522847 92,37 L92,34 C92,33.4477153 92.4477153,33 93,33 Z M88,31 L91,31 C91.5522847,31 92,31.4477153 92,32 C92,32.5522847 91.5522847,33 91,33 L88,33 C87.4477153,33 87,32.5522847 87,32 C87,31.4477153 87.4477153,31 88,31 Z M95,31 L98,31 C98.5522847,31 99,31.4477153 99,32 C99,32.5522847 98.5522847,33 98,33 L95,33 C94.4477153,33 94,32.5522847 94,32 C94,31.4477153 94.4477153,31 95,31 Z" id="Rectangle-2" fill="#DBE0EB"></path>
        <path d="M28,107 C28.5522847,107 29,107.447715 29,108 L29,112 C29,112.552285 28.5522847,113 28,113 C27.4477153,113 27,112.552285 27,112 L27,108 C27,107.447715 27.4477153,107 28,107 Z M28,117 C28.5522847,117 29,117.447715 29,118 L29,122 C29,122.552285 28.5522847,123 28,123 C27.4477153,123 27,122.552285 27,122 L27,118 C27,117.447715 27.4477153,117 28,117 Z M21,114 L25,114 C25.5522847,114 26,114.447715 26,115 C26,115.552285 25.5522847,116 25,116 L21,116 C20.4477153,116 20,115.552285 20,115 C20,114.447715 20.4477153,114 21,114 Z M31,114 L35,114 C35.5522847,114 36,114.447715 36,115 C36,115.552285 35.5522847,116 35,116 L31,116 C30.4477153,116 30,115.552285 30,115 C30,114.447715 30.4477153,114 31,114 Z" id="Rectangle-2" fill="#DBE0EB"></path>
        <path d="M17,52 C17.5522847,52 18,52.4477153 18,53 L18,55 C18,55.5522847 17.5522847,56 17,56 C16.4477153,56 16,55.5522847 16,55 L16,53 C16,52.4477153 16.4477153,52 17,52 Z M17,58 C17.5522847,58 18,58.4477153 18,59 L18,61 C18,61.5522847 17.5522847,62 17,62 C16.4477153,62 16,61.5522847 16,61 L16,59 C16,58.4477153 16.4477153,58 17,58 Z M13,56 L15,56 C15.5522847,56 16,56.4477153 16,57 C16,57.5522847 15.5522847,58 15,58 L13,58 C12.4477153,58 12,57.5522847 12,57 C12,56.4477153 12.4477153,56 13,56 Z M19,56 L21,56 C21.5522847,56 22,56.4477153 22,57 C22,57.5522847 21.5522847,58 21,58 L19,58 C18.4477153,58 18,57.5522847 18,57 C18,56.4477153 18.4477153,56 19,56 Z" id="Rectangle-2" fill="#DBE0EB"></path>
        <path d="M132,120 C128.686292,120 126,117.313708 126,114 C126,110.686292 128.686292,108 132,108 C135.313708,108 138,110.686292 138,114 C138,117.313708 135.313708,120 132,120 Z M132,118 C134.209139,118 136,116.209139 136,114 C136,111.790861 134.209139,110 132,110 C129.790861,110 128,111.790861 128,114 C128,116.209139 129.790861,118 132,118 Z" id="Oval-2" fill="#DBE0EB"></path>
        <path d="M44,32 C41.2385763,32 39,29.7614237 39,27 C39,24.2385763 41.2385763,22 44,22 C46.7614237,22 49,24.2385763 49,27 C49,29.7614237 46.7614237,32 44,32 Z M44,30 C45.6568542,30 47,28.6568542 47,27 C47,25.3431458 45.6568542,24 44,24 C42.3431458,24 41,25.3431458 41,27 C41,28.6568542 42.3431458,30 44,30 Z" id="Oval-2" fill="#DBE0EB"></path>
        <path d="M114,54 C111.238576,54 109,51.7614237 109,49 C109,46.2385763 111.238576,44 114,44 C116.761424,44 119,46.2385763 119,49 C119,51.7614237 116.761424,54 114,54 Z M114,52 C115.656854,52 117,50.6568542 117,49 C117,47.3431458 115.656854,46 114,46 C112.343146,46 111,47.3431458 111,49 C111,50.6568542 112.343146,52 114,52 Z" id="Oval-2" fill="#DBE0EB"></path>
    </g>
</svg>