<?xml version="1.0" encoding="UTF-8"?>
<svg width="150px" height="180px" viewBox="0 0 150 180" version="1.1" xmlns="http://www.w3.org/2000/svg" xmlns:xlink="http://www.w3.org/1999/xlink">
    <!-- Generator: Sketch 52.3 (67297) - http://www.bohemiancoding.com/sketch -->
    <title>Img/DefaultPage/NoPeople</title>
    <desc>Created with Sketch.</desc>
    <defs>
        <linearGradient x1="50%" y1="0%" x2="50%" y2="100%" id="linearGradient-1">
            <stop stop-color="#C6CAD1" offset="0%"></stop>
            <stop stop-color="#ADB5C4" offset="100%"></stop>
        </linearGradient>
        <linearGradient x1="50%" y1="0%" x2="50%" y2="100%" id="linearGradient-2">
            <stop stop-color="#FFBB22" offset="0%"></stop>
            <stop stop-color="#FFAA00" offset="100%"></stop>
        </linearGradient>
    </defs>
    <g id="Img/DefaultPage/NoPeople" stroke="none" stroke-width="1" fill="none" fill-rule="evenodd">
        <path d="M30,62 L25,62 L25,48.8181818 C25,45.0629892 28.0629892,42 31.8181818,42 L45,42 L45,47 L32.2727273,47 C31.0279199,47 30,48.0279199 30,49.2727273 L30,62 Z M30,122 L30,134.727273 C30,135.97208 31.0279199,137 32.2727273,137 L45,137 L45,142 L31.8181818,142 C28.0629892,142 25,138.937011 25,135.181818 L25,122 L30,122 Z M120,62 L120,49.2727273 C120,48.0279199 118.97208,47 117.727273,47 L105,47 L105,42 L118.181818,42 C121.937011,42 125,45.0629892 125,48.8181818 L125,62 L120,62 Z" id="Fill-10" fill="#D5DAE4"></path>
        <path d="M64.2689032,84.4528173 C65.9613907,85.7115343 67.8825639,86.6799885 69.9587539,87.2845108 L72,93 L78,93 L80.0412461,87.2845108 C82.1286417,86.6767258 84.0593427,85.7010699 85.7584809,84.4324114 L100.503652,91.1925897 C104.925389,93.2198114 108.184788,97.1484534 109.360871,101.868434 L113.762339,119.532886 C113.84116,119.849217 113.881013,120.173997 113.881013,120.5 C113.881013,122.709139 112.090152,124.5 109.881013,124.5 L40.1231056,124.5 C39.7960584,124.5 39.4702455,124.459891 39.1529631,124.38057 C37.0097835,123.844775 35.7067407,121.673037 36.2425356,119.529857 L40.6412164,101.935135 C41.8164713,97.234115 45.0588667,93.3189846 49.4585655,91.2883544 L64.2689003,84.4528152 Z M72,94 L70.1019587,112.980413 C70.0358608,113.641392 70.1910101,114.305616 70.5430754,114.868921 L74.1520017,120.643203 C74.2324824,120.771972 74.3412319,120.880721 74.4700011,120.961202 C74.9383376,121.253912 75.555288,121.111539 75.8479983,120.643203 L79.4569246,114.868921 C79.8089899,114.305616 79.9641392,113.641392 79.8980413,112.980413 L78,94 L72,94 Z M75,86 C66.163444,86 59,78.836556 59,70 C59,61.163444 66.163444,54 75,54 C83.836556,54 91,61.163444 91,70 C91,78.836556 83.836556,86 75,86 Z" id="Oval-20-Copy" fill="url(#linearGradient-1)"></path>
        <polygon id="Rectangle" fill="#4C586E" points="110.99979 123.065641 116 128 113 131.167594 108 126"></polygon>
        <path d="M118.991177,127.976074 L125.992417,134.941962 C127.64926,136.59044 127.656042,139.269932 126.007564,140.926776 C126.005046,140.929307 126.002525,140.931835 126,140.934359 L126,140.934359 C124.343146,142.591213 121.656854,142.591213 120,140.934359 L112.983635,133.917994 C111.344857,132.279216 111.344857,129.622233 112.983635,127.983455 C112.989075,127.978015 112.99453,127.97259 113,127.96718 L113,127.96718 C114.660737,126.324611 117.335324,126.328581 118.991177,127.976074 Z" id="Rectangle" fill="#5F6F8D"></path>
        <path d="M99,130 C90.163444,130 83,122.836556 83,114 C83,105.163444 90.163444,98 99,98 C107.836556,98 115,105.163444 115,114 C115,122.836556 107.836556,130 99,130 Z M99,126 C105.627417,126 111,120.627417 111,114 C111,107.372583 105.627417,102 99,102 C92.372583,102 87,107.372583 87,114 C87,120.627417 92.372583,126 99,126 Z" id="Oval-2" fill="url(#linearGradient-2)"></path>
        <circle id="Oval" fill="#FFFFFF" cx="99" cy="114" r="12"></circle>
        <path d="M106,24 C106.552285,24 107,24.4477153 107,25 L107,28 C107,28.5522847 106.552285,29 106,29 C105.447715,29 105,28.5522847 105,28 L105,25 C105,24.4477153 105.447715,24 106,24 Z M106,31 C106.552285,31 107,31.4477153 107,32 L107,35 C107,35.5522847 106.552285,36 106,36 C105.447715,36 105,35.5522847 105,35 L105,32 C105,31.4477153 105.447715,31 106,31 Z M101,29 L104,29 C104.552285,29 105,29.4477153 105,30 C105,30.5522847 104.552285,31 104,31 L101,31 C100.447715,31 100,30.5522847 100,30 C100,29.4477153 100.447715,29 101,29 Z M108,29 L111,29 C111.552285,29 112,29.4477153 112,30 C112,30.5522847 111.552285,31 111,31 L108,31 C107.447715,31 107,30.5522847 107,30 C107,29.4477153 107.447715,29 108,29 Z" id="Rectangle-2" fill="#DBE0EB"></path>
        <path d="M20,92 C20.5522847,92 21,92.4477153 21,93 L21,97 C21,97.5522847 20.5522847,98 20,98 C19.4477153,98 19,97.5522847 19,97 L19,93 C19,92.4477153 19.4477153,92 20,92 Z M20,102 C20.5522847,102 21,102.447715 21,103 L21,107 C21,107.552285 20.5522847,108 20,108 C19.4477153,108 19,107.552285 19,107 L19,103 C19,102.447715 19.4477153,102 20,102 Z M13,99 L17,99 C17.5522847,99 18,99.4477153 18,100 C18,100.552285 17.5522847,101 17,101 L13,101 C12.4477153,101 12,100.552285 12,100 C12,99.4477153 12.4477153,99 13,99 Z M23,99 L27,99 C27.5522847,99 28,99.4477153 28,100 C28,100.552285 27.5522847,101 27,101 L23,101 C22.4477153,101 22,100.552285 22,100 C22,99.4477153 22.4477153,99 23,99 Z" id="Rectangle-2" fill="#DBE0EB"></path>
        <path d="M133,82 C133.552285,82 134,82.4477153 134,83 L134,85 C134,85.5522847 133.552285,86 133,86 C132.447715,86 132,85.5522847 132,85 L132,83 C132,82.4477153 132.447715,82 133,82 Z M133,88 C133.552285,88 134,88.4477153 134,89 L134,91 C134,91.5522847 133.552285,92 133,92 C132.447715,92 132,91.5522847 132,91 L132,89 C132,88.4477153 132.447715,88 133,88 Z M129,86 L131,86 C131.552285,86 132,86.4477153 132,87 C132,87.5522847 131.552285,88 131,88 L129,88 C128.447715,88 128,87.5522847 128,87 C128,86.4477153 128.447715,86 129,86 Z M135,86 L137,86 C137.552285,86 138,86.4477153 138,87 C138,87.5522847 137.552285,88 137,88 L135,88 C134.447715,88 134,87.5522847 134,87 C134,86.4477153 134.447715,86 135,86 Z" id="Rectangle-2" fill="#DBE0EB"></path>
        <path d="M94,154 C90.6862915,154 88,151.313708 88,148 C88,144.686292 90.6862915,142 94,142 C97.3137085,142 100,144.686292 100,148 C100,151.313708 97.3137085,154 94,154 Z M94,152 C96.209139,152 98,150.209139 98,148 C98,145.790861 96.209139,144 94,144 C91.790861,144 90,145.790861 90,148 C90,150.209139 91.790861,152 94,152 Z" id="Oval-2" fill="#DBE0EB"></path>
        <path d="M46,29 C43.2385763,29 41,26.7614237 41,24 C41,21.2385763 43.2385763,19 46,19 C48.7614237,19 51,21.2385763 51,24 C51,26.7614237 48.7614237,29 46,29 Z M46,27 C47.6568542,27 49,25.6568542 49,24 C49,22.3431458 47.6568542,21 46,21 C44.3431458,21 43,22.3431458 43,24 C43,25.6568542 44.3431458,27 46,27 Z" id="Oval-2" fill="#DBE0EB"></path>
        <path d="M36,82 C33.2385763,82 31,79.7614237 31,77 C31,74.2385763 33.2385763,72 36,72 C38.7614237,72 41,74.2385763 41,77 C41,79.7614237 38.7614237,82 36,82 Z M36,80 C37.6568542,80 39,78.6568542 39,77 C39,75.3431458 37.6568542,74 36,74 C34.3431458,74 33,75.3431458 33,77 C33,78.6568542 34.3431458,80 36,80 Z" id="Oval-2" fill="#DBE0EB"></path>
    </g>
</svg>