<?xml version="1.0" encoding="UTF-8"?>
<svg width="24px" height="24px" viewBox="0 0 24 24" version="1.1" xmlns="http://www.w3.org/2000/svg" xmlns:xlink="http://www.w3.org/1999/xlink">
    <!-- Generator: Sketch 52.3 (67297) - http://www.bohemiancoding.com/sketch -->
    <title>24/Bar/ImageSearch_Dark</title>
    <desc>Created with Sketch.</desc>
    <g id="24/Bar/ImageSearch_Dark" stroke="none" stroke-width="1" fill="none" fill-rule="evenodd">
        <path d="M3,6 L2,6 L2,3.36363636 C2,2.61259784 2.61259784,2 3.36363636,2 L6,2 L6,3 L3.45454545,3 C3.20558398,3 3,3.20558398 3,3.45454545 L3,6 Z M3,18 L3,20.5454545 C3,20.794416 3.20558398,21 3.45454545,21 L6,21 L6,22 L3.36363636,22 C2.61259784,22 2,21.3874022 2,20.6363636 L2,18 L3,18 Z M21,6 L21,3.45454545 C21,3.20558398 20.794416,3 20.5454545,3 L18,3 L18,2 L20.6363636,2 C21.3874022,2 22,2.61259784 22,3.36363636 L22,6 L21,6 Z M21,18 L22,18 L22,20.6363636 C22,21.3874022 21.3874022,22 20.6363636,22 L18,22 L18,21 L20.5454545,21 C20.794416,21 21,20.794416 21,20.5454545 L21,18 Z M15.6337822,16.6337822 L15.4246905,16.4246905 C14.2188246,17.4094134 12.6784444,18 11,18 C7.13370918,18 4,14.8662908 4,11 C4,7.13370918 7.13370918,4 11,4 C14.8662908,4 18,7.13370918 18,11 C18,12.6784444 17.4094134,14.2188246 16.4246905,15.4246905 L16.6337822,15.6337822 C17.1055876,15.5077862 17.6298588,15.6298588 18,16 L19.5,17.5 C20.0522847,18.0522847 20.0522847,18.9477153 19.5,19.5 C18.9477153,20.0522847 18.0522847,20.0522847 17.5,19.5 L16,18 C15.6298588,17.6298588 15.5077862,17.1055876 15.6337822,16.6337822 Z M16,11 C16,8.23829285 13.7617072,6 11,6 C8.23829285,6 6,8.23829285 6,11 C6,13.7617072 8.23829285,16 11,16 C13.7617072,16 16,13.7617072 16,11 Z" id="Fill-10" fill="#8899BB"></path>
    </g>
</svg>