<?xml version="1.0" encoding="UTF-8"?>
<svg width="18px" height="18px" viewBox="0 0 18 18" version="1.1" xmlns="http://www.w3.org/2000/svg" xmlns:xlink="http://www.w3.org/1999/xlink">
    <!-- Generator: Sketch 51.1 (57501) - http://www.bohemiancoding.com/sketch -->
    <title>18/search_icon/5</title>
    <desc>Created with Sketch.</desc>
    <defs></defs>
    <g id="18/search_icon/5" stroke="none" stroke-width="1" fill="none" fill-rule="evenodd">
        <circle id="Combined-Shape" fill="#F8AB2B" cx="9" cy="9" r="9"></circle>
        <path d="M7.51959565,8.49574732 L5.70233903,10.3130039 C4.97280723,11.0425357 4.97280723,12.2253405 5.70233903,12.9548723 C6.43187084,13.6844041 7.61467559,13.6844041 8.34420739,12.9548723 L10.161464,11.1376157 L10.6898377,11.6659893 L8.87258106,13.483246 C7.85123654,14.5045905 6.19530989,14.5045905 5.17396536,13.483246 C4.15262084,12.4619014 4.15262084,10.8059748 5.17396536,9.78463026 L6.99122197,7.96737365 L7.51959565,8.49574732 Z" id="Rectangle-46" fill="#FFFFFF"></path>
        <path d="M10.9782988,10.3207809 L12.7955554,8.50352426 C13.5250872,7.77399246 13.5250872,6.5911877 12.7955554,5.8616559 C12.0660236,5.1321241 10.8832189,5.1321241 10.1536871,5.8616559 L8.33643046,7.67891251 L7.80805678,7.15053884 L9.6253134,5.33328223 C10.6466579,4.31193771 12.3025846,4.31193771 13.3239291,5.33328223 C14.3452736,6.35462675 14.3452736,8.01055341 13.3239291,9.03189793 L11.5066725,10.8491545 L10.9782988,10.3207809 Z" id="Rectangle-46" fill="#FFFFFF"></path>
        <path d="M8.2542699,10.7741038 C8.10836354,10.9200101 7.87180259,10.9200101 7.72589623,10.7741038 C7.57998987,10.6281974 7.57998987,10.3916365 7.72589623,10.2457301 L10.3677646,7.60386174 C10.5136709,7.45795538 10.7502319,7.45795538 10.8961383,7.60386174 C11.0420446,7.7497681 11.0420446,7.98632905 10.8961383,8.13223541 L8.2542699,10.7741038 Z" id="Line-6" fill="#FFFFFF"></path>
    </g>
</svg>