<?xml version="1.0" encoding="UTF-8"?>
 <svg
        width="1920px"
        height="450px"
        viewBox="0 0 1920 450"
        version="1.1"
        xmlns="http://www.w3.org/2000/svg"
        xmlns:xlink="http://www.w3.org/1999/xlink"
      >
        <!-- Generator: Sketch 52.1 (67048) - http://www.bohemiancoding.com/sketch -->
        <!-- <title>Banner</title> -->
        <desc>Created with Sketch.</desc>
        <defs>
          <linearGradient
            x1="42.9601605%"
            y1="0%"
            x2="50%"
            y2="98.5187861%"
            id="linearGradient-1"
          >
            <stop stop-color="#2D3651" offset="0%"></stop>
            <stop stop-color="#1A2239" offset="100%"></stop>
          </linearGradient>
          <rect id="path-2" x="0" y="0" width="1920" height="450"></rect>
          <linearGradient
            x1="0%"
            y1="0%"
            x2="100%"
            y2="68.2232842%"
            id="linearGradient-4"
          >
            <stop stop-color="#6478DC" stop-opacity="0.1" offset="0%"></stop>
            <stop stop-color="#35579E" stop-opacity="0.2" offset="100%"></stop>
          </linearGradient>
          <linearGradient
            x1="0%"
            y1="0%"
            x2="100%"
            y2="68.2232842%"
            id="linearGradient-5"
          >
            <stop stop-color="#6478DC" stop-opacity="0.2" offset="0%"></stop>
            <stop stop-color="#35579E" stop-opacity="0.1" offset="100%"></stop>
          </linearGradient>
          <linearGradient
            x1="0%"
            y1="0%"
            x2="100%"
            y2="68.2232842%"
            id="linearGradient-6"
          >
            <stop stop-color="#6478DC" stop-opacity="0.05" offset="0%"></stop>
            <stop stop-color="#35579E" stop-opacity="0.1" offset="100%"></stop>
          </linearGradient>
          <linearGradient
            x1="50%"
            y1="0%"
            x2="50%"
            y2="100%"
            id="linearGradient-7"
          >
            <stop stop-color="#FFBB22" offset="0%"></stop>
            <stop stop-color="#FFAA00" offset="100%"></stop>
          </linearGradient>
          <path
            d="M28,50 L280,50 C284.418278,50 288,53.581722 288,58 L288,312 C288,316.418278 284.418278,320 280,320 L28,320 C23.581722,320 20,316.418278 20,312 L20,58 C20,53.581722 23.581722,50 28,50 Z"
            id="path-8"
          ></path>
          <filter
            x="-11.0%"
            y="-10.2%"
            width="124.3%"
            height="124.1%"
            filterUnits="objectBoundingBox"
            id="filter-9"
          >
            <feOffset
              dx="3"
              dy="5"
              in="SourceAlpha"
              result="shadowOffsetOuter1"
            ></feOffset>
            <feGaussianBlur
              stdDeviation="10"
              in="shadowOffsetOuter1"
              result="shadowBlurOuter1"
            ></feGaussianBlur>
            <feColorMatrix
              values="0 0 0 0 0   0 0 0 0 0   0 0 0 0 0  0 0 0 0.1 0"
              type="matrix"
              in="shadowBlurOuter1"
            ></feColorMatrix>
          </filter>
          <path
            d="M18,20 L290,20 C294.418278,20 298,23.581722 298,28 L298,302 C298,306.418278 294.418278,310 290,310 L18,310 C13.581722,310 10,306.418278 10,302 L10,28 C10,23.581722 13.581722,20 18,20 Z"
            id="path-10"
          ></path>
          <filter
            x="-10.2%"
            y="-9.5%"
            width="122.6%"
            height="122.4%"
            filterUnits="objectBoundingBox"
            id="filter-11"
          >
            <feOffset
              dx="3"
              dy="5"
              in="SourceAlpha"
              result="shadowOffsetOuter1"
            ></feOffset>
            <feGaussianBlur
              stdDeviation="10"
              in="shadowOffsetOuter1"
              result="shadowBlurOuter1"
            ></feGaussianBlur>
            <feColorMatrix
              values="0 0 0 0 0   0 0 0 0 0   0 0 0 0 0  0 0 0 0.1 0"
              type="matrix"
              in="shadowBlurOuter1"
            ></feColorMatrix>
          </filter>
          <linearGradient
            x1="0%"
            y1="0%"
            x2="48.699422%"
            y2="97.3988439%"
            id="linearGradient-12"
          >
            <stop stop-color="#344862" offset="0%"></stop>
            <stop stop-color="#334167" offset="100%"></stop>
          </linearGradient>
          <path
            d="M8,0 L300,0 C304.418278,-8.11624501e-16 308,3.581722 308,8 L308,292 C308,296.418278 304.418278,300 300,300 L8,300 C3.581722,300 5.41083001e-16,296.418278 0,292 L0,8 C-5.41083001e-16,3.581722 3.581722,8.11624501e-16 8,0 Z"
            id="path-13"
          ></path>
          <filter
            x="-9.6%"
            y="-9.2%"
            width="121.1%"
            height="121.7%"
            filterUnits="objectBoundingBox"
            id="filter-14"
          >
            <feOffset
              dx="3"
              dy="5"
              in="SourceAlpha"
              result="shadowOffsetOuter1"
            ></feOffset>
            <feGaussianBlur
              stdDeviation="10"
              in="shadowOffsetOuter1"
              result="shadowBlurOuter1"
            ></feGaussianBlur>
            <feColorMatrix
              values="0 0 0 0 0   0 0 0 0 0   0 0 0 0 0  0 0 0 0.1 0"
              type="matrix"
              in="shadowBlurOuter1"
            ></feColorMatrix>
          </filter>
          <rect id="path-15" x="4" y="4" width="130" height="160" rx="3"></rect>
          <rect id="path-17" x="4" y="4" width="130" height="160" rx="3"></rect>
        </defs>
        <g
          id="0_Login"
          stroke="none"
          stroke-width="1"
          fill="none"
          fill-rule="evenodd"
        >
          <g id="4_Version" transform="translate(0.000000, -50.000000)">
            <g id="Banner" transform="translate(0.000000, 50.000000)">
              <g id="BG">
                <mask id="mask-3" fill="white">
                  <use xlink:href="#path-2"></use>
                </mask>
                <use
                  id="Rectangle"
                  fill="url(#linearGradient-1)"
                  xlink:href="#path-2"
                ></use>
                <rect
                  id="Rectangle"
                  fill="url(#linearGradient-4)"
                  mask="url(#mask-3)"
                  transform="translate(1034.264069, 181.264069) rotate(-315.000000) translate(-1034.264069, -181.264069) "
                  x="734.264069"
                  y="-118.735931"
                  width="600"
                  height="600"
                ></rect>
                <rect
                  id="Rectangle"
                  fill="url(#linearGradient-5)"
                  mask="url(#mask-3)"
                  transform="translate(1445.842712, 570.842712) rotate(-315.000000) translate(-1445.842712, -570.842712) "
                  x="1245.84271"
                  y="370.842712"
                  width="400"
                  height="400"
                ></rect>
                <rect
                  id="Rectangle"
                  fill="url(#linearGradient-5)"
                  mask="url(#mask-3)"
                  transform="translate(1558.710678, 251.710678) rotate(-315.000000) translate(-1558.710678, -251.710678) "
                  x="1508.71068"
                  y="201.710678"
                  width="100"
                  height="100"
                ></rect>
                <rect
                  id="Rectangle"
                  fill="url(#linearGradient-6)"
                  mask="url(#mask-3)"
                  transform="translate(574.842712, 181.842712) rotate(-315.000000) translate(-574.842712, -181.842712) "
                  x="374.842712"
                  y="-18.1572875"
                  width="400"
                  height="400"
                ></rect>
              </g>
              <g
                id="icon"
                transform="translate(677.000000, 112.000000)"
                fill="url(#linearGradient-7)"
              >
                <path
                  d="M-7.10542736e-13,27 C-7.10880913e-13,24.2385763 2.23857625,22 5,22 L70,22 C78,22 90,34 90,42 L90,127 C90,129.761424 87.7614237,132 85,132 L5,132 C2.23857625,132 -7.1756247e-13,129.761424 -7.10542736e-13,127 L-7.10542736e-13,27 Z M5,25 C3.8954305,25 3,25.8954305 3,27 L3,127 C3,128.104569 3.8954305,129 5,129 L85,129 C86.1045695,129 87,128.104569 87,127 L87,43 C87,39 72,40 72,40 C72,40 73,25 69,25 L5,25 Z M13,60 L13,56.001 L43,56.001 L43,60 L13,60 Z M13,74 L13,70.001 L63,70.001 L63,74 L13,74 Z M13,88 L13,84.001 L63,84.001 L63,88 L13,88 Z M13,102 L13,98.001 L43,98.001 L43,102 L13,102 Z M22,5 C22,2.23857625 24.2385763,5.07265313e-16 27,0 L92,0 C100,0 112,12 112,20 L112,105 C112,107.761424 109.761424,110 107,110 L94,110 L94,107 L107,107 C108.104569,107 109,106.104569 109,105 L109,21 C109,17 94,18 94,18 C94,18 95,3 91,3 L27,3 C25.8954305,3 25,3.8954305 25,5 L25,18 L22,18 L22,5 Z"
                  id="Fill-1"
                ></path>
              </g>
              <g id="Card" transform="translate(1014.000000, 70.000000)">
                <g id="BG">
                  <use
                    fill="black"
                    fill-opacity="1"
                    filter="url(#filter-9)"
                    xlink:href="#path-8"
                  ></use>
                  <use
                    fill="#263253"
                    fill-rule="evenodd"
                    xlink:href="#path-8"
                  ></use>
                </g>
                <g id="BG">
                  <use
                    fill="black"
                    fill-opacity="1"
                    filter="url(#filter-11)"
                    xlink:href="#path-10"
                  ></use>
                  <use
                    fill="#2E3B5E"
                    fill-rule="evenodd"
                    xlink:href="#path-10"
                  ></use>
                </g>
                <g id="BG">
                  <use
                    fill="black"
                    fill-opacity="1"
                    filter="url(#filter-14)"
                    xlink:href="#path-13"
                  ></use>
                  <use
                    fill="url(#linearGradient-12)"
                    fill-rule="evenodd"
                    xlink:href="#path-13"
                  ></use>
                </g>
                <g id="Btn" transform="translate(208.000000, 232.000000)">
                  <circle
                    id="Oval"
                    fill="#2B3551"
                    cx="20"
                    cy="20"
                    r="20"
                  ></circle>
                  <g
                    id="16/Bar/Yes&amp;No_Yes_Main"
                    transform="translate(12.000000, 12.000000)"
                    fill="#FFAA00"
                  >
                    <path
                      d="M12.5,5.5 L12.5,13.5 L12.2462113,13.5 C12.0826876,13.5 11.9197812,13.5200547 11.76114,13.559715 L10.59715,13.8507125 C10.200547,13.9498633 9.79328091,14 9.38447187,14 L4.84232922,14 C3.46572629,14 2.26577697,13.0631079 1.93190172,11.7276069 L1.0895725,8.35829 C1.03008205,8.12032819 1,7.87596854 1,7.63068312 L1,6.5 C1,5.67157288 1.67157288,5 2.5,5 L6.93360889,5 C7.20975127,5 7.43360889,4.77614237 7.43360889,4.5 C7.43360889,4.47926749 7.43231938,4.45855505 7.42974783,4.43798263 L7.12403473,1.99227788 C7.06356195,1.50849562 7.40672208,1.06728974 7.89050434,1.00681695 C7.92682626,1.00227671 7.96339541,1 8,1 L8.41159665,1 C8.77476378,1 9.10938438,1.19689188 9.28575393,1.51435707 L11.2142461,4.98564293 C11.3906156,5.30310812 11.7252362,5.5 12.0884033,5.5 L12.5,5.5 Z M13,5.5 L14,5.5 C14.5522847,5.5 15,5.94771525 15,6.5 L15,12.5 C15,13.0522847 14.5522847,13.5 14,13.5 L13,13.5 L13,5.5 Z"
                      id="Rectangle-8"
                    ></path>
                  </g>
                  <circle
                    id="Oval"
                    fill="#2B3551"
                    cx="68"
                    cy="20"
                    r="20"
                  ></circle>
                  <g
                    id="16/Bar/Yes&amp;No_No_Dark"
                    transform="translate(60.000000, 12.000000)"
                    fill="#8899BB"
                  >
                    <path
                      d="M12.5,2.5 L12.5,10.5 L12.0884033,10.5 C11.7252362,10.5 11.3906156,10.6968919 11.2142461,11.0143571 L9.28575393,14.4856429 C9.10938438,14.8031081 8.77476378,15 8.41159665,15 L8,15 C7.96339541,15 7.92682626,14.9977233 7.89050434,14.993183 C7.40672208,14.9327103 7.06356195,14.4915044 7.12403473,14.0077221 L7.42974783,11.5620174 C7.43231938,11.541445 7.43360889,11.5207325 7.43360889,11.5 C7.43360889,11.2238576 7.20975127,11 6.93360889,11 L2.5,11 C1.67157288,11 1,10.3284271 1,9.5 L1,8.36931688 C1,8.12403146 1.03008205,7.87967181 1.0895725,7.64171 L1.93190172,4.27239312 C2.26577697,2.93689212 3.46572629,2 4.84232922,2 L9.38447187,2 C9.79328091,2 10.200547,2.05013674 10.59715,2.1492875 L11.76114,2.440285 C11.9197812,2.4799453 12.0826876,2.5 12.2462113,2.5 L12.5,2.5 Z M13,2.5 L14,2.5 C14.5522847,2.5 15,2.94771525 15,3.5 L15,9.5 C15,10.0522847 14.5522847,10.5 14,10.5 L13,10.5 L13,2.5 Z"
                      id="Rectangle-8"
                    ></path>
                  </g>
                </g>
                <g id="info" transform="translate(16.000000, 210.000000)">
                  <rect
                    id="Rectangle"
                    fill-opacity="0.1"
                    fill="#FFFFFF"
                    x="24"
                    y="42"
                    width="70"
                    height="12"
                    rx="2"
                  ></rect>
                  <g
                    id="16/Bar/Layer_Dark"
                    opacity="0.6"
                    transform="translate(0.000000, 60.000000)"
                    fill="#8899BB"
                  >
                    <path
                      d="M8,2 L15,5 L15,6 L8,9 L1,6 L1,5 L8,2 Z M8,10.5 L15,7.5 L15,8.5 L8,11.5 L1,8.5 L1,7.5 L8,10.5 Z M8,13 L15,10 L15,11 L8,14 L1,11 L1,10 L8,13 Z"
                      id="Path-4"
                    ></path>
                  </g>
                  <rect
                    id="Rectangle"
                    fill-opacity="0.1"
                    fill="#FFFFFF"
                    x="24"
                    y="62"
                    width="70"
                    height="12"
                    rx="2"
                  ></rect>
                  <rect
                    id="Rectangle"
                    fill-opacity="0.1"
                    fill="#FFFFFF"
                    x="104"
                    y="42"
                    width="70"
                    height="12"
                    rx="2"
                  ></rect>
                  <g
                    id="16/Bar/Clock_Dark"
                    opacity="0.6"
                    transform="translate(0.000000, 40.000000)"
                    fill="#8899BB"
                  >
                    <path
                      d="M9,8 L9,4 C9,3.44771525 8.55228475,3 8,3 C7.44771525,3 7,3.44771525 7,4 L7,9 C7,9.55228475 7.44771525,10 8,10 L11,10 C11.5522847,10 12,9.55228475 12,9 C12,8.44771525 11.5522847,8 11,8 L9,8 Z M8,15 C4.13400675,15 1,11.8659932 1,8 C1,4.13400675 4.13400675,1 8,1 C11.8659932,1 15,4.13400675 15,8 C15,11.8659932 11.8659932,15 8,15 Z"
                      id="Oval-8"
                    ></path>
                  </g>
                  <rect
                    id="Rectangle"
                    fill-opacity="0.6"
                    fill="#FFAA00"
                    x="40"
                    y="1"
                    width="14"
                    height="14"
                    rx="2"
                  ></rect>
                  <g
                    id="16/Bar/Add_Dark"
                    opacity="0.6"
                    transform="translate(0.000000, 20.000000)"
                    fill="#8899BB"
                  >
                    <path
                      d="M2.00025925,7.05636388 C2.00008654,7.03759638 2,7.0188083 2,7 C2,3.6862915 4.6862915,1 8,1 C11.3137085,1 14,3.6862915 14,7 C14,7.0188083 13.9999135,7.03759638 13.9997408,7.05636388 C13.9733856,10.5157419 11.5206897,11.9689654 10.5,13.5 C9.5,15 9,16 8,16 C7,16 6.5,15 5.5,13.5 C4.47931026,11.9689654 2.0266144,10.5157419 2.00021482,7.05639452 Z M8,9 C9.1045695,9 10,8.1045695 10,7 C10,5.8954305 9.1045695,5 8,5 C6.8954305,5 6,5.8954305 6,7 C6,8.1045695 6.8954305,9 8,9 Z"
                      id="BG"
                    ></path>
                  </g>
                  <rect
                    id="Rectangle"
                    fill-opacity="0.6"
                    fill="#FFAA00"
                    x="24"
                    y="1"
                    width="14"
                    height="14"
                    rx="2"
                  ></rect>
                  <rect
                    id="Rectangle"
                    fill-opacity="0.1"
                    fill="#FFFFFF"
                    x="24"
                    y="22"
                    width="150"
                    height="12"
                    rx="2"
                  ></rect>
                  <rect
                    id="Rectangle"
                    fill-opacity="0.6"
                    fill="#FFAA00"
                    x="56"
                    y="1"
                    width="14"
                    height="14"
                    rx="2"
                  ></rect>
                  <g
                    id="16/Bar/TreeIcon_People_Dark"
                    opacity="0.6"
                    fill="#8899BB"
                  >
                    <path
                      d="M5.04765985,7.69886771 C5.77903245,8.49848625 6.83094882,9 8,9 C9.16905118,9 10.2209675,8.49848625 10.9523402,7.69886771 C12.6982981,8.59811055 14,10.3651547 14,13 C13,13 3,13 2,13 C2,10.3651547 3.30170188,8.59811055 5.04765985,7.69886771 Z M8,8 C6.34314575,8 5,6.65685425 5,5 C5,3.34314575 6.34314575,2 8,2 C9.65685425,2 11,3.34314575 11,5 C11,6.65685425 9.65685425,8 8,8 Z"
                      id="Oval-20-Copy"
                    ></path>
                  </g>
                </g>
                <g
                  id="%"
                  transform="translate(104.000000, 191.000000)"
                  stroke-linecap="round"
                  stroke-width="6"
                >
                  <path
                    d="M0,0.5 L100,0.5"
                    id="Line"
                    stroke="#0B1532"
                    opacity="0.2"
                  ></path>
                  <path
                    d="M0,0.5 L75,0.5"
                    id="Line"
                    stroke="#FFAA00"
                    opacity="0.8"
                  ></path>
                </g>
                <g id="Capture" transform="translate(158.000000, 12.000000)">
                  <path
                    d="M5,-5.68434189e-13 L133,-6.24389429e-13 C135.761424,-6.24896694e-13 138,2.23857625 138,5 L138,163 C138,165.761424 135.761424,168 133,168 L76.6301524,168 C74.983669,168 73.4427232,168.810584 72.5099428,170.167356 L64.4900572,181.832644 C63.5572768,183.189416 62.016331,184 60.3698476,184 L5,184 C2.23857625,184 -1.65007824e-15,181.761424 -4.4408921e-15,179 L8.8817842e-16,5 C5.50001544e-16,2.23857625 2.23857625,-5.67926923e-13 5,-5.68434189e-13 Z"
                    id="Face_Black_BG"
                    fill-opacity="0.1"
                    fill="#FFFFFF"
                    transform="translate(69.000000, 92.000000) scale(-1, 1) translate(-69.000000, -92.000000) "
                  ></path>
                  <mask id="mask-16" fill="white">
                    <use xlink:href="#path-15"></use>
                  </mask>
                  <use
                    id="抓拍照片"
                    fill-opacity="0.2"
                    fill="#0F1230"
                    xlink:href="#path-15"
                  ></use>
                  <path
                    d="M69.7382675,13 C62.668455,13.1313133 55.3339103,14.3196171 49.4545808,18.4081606 C46.4808095,20.4508112 44.1664326,23.2213588 42.7794305,26.4539344 C40.862964,30.2814726 40.0720155,34.4997082 39.8722483,38.7876533 C39.6091401,45.5802771 40.9311772,52.4393681 42.5812874,59.0342115 C40.862964,60.4186747 39.9404615,62.5277925 40.0054264,64.773087 C40.2051937,66.948672 40.5998559,69.0577898 41.5256067,71.1036827 C42.2515902,72.9485529 43.7717704,74.5988849 45.88638,74.9944458 C46.4142204,78.7522744 47.7362575,82.380411 49.5861349,85.7442999 C50.6434397,87.5907912 52.0044558,89.5037497 53.5847286,90.8233668 C53.6919208,93.0038153 53.7828717,99.9228889 53.1884423,104.475082 C51.9979593,107.837349 49.0258121,110.014556 46.0520407,111.796201 C37.1323508,116.740712 26.9669576,119.067064 18.3688443,124.523859 C8.86771794,130.5513 2.61808815,146.43534 0,164.365273 L0,164.375 L137.919,164.375 L137.919,164.365273 C135.354508,147.286444 130.240141,130.5513 121.008619,124.523859 C112.485216,118.955205 102.246737,116.740712 93.3254228,111.796201 C90.3532756,110.014556 87.3795042,107.837349 86.1890212,104.475082 C85.5962159,99.9228889 85.794359,95.3723173 85.794359,90.8233668 C87.3795042,89.699909 88.501774,87.9863521 89.4275248,86.3376412 C91.3439913,82.8424391 92.7975824,78.951676 93.3254228,74.9295997 C94.7790139,74.6637309 95.9694969,73.8061419 96.8270345,72.6210803 C98.2806256,70.377407 98.8766792,67.6749478 99.1397873,65.1021807 C99.4711086,62.7936613 98.4121797,60.3538286 96.5639264,58.9677443 C99.0082332,51.3839987 100.593378,43.4695382 99.7342167,35.4886104 C99.2729655,30.7402584 97.5546421,25.9270602 93.8532631,22.6944846 C91.2124373,20.319498 87.9089687,19.1344364 84.5372869,18.6724083 C83.6797494,17.5489505 82.6890336,16.4287349 81.3669966,15.7040803 C77.9303498,13.6598086 73.7677196,13.0664672 69.7382675,13 Z"
                    id="Fill-1"
                    fill-opacity="0.2"
                    fill="#0F1230"
                    mask="url(#mask-16)"
                  ></path>
                </g>
                <g id="Control" transform="translate(12.000000, 12.000000)">
                  <path
                    d="M5,-1.13686838e-12 L133,-1.22479804e-12 C135.761424,-1.22530531e-12 138,2.23857625 138,5 L138,163 C138,165.761424 135.761424,168 133,168 L76.6301524,168 C74.983669,168 73.4427232,168.810584 72.5099428,170.167356 L64.4900572,181.832644 C63.5572768,183.189416 62.016331,184 60.3698476,184 L5,184 C2.23857625,184 -7.61899822e-16,181.761424 -3.55271368e-15,179 L0,5 C-3.38176876e-16,2.23857625 2.23857625,-1.13636111e-12 5,-1.13686838e-12 Z"
                    id="Face_Black_BG"
                    fill-opacity="0.1"
                    fill="#FFFFFF"
                  ></path>
                  <mask id="mask-18" fill="white">
                    <use xlink:href="#path-17"></use>
                  </mask>
                  <use
                    id="布控照片"
                    fill-opacity="0.2"
                    fill="#0F1230"
                    xlink:href="#path-17"
                  ></use>
                  <path
                    d="M51.4518114,13.8327919 C45.5607975,16.5172647 43.1080872,20.4976349 42.2223415,24.3869247 C37.5085641,27.8112255 36.3554843,32.1607107 35.7322414,34.8292045 C34.1089111,41.7736801 33.8592919,47.8744643 35.9657562,54.2133356 C34.0283888,55.3574324 33.1249282,59.0485825 34.6145914,63.183949 C36.1284113,67.3752421 38.1930039,71.1766474 40.4637337,71.422724 C41.8326134,76.1493137 43.6330928,79.9539149 44.4995131,81.316924 C46.3950089,84.3018021 48.9169684,86.9639044 52.401975,89.7074996 C52.4728346,91.402872 52.3923123,96.7798072 51.9220619,100.026741 C50.195663,111.975841 25.0243814,118.022297 17.5358043,124.254109 C8.23869566,131.995936 5.55086015,142.118636 4,163 L133,163 C131.44914,142.118636 128.761304,131.406311 119.464196,123.661287 C111.975619,117.431073 83.631757,111.384618 81.9037477,99.4355178 C81.4351077,96.188584 81.291778,90.5000582 81.4238346,89.1162764 C85.0247934,86.182531 87.9316496,82.4003005 88.6305835,81.316924 C89.5050561,79.9571107 91.2942623,76.1493137 92.6615315,71.422724 C94.9370927,71.1782453 97.0000749,67.3752421 98.5155052,63.183949 C100.142056,58.6746738 98.9100647,54.7246638 96.6006841,53.9992169 C98.1805323,48.0166774 99.5107613,38.2646906 95.637637,30.5739955 C93.8838606,27.0873766 97.9260817,20.0662018 90.5953285,12.4122583 C87.3051859,16.8719986 80.6492098,15.2645107 72.999588,13.6570228 C69.0620459,12.8277125 64.8620009,12 60.7215425,12 C57.5473521,12 54.4085915,12.4873597 51.4518114,13.8327919"
                    id="Fill-1"
                    fill-opacity="0.2"
                    fill="#0F1230"
                    mask="url(#mask-18)"
                  ></path>
                </g>
              </g>
              <text
                id="更新日志"
                font-family="PingFang-SC-Regular, PingFang SC"
                font-size="30"
                font-weight="normal"
                fill="#FFFFFF"
              >
                <tspan x="673" y="300">更新日志</tspan>
              </text>
            </g>
          </g>
        </g>
      </svg>