<?xml version="1.0" encoding="UTF-8"?>
<svg width="100px" height="100px" viewBox="0 0 100 100" version="1.1" xmlns="http://www.w3.org/2000/svg" xmlns:xlink="http://www.w3.org/1999/xlink">
    <!-- Generator: Sketch 52.4 (67378) - http://www.bohemiancoding.com/sketch -->
    <title>Img/Card_TimeOver</title>
    <desc>Created with Sketch.</desc>
    <defs>
        <linearGradient x1="50%" y1="0%" x2="50%" y2="100%" id="linearGradient-1">
            <stop stop-color="#E3E6EB" offset="0%"></stop>
            <stop stop-color="#CED1D8" offset="100%"></stop>
        </linearGradient>
    </defs>
    <g id="Img/Card_TimeOver" stroke="none" stroke-width="1" fill="none" fill-rule="evenodd">
        <path d="M90.0000015,45.87104 C87.5900832,44.6734125 84.8736835,44 82,44 C78.5000416,44 75.2333926,44.9989162 72.4695991,46.7272024 L64,35 L54.487047,48.1718543 L39.08275,27 L20.0000734,53 L15,53 C13.8954305,53 13,53.8954305 13,55 L13,64 C13,65.6568542 14.3431458,67 16,67 L64.7035333,67 C65.004197,68.0419366 65.3964603,69.0450312 65.8710393,70 L14,70 C11.790861,70 10,68.209139 10,66 L10,14 C10,11.790861 11.790861,10 14,10 L86,10 C88.209139,10 90,11.790861 90,14 L90,45.8710332 Z M76,31 C79.8659932,31 83,27.8659932 83,24 C83,20.1340068 79.8659932,17 76,17 C72.1340068,17 69,20.1340068 69,24 C69,27.8659932 72.1340068,31 76,31 Z M82,78 C73.163444,78 66,70.836556 66,62 C66,53.163444 73.163444,46 82,46 C90.836556,46 98,53.163444 98,62 C98,70.836556 90.836556,78 82,78 Z M84.8716219,62.8709459 L95.5166574,62.5161114 C95.786166,62.5071278 96,62.2860472 96,62.016389 L96,61.983611 C96,61.7139528 95.786166,61.4928722 95.5166574,61.4838886 L84.8716219,61.1290541 C84.6190387,60.2951529 84.013163,59.6147813 83.2281581,59.2621025 L83.4391042,56.7307499 C83.4796165,56.2446023 83.4755768,55.755768 83.4270356,55.2703563 L83.0900496,51.9004963 C83.0389294,51.3892945 82.6087639,51 82.0950124,51 L81.9049876,51 C81.3912361,51 80.9610706,51.3892945 80.9099504,51.9004963 L80.5729644,55.2703563 C80.5244232,55.755768 80.5203835,56.2446023 80.5608958,56.7307499 L80.7718419,59.2621025 C79.7273614,59.7313557 79,60.7807357 79,62 C79,63.6568542 80.3431458,65 82,65 C83.3539579,65 84.4984236,64.103057 84.8716219,62.8709459 Z" id="Sky-2" fill="url(#linearGradient-1)"></path>
        <text id="图片已过期" font-family="PingFang-SC-Regular, PingFang SC" font-size="12" font-weight="normal" fill="#999999">
            <tspan x="12" y="96">图片加载失败</tspan>
        </text>
    </g>
</svg>