<?xml version="1.0" encoding="UTF-8"?>
<svg width="48px" height="18px" viewBox="0 0 48 18" version="1.1" xmlns="http://www.w3.org/2000/svg" xmlns:xlink="http://www.w3.org/1999/xlink">
    <!-- Generator: Sketch 52 (66869) - http://www.bohemiancoding.com/sketch -->
    <title>Brand_Yellow</title>
    <desc>Created with Sketch.</desc>
    <g id="8_数据资源库" stroke="none" stroke-width="1" fill="none" fill-rule="evenodd">
        <g id="3_机动车图库_1_List" transform="translate(-264.000000, -625.000000)">
            <g id="Filter" transform="translate(48.000000, 99.000000)">
                <g id="Color_Brand" transform="translate(0.000000, 490.000000)">
                    <g id="Yellow" transform="translate(196.000000, 36.000000)">
                        <g id="Brand_Yellow" transform="translate(20.000000, 0.000000)">
                            <rect id="BG" fill="#FFBC1D" x="0" y="0" width="48" height="18" rx="2"></rect>
                            <path d="M2,1 L46,1 C46.5522847,1 47,1.44771525 47,2 L47,16 C47,16.5522847 46.5522847,17 46,17 L2,17 C1.44771525,17 1,16.5522847 1,16 L1,2 C1,1.44771525 1.44771525,1 2,1 Z M2,2 L2,16 L46,16 L46,2 L2,2 Z M4,5 C3.44771525,5 3,4.55228475 3,4 C3,3.44771525 3.44771525,3 4,3 C4.55228475,3 5,3.44771525 5,4 C5,4.55228475 4.55228475,5 4,5 Z M44,5 C43.4477153,5 43,4.55228475 43,4 C43,3.44771525 43.4477153,3 44,3 C44.5522847,3 45,3.44771525 45,4 C45,4.55228475 44.5522847,5 44,5 Z M4,15 C3.44771525,15 3,14.5522847 3,14 C3,13.4477153 3.44771525,13 4,13 C4.55228475,13 5,13.4477153 5,14 C5,14.5522847 4.55228475,15 4,15 Z M44,15 C43.4477153,15 43,14.5522847 43,14 C43,13.4477153 43.4477153,13 44,13 C44.5522847,13 45,13.4477153 45,14 C45,14.5522847 44.5522847,15 44,15 Z" id="Line" fill="#000000"></path>
                        </g>
                    </g>
                </g>
            </g>
        </g>
    </g>
</svg>