<?xml version="1.0" encoding="UTF-8"?>
<svg width="16px" height="16px" viewBox="0 0 16 16" version="1.1" xmlns="http://www.w3.org/2000/svg" xmlns:xlink="http://www.w3.org/1999/xlink">
    <!-- Generator: Sketch 51.2 (57519) - http://www.bohemiancoding.com/sketch -->
    <title>16/Bar/Eye_Colour</title>
    <desc>Created with Sketch.</desc>
    <defs></defs>
    <g id="16/Bar/Eye_Colour" stroke="none" stroke-width="1" fill="none" fill-rule="evenodd">
        <path d="M1.67363116,8 C2.7970951,5.63505267 5.20760404,4 8,4 C10.792396,4 13.2029049,5.63505267 14.3263688,8 C13.2029049,10.3649473 10.792396,12 8,12 C5.20760404,12 2.7970951,10.3649473 1.67363116,8 Z M8,11 C9.65685425,11 11,9.65685425 11,8 C11,6.34314575 9.65685425,5 8,5 C6.34314575,5 5,6.34314575 5,8 C5,9.65685425 6.34314575,11 8,11 Z M8,10 C6.8954305,10 6,9.1045695 6,8 C6,6.8954305 6.8954305,6 8,6 C9.1045695,6 10,6.8954305 10,8 C10,9.1045695 9.1045695,10 8,10 Z" id="Oval" fill="#FF8800"></path>
    </g>
</svg>