<?xml version="1.0" encoding="UTF-8"?>
<svg width="32px" height="32px" viewBox="0 0 32 32" version="1.1" xmlns="http://www.w3.org/2000/svg" xmlns:xlink="http://www.w3.org/1999/xlink">
    <!-- Generator: Sketch 51.1 (57501) - http://www.bohemiancoding.com/sketch -->
    <title>32/Add/Community_Dark</title>
    <desc>Created with Sketch.</desc>
    <defs></defs>
    <g id="32/Add/Community_Dark" stroke="none" stroke-width="1" fill="none" fill-rule="evenodd">
        <path d="M17,15 L19,15 C19.5522847,15 20,15.4477153 20,16 C20,16.5522847 19.5522847,17 19,17 L17,17 L17,19 C17,19.5522847 16.5522847,20 16,20 C15.4477153,20 15,19.5522847 15,19 L15,17 L13,17 C12.4477153,17 12,16.5522847 12,16 C12,15.4477153 12.4477153,15 13,15 L15,15 L15,13 C15,12.4477153 15.4477153,12 16,12 C16.5522847,12 17,12.4477153 17,13 L17,15 Z M1.70754393,16.2928182 L14.5890306,3.41406354 C15.370162,2.63309779 16.636492,2.6332321 17.4174577,3.41436351 L30.2933304,16.2929682 C30.6838132,16.6835339 30.6837461,17.3166989 30.2931803,17.7071818 C30.1056501,17.8946723 29.8513283,18 29.5861486,18 L27,18 C26.4477153,18 26,18.4477153 26,19 L26,28.0414686 C26,28.5937533 25.5522847,29.0414686 25,29.0414686 L20.0023612,29.0414686 C19.4500764,29.0414686 19.0023612,28.5937533 19.0023612,28.0414686 L19.0023612,26 C19.0023612,25.4477153 18.5546459,25 18.0023612,25 L14,25 C13.4477153,25 13,25.4477153 13,26 L13,28.0414686 C13,28.5937533 12.5522847,29.0414686 12,29.0414686 L7,29.0414686 C6.44771525,29.0414686 6,28.5937533 6,28.0414686 L6,19 C6,18.4477153 5.55228475,18 5,18 L2.41457571,18 C1.86229096,18 1.41457571,17.5522847 1.41457571,17 C1.41457571,16.7347468 1.51996167,16.4803607 1.70754393,16.2928182 Z M16,22 C19.3137085,22 22,19.3137085 22,16 C22,12.6862915 19.3137085,10 16,10 C12.6862915,10 10,12.6862915 10,16 C10,19.3137085 12.6862915,22 16,22 Z" id="Rectangle-40" fill="#B5BBC7"></path>
    </g>
</svg>