<?xml version="1.0" encoding="UTF-8"?>
<svg width="64px" height="64px" viewBox="0 0 64 64" version="1.1" xmlns="http://www.w3.org/2000/svg" xmlns:xlink="http://www.w3.org/1999/xlink">
    <!-- Generator: Sketch 51.1 (57501) - http://www.bohemiancoding.com/sketch -->
    <title>64/Notice/Delete</title>
    <desc>Created with Sketch.</desc>
    <defs>
        <linearGradient x1="50%" y1="0%" x2="50%" y2="100%" id="linearGradient-1">
            <stop stop-color="#B5BBC7" offset="0%"></stop>
            <stop stop-color="#8D96A9" stop-opacity="0.95" offset="100%"></stop>
        </linearGradient>
    </defs>
    <g id="64/Notice/Delete" stroke="none" stroke-width="1" fill="none" fill-rule="evenodd">
        <path d="M9.31286062,14.9372618 L17.8532886,13.4313539 C18.710204,13.2802566 19.5128536,12.9081482 20.1818992,12.3518099 L24.3390386,8.89498184 C25.0080843,8.33864355 25.8107339,7.96653515 26.6676493,7.81543785 L34.8852354,6.3664557 C35.7421508,6.2153584 36.6236633,6.29050357 37.4426395,6.58446346 L42.5313775,8.4109939 C43.3503537,8.70495379 44.2318662,8.78009897 45.0887816,8.62900166 L53.6871394,7.11287919 C54.2310337,7.01697595 54.7496921,7.38014446 54.8455953,7.92403877 L55.1928917,9.89365427 C55.2887949,10.4375486 54.9256264,10.956207 54.3817321,11.0521102 L10.0074533,18.8764928 C9.46355903,18.972396 8.94490064,18.6092275 8.8489974,18.0653332 L8.50170105,16.0957177 C8.40579781,15.5518234 8.76896632,15.033165 9.31286062,14.9372618 Z M13,20 L50,20 L46.3039269,52.3406398 C46.130762,53.8558329 44.848385,55 43.3233289,55 L19.6766711,55 C18.151615,55 16.869238,53.8558329 16.6960731,52.3406398 L13,20 Z M30,25 L30,50 L33,50 L33,25 L30,25 Z M41,25 L38,50 L41,50 L44,25 L41,25 Z M19,25 L22,50 L25,50 L22,25 L19,25 Z" id="Rectangle-30" fill="url(#linearGradient-1)"></path>
    </g>
</svg>