<?xml version="1.0" encoding="UTF-8"?>
<svg width="32px" height="32px" viewBox="0 0 32 32" version="1.1" xmlns="http://www.w3.org/2000/svg" xmlns:xlink="http://www.w3.org/1999/xlink">
    <!-- Generator: Sketch 51.1 (57501) - http://www.bohemiancoding.com/sketch -->
    <title>32/Bar/Delete_Colour</title>
    <desc>Created with Sketch.</desc>
    <defs></defs>
    <g id="32/Bar/Delete_Colour" stroke="none" stroke-width="1" fill="none" fill-rule="evenodd">
        <path d="M16,32 C24.836556,32 32,24.836556 32,16 C32,7.163444 24.836556,0 16,0 C7.163444,0 0,7.163444 0,16 C0,24.836556 7.163444,32 16,32 Z M7.5,8.5 L10.1690481,8.5 C10.7127799,8.5 11.2462892,8.3522265 11.7125354,8.07247878 L12.7874646,7.42752122 C13.2537108,7.1477735 13.7872201,7 14.3309519,7 L17.6690481,7 C18.2127799,7 18.7462892,7.1477735 19.2125354,7.42752122 L20.2874646,8.07247878 C20.7537108,8.3522265 21.2872201,8.5 21.8309519,8.5 L24.5,8.5 C24.7761424,8.5 25,8.72385763 25,9 L25,9.5 C25,9.77614237 24.7761424,10 24.5,10 L7.5,10 C7.22385763,10 7,9.77614237 7,9.5 L7,9 C7,8.72385763 7.22385763,8.5 7.5,8.5 Z M9,11 L23,11 L21.6021588,23.1146241 C21.5439368,23.6192143 21.1166878,24 20.6087498,24 L11.3912502,24 C10.8833122,24 10.4560632,23.6192143 10.3978412,23.1146241 L9,11 Z M15.5,13 L15.5,22 L16.4376746,22 L16.4376746,13 L15.5,13 Z M19.5,13 L18.5,22 L19.5,22 L20.5,13 L19.5,13 Z M11.5,13 L12.5,22 L13.5,22 L12.5,13 L11.5,13 Z" id="Rectangle-30" fill="#44AAFF"></path>
    </g>
</svg>