<?xml version="1.0" encoding="UTF-8"?>
<svg width="32px" height="32px" viewBox="0 0 32 32" version="1.1" xmlns="http://www.w3.org/2000/svg" xmlns:xlink="http://www.w3.org/1999/xlink">
    <!-- Generator: Sketch 51.1 (57501) - http://www.bohemiancoding.com/sketch -->
    <title>32/Add/More_Dark</title>
    <desc>Created with Sketch.</desc>
    <defs></defs>
    <g id="32/Add/More_Dark" stroke="none" stroke-width="1" fill="none" fill-rule="evenodd">
        <path d="M17,13 L19,13 C19.5522847,13 20,13.4477153 20,14 C20,14.5522847 19.5522847,15 19,15 L17,15 L17,17 C17,17.5522847 16.5522847,18 16,18 C15.4477153,18 15,17.5522847 15,17 L15,15 L13,15 C12.4477153,15 12,14.5522847 12,14 C12,13.4477153 12.4477153,13 13,13 L15,13 L15,11 C15,10.4477153 15.4477153,10 16,10 C16.5522847,10 17,10.4477153 17,11 L17,13 Z M3,5 L29,5 C29.5522847,5 30,5.44771525 30,6 L30,22 C30,22.5522847 29.5522847,23 29,23 L3,23 C2.44771525,23 2,22.5522847 2,22 L2,6 C2,5.44771525 2.44771525,5 3,5 Z M4,24 L28,24 C28,24.5522847 27.5522847,25 27,25 L5,25 C4.44771525,25 4,24.5522847 4,24 Z M6,26 L26,26 C26,26.5522847 25.5522847,27 25,27 L7,27 C6.44771525,27 6,26.5522847 6,26 Z M16,20 C19.3137085,20 22,17.3137085 22,14 C22,10.6862915 19.3137085,8 16,8 C12.6862915,8 10,10.6862915 10,14 C10,17.3137085 12.6862915,20 16,20 Z" id="Rectangle-42" fill="#B5BBC7"></path>
    </g>
</svg>