<?xml version="1.0" encoding="UTF-8"?>
<svg width="128px" height="129px" viewBox="0 0 128 129" version="1.1" xmlns="http://www.w3.org/2000/svg" xmlns:xlink="http://www.w3.org/1999/xlink">
    <!-- Generator: Sketch 51.1 (57501) - http://www.bohemiancoding.com/sketch -->
    <title>Person</title>
    <desc>Created with Sketch.</desc>
    <defs></defs>
    <g id="Symbols" stroke="none" stroke-width="1" fill="none" fill-rule="evenodd">
        <g id="Table/Card/ListImg_3_Error" transform="translate(-4.000000, -4.000000)">
            <g id="Person" transform="translate(4.000000, 4.000000)">
                <rect id="Rectangle-2" fill="#EAEDF1" x="0" y="0" width="128" height="128"></rect>
                <path d="M128,128.559795 C126.934356,118.509576 121.067236,105.169367 107.386106,98.5310666 C99.4838251,94.6967554 90.8220306,92.5087087 83.5651082,88.7678908 C81.1417279,87.4196101 78.7227538,85.7717115 77.7578078,83.2249592 C77.2731318,79.7837592 77.4361592,76.3425592 77.4361592,72.896953 C78.7227538,72.0465669 79.6392321,70.75116 80.3926831,69.5042206 C81.9524588,66.8561269 83.1333059,63.9128214 83.5651082,60.8681746 C84.7459553,60.669898 85.7109013,60.0177884 86.4158846,59.1189346 C87.5923256,57.4269746 88.0814078,55.3781167 88.2929028,53.4306002 C88.5616777,51.6813602 87.7068854,49.8351851 86.1999835,48.7909285 C88.1871553,43.0497203 89.4781561,37.061768 88.7775789,31.0209418 C88.4030565,27.4255267 87.001902,23.781644 83.9969105,21.336233 C81.8423051,19.5385255 79.1545561,18.6440778 76.4139333,18.2915862 C75.7177622,17.4456061 74.9070314,16.59522 73.8363379,16.0444517 C71.0384352,14.4978945 67.6545151,14.0484676 64.3763425,14 C58.6219159,14.1013414 52.6559943,15.0001951 47.8753259,18.0933096 C45.4563518,19.6398668 43.5749275,21.7371923 42.442548,24.1826033 C40.8871784,27.0774412 40.239475,30.271897 40.0808537,33.5148205 C39.8649526,38.6567928 40.9400522,43.8472327 42.2839267,48.8393961 C40.8871784,49.8880588 40.1337275,51.4830837 40.1866012,53.1794499 C40.3496286,54.8317546 40.6712773,56.4267794 41.4247282,57.9733367 C42.0107457,59.3700849 43.2532788,60.6170242 44.9672696,60.9210483 C45.3990719,63.7630125 46.4741715,66.5080414 47.9810734,69.0503876 C48.8402719,70.451542 49.9462145,71.9011641 51.2328091,72.896953 C51.3209321,74.5448516 51.3958365,79.7837592 50.9111605,83.2249592 C49.9418084,85.7717115 47.5228342,87.4196101 45.1082663,88.7678908 C36.8751559,92.6961095 32.0343715,92.8840804 22.0812099,97.579777 C7.59172639,104.415617 3.45137279,114.48357 0,128.559795 C14.7208066,128.559795 57.3874733,128.559795 128,128.559795 Z" id="Path" fill="#B5BBC7"></path>
            </g>
        </g>
    </g>
</svg>