<?xml version="1.0" encoding="UTF-8"?>
<svg width="32px" height="32px" viewBox="0 0 32 32" version="1.1" xmlns="http://www.w3.org/2000/svg" xmlns:xlink="http://www.w3.org/1999/xlink">
    <!-- Generator: Sketch 51.1 (57501) - http://www.bohemiancoding.com/sketch -->
    <title>32/Bar/UpData_Colour</title>
    <desc>Created with Sketch.</desc>
    <defs></defs>
    <g id="32/Bar/UpData_Colour" stroke="none" stroke-width="1" fill="none" fill-rule="evenodd">
        <path d="M16,32 C24.836556,32 32,24.836556 32,16 C32,7.163444 24.836556,0 16,0 C7.163444,0 0,7.163444 0,16 C0,24.836556 7.163444,32 16,32 Z M20,23 C19,23 18,22 18,21 C18,20.5 18,20 18,19.5 C18,19.2238576 18.2238576,19 18.5,19 L20.0343146,19 C20.2552285,19 20.4343146,18.8209139 20.4343146,18.6 C20.4343146,18.4939134 20.3921718,18.3921718 20.3171573,18.3171573 L16.3535534,14.3535534 C16.1582912,14.1582912 15.8417088,14.1582912 15.6464466,14.3535534 L11.6828427,18.3171573 C11.526633,18.473367 11.526633,18.726633 11.6828427,18.8828427 C11.7578573,18.9578573 11.8595988,19 11.9656854,19 L13.5,19 C13.7761424,19 14,19.2238576 14,19.5 C14,20 14,20.5 14,21 C14,22 13,23 12,23 L10,23 C7.23857625,23 5,20.7614237 5,18 C5,15.2385763 7.23857625,13 10,13 C10.0276683,13 10.0552841,13.0002247 10.0828457,13.0006725 C10.5586466,10.1626283 13.0267689,8 16,8 C18.9732311,8 21.4413534,10.1626283 21.9171543,13.0006725 C21.9447159,13.0002247 21.9723317,13 22,13 C24.7614237,13 27,15.2385763 27,18 C27,20.7614237 24.7614237,23 22,23 L19.9999997,23 Z" id="Rectangle-30" fill="#44AAFF"></path>
    </g>
</svg>