<?xml version="1.0" encoding="UTF-8"?>
<svg width="20px" height="24px" viewBox="0 0 20 24" version="1.1" xmlns="http://www.w3.org/2000/svg" xmlns:xlink="http://www.w3.org/1999/xlink">
    <!-- Generator: Sketch 52.6 (67491) - http://www.bohemiancoding.com/sketch -->
    <title>Img/PDF</title>
    <desc>Created with Sketch.</desc>
    <defs>
        <linearGradient x1="50%" y1="0%" x2="50%" y2="100%" id="linearGradient-1">
            <stop stop-color="#DD1A22" offset="0%"></stop>
            <stop stop-color="#9C1B1E" offset="100%"></stop>
        </linearGradient>
        <linearGradient x1="71.0626518%" y1="29.1243374%" x2="50%" y2="50%" id="linearGradient-2">
            <stop stop-color="#06121E" stop-opacity="0.2" offset="0%"></stop>
            <stop stop-color="#0A1D30" stop-opacity="0" offset="100%"></stop>
        </linearGradient>
        <linearGradient x1="58.2805716%" y1="41.8721214%" x2="29.2174696%" y2="70.8822333%" id="linearGradient-3">
            <stop stop-color="#FF2239" offset="0%"></stop>
            <stop stop-color="#D30F32" offset="18.586002%"></stop>
            <stop stop-color="#FF494F" offset="100%"></stop>
        </linearGradient>
    </defs>
    <g id="Img/PDF" stroke="none" stroke-width="1" fill="none" fill-rule="evenodd">
        <path d="M2,0 L13,0 L20,7 L20,22 C20,23.1045695 19.1045695,24 18,24 L2,24 C0.8954305,24 1.3527075e-16,23.1045695 0,22 L0,2 C-1.3527075e-16,0.8954305 0.8954305,2.02906125e-16 2,0 Z" id="Rectangle-6" fill="url(#linearGradient-1)"></path>
        <polygon id="Rectangle" fill="url(#linearGradient-2)" points="8 0 13 0 20 7 20 12"></polygon>
        <path d="M13,0 C14.5,1.5 15,3.5 15,5 C16.5,5 18.5,5.5 20,7 C20,6 18.2776264,4.29279573 17,3 C15.6684888,1.65267967 14,0 13,0 Z" id="Rectangle-2" fill="url(#linearGradient-3)"></path>
        <path d="M13,0 C14.5,1.5 15,3.5 15,5 C16.5,5 18.5,5.5 20,7 C19,5.5 17,5 15.5,4.5 C15,3 14.5,1 13,0 Z" id="Rectangle-2" fill="#FF6F46"></path>
        <path d="M16.7790829,14.6404645 C16.9547054,14.851245 17.0428368,15.1416142 16.9795198,15.524675 C16.916283,15.907655 16.8143835,16.1145531 16.5746437,16.2805246 C16.3742869,16.4193194 16.0994066,16.4896874 15.7577674,16.4896874 C14.7390933,16.4896874 13.2428608,15.870368 12.2371543,15.3235196 C10.8657145,15.5406089 9.22924021,15.9213242 7.36975584,16.4557976 C6.72161787,17.6107227 6.183384,18.4327344 5.76914243,18.8999133 C5.14165651,19.6076376 4.5934168,19.9669189 4.093045,19.9980588 C4.07295329,19.9993529 4.05238129,20 4.03204943,20 C3.53976235,20 3.05075719,19.6484834 3.00609114,19.2625917 L3.00537072,19.2553931 C2.97727433,18.9276561 3.0442734,18.4976024 3.57434252,17.8604888 C4.5124896,16.7329828 6.44665753,15.8150442 6.44665753,15.8150442 C6.63820923,15.4851233 6.6160363,15.5168294 6.84328882,15.1111214 C7.54265667,13.8625339 8.22209288,12.4415044 8.76144741,11.1002253 C8.72806795,10.9941071 7.48022026,7.01030678 8.62312675,6.16516263 C8.76985231,6.05677971 8.94891674,6 9.14014825,6 C9.38509109,6 9.64252122,6.09811081 9.79605075,6.25008955 C10.190921,6.64091513 10.3438102,7.31361719 10.3287614,8.31090184 C10.3049075,9.88860131 9.92940852,10.8545034 9.92940852,10.8545034 C9.92940852,10.8545034 10.5432865,12.6463805 12.7418486,14.2707493 C13.546798,14.1482928 14.2492076,14.0862557 14.8306667,14.0862557 C15.83093,14.0862557 16.4682617,14.2675949 16.7790829,14.6404645 Z M9.37868736,12.4520192 C9.3257765,12.5897626 8.73167005,14.0433878 7.9263204,15.432954 C8.67763854,15.1709746 9.8851427,14.8343405 11.1427561,14.5657288 C10.4984604,13.9934832 9.82959031,13.1920157 9.37868736,12.4520192 Z M4.20246881,18.8330233 C4.15283987,18.9164943 4.11265644,19.0049801 4.08071781,19.0892599 C4.466863,18.8217806 4.84748496,18.393021 5.36570716,17.6053845 C4.60966627,18.2935352 4.31157244,18.6493385 4.20246881,18.8330233 Z M9.30856647,6.79952626 C9.16592328,7.14764573 9.18457416,8.4313363 9.44720732,9.14553123 C9.5440638,8.80299266 9.54982716,8.58752094 9.57392121,8.02991507 C9.59193171,7.61442024 9.50235948,6.89787972 9.31064768,6.79588653 C9.30984721,6.79709977 9.30912679,6.79831302 9.30856647,6.79952626 Z M14.6067762,15.1068346 C14.5178443,15.1068346 14.4261908,15.1081287 14.332136,15.110717 C14.9934016,15.399145 15.5354777,15.5448957 15.9485186,15.5448957 C16.1975438,15.5448957 16.3353842,15.4877925 16.4055051,15.4424981 C16.365962,15.4150789 16.3100895,15.3823213 16.2334047,15.3483506 C15.9847797,15.2381882 15.5007375,15.1068346 14.6067762,15.1068346 Z" id="Fill-1" fill="#FFFFFF"></path>
    </g>
</svg>