<?xml version="1.0" encoding="UTF-8"?>
<svg width="24px" height="24px" viewBox="0 0 24 24" version="1.1" xmlns="http://www.w3.org/2000/svg" xmlns:xlink="http://www.w3.org/1999/xlink">
    <!-- Generator: Sketch 51.1 (57501) - http://www.bohemiancoding.com/sketch -->
    <title>24/left_menu_icon_10_press</title>
    <desc>Created with Sketch.</desc>
    <defs></defs>
    <g id="24/left_menu_icon_10_press" stroke="none" stroke-width="1" fill="none" fill-rule="evenodd">
        <path d="M8.00369036,15 C8.17281701,15.172817 8.33927865,15.3392787 8.5,15.5 C10,17 11,19 12,19 C13,19 14,17 15.5,15.5 C15.6607213,15.3392787 15.827183,15.172817 15.9963096,15 L19,15 L22,21 L2,21 L5,15 L8.00369036,15 Z M6.00032824,9.06341886 C6.00010959,9.04230519 6,9.02116539 6,9 C6,5.6862915 8.6862915,3 12,3 C15.3137085,3 18,5.6862915 18,9 C18,9.02116539 17.9998904,9.04230519 17.9996718,9.06341886 C17.9717663,12.0282337 15.989403,14.010597 14.5,15.5 C13,17 13,18 12,18 C11,18 11,17 9.5,15.5 C8.01059699,14.010597 6.02823368,12.0282337 6.00029857,9.06343237 Z M12,11 C13.1045695,11 14,10.1045695 14,9 C14,7.8954305 13.1045695,7 12,7 C10.8954305,7 10,7.8954305 10,9 C10,10.1045695 10.8954305,11 12,11 Z" id="Rectangle-34" fill="#44aaff"></path>
    </g>
</svg>