<?xml version="1.0" encoding="UTF-8"?>
<svg width="24px" height="24px" viewBox="0 0 24 24" version="1.1" xmlns="http://www.w3.org/2000/svg" xmlns:xlink="http://www.w3.org/1999/xlink">
    <!-- Generator: Sketch 51.1 (57501) - http://www.bohemiancoding.com/sketch -->
    <title>24/left_menu_icon_9_press</title>
    <desc>Created with Sketch.</desc>
    <defs></defs>
    <g id="24/left_menu_icon_9_press" stroke="none" stroke-width="1" fill="none" fill-rule="evenodd">
        <g id="Group-2" transform="translate(4.000000, 2.000000)" fill="#44aaff">
            <g id="Group">
                <path d="M12.3076923,2.35256633 C12.3076923,3.65180069 11.2055694,4.70588235 9.84536942,4.70588235 C8.48595382,4.70588235 7.38461538,3.65180069 7.38461538,2.35256633 C7.38461538,1.05333196 8.48595382,0 9.84536942,0 C11.2055694,0 12.3076923,1.05333196 12.3076923,2.35256633" id="Fill-1"></path>
                <path d="M10.2581581,5.22055577 C10.0746478,5.064716 9.84902038,4.96827417 9.6106074,4.92995291 L7.47241151,4.71790862 C7.14600384,4.67639393 6.80154597,4.74154006 6.52176797,4.92612078 L0.517822217,8.89045479 C-0.024435692,9.24875854 -0.123711758,9.92001922 0.298211524,10.3811517 C0.720886898,10.8416454 1.51058288,10.9259522 2.05284079,10.5676485 L5.49817155,8.2920045 L4.57159493,12.6178357 L3.8653811,15.0646479 L0.137263962,18.3423928 C0.137263962,18.3423928 -0.352347548,19.2665737 0.517822217,19.7743304 C1.38723989,20.282087 2.09495791,19.7743304 2.09495791,19.7743304 L5.93137621,16.2187564 L7.19402165,13.4368361 L9.36617769,15.9332631 L10.8244609,19.7743304 C10.8244609,19.7743304 11.5502291,20.1434918 12.3293958,19.9129256 C13.1085625,19.6823594 13.0544119,18.7581784 13.0544119,18.7581784 L11.6405021,15.0180237 L9.13829399,12.2940211 L10.495819,8.42549021 L13.8666927,11.2893655 C14.3532959,11.7019577 15.1497607,11.7019577 15.6356117,11.2893655 C16.1214628,10.8761346 16.1214628,10.1997644 15.6356117,9.7871722 L10.2581581,5.22055577 Z" id="Fill-3"></path>
            </g>
        </g>
    </g>
</svg>