<?xml version="1.0" encoding="UTF-8"?>
<svg width="24px" height="24px" viewBox="0 0 24 24" version="1.1" xmlns="http://www.w3.org/2000/svg" xmlns:xlink="http://www.w3.org/1999/xlink">
    <!-- Generator: Sketch 51.1 (57501) - http://www.bohemiancoding.com/sketch -->
    <title>24/left_menu_icon_8</title>
    <desc>Created with Sketch.</desc>
    <defs></defs>
    <g id="24/left_menu_icon_8" stroke="none" stroke-width="1" fill="none" fill-rule="evenodd">
        <path d="M17.6470588,13.25 C15.1780211,13.25 13.1764706,15.2647186 13.1764706,17.75 C13.1764706,18.5696461 13.3941755,19.3381099 13.7745557,20 L4.23529412,20 C3.61803469,20 3.11764706,19.4963203 3.11764706,18.875 L3.11764706,9.875 L2,8.75 L11.5,2 L21,8.75 L19.8823529,9.875 L19.8823529,13.8520199 C19.2247889,13.4691371 18.4613477,13.25 17.6470588,13.25 Z M17.5,21 C15.5670034,21 14,19.4329966 14,17.5 C14,15.5670034 15.5670034,14 17.5,14 C19.4329966,14 21,15.5670034 21,17.5 C21,19.4329966 19.4329966,21 17.5,21 Z M17.5,20 C18.8807119,20 20,18.8807119 20,17.5 C20,16.1192881 18.8807119,15 17.5,15 C16.1192881,15 15,16.1192881 15,17.5 C15,18.8807119 16.1192881,20 17.5,20 Z M20.1464466,20.8535534 C19.9511845,20.6582912 19.9511845,20.3417088 20.1464466,20.1464466 C20.3417088,19.9511845 20.6582912,19.9511845 20.8535534,20.1464466 L21.8535534,21.1464466 C22.0488155,21.3417088 22.0488155,21.6582912 21.8535534,21.8535534 C21.6582912,22.0488155 21.3417088,22.0488155 21.1464466,21.8535534 L20.1464466,20.8535534 Z" id="Combined-Shape" fill="#FFFFFF" fill-rule="nonzero"></path>
    </g>
</svg>