<?xml version="1.0" encoding="UTF-8"?>
<svg width="24px" height="24px" viewBox="0 0 24 24" version="1.1" xmlns="http://www.w3.org/2000/svg" xmlns:xlink="http://www.w3.org/1999/xlink">
    <!-- Generator: Sketch 51.1 (57501) - http://www.bohemiancoding.com/sketch -->
    <title>24/left_menu_icon_12</title>
    <desc>Created with Sketch.</desc>
    <defs></defs>
    <g id="24/left_menu_icon_12" stroke="none" stroke-width="1" fill="none" fill-rule="evenodd">
        <g id="Group" transform="translate(2.000000, 4.000000)" fill="#FFFFFF">
            <path d="M12.1013563,2.16343193 C13.5636086,1.55810601 15.434427,2.89271512 16.0719442,2.04132555 C16.8258635,2.81520694 16.4104932,3.52550886 16.5900404,3.87916967 C16.9884385,4.65603135 16.8517683,5.6425066 16.6900865,6.24750501 C16.9268029,6.32101878 17.0527539,6.72037734 16.8857125,7.17636137 C16.7302837,7.60055566 16.5185788,7.98600621 16.2845423,8.00984851 C16.144299,8.48768798 15.9602855,8.87313853 15.8709586,9.0112252 C15.7986037,9.12050242 15.5002518,9.50297268 15.1304383,9.80000803 C15.1170392,9.93908812 15.1313315,10.5142837 15.1795681,10.8431087 C15.3573287,12.0511187 18.2693867,12.6640646 19.0384916,13.2929053 C19.4261705,13.6117961 19.7012975,13.9783715 19.9031763,14.4432964 C20.2149273,15.164526 19.7352417,16 19.0161599,16 L16.4236999,16 L16.3933019,15.8708652 C15.9741496,14.0902497 15.3354167,12.8168141 14.4047271,12.2260617 C13.9012958,11.9064871 13.4743512,11.7186223 12.4767752,11.3384622 C12.3042091,11.2726881 12.1544009,11.2148038 12.0211711,11.1619772 C12.0592068,11.0787902 12.0856719,10.992311 12.0986822,10.9027145 C12.1469187,10.5748828 12.1558514,10.0304836 12.147812,9.85862035 C11.789611,9.58145359 11.5305629,9.31223426 11.3367234,9.0112252 C11.2633413,8.89778692 11.124853,8.61741183 11,8.25601816 C11.1371673,7.96712146 11.2418505,7.67210998 11.3096481,7.3754125 C11.451588,7.29353538 11.576427,7.18081878 11.6788986,7.04354184 C11.9060376,6.70333077 12.0127345,6.33852851 12.0588098,5.90504985 C12.1049688,5.59040552 12.0163482,5.26001745 11.8294653,4.99564438 C12.1114203,4.0538914 12.2210244,3.20663865 12.1288148,2.37439428 C12.1216765,2.30324685 12.1125284,2.23288827 12.1013563,2.16343193 Z M16,16 L1.03290008,16 C0.274337267,16 -0.234180769,15.1578947 0.109513741,14.446937 C0.485049161,13.6689264 0.963599283,13.0575619 1.53954513,12.7183533 C2.59778708,12.096142 3.84894748,11.8299026 4.94745882,11.2668557 C5.31362926,11.0637249 5.67886321,10.8152348 5.82589329,10.432639 C5.89894008,9.91297917 5.88770211,9.12313571 5.87459115,8.87464563 C5.67979971,8.72476273 5.51216669,8.5058548 5.38293006,8.29680759 C5.15442472,7.91223962 4.99241069,7.49907556 4.92685587,7.07013435 C4.66650962,7.02477505 4.47921016,6.83742142 4.39024292,6.62640207 C4.27599025,6.39368914 4.22729239,6.15308764 4.20294346,5.90459756 C4.19545148,5.64920498 4.30876765,5.40860348 4.52041604,5.250832 C4.31719613,4.49845926 4.1542456,3.71650438 4.187023,2.94145199 C4.21137193,2.45334648 4.30876765,1.9711574 4.54476497,1.53531369 C4.71520748,1.16652286 4.99990266,0.850979909 5.36607311,0.617280907 C6.08998553,0.151855047 6.99276893,0.0157771478 7.86277492,0 C8.35911849,0.00788857389 8.87138252,0.0769135955 9.2946793,0.309626525 C9.45762983,0.392456551 9.57937448,0.519659805 9.68519868,0.647849131 C10.100067,0.700110933 10.5065068,0.835202761 10.8314714,1.10637249 C11.2875456,1.47516332 11.4982575,2.0234192 11.5553838,2.56575866 C11.661208,3.47590287 11.4664166,4.37815851 11.1648644,5.24294342 C11.3933698,5.4007149 11.5226064,5.67878713 11.482337,5.94206829 C11.4495596,6.23591766 11.3765128,6.54357204 11.1976418,6.7999507 C11.0918176,6.93504252 10.945724,7.03266363 10.7668531,7.06323185 C10.7012983,7.52076914 10.5224273,7.96548749 10.2864299,8.36386047 C10.1731138,8.5512141 10.0345122,8.74744238 9.83972073,8.87464563 C9.83972073,9.39430544 9.8153718,9.91297917 9.88841859,10.432639 C10.0345122,10.8152348 10.4006826,11.0637249 10.7668531,11.2668557 C11.8644279,11.8299026 13.1249533,12.0833231 14.1747668,12.7183533 C15.0616297,13.2547763 15.638512,14.5366695 16,16 Z" id="Combined-Shape"></path>
        </g>
    </g>
</svg>