<?xml version="1.0" standalone="no"?><!DOCTYPE svg PUBLIC "-//W3C//DTD SVG 1.1//EN" "http://www.w3.org/Graphics/SVG/1.1/DTD/svg11.dtd"><svg t="1533552481859" class="icon" style="" viewBox="0 0 1024 1024" version="1.1" xmlns="http://www.w3.org/2000/svg" p-id="1959" xmlns:xlink="http://www.w3.org/1999/xlink" width="16" height="16"><defs><style type="text/css"></style></defs><path d="M599.36 643.36V786.4c0 17.792-14.304 32.224-31.936 32.224H114.88c-17.632 0-31.936-14.432-31.936-32.224V237.6c0-17.792 14.304-32.224 31.936-32.224h452.544c17.632 0 31.936 14.432 31.936 32.224v143.04h-64.544v-78.048c0-13.568-10.72-24.608-23.936-24.608H171.488c-13.248 0-23.968 11.008-23.968 24.608v418.816c0 13.568 10.72 24.576 23.968 24.576H510.88c13.216 0 23.936-11.008 23.936-24.576V643.36h64.544z m295.392-163.936H322.464v72.384h572.288v-72.352z m46.336 28.992L752 319.296l-55.52 55.52L885.6 563.904l55.488-55.488z m-55.52-52.448L692.352 649.184l55.52 55.52 193.184-193.216-55.488-55.52z" p-id="1960" fill="#ffffff"></path></svg>