<?xml version="1.0" encoding="UTF-8"?>
<svg width="132px" height="40px" viewBox="0 0 132 40" version="1.1" xmlns="http://www.w3.org/2000/svg" xmlns:xlink="http://www.w3.org/1999/xlink">
    <!-- Generator: Sketch 52.6 (67491) - http://www.bohemiancoding.com/sketch -->
    <title>Logo_Antelope</title>
    <desc>Created with Sketch.</desc>
    <g id="19_平台管理" stroke="none" stroke-width="1" fill="none" fill-rule="evenodd">
        <g id="2_应用系统管理_3_应用系统信息" transform="translate(-523.000000, -1533.000000)" fill="#B2BFD9">
            <g id="Question" transform="translate(484.000000, 1396.000000)">
                <g id="Logo_2" transform="translate(18.000000, 104.000000)">
                    <path d="M85.7531869,51.7144334 C85.7531869,51.7144334 90.4172309,53.8815189 91.6193148,59.3581765 C91.8860986,60.6272644 91.9623966,62.0680584 91.7438831,63.7041362 C91.7438831,63.7041362 91.5990725,65.124428 90.7229423,66.9019712 C90.7078903,66.9260613 90.6969905,66.950664 90.6575439,67.0316478 C89.6417934,69.0290773 87.7021615,71.4355263 84.0305114,72.780985 C83.9609608,72.8066127 83.8924483,72.8307029 83.7673609,72.8752952 L35.9829689,72.8752952 C27.7074828,72.8752952 21,66.2505129 21,58.0844756 C21,49.9128002 27.7074828,43.2910932 35.9829689,43.2910932 C38.4608396,43.2910932 40.79909,43.8866829 42.8580998,44.9389597 C42.8580998,44.9389597 47.2504178,33 59.9711863,33 C62.5531837,33 67.5737453,33.1579404 73.3399579,38.4766576 C75.071457,40.0737811 76.0212901,41.5637805 77.4522682,44.3577216 C78.4918943,44.2531602 85.4287904,43.8426031 85.7531869,51.7144334 Z M82.98332,59.3576639 L80.2481338,54.0291349 L82.98332,52.8256542 L62.284097,52.8256542 L62.2799614,52.8179658 L56.0703495,47.237772 L56.0703495,47.2357218 L56.0041799,47.1762653 L56.0021121,47.1767779 L55.9736798,47.1506376 L73.1307566,38.476145 L73.084748,38.4336029 L48.3321145,47.2157321 L49.2853716,48.5857935 L53.3971975,48.9763609 L57.7597444,56.2444006 L52.301262,60.3679112 L62.0990286,67.9983278 L63.6167959,68.4550149 L62.7591747,66.2505129 L62.284097,66.4550226 L61.4600776,66.3725011 L56.6348597,61.5488395 L62.5648012,60.4540206 L72.5321277,62.1582682 L76.0670366,61.6800538 L77.5718801,67.2105297 L71.1249879,71.5272737 L69.8729333,72.8747826 L72.3351695,72.8747826 L72.6804925,71.6912916 L79.8805819,68.1787474 L80.6141349,67.0254971 L82.98332,59.3576639 Z M139.257746,57.851519 L137.737394,62.6300757 C137.682597,62.7940936 137.658301,62.9442724 137.658301,63.0811248 C137.658301,63.3650806 137.799428,63.5808666 138.076514,63.7069553 C138.241421,63.7843512 138.403744,63.8202301 138.568651,63.8202301 L139.13678,63.8202301 L149.423582,63.8202301 C149.923473,63.8202301 150.238296,63.8038283 150.358229,63.7684619 C150.684941,63.6649257 150.850366,63.4547779 150.850366,63.1375059 C150.850366,63.009367 150.830722,62.895067 150.801772,62.7879429 L150.418712,61.4947649 C150.121465,61.1082979 149.668616,60.9945105 149.417895,60.9652949 L148.186002,60.9652949 L147.700068,59.5537165 L149.843346,59.5537165 L151.655775,59.5537165 L151.772606,59.5537165 L151.772606,59.9668364 L152.507193,62.5695942 C152.626608,62.9668248 152.678303,63.3292017 152.678303,63.6469862 C152.678303,64.1759437 152.369167,64.607003 151.745207,64.9396517 C151.321308,65.1744022 150.661162,65.2866519 149.77821,65.2866519 L138.486973,65.2866519 C137.767377,65.2866519 137.161511,65.1431363 136.670925,64.8617432 C136.079016,64.519356 135.780219,64.0437043 135.780219,63.4368384 C135.780219,63.221565 135.828812,62.9668248 135.925999,62.673643 L137.452554,57.851519 L135.455057,57.851519 L135.455057,56.4455788 L152.941948,56.4455788 L152.941948,57.851519 L139.257746,57.851519 Z M135.792626,53.6444619 L135.792626,52.2626118 L152.643668,52.2626118 L152.643668,53.6444619 L135.792626,53.6444619 Z M131.960884,52.7445166 C131.657951,53.6050976 130.35265,53.9761879 130.35265,53.9761879 L133.78572,53.9761879 L133.78572,55.4000677 L126.194816,55.4000677 L126.194816,57.7286082 L133.426956,57.7286082 L133.426956,59.158126 L126.194816,59.158126 L126.194816,61.6148054 L133.78572,61.6148054 L133.78572,63.0391977 L126.194816,63.0391977 L126.194816,65.2867544 L124.433565,65.2867544 L124.433565,63.0391977 L116.539727,63.0391977 L116.539727,61.6148054 L124.433565,61.6148054 L124.433565,59.158126 L116.874194,59.158126 L116.874194,57.7286082 L124.433565,57.7286082 L124.433565,55.4000677 L116.539727,55.4000677 L116.539727,53.9761879 L120.250399,53.9761879 C120.250399,53.9761879 118.946133,53.6050976 118.647852,52.7445166 L118.47364,52.173017 L120.419959,52.173017 L120.51818,52.4800379 C120.690841,52.8034605 121.193834,53.2729615 122.649051,53.2729615 L122.649051,53.9761879 L127.959685,53.9761879 L127.959685,53.2729615 C129.427308,53.2729615 129.925132,52.7916717 130.099344,52.4682491 L130.184124,52.1863435 L130.184124,52.1786551 L130.191878,52.173017 L132.138198,52.173017 L131.960884,52.7506673 L131.960884,52.7445166 Z M102.063557,53.5689112 L102.470914,53.5689112 L102.648228,53.5689112 L102.648228,54.9994541 L100.209772,54.9994541 L100.209772,56.7892986 L102.50555,56.7892986 L102.50555,58.2136909 L100.209772,58.2136909 L100.209772,60.1552518 L102.648228,60.1552518 L102.648228,61.5975836 L100.149288,61.5975836 C100.020568,62.3484776 99.7507194,63.0030113 99.3361249,63.5509333 C98.8708693,64.18804 97.8168068,64.9327834 95.9542334,65.3669181 L95.9542334,63.915873 C96.3776161,63.7846587 97.1840592,63.5212051 97.5867637,63.1173112 C97.9382902,62.7636478 98.2122741,62.2521172 98.3968255,61.5975836 L95.8942672,61.5975836 L95.8942672,60.1552518 L98.5012495,60.1552518 L98.5012495,58.2136909 L96.4267264,58.2136909 L96.4267264,56.7892986 L98.5012495,56.7892986 L98.5012495,54.9994541 L95.8942672,54.9994541 L95.8942672,53.5689112 L95.9661233,53.5689112 L96.4990995,53.5689112 L96.7968631,53.5689112 C96.7968631,53.5689112 96.4349976,53.3034073 96.3005904,52.7447216 L96.1718697,52.1865485 L97.5914163,52.1865485 L97.7232387,52.7447216 L97.7320269,52.7554853 L97.7320269,52.761636 C97.7563236,52.8697852 97.9000359,53.2793172 98.4774698,53.2793172 L98.4774698,53.5689112 L100.153941,53.5689112 L100.153941,53.2793172 C100.809434,53.2793172 100.903519,52.7447216 100.903519,52.7447216 L100.908172,52.7554853 L101.076181,52.1865485 L102.470914,52.1865485 L102.221227,53.0261147 C102.063557,53.3874665 101.835065,53.5689112 101.835065,53.5689112 L102.063557,53.5689112 Z M114.175557,55.0510172 L114.175557,55.0592181 L114.920483,55.0592181 L114.920483,56.4057019 L114.175557,56.4057019 L113.9817,56.4057019 L113.922768,56.4057019 C113.054808,56.4057019 112.418958,56.2058052 112.011084,55.8224135 C111.882363,55.7024755 111.593388,55.2565521 111.13692,54.5000199 C110.894988,54.0843372 110.737318,53.8500992 110.665978,53.797306 C110.508825,53.6814684 110.302562,53.6291877 110.042536,53.6291877 L107.562723,53.6291877 C107.321824,53.6291877 107.12073,53.6814684 106.97495,53.7885926 C106.865874,53.8813651 106.660127,54.1863358 106.366499,54.727082 C105.928642,55.5210308 105.507327,56.0084713 105.122716,56.1699263 C104.754647,56.3216428 104.235112,56.3980136 103.549118,56.4057019 L103.549118,55.0510172 C103.900645,55.0356406 104.150332,54.9869478 104.311103,54.8957129 C104.485316,54.7998649 104.706571,54.5061705 104.9728,54.0243682 C105.376022,53.2914135 105.645353,52.8454901 105.81026,52.6896732 C106.132838,52.3544617 106.567593,52.1863435 107.127968,52.1863435 L110.424045,52.1863435 C111.027844,52.1863435 111.503955,52.3585622 111.831185,52.7076126 C111.988855,52.8818815 112.253534,53.3098655 112.632459,54.0002781 C112.865604,54.4195486 113.05946,54.6917157 113.212478,54.8111412 C113.413571,54.9674707 113.733564,55.0510172 114.175557,55.0510172 Z M113.330446,58.6699167 C113.780193,59.0302433 114.013338,59.4935937 114.013338,60.0471538 L114.013338,62.84212 C114.013338,63.4310465 113.812244,63.9041354 113.413675,64.2721504 C112.959275,64.6909084 112.3379,64.8964432 111.552652,64.8964432 L107.333818,64.8964432 C105.818118,64.8964432 105.327532,63.8646686 105.198811,63.5151057 L104.827641,61.8744149 L106.635934,61.8744149 L106.92646,63.1250508 C107.046393,63.4848649 107.591259,63.4664129 108.083913,63.4664129 L111.396016,63.4664129 C111.649322,63.4664129 111.865924,63.3767156 112.034967,63.2091099 C112.189535,63.0450921 112.265527,62.8354568 112.265527,62.5694404 L112.265527,60.4684746 C112.265527,60.1491524 112.178163,59.9128643 111.988442,59.7570473 C111.821467,59.6191698 111.637432,59.5540753 111.423931,59.5540753 L104.174732,59.5540753 L104.174732,58.1235323 L107.897294,58.1235323 L107.897294,56.6453217 L109.705587,56.6453217 L109.705587,58.1235323 L111.515949,58.1235323 C112.265527,58.1235323 112.872944,58.3034394 113.330446,58.6699167 Z M96.9187084,71.4715077 L96.6359363,72.2967223 C96.6121566,72.3638671 96.5878599,72.4351124 96.5640802,72.5119957 C96.5397835,72.5883665 96.5154868,72.6580741 96.4917071,72.7200933 C96.4674104,72.7821126 96.4394951,72.8338807 96.408478,72.8743726 C96.376944,72.9148645 96.3397236,72.9353667 96.2962997,72.9353667 C96.2285792,72.9353667 96.1799858,72.9112766 96.1515535,72.8636089 C96.1220873,72.8159413 96.1324263,72.7226561 96.1799858,72.583241 L97.7148124,68.1486091 C97.7628889,67.999968 97.8616264,67.9261599 98.0115421,67.9261599 C98.170763,67.9261599 98.27467,67.999968 98.3227465,68.1486091 L99.8575731,72.5909293 C99.8715308,72.6288584 99.8834206,72.6678127 99.8932427,72.7057418 C99.9035817,72.7441835 99.9051326,72.7810875 99.900997,72.8169664 C99.8958274,72.8528453 99.8813528,72.8815484 99.8575731,72.9030757 C99.8332764,72.9246031 99.7945051,72.9353667 99.7412592,72.9353667 C99.6404538,72.9353667 99.5727333,72.8610462 99.5386145,72.712405 L99.1116132,71.4715077 L96.9187084,71.4715077 Z M99.0102909,71.1629491 L98.0187794,68.2700848 L97.027268,71.1629491 L99.0102909,71.1629491 Z M101.283065,72.6986173 C101.283065,72.8518714 101.227751,72.9282422 101.116607,72.9282422 C101.005462,72.9282422 100.950148,72.8518714 100.950148,72.6986173 L100.950148,68.1624994 C100.950148,68.0000192 101.003394,67.9190354 101.109369,67.9190354 C101.17192,67.9190354 101.220514,67.938 101.254115,67.9764417 C101.288234,68.0143708 101.323904,68.0574255 101.362675,68.1056057 L104.164031,72.3111251 L104.164031,68.1486604 C104.164031,68.067164 104.174887,68.0087327 104.196599,67.9723412 C104.218311,67.9369749 104.260701,67.9190354 104.323252,67.9190354 C104.390972,67.9190354 104.436981,67.9354372 104.460761,67.9687533 C104.48454,68.002582 104.496947,68.062551 104.496947,68.1486604 L104.496947,72.6770899 C104.496947,72.8446956 104.443701,72.9282422 104.337726,72.9282422 C104.245709,72.9282422 104.158861,72.8657104 104.077183,72.7416719 L101.283065,68.5720314 L101.283065,72.6986173 Z M107.276488,68.3279011 L107.276488,72.6984635 C107.276488,72.7896984 107.2677,72.85018 107.251157,72.8814459 C107.234098,72.9121992 107.187055,72.928601 107.11003,72.928601 C107.037656,72.928601 106.991648,72.9121992 106.972521,72.8814459 C106.952877,72.85018 106.943054,72.7896984 106.943054,72.6984635 L106.943054,68.3279011 L105.633101,68.3279011 C105.546254,68.3279011 105.487321,68.3161123 105.456304,68.2920222 C105.42477,68.2684446 105.409262,68.2274402 105.409262,68.1700339 C105.409262,68.06496 105.483703,68.0121668 105.633101,68.0121668 L108.586441,68.0121668 C108.663983,68.0121668 108.720331,68.0275435 108.756518,68.0588094 C108.793221,68.0900753 108.811314,68.129542 108.811314,68.1772097 C108.811314,68.234616 108.787018,68.2745953 108.738424,68.2961226 C108.690348,68.3171374 108.639687,68.3279011 108.586441,68.3279011 L107.276488,68.3279011 Z M110.005109,72.5549479 L111.93747,72.5549479 C112.005191,72.5549479 112.07653,72.5523851 112.150971,72.5477721 C112.225929,72.5431591 112.293649,72.5441842 112.353616,72.55136 C112.414099,72.5585358 112.463726,72.5728873 112.50198,72.5944147 C112.540752,72.615942 112.559879,72.652846 112.559879,72.7056393 C112.559879,72.7727841 112.541786,72.8148136 112.506116,72.8312154 C112.46993,72.8481297 112.41048,72.8563306 112.328285,72.8563306 L109.918261,72.8563306 C109.826244,72.8563306 109.762659,72.8424916 109.726472,72.813276 C109.690286,72.7845728 109.671675,72.7148653 109.671675,72.6051784 L109.671675,68.2633191 C109.671675,68.1674712 109.687701,68.101864 109.719235,68.0659851 C109.750769,68.0301062 109.816939,68.0121668 109.918261,68.0121668 L112.255912,68.0121668 C112.333455,68.0121668 112.390836,68.0229305 112.429607,68.0444578 C112.468379,68.0659851 112.488023,68.1054519 112.488023,68.1628582 C112.488023,68.2202644 112.468379,68.2597312 112.429607,68.2812585 C112.390836,68.3027859 112.333455,68.3135495 112.255912,68.3135495 L110.005109,68.3135495 L110.005109,70.2007796 L112.184056,70.2007796 C112.270903,70.2007796 112.33087,70.2110307 112.364472,70.2299953 C112.39859,70.2489598 112.415133,70.2920145 112.415133,70.3591593 C112.415133,70.416053 112.39859,70.4544947 112.364472,70.4734592 C112.33087,70.4929363 112.270903,70.5021623 112.184056,70.5021623 L110.005109,70.5021623 L110.005109,72.5549479 Z M115.665305,72.5549479 C115.805399,72.5549479 115.875187,72.6051784 115.875187,72.7056393 C115.875187,72.8061002 115.805399,72.8563306 115.665305,72.8563306 L113.87769,72.8563306 C113.68952,72.8563306 113.594918,72.7794473 113.594918,72.6267057 L113.594918,68.1269793 C113.594918,67.9885892 113.650748,67.9188817 113.761376,67.9188817 C113.87252,67.9188817 113.928351,67.9885892 113.928351,68.1269793 L113.928351,72.5549479 L115.665305,72.5549479 Z M118.792237,72.6770899 C119.071907,72.6770899 119.322628,72.6232716 119.544917,72.5156349 C119.766689,72.4079982 119.954859,72.2573068 120.109427,72.0635608 C120.263995,71.8698147 120.380826,71.6355767 120.460437,71.3603343 C120.540047,71.0850919 120.579852,70.7801213 120.579852,70.4454224 C120.579852,70.1532657 120.543666,69.8708475 120.471292,69.5981679 C120.398919,69.3254882 120.289326,69.0825368 120.141995,68.8698262 C119.994664,68.6566031 119.809079,68.485922 119.584722,68.3562454 C119.360365,68.2270814 119.096204,68.1624994 118.792237,68.1624994 C118.487753,68.1624994 118.223591,68.2260563 117.999751,68.3526575 C117.774878,68.4802839 117.589292,68.6499398 117.442478,68.8626505 C117.295147,69.0758736 117.184003,69.3167748 117.109045,69.5874042 C117.034604,69.8580336 116.996867,70.1363513 116.996867,70.4238951 C116.996867,70.7155393 117.033053,70.9969324 117.105426,71.2665366 C117.1778,71.5371661 117.28791,71.776017 117.434724,71.9841146 C117.582055,72.1927248 117.769191,72.3603305 117.995616,72.4869318 C118.222557,72.613533 118.487753,72.6770899 118.792237,72.6770899 Z M118.792237,67.8467651 C119.14428,67.8467651 119.451866,67.9190354 119.714994,68.062551 C119.977605,68.2055541 120.198859,68.3957122 120.377207,68.6325129 C120.555555,68.8698262 120.689446,69.143531 120.778878,69.4546523 C120.868311,69.7657736 120.913285,70.0886837 120.913285,70.4238951 C120.913285,70.7637195 120.869345,71.0881673 120.782497,71.3998011 C120.695649,71.7104099 120.564344,71.9841146 120.388063,72.2209153 C120.211783,72.4582286 119.991045,72.6468491 119.72585,72.7883145 C119.460137,72.9292673 119.148933,73 118.792237,73 C118.435024,73 118.123819,72.9292673 117.858107,72.7883145 C117.592911,72.6468491 117.372173,72.456691 117.195893,72.21784 C117.019613,71.9784765 116.888307,71.7047718 116.801459,71.3962132 C116.714612,71.0871422 116.671188,70.7637195 116.671188,70.4238951 C116.671188,70.0886837 116.715646,69.7657736 116.805078,69.4546523 C116.894511,69.143531 117.02685,68.8682886 117.20313,68.6294376 C117.37941,68.3900741 117.600148,68.1999159 117.865344,68.0584506 C118.131057,67.9180103 118.439676,67.8467651 118.792237,67.8467651 Z M122.13577,70.6243556 L123.265308,70.6243556 C123.675766,70.6243556 123.974564,70.5310705 124.162734,70.3445002 C124.350904,70.1579299 124.444989,69.868336 124.444989,69.4762309 C124.444989,68.7058597 124.05159,68.3209303 123.265308,68.3209303 L122.13577,68.3209303 L122.13577,70.6243556 Z M121.802854,68.2701873 C121.802854,68.1651134 121.81888,68.0959184 121.849897,68.0626023 C121.881431,68.0292862 121.948117,68.0118593 122.048923,68.0118593 L123.265308,68.0118593 C123.762097,68.0118593 124.138437,68.1353852 124.394328,68.3819245 C124.649702,68.6279512 124.777905,68.9903281 124.777905,69.4690551 C124.777905,69.932918 124.646083,70.2922195 124.383472,70.545422 C124.120344,70.7991371 123.747623,70.9257384 123.265308,70.9257384 L122.13577,70.9257384 L122.13577,72.6986685 C122.13577,72.8519227 122.082524,72.9282935 121.97655,72.9282935 C121.909346,72.9282935 121.863337,72.9088163 121.839558,72.8708872 C121.815261,72.8329581 121.802854,72.7750393 121.802854,72.6986685 L121.802854,68.2701873 Z M126.14617,72.5549479 L128.078532,72.5549479 C128.146253,72.5549479 128.217592,72.5523851 128.292033,72.5477721 C128.366991,72.5431591 128.434711,72.5441842 128.494678,72.55136 C128.555161,72.5585358 128.604788,72.5728873 128.643042,72.5944147 C128.681814,72.615942 128.700941,72.652846 128.700941,72.7056393 C128.700941,72.7727841 128.682848,72.8148136 128.647178,72.8312154 C128.610991,72.8481297 128.551542,72.8563306 128.469347,72.8563306 L126.059323,72.8563306 C125.967306,72.8563306 125.903721,72.8424916 125.867534,72.813276 C125.831348,72.7845728 125.812737,72.7148653 125.812737,72.6051784 L125.812737,68.2633191 C125.812737,68.1674712 125.828763,68.101864 125.860297,68.0659851 C125.891831,68.0301062 125.958,68.0121668 126.059323,68.0121668 L128.396974,68.0121668 C128.474516,68.0121668 128.531898,68.0229305 128.570669,68.0444578 C128.609441,68.0659851 128.629085,68.1054519 128.629085,68.1628582 C128.629085,68.2202644 128.609441,68.2597312 128.570669,68.2812585 C128.531898,68.3027859 128.474516,68.3135495 128.396974,68.3135495 L126.14617,68.3135495 L126.14617,70.2007796 L128.325118,70.2007796 C128.411965,70.2007796 128.471932,70.2110307 128.505533,70.2299953 C128.539652,70.2489598 128.556195,70.2920145 128.556195,70.3591593 C128.556195,70.416053 128.539652,70.4544947 128.505533,70.4734592 C128.471932,70.4929363 128.411965,70.5021623 128.325118,70.5021623 L126.14617,70.5021623 L126.14617,72.5549479 Z M133.753048,72.9999487 C133.391183,72.9999487 133.06447,72.9415174 132.77291,72.8241421 C132.480316,72.7072794 132.232179,72.537111 132.02695,72.3146618 C131.821721,72.0922126 131.663534,71.8205581 131.552906,71.4996982 C131.441762,71.1793509 131.386448,70.8179992 131.386448,70.4161555 C131.386448,70.1009337 131.439177,69.7882748 131.545152,69.4797162 C131.651644,69.1711577 131.800009,68.8959153 131.990763,68.653989 C132.181518,68.4130879 132.412595,68.2178041 132.686062,68.0696755 C132.957978,67.9215469 133.260911,67.8467138 133.593828,67.8467138 C134.149033,67.8467138 134.631348,68.0317464 135.04129,68.3992488 C135.123485,68.4812578 135.164324,68.5576286 135.164324,68.6293864 C135.164324,68.7201087 135.111595,68.7657262 135.00562,68.7657262 C134.966849,68.7657262 134.903264,68.7349728 134.813831,68.672441 C134.724399,68.6104218 134.616873,68.5412268 134.491771,68.4643434 C134.366152,68.3879726 134.225024,68.3182651 134.067871,68.2562458 C133.911235,68.1942266 133.745811,68.1624481 133.572116,68.1624481 C133.291928,68.1624481 133.039139,68.2311306 132.812198,68.3674704 C132.585257,68.5038102 132.390883,68.6796168 132.229595,68.8948902 C132.067789,69.1101636 131.94217,69.3520899 131.853255,69.619644 C131.763822,69.8877106 131.718847,70.1532144 131.718847,70.4161555 C131.718847,70.7703315 131.767441,71.0876035 131.86411,71.3669463 C131.960263,71.6468017 132.096738,71.8851401 132.273019,72.0814489 C132.449299,72.2777578 132.662799,72.4284491 132.91352,72.5335231 C133.164242,72.638597 133.444429,72.6908777 133.753048,72.6908777 C134.158338,72.6908777 134.510898,72.5478746 134.810213,72.2608434 C134.901713,72.1747341 134.976154,72.1316794 135.034569,72.1316794 C135.077993,72.1316794 135.11418,72.1496189 135.142612,72.1854977 C135.172078,72.2208641 135.186036,72.2587932 135.186036,72.2967223 C135.186036,72.3449026 135.146231,72.4079469 135.067137,72.4868805 C134.987527,72.5658141 134.881552,72.6437225 134.748695,72.7200933 C134.615839,72.7969767 134.462305,72.8620713 134.288609,72.9174273 C134.114914,72.9722707 133.936566,72.9999487 133.753048,72.9999487 Z M138.219296,72.5549479 C138.359389,72.5549479 138.429178,72.6051784 138.429178,72.7056393 C138.429178,72.8061002 138.359389,72.8563306 138.219296,72.8563306 L136.43168,72.8563306 C136.24351,72.8563306 136.148908,72.7794473 136.148908,72.6267057 L136.148908,68.1269793 C136.148908,67.9885892 136.204739,67.9188817 136.315366,67.9188817 C136.426511,67.9188817 136.482341,67.9885892 136.482341,68.1269793 L136.482341,72.5549479 L138.219296,72.5549479 Z M141.346227,72.6770899 C141.625897,72.6770899 141.876618,72.6232716 142.098907,72.5156349 C142.320679,72.4079982 142.508849,72.2573068 142.663417,72.0635608 C142.817986,71.8698147 142.934817,71.6355767 143.014427,71.3603343 C143.094037,71.0850919 143.133843,70.7801213 143.133843,70.4454224 C143.133843,70.1532657 143.097656,69.8708475 143.025283,69.5981679 C142.95291,69.3254882 142.843316,69.0825368 142.695985,68.8698262 C142.548654,68.6566031 142.363069,68.485922 142.138712,68.3562454 C141.914356,68.2270814 141.650194,68.1624994 141.346227,68.1624994 C141.041743,68.1624994 140.777581,68.2260563 140.553742,68.3526575 C140.328868,68.4802839 140.143283,68.6499398 139.996469,68.8626505 C139.849138,69.0758736 139.737993,69.3167748 139.663036,69.5874042 C139.588595,69.8580336 139.550857,70.1363513 139.550857,70.4238951 C139.550857,70.7155393 139.587044,70.9969324 139.659417,71.2665366 C139.73179,71.5371661 139.8419,71.776017 139.988714,71.9841146 C140.136045,72.1927248 140.323182,72.3603305 140.549606,72.4869318 C140.776547,72.613533 141.041743,72.6770899 141.346227,72.6770899 Z M141.346227,67.8467651 C141.69827,67.8467651 142.005856,67.9190354 142.268984,68.062551 C142.531595,68.2055541 142.75285,68.3957122 142.931198,68.6325129 C143.109546,68.8698262 143.243436,69.143531 143.332869,69.4546523 C143.422301,69.7657736 143.467276,70.0886837 143.467276,70.4238951 C143.467276,70.7637195 143.423335,71.0881673 143.336487,71.3998011 C143.24964,71.7104099 143.118334,71.9841146 142.942054,72.2209153 C142.765774,72.4582286 142.545036,72.6468491 142.27984,72.7883145 C142.014127,72.9292673 141.702923,73 141.346227,73 C140.989014,73 140.67781,72.9292673 140.412097,72.7883145 C140.146901,72.6468491 139.926163,72.456691 139.749883,72.21784 C139.573603,71.9784765 139.442298,71.7047718 139.35545,71.3962132 C139.268602,71.0871422 139.225178,70.7637195 139.225178,70.4238951 C139.225178,70.0886837 139.269636,69.7657736 139.359069,69.4546523 C139.448501,69.143531 139.58084,68.8682886 139.757121,68.6294376 C139.933401,68.3900741 140.154139,68.1999159 140.419334,68.0584506 C140.685047,67.9180103 140.993667,67.8467651 141.346227,67.8467651 Z M144.429786,68.1487116 C144.429786,67.9954575 144.4851,67.9190867 144.596244,67.9190867 C144.707389,67.9190867 144.763219,67.9954575 144.763219,68.1487116 L144.763219,70.7893986 C144.763219,71.0625907 144.781313,71.3122054 144.816982,71.5392675 C144.853169,71.7668423 144.925542,71.9616134 145.034619,72.1246061 C145.143178,72.2870863 145.296196,72.4126624 145.494188,72.5013346 C145.691663,72.5900067 145.952206,72.6340865 146.2753,72.6340865 C146.758132,72.6340865 147.126201,72.5187615 147.379507,72.2896491 C147.632813,72.0600241 147.759466,71.7345513 147.759466,71.313743 L147.759466,68.1487116 C147.759466,67.9954575 147.814779,67.9190867 147.925924,67.9190867 C148.037068,67.9190867 148.092382,67.9954575 148.092382,68.1487116 L148.092382,71.327582 C148.092382,71.5720711 148.048958,71.7940077 147.96211,71.9954421 C147.875263,72.1958514 147.752228,72.3680701 147.593008,72.5120982 C147.434304,72.6556138 147.241998,72.7668384 147.017641,72.845772 C146.793285,72.924193 146.543598,72.9641724 146.26858,72.9641724 C145.993045,72.9641724 145.742324,72.9231679 145.5159,72.8421841 C145.288958,72.7606877 145.094585,72.6479255 144.933296,72.5049225 C144.770974,72.3614069 144.646906,72.1891882 144.560058,71.9877538 C144.47321,71.7873445 144.429786,71.5669455 144.429786,71.327582 L144.429786,68.1487116 Z M149.394839,72.5479771 L150.661885,72.5479771 C151.17315,72.5479771 151.572753,72.362432 151.860177,71.9918542 C152.146568,71.6207639 152.290797,71.0907813 152.290797,70.4019065 C152.290797,69.7130316 152.139848,69.1938127 151.837948,68.8442497 C151.536566,68.4957118 151.084234,68.3209303 150.480953,68.3209303 L149.394839,68.3209303 L149.394839,72.5479771 Z M150.625699,68.0118593 C150.968437,68.0118593 151.26465,68.0754162 151.515888,68.2020174 C151.766609,68.3296438 151.973906,68.5023751 152.138814,68.722774 C152.30217,68.9426604 152.42417,69.1989382 152.504298,69.4905824 C152.583391,69.7822266 152.623196,70.0933479 152.623196,70.4234338 C152.623196,70.7489067 152.584942,71.0574652 152.507399,71.3491094 C152.430374,71.6407536 152.310958,71.8995942 152.149153,72.1246061 C151.987864,72.3491055 151.783668,72.5274749 151.5376,72.6592017 C151.291531,72.7909285 150.999454,72.8565357 150.661885,72.8565357 L149.307992,72.8565357 C149.245441,72.8565357 149.196847,72.8529478 149.163762,72.845772 C149.129644,72.8380837 149.105347,72.8268074 149.090872,72.8098931 C149.076915,72.7934913 149.068126,72.7678635 149.065542,72.7345474 C149.062957,72.7012313 149.061923,72.6581766 149.061923,72.6048708 L149.061923,68.2635241 C149.061923,68.2107309 149.062957,68.1676762 149.065542,68.1343601 C149.068126,68.1005314 149.076915,68.0754162 149.090872,68.0585018 C149.105347,68.0421 149.129644,68.0303113 149.163762,68.0231355 C149.196847,68.0154471 149.245441,68.0118593 149.307992,68.0118593 L150.625699,68.0118593 Z" id="Logo_Antelope"></path>
                </g>
            </g>
        </g>
    </g>
</svg>