<?xml version="1.0" encoding="UTF-8"?>
<svg width="154px" height="34px" viewBox="0 0 154 34" version="1.1" xmlns="http://www.w3.org/2000/svg" xmlns:xlink="http://www.w3.org/1999/xlink">
    <!-- Generator: Sketch 52.6 (67491) - http://www.bohemiancoding.com/sketch -->
    <title>Logo_DeepCloud</title>
    <desc>Created with Sketch.</desc>
    <g id="19_平台管理" stroke="none" stroke-width="1" fill="none" fill-rule="evenodd">
        <g id="2_应用系统管理_3_应用系统信息" transform="translate(-859.000000, -1536.000000)" fill="#B0BCD4">
            <g id="Question" transform="translate(484.000000, 1396.000000)">
                <g id="Logo_2" transform="translate(18.000000, 104.000000)">
                    <path d="M486.060053,63.8211666 C486.053797,63.8339506 486.04455,63.8456466 486.038294,63.8584306 C485.831585,64.2669746 485.928684,64.4279986 486.382356,64.4279986 L501.949736,64.4279986 C502.703137,64.4279986 503.45681,64.4282706 504.21021,64.4279986 C504.654363,64.4277266 504.746022,64.2683346 504.527346,63.8728466 C503.033328,61.1705266 501.538494,58.4682066 500.044204,55.7658866 C499.993614,55.6744946 499.945473,55.5811986 499.884548,55.4666866 C500.757078,55.4666866 501.60377,55.5020466 502.445838,55.4530866 C502.927525,55.4253426 503.165785,55.5855506 503.394525,56.0047026 C504.669594,58.3376466 505.97975,60.6515506 507.27957,62.9711666 C507.582835,63.5129906 507.822182,64.0733106 507.822454,64.7097906 C507.822726,65.5780146 507.36715,66.2509426 506.564248,66.5787026 C506.078209,66.7772626 505.572859,66.8387346 505.052278,66.8384626 C498.50694,66.8362866 491.961057,66.8365586 485.415447,66.8381906 C485.091511,66.8381906 484.770568,66.8224146 484.455065,66.7492466 C483.565943,66.5427986 482.879723,66.0866546 482.643911,65.1550546 C482.46576,64.4500306 482.637927,63.7746546 482.962407,63.1417106 C483.640739,61.8200626 484.330495,60.5041266 485.016987,59.1865586 C486.221341,56.8751026 487.42651,54.5641906 488.631679,52.2530066 C488.667309,52.1847346 488.701851,52.1161906 488.750537,52.0209906 L488.504389,52.0209906 C485.827505,52.0209906 483.150349,52.0188146 480.473192,52.0256146 C480.291506,52.0261586 480.252068,51.9801906 480.254516,51.8036626 C480.265123,51.0287346 480.265939,50.2532626 480.253972,49.4783346 C480.251524,49.2947346 480.302385,49.2604626 480.477272,49.2607346 C486.441377,49.2656306 492.405754,49.2648146 498.370131,49.2645426 L510.147933,49.2645426 L510.147933,52.0209906 C504.197971,52.0209906 498.248281,52.0218066 492.29832,52.0163666 C492.12996,52.0163666 492.049181,52.0680466 491.975472,52.2130226 C490.006295,56.0838546 488.033038,59.9522386 486.060053,63.8211666 Z M482.822524,42.8947106 C482.628598,42.8949826 482.576649,42.8495586 482.579641,42.6531746 C482.592152,41.8855906 482.591336,41.1171906 482.579913,40.3496066 C482.577465,40.1692706 482.622887,40.1295586 482.801037,40.1295586 C489.188624,40.1349986 495.576755,40.1341826 501.964614,40.1341826 C503.873682,40.1341826 505.783023,40.1366306 507.692363,40.1295586 C507.870514,40.1287426 507.915664,40.1692706 507.912944,40.3496066 C507.901792,41.1242626 507.901792,41.8997346 507.912944,42.6746626 C507.915664,42.8549986 507.870242,42.8949826 507.692363,42.8947106 C503.543764,42.8889986 499.395164,42.8900866 495.246564,42.8900866 C491.105036,42.8900866 486.96378,42.8889986 482.822524,42.8947106 Z M436.881101,57.1879842 C438.28074,59.8731682 439.679291,62.5586242 441.087362,65.2394562 C441.18854,65.4320322 441.192892,65.5057442 440.975847,65.6042082 C440.312746,65.9050402 439.660252,66.2289922 439.010206,66.5575682 C438.850822,66.6380802 438.788537,66.6116962 438.707758,66.4580162 C437.084818,63.3719042 435.455079,60.2896002 433.8335,57.2029442 C433.741297,57.0275042 433.640118,56.9611362 433.441568,56.9690242 C433.025702,56.9858882 432.608748,56.9839842 432.192881,56.9692962 C432.014731,56.9633122 431.970669,57.0081922 431.970941,57.1890722 C431.977469,60.2828002 431.975565,63.3768002 431.975565,66.4705282 C431.975565,66.5135042 431.969853,66.5572962 431.976653,66.5997282 C432.000043,66.7517762 431.937215,66.7920322 431.787079,66.7904002 C431.033406,66.7827842 430.279733,66.7808802 429.52606,66.7917602 C429.347366,66.7942082 429.302216,66.7487842 429.30276,66.5695362 C429.309288,64.4808482 429.30684,62.3921602 429.30684,60.3032002 C429.30684,59.2554562 429.303576,58.2071682 429.310648,57.1594242 C429.311736,57.0084642 429.274746,56.9671202 429.122706,56.9701122 C428.649178,56.9807202 428.175107,56.9807202 427.70158,56.9703842 C427.551715,56.9671202 427.479639,57.0163522 427.409467,57.1493602 C425.753617,60.2917762 424.090424,63.4303842 422.435934,66.5733442 C422.345907,66.7444322 422.287158,66.7740802 422.109823,66.6791522 C421.455153,66.3282722 420.790964,65.9953442 420.127047,65.6618722 C419.988334,65.5922402 419.950256,65.5421922 420.035387,65.3819842 C421.487248,62.6511042 422.930132,59.9156002 424.374921,57.1814562 C424.407559,57.1197122 424.437478,57.0568802 424.47882,56.9741922 L423.256515,56.9741922 C422.31626,56.9741922 421.376006,56.9709282 420.435751,56.9777282 C420.29323,56.9785442 420.259776,56.9388322 420.260864,56.8001122 C420.267391,56.0107682 420.269023,55.2211522 420.260048,54.4315362 C420.258144,54.2648002 420.29867,54.2191042 420.469749,54.2193762 C423.333759,54.2250882 426.19777,54.2207362 429.061781,54.2291682 C429.277465,54.2299842 429.314999,54.1690562 429.312008,53.9691362 C429.299768,53.1438882 429.312824,52.3183682 429.302216,51.4928482 C429.30004,51.3176802 429.353621,51.2844962 429.515725,51.2864002 C430.269126,51.2948322 431.02307,51.2948322 431.776471,51.2864002 C431.934223,51.2844962 431.98182,51.3184962 431.979917,51.4844162 C431.970397,52.3240802 431.980732,53.1640162 431.971213,54.0039522 C431.969037,54.1774882 432.003851,54.2286242 432.188802,54.2283522 C435.01691,54.2215522 437.845019,54.2259042 440.672855,54.2185602 C440.881196,54.2177442 440.935049,54.2688802 440.931786,54.4769602 C440.918186,55.2445442 440.920634,56.0132162 440.93097,56.7810722 C440.932874,56.9491682 440.88174,56.9782722 440.726164,56.9780002 C439.420088,56.9714722 438.114013,56.9741922 436.804129,56.9741922 C436.782098,57.0672162 436.847375,57.1235202 436.881101,57.1879842 Z M434.565767,45.4168034 C436.466948,46.8469794 438.367857,48.2779714 440.269854,49.7065154 C440.369401,49.7815874 440.414278,49.8313634 440.313372,49.9543074 C439.816725,50.5573314 439.328239,51.1676994 438.843832,51.7807874 C438.764684,51.8816994 438.720079,51.8985634 438.611284,51.8161474 C436.715815,50.3783554 434.81817,48.9443714 432.916989,47.5144674 C432.794324,47.4222594 432.790244,47.3716674 432.885983,47.2538914 C433.364678,46.6636514 433.832222,46.0644354 434.304933,45.4695714 C434.343555,45.4214274 434.370753,45.3585954 434.446909,45.3346594 C434.484715,45.3607714 434.526329,45.3874274 434.565767,45.4168034 Z M427.290147,45.3334082 C427.360319,45.2806402 427.415804,45.2012162 427.512631,45.3255202 C428.015805,45.9690722 428.528498,46.6055522 429.037928,47.2442082 C429.055335,47.2662402 429.072198,47.2893602 429.089333,47.3119362 C429.070838,47.3856482 429.001753,47.4060482 428.95334,47.4430402 C427.613538,48.4627682 426.272376,49.4803202 424.931214,50.4981442 C424.292319,50.9831202 423.650161,51.4648322 423.01589,51.9566082 C422.890504,52.0539842 422.839915,52.0469122 422.747168,51.9128162 C422.303287,51.2708962 421.846351,50.6379522 421.390502,50.0044642 C421.318426,49.9046402 421.294763,49.8499682 421.418789,49.7569442 C423.378719,48.2862402 425.333753,46.8090082 427.290147,45.3334082 Z M420.261544,45.7916194 C420.267255,44.7724354 420.215306,43.7502594 420.280855,42.7354274 C420.354291,41.6066274 421.002705,40.8360514 422.034347,40.3926914 C422.47986,40.2009314 422.952843,40.1329314 423.437794,40.1332034 C425.877235,40.1351074 428.31722,40.1340194 430.756932,40.1340194 C433.196917,40.1340194 435.63663,40.1506114 438.076071,40.1272194 C439.338085,40.1152514 440.62077,41.0288994 440.909347,42.3429314 C440.953953,42.5461154 440.981967,42.7503874 440.981423,42.9595554 C440.979519,43.8492674 440.977071,44.7392514 440.984143,45.6289634 C440.985231,45.7769314 440.951777,45.8215394 440.797561,45.8199074 C440.030017,45.8114754 439.261929,45.8112034 438.494113,45.8199074 C438.335273,45.8218114 438.308074,45.7682274 438.31025,45.6251554 C438.318954,45.1227714 438.314602,44.6203874 438.313242,44.1182754 C438.311882,43.4488834 437.808437,42.9293634 437.139623,42.9269154 C435.561018,42.9214754 433.98214,42.9250114 432.403806,42.9247394 C429.662189,42.9247394 426.921116,42.9410594 424.180043,42.9127714 C423.542509,42.9065154 422.862272,43.4483394 422.914221,44.1756674 C422.952027,44.7038914 422.917213,45.2370114 422.924557,45.7679554 C422.926461,45.9099394 422.884303,45.9485634 422.742054,45.9472034 C421.967167,45.9401314 421.192279,45.9414914 420.41712,45.9466594 C420.295542,45.9474754 420.261,45.9134754 420.261544,45.7916194 Z M417.943028,58.3044082 C418.058078,58.3666962 418.073853,58.4121202 418.012928,58.5285362 C416.582555,61.2458162 415.156805,63.9652722 413.729967,66.6841842 C413.702769,66.7358642 413.68917,66.7997842 413.633141,66.8207282 C413.577111,66.7913522 413.539033,66.7723122 413.501227,66.7519122 C412.804944,66.3730162 412.111108,65.9905842 411.411288,65.6187602 C411.275839,65.5469522 411.273392,65.4944562 411.342204,65.3652562 C412.786993,62.6732722 414.226886,59.9782962 415.662971,57.2819602 C415.736407,57.1440562 415.786996,57.1024402 415.93958,57.1897522 C416.60241,57.5700082 417.271495,57.9393842 417.943028,58.3044082 Z M411.35428,50.7412578 C411.343129,50.7330978 411.335785,50.7197698 411.320826,50.7015458 C411.835151,50.0084898 412.35274,49.3148898 412.864889,48.6169378 C412.957093,48.4915458 413.00877,48.5949058 413.065615,48.6378818 C413.751835,49.1546818 414.436423,49.6742018 415.121284,50.1929058 C415.920106,50.7983778 416.717296,51.4062978 417.520199,52.0063298 C417.641232,52.0966338 417.648032,52.1480418 417.551749,52.2671778 C417.057279,52.8802658 416.572328,53.5012418 416.087921,54.1230338 C416.021013,54.2089858 415.980759,54.2465218 415.873324,54.1649218 C414.369243,53.0208898 412.861082,51.8817538 411.35428,50.7412578 Z M417.842339,43.934349 C417.933998,44.003437 418.026201,44.071709 418.117316,44.141069 C418.144515,44.161741 418.169266,44.185677 418.20136,44.213421 C418.171713,44.254765 418.146963,44.289037 418.121668,44.323037 C417.639981,44.973389 417.156662,45.623197 416.677423,46.275453 C416.615683,46.359229 416.575157,46.380717 416.480234,46.308637 C414.962553,45.155629 413.442152,44.006157 411.920119,42.859133 C411.831996,42.792765 411.817037,42.753869 411.888569,42.660573 C412.382495,42.019197 412.873974,41.375645 413.355117,40.724477 C413.454119,40.590381 413.508245,40.663005 413.586849,40.722301 C415.005255,41.793437 416.423933,42.863757 417.842339,43.934349 Z M454.088012,53.7650546 C454.088284,56.9232466 454.084748,60.0814386 454.090459,63.2393586 C454.091819,63.9707666 453.93434,64.6458706 453.477403,65.2287666 C452.969878,65.8747666 452.324456,66.2756946 451.480484,66.2803186 C450.267699,66.2868466 449.054642,66.2925586 447.841857,66.2789586 C446.783288,66.2669906 445.812843,65.5502706 445.415744,64.5231986 C445.274855,64.1589906 445.201691,63.7841746 445.201691,63.3927666 C445.202779,56.9904306 445.200603,50.5880946 445.203867,44.1857586 C445.204683,42.6448786 446.489544,41.3645746 448.042039,41.3528786 C449.183019,41.3439026 450.324544,41.3449906 451.465524,41.3528786 C452.58121,41.3602226 453.830441,42.4365266 454.029807,43.5422066 C454.074412,43.7905426 454.088284,44.0396946 454.088284,44.2907506 C454.088012,47.4489426 454.088012,50.6071346 454.088012,53.7650546 Z M451.273502,56.1148626 C451.400248,56.1154066 451.458725,56.1015346 451.457909,55.9470386 C451.450837,54.4904786 451.451925,53.0341906 451.457093,51.5776306 C451.457637,51.4438066 451.423095,51.4119826 451.290637,51.4127986 C450.193175,51.4182386 449.09544,51.4190546 447.997977,51.4122546 C447.850017,51.4111666 447.824994,51.4593106 447.826354,51.5925906 C447.83261,52.3101266 447.829346,53.0273906 447.829346,53.7449266 C447.829346,54.4768786 447.833154,55.2085586 447.82581,55.9399666 C447.824178,56.0811346 447.861984,56.1167666 448.002057,56.1159506 C449.092448,56.1096946 450.182839,56.1107826 451.273502,56.1148626 Z M451.268607,63.6119986 C451.417655,63.6128146 451.459813,63.5785426 451.457909,63.4256786 C451.449205,62.6866546 451.453829,61.9476306 451.453829,61.2088786 C451.453829,60.4625106 451.449749,59.7164146 451.457365,58.9703186 C451.458997,58.8253426 451.430166,58.7777426 451.274046,58.7788306 C450.183383,58.7861746 449.092992,58.7853586 448.002601,58.7796466 C447.863888,58.7788306 447.825266,58.8125586 447.82581,58.9545426 C447.83125,60.4467346 447.832066,61.9391986 447.824994,63.4311186 C447.824178,63.5918706 447.878303,63.6122706 448.01892,63.6117266 C449.102512,63.6057426 450.185559,63.6051986 451.268607,63.6119986 Z M447.82581,44.3339986 C447.831522,45.7043346 447.831794,47.0746706 447.82581,48.4447346 C447.825266,48.5894386 447.868784,48.6193586 448.005321,48.6185426 C449.095712,48.6133746 450.186103,48.6120146 451.276494,48.6196306 C451.437782,48.6209906 451.458725,48.5635986 451.457365,48.4237906 C451.450565,47.7495026 451.454373,47.0752146 451.454373,46.4006546 C451.454373,45.7192946 451.451109,45.0376626 451.457093,44.3563026 C451.458181,44.2254706 451.43751,44.1724306 451.286558,44.1735186 C450.189095,44.1795026 449.091632,44.1773266 447.993897,44.1713426 C447.86552,44.1705266 447.825266,44.1974546 447.82581,44.3339986 Z M463.844877,53.0904674 C463.97407,53.0912834 464.036355,53.0736034 464.031459,52.9199234 C464.019492,52.5475554 464.025748,52.1743714 464.02874,51.8017314 C464.029555,51.7054434 464.026564,51.6428834 463.896282,51.6434274 C462.254848,51.6472354 460.613142,51.6469634 458.971707,51.6436994 C458.855841,51.6436994 458.824835,51.6836834 458.826467,51.7930274 C458.831363,52.1585954 458.83653,52.5247074 458.824291,52.8900034 C458.818851,53.0518434 458.865905,53.0940034 459.027736,53.0920994 C459.823567,53.0833954 460.619125,53.0880194 461.414684,53.0880194 C462.22493,53.0880194 463.034903,53.0858434 463.844877,53.0904674 Z M463.848413,57.0407234 C463.97951,57.0415394 464.035811,57.0203234 464.031459,56.8696354 C464.020036,56.4684354 464.024388,56.0664194 464.029827,55.6652194 C464.031187,55.5556034 464.020308,55.5012034 463.884587,55.5014754 C462.250496,55.5066434 460.616133,55.5060994 458.981771,55.5022914 C458.858833,55.5020194 458.823475,55.5381954 458.825651,55.6595074 C458.832723,56.0539074 458.837074,56.4483074 458.824291,56.8421634 C458.818851,57.0097154 458.875696,57.0431714 459.031544,57.0415394 C459.834174,57.0341954 460.637076,57.0382754 461.439979,57.0382754 C462.242609,57.0382754 463.045783,57.0355554 463.848413,57.0407234 Z M466.672714,56.8149634 C466.66673,56.9890434 466.707256,57.0456194 466.892478,57.0428994 C467.66655,57.0314754 468.440621,57.0382754 469.214965,57.0382754 C470.010524,57.0382754 470.806354,57.0344674 471.602185,57.0415394 C471.743073,57.0428994 471.781423,57.0050914 471.778159,56.8647394 C471.76864,56.4635394 471.771088,56.0620674 471.777071,55.6605954 C471.778975,55.5458114 471.756401,55.5014754 471.628023,55.5017474 C470.029291,55.5063714 468.43083,55.5071874 466.832369,55.5012034 C466.687401,55.5006594 466.672442,55.5556034 466.674618,55.6752834 C466.681145,56.0549954 466.686313,56.4355234 466.672714,56.8149634 Z M466.67353,52.9006114 C466.669178,53.0512994 466.714871,53.0931874 466.865008,53.0915554 C467.654854,53.0844834 468.444157,53.0880194 469.233732,53.0880194 C470.023307,53.0880194 470.812882,53.0858434 471.602185,53.0904674 C471.72213,53.0910114 471.783055,53.0787714 471.778431,52.9321634 C471.76728,52.5521794 471.77136,52.1713794 471.777071,51.7911234 C471.778703,51.6815074 471.750417,51.6434274 471.634279,51.6436994 C470.033642,51.6469634 468.433006,51.6472354 466.832369,51.6434274 C466.708616,51.6431554 466.672442,51.6809634 466.674618,51.8025474 C466.681417,52.1681154 466.683865,52.5347714 466.67353,52.9006114 Z M474.853231,64.4516354 C475.041173,64.4508194 475.093666,64.4929794 475.089587,64.6858274 C475.075987,65.3315554 475.076259,65.9778274 475.089587,66.6235554 C475.093123,66.8101474 475.035462,66.8414274 474.863023,66.8411554 C471.69058,66.8354434 468.518409,66.8370754 465.346239,66.8370754 C462.188212,66.8370754 459.030184,66.8351714 455.872429,66.8416994 C455.678503,66.8419714 455.622746,66.7973634 455.627098,66.5985314 C455.640969,65.9598754 455.642057,65.3209474 455.626282,64.6822914 C455.621658,64.4818274 455.686935,64.4519074 455.867261,64.4521794 C458.508515,64.4578914 461.149498,64.4532674 463.790752,64.4614274 C463.994741,64.4619714 464.042611,64.4026754 464.031731,64.2122754 C464.016228,63.9258594 464.0165,63.6372674 464.032003,63.3513954 C464.041523,63.1843874 463.987126,63.1533794 463.83019,63.1539234 C461.368718,63.1590914 458.906975,63.1550114 456.445231,63.1623554 C456.242058,63.1628994 456.178685,63.1201954 456.183853,62.9069474 C456.1999,62.2614914 456.196908,61.6149474 456.185213,60.9692194 C456.181677,60.7782754 456.224379,60.7195234 456.427552,60.7200674 C458.882224,60.7279554 461.336896,60.7227874 463.791568,60.7301314 C463.989574,60.7306754 464.045331,60.6792674 464.032003,60.4856034 C464.014868,60.2285634 464.016228,59.9685314 464.031731,59.7112194 C464.043155,59.5238114 463.999093,59.4617954 463.794288,59.4631554 C462.222754,59.4732194 460.650676,59.4498274 459.079414,59.4740354 C457.452938,59.4987874 456.199084,58.1322594 456.191196,56.5995394 C456.183853,55.1212194 456.182493,53.6423554 456.192284,52.1640354 C456.20126,50.7401154 457.103981,49.6270914 458.476965,49.3322434 C458.664363,49.2919874 458.861281,49.2800194 459.053575,49.2797474 C463.202175,49.2770274 467.350502,49.2857314 471.49883,49.2740354 C473.255042,49.2688674 474.37236,50.6791874 474.388679,52.1403714 C474.404998,53.6331074 474.402279,55.1261154 474.389223,56.6191234 C474.376984,57.9919074 473.475623,59.1182594 472.184506,59.4065794 C471.967733,59.4549954 471.746065,59.4702274 471.522765,59.4699554 C469.979517,59.4672354 468.436542,59.4721314 466.893294,59.4642434 C466.713783,59.4631554 466.661018,59.5058594 466.672442,59.6859234 C466.689577,59.9505794 466.688217,60.2174114 466.672986,60.4823394 C466.662106,60.6692034 466.705624,60.7314914 466.910701,60.7306754 C469.307984,60.7222434 471.704995,60.7249634 474.102278,60.7249634 C474.392487,60.7249634 474.392487,60.7249634 474.392487,61.0260674 C474.392487,61.6432354 474.393847,62.2606754 474.391943,62.8778434 C474.391127,63.1846594 474.436821,63.1571874 474.121861,63.1571874 C471.72485,63.1580034 469.327567,63.1601794 466.930556,63.1525634 C466.726839,63.1517474 466.656123,63.1936354 466.671898,63.4071554 C466.692569,63.6927554 466.684953,63.9810754 466.67353,64.2677634 C466.667546,64.4187234 466.714599,64.4608834 466.865008,64.4595234 C467.690757,64.4521794 468.515962,64.4559874 469.341166,64.4559874 C471.178703,64.4559874 473.015967,64.4592514 474.853231,64.4516354 Z M468.463305,44.2310738 L462.124676,44.2310738 C462.362119,44.6684498 462.591403,45.0867858 462.81552,45.5081138 C462.855773,45.5837298 462.905547,45.6019538 462.985511,45.6016818 C464.521143,45.5997778 466.056503,45.5995058 467.592134,45.6019538 C467.671554,45.6019538 467.723504,45.5853618 467.763758,45.5108338 C467.990322,45.0908658 468.220966,44.6730738 468.463305,44.2310738 Z M455.895928,48.2944818 C455.696291,48.2947538 455.627478,48.2588498 455.63183,48.0412498 C455.647605,47.3092978 455.64407,46.5770738 455.633462,45.8451218 C455.630742,45.6571698 455.668004,45.5929778 455.873898,45.5948818 C457.122856,45.6057618 458.371543,45.6000498 459.620502,45.6000498 L459.860394,45.6000498 C459.612887,45.1449938 459.378163,44.7144178 459.144255,44.2832978 C459.095298,44.1921778 459.010438,44.2177458 458.93537,44.2174738 C458.181697,44.2163858 457.428025,44.2117618 456.674624,44.2210098 C456.510888,44.2231858 456.471722,44.1788498 456.473626,44.0183698 C456.48233,43.2431698 456.483962,42.4679698 456.472538,41.6927698 C456.469819,41.5178738 456.531831,41.5007378 456.67952,41.5010098 C459.091218,41.5053618 461.502916,41.5026418 463.914342,41.5072658 C464.100925,41.5075378 464.209175,41.4871378 464.117244,41.2698098 C464.109084,41.2510418 464.111804,41.2273778 464.110716,41.2061618 C464.101741,41.0233778 463.955956,40.7984338 464.06611,40.6771218 C464.169465,40.5634258 464.409356,40.5721298 464.590227,40.5307858 C465.091497,40.4162738 465.594127,40.3085618 466.093493,40.1869778 C466.248525,40.1491698 466.304282,40.1913298 466.330392,40.3444658 C466.384517,40.6613458 466.462305,40.9738738 466.518334,41.2902098 C466.545261,41.4441618 466.59585,41.5097138 466.774001,41.5091698 C469.278991,41.5018258 471.78398,41.5067218 474.288969,41.4991058 C474.490239,41.4982898 474.533756,41.5548658 474.531037,41.7466258 C474.519885,42.5074098 474.522333,43.2684658 474.529949,44.0292498 C474.531581,44.1807538 474.488607,44.2215538 474.337927,44.2204658 C473.447989,44.2133938 472.558052,44.2199218 471.667842,44.2142098 C471.523145,44.2131218 471.439102,44.2465778 471.370289,44.3874738 C471.174732,44.7897618 470.957687,45.1814418 470.737106,45.6000498 L470.978086,45.6000498 C472.284434,45.6000498 473.590782,45.6027698 474.896858,45.5967858 C475.045362,45.5962418 475.089423,45.6316018 475.087792,45.7847378 C475.079632,46.5455218 475.078272,47.3065778 475.088336,48.0673618 C475.090783,48.2441618 475.046994,48.2952978 474.866123,48.2942098 C473.66041,48.2860498 472.454697,48.2901298 471.248712,48.2901298 C466.131299,48.2901298 461.013614,48.2890418 455.895928,48.2944818 Z M403.370817,38.5113762 C403.374624,42.2655202 403.373808,46.0193922 403.374896,49.7735362 C403.37544,51.7836162 403.3768,53.7934242 403.37544,55.8032322 C403.374896,56.9540642 402.696836,57.8707042 401.612156,58.1949282 C401.371177,58.2670082 401.125846,58.3086242 400.872627,58.3086242 C393.092201,58.3078082 385.311502,58.3078082 377.530804,58.3127042 C377.362717,58.3129762 377.321103,58.2710882 377.321647,58.1035362 C377.329535,56.4595682 377.324367,54.8158722 377.332798,53.1721762 C377.333886,52.9934722 377.291729,52.9510402 377.11249,52.9510402 C372.662258,52.9502242 368.212026,52.9426082 363.762066,52.9363522 C362.962972,52.9349922 362.594431,53.3054562 362.594431,54.1067682 C362.594431,57.1145442 362.594431,60.1220482 362.594159,63.1295522 C362.594159,63.8234242 362.984459,64.2153762 363.685094,64.2153762 C367.022632,64.2156482 370.360442,64.2140162 373.69798,64.2132002 C374.602333,64.2129282 375.506686,64.2132002 376.411038,64.2129282 C377.045309,64.2126562 377.458456,63.7986722 377.457368,63.1632802 C377.455736,62.3954242 377.455736,61.6270242 377.447576,60.8591682 C377.446217,60.7264322 377.469063,60.6758402 377.619199,60.6763842 C379.370788,60.6823682 381.122105,60.6812802 382.873421,60.6780162 C382.994183,60.6777442 383.051028,60.6929762 383.050212,60.8376802 C383.036613,63.0270082 383.043685,65.2166082 383.015126,67.4053922 C382.999895,68.5744482 382.187473,69.4723202 381.027998,69.6804002 C380.902068,69.7029762 380.773419,69.7135842 380.645858,69.7296322 C380.18593,69.7620002 379.725186,69.7348002 379.264986,69.7435042 C378.519473,69.7435042 377.773959,69.7437762 377.028174,69.7435042 C376.238871,69.7435042 375.449297,69.7437762 374.659722,69.7435042 C373.827445,69.7435042 372.994897,69.7437762 372.162892,69.7435042 C371.401604,69.7435042 370.640587,69.7437762 369.879571,69.7435042 C369.104412,69.7435042 368.32898,69.7437762 367.553548,69.7435042 C366.721,69.7435042 365.888179,69.7437762 365.055631,69.7435042 C364.10912,69.7435042 363.162881,69.7437762 362.216371,69.7435042 C361.301138,69.7435042 360.385906,69.7429602 359.470674,69.7448642 C359.39343,69.7448642 359.313194,69.7239202 359.239214,69.7658082 L359.19624,69.7658082 C359.063783,69.6765922 358.902496,69.6861122 358.756439,69.6420482 C357.710654,69.3270722 357.001859,68.3941122 357.001587,67.3058402 C356.999955,61.4844962 356.999411,55.6631522 357.000771,49.8418082 C357.001043,48.6289602 357.911923,47.6059682 359.108389,47.4539202 C359.315642,47.4275362 359.521807,47.4177442 359.730148,47.4180162 C365.515287,47.4182882 371.300425,47.4174722 377.085563,47.4223682 C377.270786,47.4223682 377.333342,47.3908162 377.33307,47.1854562 C377.331167,43.5460962 377.340142,39.9070082 377.339054,36.2676482 C377.339054,36.0614722 377.392091,36.0078882 377.599617,36.0078882 C385.372971,36.0092482 393.146598,36.0032642 400.919952,36.0000002 C402.295657,35.9994562 403.369457,37.0975202 403.370817,38.5113762 Z M397.771445,51.6351042 C397.771988,48.6357602 397.771173,45.6361442 397.771988,42.6368002 C397.77226,41.9132802 397.370265,41.5118082 396.639712,41.5120802 C392.140794,41.5134402 387.641877,41.5164322 383.142959,41.5128962 C382.960457,41.5126242 382.903884,41.5460802 382.903884,41.7432802 C382.902252,44.3474082 382.939242,46.9515362 382.899804,49.5553922 C382.884845,50.5457442 382.902524,51.5360962 382.893004,52.5261762 C382.891101,52.7179362 382.932986,52.7777762 383.136432,52.7769602 C385.396906,52.7690722 387.656836,52.7723362 389.91731,52.7723362 C392.14161,52.7723362 394.36591,52.7728802 396.59021,52.7707042 C396.733003,52.7707042 396.879875,52.7677122 397.017228,52.7345282 C397.522306,52.6124002 397.771445,52.2430242 397.771445,51.6351042 Z" id="Logo_DeepCloud"></path>
                </g>
            </g>
        </g>
    </g>
</svg>