<?xml version="1.0" encoding="UTF-8"?>
<svg width="16px" height="16px" viewBox="0 0 16 16" version="1.1" xmlns="http://www.w3.org/2000/svg" xmlns:xlink="http://www.w3.org/1999/xlink">
    <!-- Generator: Sketch 51.2 (57519) - http://www.bohemiancoding.com/sketch -->
    <title>16/Bar/Alarminfo_No_Dark</title>
    <desc>Created with Sketch.</desc>
    <defs></defs>
    <g id="16/Bar/Alarminfo_No_Dark" stroke="none" stroke-width="1" fill="none" fill-rule="evenodd">
        <path d="M12.5,2.5 L12.5,10.5 L12.0884033,10.5 C11.7252362,10.5 11.3906156,10.6968919 11.2142461,11.0143571 L9.28575393,14.4856429 C9.10938438,14.8031081 8.77476378,15 8.41159665,15 L8,15 C7.96339541,15 7.92682626,14.9977233 7.89050434,14.993183 C7.40672208,14.9327103 7.06356195,14.4915044 7.12403473,14.0077221 L7.42974783,11.5620174 C7.43231938,11.541445 7.43360889,11.5207325 7.43360889,11.5 C7.43360889,11.2238576 7.20975127,11 6.93360889,11 L2.5,11 C1.67157288,11 1,10.3284271 1,9.5 L1,8.36931688 C1,8.12403146 1.03008205,7.87967181 1.0895725,7.64171 L1.93190172,4.27239312 C2.26577697,2.93689212 3.46572629,2 4.84232922,2 L9.38447187,2 C9.79328091,2 10.200547,2.05013674 10.59715,2.1492875 L11.76114,2.440285 C11.9197812,2.4799453 12.0826876,2.5 12.2462113,2.5 L12.5,2.5 Z M13,2.5 L14,2.5 C14.5522847,2.5 15,2.94771525 15,3.5 L15,9.5 C15,10.0522847 14.5522847,10.5 14,10.5 L13,10.5 L13,2.5 Z" id="Rectangle-8" fill="#8D96A9"></path>
    </g>
</svg>