<?xml version="1.0" encoding="UTF-8"?>
<svg width="16px" height="16px" viewBox="0 0 16 16" version="1.1" xmlns="http://www.w3.org/2000/svg" xmlns:xlink="http://www.w3.org/1999/xlink">
    <!-- Generator: Sketch 51.2 (57519) - http://www.bohemiancoding.com/sketch -->
    <title>16/Bar/Alarminfo_Yes_Light</title>
    <desc>Created with Sketch.</desc>
    <defs></defs>
    <g id="16/Bar/Alarminfo_Yes_Light" stroke="none" stroke-width="1" fill="none" fill-rule="evenodd">
        <path d="M12.5,5.5 L12.5,13.5 L12.2462113,13.5 C12.0826876,13.5 11.9197812,13.5200547 11.76114,13.559715 L10.59715,13.8507125 C10.200547,13.9498633 9.79328091,14 9.38447187,14 L4.84232922,14 C3.46572629,14 2.26577697,13.0631079 1.93190172,11.7276069 L1.0895725,8.35829 C1.03008205,8.12032819 1,7.87596854 1,7.63068312 L1,6.5 C1,5.67157288 1.67157288,5 2.5,5 L6.93360889,5 C7.20975127,5 7.43360889,4.77614237 7.43360889,4.5 C7.43360889,4.47926749 7.43231938,4.45855505 7.42974783,4.43798263 L7.12403473,1.99227788 C7.06356195,1.50849562 7.40672208,1.06728974 7.89050434,1.00681695 C7.92682626,1.00227671 7.96339541,1 8,1 L8.41159665,1 C8.77476378,1 9.10938438,1.19689188 9.28575393,1.51435707 L11.2142461,4.98564293 C11.3906156,5.30310812 11.7252362,5.5 12.0884033,5.5 L12.5,5.5 Z M13,5.5 L14,5.5 C14.5522847,5.5 15,5.94771525 15,6.5 L15,12.5 C15,13.0522847 14.5522847,13.5 14,13.5 L13,13.5 L13,5.5 Z" id="Rectangle-8" fill="#FFFFFF"></path>
    </g>
</svg>