<?xml version="1.0" encoding="UTF-8"?>
<svg width="240px" height="32px" viewBox="0 0 240 32" version="1.1" xmlns="http://www.w3.org/2000/svg" xmlns:xlink="http://www.w3.org/1999/xlink">
    <!-- Generator: Sketch 51.2 (57519) - http://www.bohemiancoding.com/sketch -->
    <title>DataName_3</title>
    <desc>Created with Sketch.</desc>
    <defs></defs>
    <g id="5_人员布控_1_实时警情" stroke="none" stroke-width="1" fill="none" fill-rule="evenodd">
        <g id="1_警情列表_1_重点人员告警" transform="translate(-68.000000, -633.000000)">
            <g id="Data" transform="translate(48.000000, 50.000000)">
                <g id="3" transform="translate(18.000000, 583.000000)">
                    <g id="DataName_3" transform="translate(2.000000, 0.000000)">
                        <path d="M12.5730895,0.5 C11.1198095,0.5 9.75599068,1.20184558 8.91128886,2.38442813 L1.33819938,12.9867534 C0.793054104,13.7499568 0.5,14.6644219 0.5,15.6023253 L0.5,16.3976747 C0.5,17.3355781 0.793054104,18.2500432 1.33819938,19.0132466 L8.91128886,29.6155719 C9.75599068,30.7981544 11.1198095,31.5 12.5730895,31.5 L227.426911,31.5 C228.88019,31.5 230.244009,30.7981544 231.088711,29.6155719 L238.661801,19.0132466 C239.206946,18.2500432 239.5,17.3355781 239.5,16.3976747 L239.5,15.6023253 C239.5,14.6644219 239.206946,13.7499568 238.661801,12.9867534 L231.088711,2.38442813 C230.244009,1.20184558 228.88019,0.5 227.426911,0.5 L12.5730895,0.5 Z" id="BG" stroke="#D8DCE3" fill="#FFFFFF"></path>
                        <text id="近七日告警增量变化趋势" font-family="PingFang-SC-Bold, PingFang SC" font-size="14" font-weight="bold" fill="#333333">
                            <tspan x="53" y="21">近七日告警增量变化趋势</tspan>
                        </text>
                        <g id="16/Bar/ColumnChart_Dark" transform="translate(33.000000, 8.000000)" fill="#8899BB">
                            <path d="M7.5,4 L8.5,4 C9.05228475,4 9.5,4.44771525 9.5,5 L9.5,12 C9.5,12.5522847 9.05228475,13 8.5,13 L7.5,13 C6.94771525,13 6.5,12.5522847 6.5,12 L6.5,5 C6.5,4.44771525 6.94771525,4 7.5,4 Z M12,2 L13,2 C13.5522847,2 14,2.44771525 14,3 L14,12 C14,12.5522847 13.5522847,13 13,13 L12,13 C11.4477153,13 11,12.5522847 11,12 L11,3 C11,2.44771525 11.4477153,2 12,2 Z M3,6 L4,6 C4.55228475,6 5,6.44771525 5,7 L5,12 C5,12.5522847 4.55228475,13 4,13 L3,13 C2.44771525,13 2,12.5522847 2,12 L2,7 C2,6.44771525 2.44771525,6 3,6 Z" id="Rectangle-52"></path>
                        </g>
                    </g>
                </g>
            </g>
        </g>
    </g>
</svg>