<?xml version="1.0" encoding="UTF-8"?>
<svg width="240px" height="32px" viewBox="0 0 240 32" version="1.1" xmlns="http://www.w3.org/2000/svg" xmlns:xlink="http://www.w3.org/1999/xlink">
    <!-- Generator: Sketch 51.2 (57519) - http://www.bohemiancoding.com/sketch -->
    <title>DataName_1</title>
    <desc>Created with Sketch.</desc>
    <defs></defs>
    <g id="5_人员布控_1_实时警情" stroke="none" stroke-width="1" fill="none" fill-rule="evenodd">
        <g id="1_警情列表_1_重点人员告警" transform="translate(-68.000000, -123.000000)">
            <g id="Data" transform="translate(48.000000, 50.000000)">
                <g id="1" transform="translate(20.000000, 73.000000)">
                    <g id="DataName_1">
                        <path d="M12.5730895,0.5 C11.1198095,0.5 9.75599068,1.20184558 8.91128886,2.38442813 L1.33819938,12.9867534 C0.793054104,13.7499568 0.5,14.6644219 0.5,15.6023253 L0.5,16.3976747 C0.5,17.3355781 0.793054104,18.2500432 1.33819938,19.0132466 L8.91128886,29.6155719 C9.75599068,30.7981544 11.1198095,31.5 12.5730895,31.5 L227.426911,31.5 C228.88019,31.5 230.244009,30.7981544 231.088711,29.6155719 L238.661801,19.0132466 C239.206946,18.2500432 239.5,17.3355781 239.5,16.3976747 L239.5,15.6023253 C239.5,14.6644219 239.206946,13.7499568 238.661801,12.9867534 L231.088711,2.38442813 C230.244009,1.20184558 228.88019,0.5 227.426911,0.5 L12.5730895,0.5 Z" id="BG" stroke="#D8DCE3" fill="#FFFFFF"></path>
                        <text id="告警总量统计" font-family="PingFang-SC-Bold, PingFang SC" font-size="14" font-weight="bold" fill="#333333">
                            <tspan x="88" y="21">告警总量统计</tspan>
                        </text>
                        <g id="16/Bar/Alarm_Dark" transform="translate(68.000000, 8.000000)" fill="#8899BB">
                            <path d="M4,8 C4,5.790861 5.790861,4 8,4 C10.209139,4 12,5.790861 12,8 L12,12 L4,12 L4,8 Z M3.5,12.5 L12.5,12.5 C12.7761424,12.5 13,12.7238576 13,13 L13,14 L3,14 L3,13 C3,12.7238576 3.22385763,12.5 3.5,12.5 Z M8,1.5 C8.55228475,1.5 9,1.94771525 9,2.5 C9,3.05228475 8.55228475,3.5 8,3.5 C7.44771525,3.5 7,3.05228475 7,2.5 C7,1.94771525 7.44771525,1.5 8,1.5 Z M14.5,8 C14.5,8.55228475 14.0522847,9 13.5,9 C12.9477153,9 12.5,8.55228475 12.5,8 C12.5,7.44771525 12.9477153,7 13.5,7 C14.0522847,7 14.5,7.44771525 14.5,8 Z M3.5,8 C3.5,8.55228475 3.05228475,9 2.5,9 C1.94771525,9 1.5,8.55228475 1.5,8 C1.5,7.44771525 1.94771525,7 2.5,7 C3.05228475,7 3.5,7.44771525 3.5,8 Z M5,4 C5,4.55228475 4.55228475,5 4,5 C3.44771525,5 3,4.55228475 3,4 C3,3.44771525 3.44771525,3 4,3 C4.55228475,3 5,3.44771525 5,4 Z M13,4 C13,4.55228475 12.5522847,5 12,5 C11.4477153,5 11,4.55228475 11,4 C11,3.44771525 11.4477153,3 12,3 C12.5522847,3 13,3.44771525 13,4 Z" id="Oval-6"></path>
                        </g>
                    </g>
                </g>
            </g>
        </g>
    </g>
</svg>