<?xml version="1.0" encoding="UTF-8"?>
<svg width="16px" height="16px" viewBox="0 0 16 16" version="1.1" xmlns="http://www.w3.org/2000/svg" xmlns:xlink="http://www.w3.org/1999/xlink">
    <!-- Generator: Sketch 51.2 (57519) - http://www.bohemiancoding.com/sketch -->
    <title>16/Bar/New_1_Main</title>
    <desc>Created with Sketch.</desc>
    <defs></defs>
    <g id="16/Bar/New_1_Main" stroke="none" stroke-width="1" fill="none" fill-rule="evenodd">
        <path d="M7.5,12 L8.5,12 L8.5,13 L10.5,13 C10.7761424,13 11,13.2238576 11,13.5 L11,13.5 C11,13.7761424 10.7761424,14 10.5,14 L5.5,14 C5.22385763,14 5,13.7761424 5,13.5 L5,13.5 C5,13.2238576 5.22385763,13 5.5,13 L7.5,13 L7.5,12 Z M7,6 L5.5,6 C5.22385763,6 5,6.22385763 5,6.5 L5,7.5 C5,7.77614237 5.22385763,8 5.5,8 L7,8 L7,9.5 C7,9.77614237 7.22385763,10 7.5,10 L8.5,10 C8.77614237,10 9,9.77614237 9,9.5 L9,8 L10.5,8 C10.7761424,8 11,7.77614237 11,7.5 L11,6.5 C11,6.22385763 10.7761424,6 10.5,6 L9,6 L9,4.5 C9,4.22385763 8.77614237,4 8.5,4 L7.5,4 C7.22385763,4 7,4.22385763 7,4.5 L7,6 Z M2,2 L14,2 C14.5522847,2 15,2.44771525 15,3 L15,11 C15,11.5522847 14.5522847,12 14,12 L2,12 C1.44771525,12 1,11.5522847 1,11 L1,3 C1,2.44771525 1.44771525,2 2,2 Z" id="Rectangle-17" fill="#FFAA00"></path>
    </g>
</svg>