<?xml version="1.0" encoding="UTF-8"?>
<svg width="100px" height="100px" viewBox="0 0 100 100" version="1.1" xmlns="http://www.w3.org/2000/svg" xmlns:xlink="http://www.w3.org/1999/xlink">
    <!-- Generator: Sketch 51.2 (57519) - http://www.bohemiancoding.com/sketch -->
    <title>Img/Notice_No</title>
    <desc>Created with Sketch.</desc>
    <defs></defs>
    <g id="Img/Notice_No" stroke="none" stroke-width="1" fill="none" fill-rule="evenodd">
        <path d="M50,0 C77.6140625,0 100,22.3859375 100,50 C100,77.6140625 77.6140625,100 50,100 C22.3859375,100 0,77.6140625 0,50 C0,22.3859375 22.3859375,0 50,0 Z M50,96.875 C75.846875,96.875 96.875,75.846875 96.875,50 C96.875,24.153125 75.846875,3.125 50,3.125 C24.153125,3.125 3.125,24.153125 3.125,50 C3.125,75.846875 24.153125,96.875 50,96.875 Z M51.7646875,5.51335937 C75.5396875,6.44070312 94.5310937,25.9977344 94.5310937,50.0000781 C94.5310937,74.5938281 74.594375,94.5313281 49.9998437,94.5313281 C25.4060937,94.5313281 5.46859375,74.5938281 5.46859375,50.0000781 C5.46859375,25.9977344 24.4607812,6.44070312 48.235,5.51335937 L47.4459375,7.11414062 C24.938125,8.44070312 7.03109375,27.1649219 7.03109375,50.0000781 C7.03109375,73.6930469 26.306875,92.9688281 49.9998437,92.9688281 C73.6928125,92.9688281 92.9685937,73.6930469 92.9685937,50.0000781 C92.9685937,27.1649219 75.0615625,8.44070312 52.5545312,7.11414062 L51.7646875,5.51335937 Z M40.3701563,12.4653125 L47.0248438,11.4989062 L49.9998438,5.4684375 L52.975625,11.4989062 L59.6295313,12.4653125 L54.8146875,17.1590625 L55.9514063,23.785625 L49.9998438,20.6567187 L44.0482813,23.785625 L45.185,17.1590625 L40.3701563,12.4653125 Z M54.5,60.5 L54.5,68.5 L54.0884033,68.5 C53.7252362,68.5 53.3906156,68.6968919 53.2142461,69.0143571 L51.2857539,72.4856429 C51.1093844,72.8031081 50.7747638,73 50.4115967,73 L50,73 C49.9633954,73 49.9268263,72.9977233 49.8905043,72.993183 C49.4067221,72.9327103 49.063562,72.4915044 49.1240347,72.0077221 L49.4297478,69.5620174 C49.4323194,69.541445 49.4336089,69.5207325 49.4336089,69.5 C49.4336089,69.2238576 49.2097513,69 48.9336089,69 L44.5,69 C43.6715729,69 43,68.3284271 43,67.5 L43,66.3693169 C43,66.1240315 43.030082,65.8796718 43.0895725,65.64171 L43.9319017,62.2723931 C44.265777,60.9368921 45.4657263,60 46.8423292,60 L51.3844719,60 C51.7932809,60 52.200547,60.0501367 52.59715,60.1492875 L53.76114,60.440285 C53.9197812,60.4799453 54.0826876,60.5 54.2462113,60.5 L54.5,60.5 Z M55,60.5 L56,60.5 C56.5522847,60.5 57,60.9477153 57,61.5 L57,67.5 C57,68.0522847 56.5522847,68.5 56,68.5 L55,68.5 L55,60.5 Z M67.5742969,14.5290625 L69.5461719,18.5251562 L73.9563281,19.1657812 L70.7649219,22.2759375 L71.5180469,26.668125 L67.5742969,24.5946875 L63.6297656,26.668125 L64.3828906,22.2759375 L61.1922656,19.1657812 L65.6024219,18.5251562 L67.5742969,14.5290625 Z M34.5680469,19.595 L38.3977344,20.15125 L35.6258594,22.8528125 L36.2805469,26.6684375 L32.8555469,24.866875 L29.4289844,26.6684375 L30.0836719,22.8528125 L27.3117969,20.15125 L31.1414844,19.595 L32.8555469,16.1239063 L34.5680469,19.595 Z M21.2288281,74.2042969 C20.6655469,74.5550781 20.7053906,75.1074219 21.3467969,75.8605469 L20.9163281,76.2011719 L17.7491406,72.1925781 L18.1803906,71.8519531 C18.7647656,72.6511719 19.2921094,72.8167969 19.7639844,72.3503906 L25.0225781,68.1964844 C25.5850781,67.8449219 25.5452344,67.2933594 24.9038281,66.5394531 L25.3350781,66.1988281 L28.5022656,70.2074219 L28.0710156,70.5480469 C27.4866406,69.7496094 26.9585156,69.5824219 26.4866406,70.0496094 L21.2288281,74.2042969 Z M30.1002344,83.8390625 L29.0353906,83.0617187 L29.0916406,73.8539062 L29.0471094,73.8210937 L25.5174219,78.6578125 C25.0392969,79.125 25.2994531,79.7007812 26.2978906,80.3835937 L25.9744531,80.8273437 L22.9127344,78.5921875 L23.2361719,78.1484375 C24.0135156,78.7617187 24.5666406,78.7796875 24.8963281,78.2039062 L28.8471094,72.790625 C29.2947656,72.3015625 29.0932031,71.7695312 28.2439844,71.1945312 L28.5674219,70.7515625 L31.3189844,72.7585937 L31.2486719,80.86875 L31.2924219,80.9007812 L34.2072656,76.9070312 C34.6330469,76.4484375 34.4494531,75.8609375 33.6572656,75.1460937 L33.9814844,74.7023437 L36.6541406,76.6523437 L36.6728906,76.5929687 L41.1158594,78.03125 L40.9463281,78.5539062 C40.0861719,78.2375 39.6283594,78.28125 39.5752344,78.6875 C39.5158594,78.5148437 39.4869531,80.5640625 39.4892969,84.8375 L39.5408594,84.8546875 C39.6783594,84.6679687 39.8783594,84.40625 40.1424219,84.0671875 C42.5244531,81.1054687 43.5322656,79.7765625 43.1658594,80.0804687 C43.3236719,79.5929687 43.0369531,79.23125 42.3049219,78.99375 L42.4744531,78.4710937 L45.5057031,79.453125 L45.3361719,79.9757812 C44.6510156,79.83125 44.1541406,79.996875 43.8463281,80.4742187 L38.4502344,87.3304687 L37.3525781,86.975 L37.3486719,78.428125 C37.3986719,77.7007812 37.1299219,77.2742187 36.5572656,77.1351562 L36.4971094,77.2179687 C35.6924219,76.7671875 35.1353906,76.8148437 34.8291406,77.3609375 L30.1002344,83.8390625 Z M47.9842969,85.1394531 L49.1444531,82.1535156 L50.4561719,85.0996094 L47.9842969,85.1394531 Z M50.8405469,88.4996094 C51.4264844,88.5261719 51.6991406,88.3574219 51.6569531,87.9917969 C51.6553906,87.9285156 51.6374219,87.8011719 51.6077344,87.6300781 C51.5967969,87.6089844 51.5749219,87.5480469 51.5382031,87.4441406 L50.7983594,85.8628906 L47.7225781,85.9128906 L47.3007031,87.0183594 C47.1936719,87.2035156 47.1249219,87.4980469 47.0952344,87.9003906 C47.1389844,88.3394531 47.4163281,88.5550781 47.9303906,88.5464844 L48.6444531,88.5347656 L48.6522656,89.0839844 L44.8085156,89.1464844 L44.7991406,88.5972656 C45.5663281,88.4753906 46.1421094,87.8613281 46.5280469,86.7558594 L49.5366406,79.2355469 L50.2507031,79.2238281 L54.0116406,87.5144531 C54.2413281,88.1332031 54.6858594,88.4371094 55.3452344,88.4261719 L55.3538281,88.9753906 L50.3007031,89.0574219 L50.2913281,88.5082031 L50.8405469,88.4996094 Z M57.8277344,87.9455469 C58.7808594,87.6783594 59.1207031,87.2424219 58.8503906,86.6369531 L56.8027344,80.2557031 C56.6714844,79.6057031 56.1402344,79.4494531 55.2097656,79.7861719 L55.0425781,79.2627344 L59.9066406,77.7025781 L60.0746094,78.2252344 C59.1214844,78.4932031 58.7800781,78.9283594 59.0519531,79.5338281 L61.0824219,85.8627344 C61.2488281,86.5017969 61.6347656,86.6861719 62.2394531,86.4150781 C63.5316406,85.8846094 64.1425781,84.6127344 64.0722656,82.5963281 L64.6472656,82.4119531 L65.6847656,86.0017969 L57.9957031,88.4682031 L57.8277344,87.9455469 Z M68.1724219,84.0599219 C69.0317969,83.5685156 69.2544531,83.0614844 68.8435156,82.5411719 L65.2997656,76.8528906 C65.0130469,76.2552344 64.4599219,76.2333594 63.6403906,76.7872656 L63.3497656,76.3208594 L67.6857031,73.6192969 L67.9755469,74.0849219 C67.1169531,74.5771094 66.8927344,75.0833594 67.3044531,75.6036719 L70.8489844,81.2919531 C71.1349219,81.8903906 71.6888281,81.9122656 72.5083594,81.3583594 L72.7989844,81.8239844 L68.4630469,84.5263281 L68.1724219,84.0599219 Z M71.9284375,72.0176563 C71.3909375,71.5754688 71.4323437,71.041875 72.0526562,70.4184375 C73.1690625,69.2551563 74.739375,69.60125 76.7635937,71.4567188 C78.7885938,73.3121875 79.270625,74.8473438 78.2089062,76.0590625 C77.6417187,76.7325 77.114375,76.82 76.6260937,76.323125 L71.9284375,72.0176563 Z M75.3917188,80.1090625 L74.98625,79.7379688 C75.6823438,79.0340625 75.76125,78.4864063 75.2260938,78.0942188 L70.2846875,73.566875 C69.84875,73.0676562 69.3096875,73.195 68.6690625,73.948125 L68.264375,73.5770313 L71.1964062,70.3778125 C73.6760937,67.8340625 76.114375,67.5590625 78.508125,69.5535938 C80.6010938,71.7692188 80.6378125,74.11375 78.6198438,76.585625 L75.3917188,80.1090625 Z M45.7275781,37.6586719 C44.2463281,37.6024219 43.1924219,37.5735156 42.5658594,37.5735156 L40.4299219,37.5735156 C40.4861719,37.9149219 40.3728906,38.1711719 40.0877344,38.3422656 C39.8025781,38.4571094 39.6314844,38.7696094 39.5752344,39.2821094 C39.4611719,40.6492969 39.3189844,41.8750781 39.1478906,42.9563281 L44.1892969,42.9563281 C44.9869531,41.7602344 45.5564844,41.1063281 45.8986719,40.9914844 C46.7525781,41.2196094 47.7213281,41.9032031 48.8041406,43.0422656 C49.0314844,43.4407031 48.9744531,43.6696094 48.6330469,43.7258594 C48.3478906,43.6696094 46.7236719,43.6399219 43.7619531,43.6399219 L42.5658594,43.6399219 C42.7369531,43.8680469 42.6799219,44.0969531 42.3947656,44.3235156 C42.2244531,44.4383594 42.1385156,44.6657031 42.1385156,45.0071094 L42.1385156,50.4758594 C42.0814844,51.2742969 42.4236719,51.6438281 43.1642969,51.5867969 L45.1291406,51.5867969 C46.3260156,51.8149219 47.0658594,50.7039844 47.3510156,48.2547656 C47.3510156,47.8563281 47.4932031,47.6563281 47.7783594,47.6563281 C47.9494531,47.6563281 48.0627344,47.8563281 48.1205469,48.2547656 C48.2338281,49.9633594 48.4900781,50.9883594 48.8892969,51.3305469 C49.9713281,52.5836719 49.8291406,53.5227344 48.4619531,54.1500781 C47.6072656,54.4352344 46.6103906,54.5774219 45.4713281,54.5774219 L41.2846094,54.5774219 C39.5752344,54.6336719 38.7486719,53.8086719 38.8064844,52.0992969 L38.8064844,44.6657031 C37.6666406,49.9071094 34.5338281,53.2961719 29.4064844,54.8336719 C29.0650781,54.9477344 28.8369531,54.9196094 28.7228906,54.7485156 C28.6088281,54.6336719 28.7228906,54.4625781 29.0650781,54.2360156 C32.4830469,51.6719531 34.5619531,48.1407031 35.3025781,43.6399219 L31.7142969,43.6399219 C30.9158594,43.6399219 30.2041406,43.6969531 29.5775781,43.8110156 C29.4635156,43.9258594 29.3213281,43.8961719 29.1502344,43.7258594 C28.9799219,43.5547656 28.8088281,43.3274219 28.6377344,43.0422656 C28.5236719,42.8711719 28.5525781,42.8149219 28.7228906,42.8711719 C29.0650781,42.9282031 30.2041406,42.9563281 32.1408594,42.9563281 L35.4736719,42.9563281 C35.5299219,42.7852344 35.5588281,42.5586719 35.5588281,42.2727344 C35.6158594,41.9883594 35.6447656,41.7899219 35.6447656,41.6750781 C35.7010156,41.1617969 35.7861719,40.2219531 35.9010156,38.8547656 C35.9572656,38.2282031 35.9861719,37.8016406 35.9861719,37.5735156 L33.0814844,37.5735156 C32.1119531,37.5735156 31.4002344,37.6305469 30.9447656,37.7438281 C30.7166406,37.8586719 30.5744531,37.8297656 30.5174219,37.6586719 C30.3471094,37.4875781 30.1760156,37.2610156 30.0049219,36.9750781 C29.8338281,36.8039844 29.8908594,36.7477344 30.1760156,36.8039844 C30.8025781,36.9188281 31.8846094,36.9750781 33.4228906,36.9750781 L43.0783594,36.9750781 C43.9892969,35.5516406 44.5877344,34.8391406 44.8728906,34.8391406 C45.5564844,35.0094531 46.4392969,35.7227344 47.5221094,36.9750781 C47.7494531,37.4313281 47.6932031,37.6586719 47.3510156,37.6586719 L45.7275781,37.6586719 Z M65.2953906,40.9057812 L66.2352344,40.9057812 C66.1211719,43.1846875 65.7227344,45.2354687 65.0391406,47.058125 C64.6399219,46.0901562 64.2125781,45.0073437 63.7571094,43.81125 C64.3836719,42.9003125 64.8961719,41.9307812 65.2953906,40.9057812 M59.3992969,38.9401562 C60.2539844,37.7440625 60.7375781,37.1464062 60.8524219,37.1464062 C61.3649219,37.2034375 62.1047656,37.7440625 63.0735156,38.7698437 C63.2446094,37.5175 63.3008594,36.2057812 63.2446094,34.8385937 C63.1875781,34.383125 63.3586719,34.1846875 63.7571094,34.2409375 C63.8141406,34.2409375 63.9282031,34.2698437 64.0992969,34.3260937 C65.5797656,34.4971875 66.6625781,34.6682812 67.3461719,34.8385937 C67.8586719,35.2378125 67.8297656,35.58 67.2610156,35.864375 C66.9188281,35.9792187 66.6907031,36.2635937 66.5774219,36.7190625 C66.2352344,37.9721875 65.8938281,39.1409375 65.5516406,40.2221875 L67.4313281,40.2221875 C68.3422656,38.9698437 68.9696094,38.3425 69.3117969,38.3425 C70.0516406,38.6276562 70.8492969,39.2823437 71.7039844,40.3073437 C71.8750781,40.6495312 71.7899219,40.8495312 71.4477344,40.9057812 L67.0899219,40.9057812 C68.5133594,41.020625 69.5110156,41.1620312 70.0805469,41.333125 C70.3649219,41.3901562 70.5078906,41.56125 70.5078906,41.845625 C70.5078906,42.07375 70.3930469,42.2448437 70.1657031,42.358125 C69.8242969,42.4159375 69.6242969,42.7003125 69.5680469,43.2128125 C68.9977344,45.9471875 68.1149219,48.1979687 66.9188281,49.9635937 C67.9446094,51.1034375 69.3680469,52.014375 71.1914844,52.6979687 C71.5899219,52.7542187 71.7899219,52.8690625 71.7899219,53.039375 C71.7899219,53.3245312 71.5899219,53.4948437 71.1914844,53.551875 C70.1657031,53.8370312 69.4250781,54.3495312 68.9696094,55.0901562 C68.6844531,55.7167187 68.3141406,55.801875 67.8586719,55.3464062 C66.6625781,54.3776562 65.7227344,53.3245312 65.0391406,52.1854687 C63.3297656,53.608125 61.0797656,54.776875 58.2883594,55.6885937 C58.0032031,55.7448437 57.8321094,55.7448437 57.7758594,55.6885937 C57.7188281,55.57375 57.8039844,55.4026562 58.0321094,55.1760937 C60.7664844,53.1807812 62.7321094,51.2448437 63.9282031,49.3651562 C63.7000781,48.5682812 63.4438281,47.314375 63.1594531,45.6057812 C63.1016406,45.2635937 63.0735156,45.0073437 63.0735156,44.83625 C62.5610156,45.5198437 61.9914844,46.2034375 61.3649219,46.8870312 C61.1938281,47.001875 61.0508594,47.03 60.9375781,46.9729687 C60.8805469,46.9167187 60.9086719,46.801875 61.0227344,46.6307812 C61.0797656,46.4596875 61.1649219,46.2034375 61.2789844,45.8620312 C61.4500781,45.4635937 61.6774219,44.83625 61.9625781,43.9823437 C61.7922656,44.1526562 61.5641406,44.32375 61.2789844,44.4948437 C60.3672656,44.8932812 59.6555469,44.4948437 59.1430469,43.29875 C58.5157031,42.2167187 57.6617969,41.305 56.5797656,40.564375 C56.4086719,40.4503125 56.3235156,40.3370312 56.3235156,40.2221875 C56.3797656,40.1659375 56.5227344,40.1370312 56.7500781,40.1370312 C59.4852344,40.3073437 61.1649219,40.8495312 61.7922656,41.7604687 C62.0196094,41.9885937 62.1899219,42.33 62.3047656,42.7854687 L62.3047656,42.8714062 C62.5891406,41.789375 62.8172656,40.7346875 62.9883594,39.7096875 L61.5360156,39.7096875 C60.5102344,39.6534375 59.5703906,39.62375 58.7157031,39.62375 L52.8196094,39.62375 C52.3633594,39.62375 51.9078906,39.6815625 51.4524219,39.7948437 C51.2242969,39.7948437 51.0821094,39.7385937 51.0250781,39.62375 C50.7969531,39.5104687 50.6266406,39.339375 50.5125781,39.11125 C50.4555469,38.9979687 50.4555469,38.9120312 50.5125781,38.855 C50.5125781,38.79875 50.5688281,38.79875 50.6836719,38.855 C51.1391406,38.9120312 51.9938281,38.9401562 53.2469531,38.9401562 L59.3992969,38.9401562 Z M50.8545313,46.2890625 C50.6264063,46.4601562 50.4553125,46.5171875 50.3420313,46.4601562 C50.285,46.3460937 50.3420313,46.175 50.513125,45.9476562 C51.9365625,44.2382812 53.019375,42.3304687 53.76,40.221875 C53.8732813,39.9375 54.1014063,39.8523437 54.4435938,39.965625 C55.2404688,40.2515625 56.0951563,40.70625 57.006875,41.3328125 C57.29125,41.5039062 57.4053125,41.7039062 57.3490625,41.93125 C57.3490625,42.159375 57.2060938,42.2726562 56.9217188,42.2726562 L56.8357813,42.2726562 C56.3232813,42.3875 55.9810938,42.5585937 55.8107813,42.7859375 C54.4435938,44.153125 52.79125,45.3210937 50.8545313,46.2890625 Z M57.5195313,38.5986719 C56.3796875,38.8267969 55.725,38.5705469 55.5539063,37.8299219 C55.3835938,36.6908594 54.984375,35.7791406 54.3578125,35.0955469 C54.1867188,34.9244531 54.1296875,34.8103906 54.1867188,34.7533594 C54.1867188,34.6400781 54.3007813,34.5822656 54.5289063,34.5822656 C56.5796875,34.6400781 57.8898438,35.0955469 58.459375,35.9494531 C59.0289063,37.1463281 58.715625,38.0299219 57.5195313,38.5986719 Z M50.1709375,54.9194531 C50.1139062,54.8046094 50.1709375,54.6632031 50.3420312,54.4921094 C52.6201562,52.9538281 54.32875,51.0460156 55.4685937,48.7671094 C54.6709375,47.7413281 53.788125,46.8014844 52.8201562,45.9475781 C52.6490625,45.8335156 52.5920312,45.7202344 52.6490625,45.6053906 C52.7053125,45.4921094 52.8482812,45.4639844 53.0764062,45.5202344 C54.2154687,45.8616406 55.2975,46.2889844 56.3232812,46.8014844 C56.6654687,45.9475781 56.8928125,45.0928906 57.006875,44.2382031 C57.006875,43.7257031 57.319375,43.5842969 57.9467187,43.8108594 C58.8014062,44.0389844 59.74125,44.4092969 60.7670312,44.9217969 C61.0514062,45.0366406 61.1935937,45.2077344 61.1935937,45.4342969 C61.1935937,45.7202344 61.0514062,45.8616406 60.7670312,45.8616406 C60.4248437,45.9186719 60.1396875,46.1757031 59.9123437,46.6311719 C59.6842187,47.2007031 59.3998437,47.7991406 59.0576562,48.4249219 C59.7975,48.9382031 60.3396875,49.4803906 60.6810937,50.0491406 C61.3646875,51.3600781 61.250625,52.3850781 60.3396875,53.1249219 C59.1998437,53.8647656 58.2889062,53.6374219 57.6053125,52.4413281 C57.5475,52.2702344 57.4623437,52.0710156 57.3490625,51.8428906 C57.2342187,51.5585156 57.1490625,51.3600781 57.0920312,51.2452344 C55.5545312,52.7835156 53.3889062,54.0077344 50.5982812,54.9194531 C50.3701562,54.9757031 50.2271875,54.9757031 50.1709375,54.9194531 Z M81.0066406,66.5817187 C80.6214844,66.3864062 80.4683594,65.9160937 80.6636719,65.5317187 C83.1261719,60.679375 84.3753906,55.4535937 84.3753906,49.9996875 C84.3753906,40.4489062 80.5425781,31.5715625 73.5832031,25.0035937 C73.2699219,24.7075 73.2550781,24.21375 73.5511719,23.8996875 C73.8480469,23.5864062 74.3417969,23.5715625 74.6558594,23.8676562 C81.9308594,30.7340625 85.9378906,40.0145312 85.9378906,49.9996875 C85.9378906,55.7020312 84.6324219,61.1653125 82.0566406,66.23875 C81.9191406,66.5098437 81.6441406,66.6660937 81.3589844,66.6660937 C81.2402344,66.6660937 81.1199219,66.6395312 81.0066406,66.5817187 Z M26.4167969,25.0038281 C19.4574219,31.5717969 15.6253906,40.4491406 15.6253906,49.9999219 C15.6253906,55.4538281 16.8738281,60.6796094 19.3363281,65.5311719 C19.5316406,65.9163281 19.3785156,66.3866406 18.9933594,66.5819531 C18.8808594,66.6389844 18.7597656,66.6663281 18.6410156,66.6663281 C18.3558594,66.6663281 18.0808594,66.5100781 17.9433594,66.2389844 C15.3675781,61.1655469 14.0628906,55.7014844 14.0628906,49.9999219 C14.0628906,40.0139844 18.0691406,30.7335156 25.3441406,23.8678906 C25.6582031,23.5717969 26.1511719,23.5866406 26.4488281,23.8991406 C26.7449219,24.2132031 26.7300781,24.7077344 26.4167969,25.0038281 Z" id="Fill-1" fill="#4986C7"></path>
    </g>
</svg>