<?xml version="1.0" encoding="UTF-8"?>
<svg width="100px" height="100px" viewBox="0 0 100 100" version="1.1" xmlns="http://www.w3.org/2000/svg" xmlns:xlink="http://www.w3.org/1999/xlink">
    <!-- Generator: Sketch 51.2 (57519) - http://www.bohemiancoding.com/sketch -->
    <title>Img/Notice_Yes</title>
    <desc>Created with Sketch.</desc>
    <defs></defs>
    <g id="Img/Notice_Yes" stroke="none" stroke-width="1" fill="none" fill-rule="evenodd">
        <path d="M50,0 C77.6140625,0 100,22.3859375 100,50 C100,77.6140625 77.6140625,100 50,100 C22.3859375,100 0,77.6140625 0,50 C0,22.3859375 22.3859375,0 50,0 Z M50,96.875 C75.846875,96.875 96.875,75.846875 96.875,50 C96.875,24.153125 75.846875,3.125 50,3.125 C24.153125,3.125 3.125,24.153125 3.125,50 C3.125,75.846875 24.153125,96.875 50,96.875 Z M51.7646875,5.51335937 C75.5396875,6.44070312 94.5310937,25.9977344 94.5310937,50.0000781 C94.5310937,74.5938281 74.594375,94.5313281 49.9998438,94.5313281 C25.4060938,94.5313281 5.46859375,74.5938281 5.46859375,50.0000781 C5.46859375,25.9977344 24.4607813,6.44070312 48.235,5.51335937 L47.4459375,7.11414062 C24.938125,8.44070312 7.03109375,27.1649219 7.03109375,50.0000781 C7.03109375,73.6930469 26.306875,92.9688281 49.9998438,92.9688281 C73.6928125,92.9688281 92.9685937,73.6930469 92.9685937,50.0000781 C92.9685937,27.1649219 75.0615625,8.44070312 52.5545313,7.11414062 L51.7646875,5.51335937 Z M40.3701562,12.4653125 L47.0248437,11.4989062 L49.9998437,5.4684375 L52.975625,11.4989062 L59.6295312,12.4653125 L54.8146875,17.1590625 L55.9514062,23.785625 L49.9998437,20.6567187 L44.0482812,23.785625 L45.185,17.1590625 L40.3701562,12.4653125 Z M54.5,64.5 L54.5,72.5 L54.2462113,72.5 C54.0826876,72.5 53.9197812,72.5200547 53.76114,72.559715 L52.59715,72.8507125 C52.200547,72.9498633 51.7932809,73 51.3844719,73 L46.8423292,73 C45.4657263,73 44.265777,72.0631079 43.9319017,70.7276069 L43.0895725,67.35829 C43.030082,67.1203282 43,66.8759685 43,66.6306831 L43,65.5 C43,64.6715729 43.6715729,64 44.5,64 L48.9336089,64 C49.2097513,64 49.4336089,63.7761424 49.4336089,63.5 C49.4336089,63.4792675 49.4323194,63.458555 49.4297478,63.4379826 L49.1240347,60.9922779 C49.063562,60.5084956 49.4067221,60.0672897 49.8905043,60.006817 C49.9268263,60.0022767 49.9633954,60 50,60 L50.4115967,60 C50.7747638,60 51.1093844,60.1968919 51.2857539,60.5143571 L53.2142461,63.9856429 C53.3906156,64.3031081 53.7252362,64.5 54.0884033,64.5 L54.5,64.5 Z M55,64.5 L56,64.5 C56.5522847,64.5 57,64.9477153 57,65.5 L57,71.5 C57,72.0522847 56.5522847,72.5 56,72.5 L55,72.5 L55,64.5 Z M67.5742969,14.5290625 L69.5461719,18.5251562 L73.9563281,19.1657812 L70.7649219,22.2759375 L71.5180469,26.668125 L67.5742969,24.5946875 L63.6297656,26.668125 L64.3828906,22.2759375 L61.1922656,19.1657812 L65.6024219,18.5251562 L67.5742969,14.5290625 Z M32.8552344,16.1239844 L34.5677344,19.5950781 L38.3982031,20.1513281 L35.6263281,22.8528906 L36.2810156,26.6685156 L32.8552344,24.8669531 L29.4286719,26.6685156 L30.0833594,22.8528906 L27.3114844,20.1513281 L31.1419531,19.5950781 L32.8552344,16.1239844 Z M12.3458594,59.4455469 C12.6685156,60.3807031 13.1247656,60.6955469 13.7130469,60.3892969 L19.9622656,57.9689844 C20.6028906,57.7994531 20.7278906,57.2603906 20.3372656,56.3510156 L20.8497656,56.1525781 L23.9833594,64.2463281 L20.7958594,65.5986719 L20.5778906,65.0353906 C22.1341406,63.8822656 22.6083594,62.5205469 21.9997656,60.9502344 C21.7638281,60.1377344 21.3521094,59.8846094 20.7638281,60.1916406 L18.2028906,61.1838281 C18.5372656,62.3502344 19.3138281,62.8346094 20.5325781,62.6369531 L20.7310156,63.1494531 L17.0942969,64.5580469 L16.8958594,64.0455469 C17.9302344,63.3697656 18.1786719,62.4892969 17.6388281,61.4017969 L14.6169531,62.5721094 C14.0224219,62.7627344 13.8888281,63.2267969 14.2146094,63.9650781 C14.9083594,65.6596094 16.2708594,66.3877344 18.3005469,66.1525781 L18.5185156,66.7158594 L15.0474219,67.9424219 L11.8341406,59.6439844 L12.3458594,59.4455469 Z M23.4207031,74.2596094 L23.0730469,73.8346094 C23.8464844,72.8705469 23.8074219,71.9557031 22.9574219,71.0900781 L20.4066406,73.1767969 C19.8496094,73.5369531 19.9332031,74.1314844 20.6574219,74.9588281 L20.2316406,75.3064844 L16.8941406,71.2236719 L17.3183594,70.8760156 C17.9160156,71.6650781 18.4472656,71.8221094 18.9113281,71.3478906 L24.0988281,67.1057031 C24.6550781,66.7447656 24.6066406,66.1939844 23.9527344,65.4517969 L24.3777344,65.1033594 L29.8722656,71.8221094 L27.2628906,74.0978906 L26.8800781,73.6299219 C28.0003906,72.0502344 28.0277344,70.6088281 26.9621094,69.3057031 C26.4855469,68.6064844 26.0152344,68.4947656 25.5519531,68.9689844 L23.4253906,70.7080469 C24.1058594,71.7127344 24.9941406,71.9314844 26.0925781,71.3650781 L26.4394531,71.7900781 L23.4207031,74.2596094 Z M35.4980469,79.8007812 L34.9933594,79.4679687 C35.5941406,77.6265625 35.1917969,76.2421875 33.7871094,75.3140625 C33.1238281,74.7882812 32.6417969,74.8210937 32.3402344,75.4117187 L30.8269531,77.703125 C31.7746094,78.4609375 32.6878906,78.40625 33.5683594,77.5390625 L34.0261719,77.8421875 L31.8769531,81.096875 L31.4191406,80.79375 C31.8707031,79.64375 31.5628906,78.7820312 30.4941406,78.2078125 L28.6777344,80.9578125 C28.2527344,81.4671875 28.5097656,82.0101562 29.4464844,82.584375 L29.1433594,83.0429687 L24.7425781,80.1375 L25.0457031,79.6789062 C25.8503906,80.2546875 26.4035156,80.246875 26.7066406,79.65625 L30.3996094,74.0640625 C30.8238281,73.5539062 30.6128906,73.0429687 29.7683594,72.528125 L30.0707031,72.0695312 L37.3128906,76.8523437 L35.4980469,79.8007812 Z M42.17375,79.0264063 C41.3792188,78.7342188 40.9315625,78.9154688 40.8292188,79.5709375 L40.1065625,82.2209375 C41.2448438,82.644375 42.0948438,82.3076563 42.6604688,81.2084375 L43.1909375,81.35375 L42.164375,85.11625 L41.6346875,84.9717188 C41.7042188,83.738125 41.1432813,83.0154688 39.9479688,82.80375 L39.095625,85.9303125 C38.8964063,86.5217188 39.1901563,86.9053125 39.976875,87.081875 C41.7526563,87.52875 43.1479688,86.8646875 44.1635938,85.0920313 L44.7464063,85.250625 L43.6721875,88.7732813 L35.0870313,86.431875 L35.2315625,85.9014063 C36.1753125,86.1975 36.69875,86.0170313 36.801875,85.3623438 L38.5651563,78.8959375 C38.8089063,78.2795313 38.4495313,77.8592188 37.48625,77.6342188 L37.6307813,77.1045313 L46.0034375,79.3873438 L45.1995313,82.7553125 L44.6167188,82.5967188 C44.6128125,80.6592188 43.79875,79.469375 42.17375,79.0264063 Z M53.0326562,89.0045312 C49.8459375,89.0967187 48.0428125,87.57875 47.6248437,84.4482812 C47.7615625,81.394375 49.300625,79.6279687 52.2420312,79.1475 C53.0459375,79.0959375 53.9771875,79.3123437 55.035,79.7959375 L55.5459375,79.1576562 L56.0935937,79.1232812 L56.3123437,82.5771875 L55.7646875,82.6115625 C54.9014062,80.5748437 53.7779687,79.6373437 52.394375,79.7982812 C50.7490625,79.9021875 50.0185937,81.3990625 50.2014062,84.285 C50.381875,87.1357812 51.4232812,88.5201562 53.3264062,88.4357812 C55.188125,88.281875 56.1232812,87.1209375 56.1334375,84.9553125 L56.79125,84.9139062 C56.8771875,87.4404687 55.6240625,88.80375 53.0326562,89.0045312 Z M62.0178125,86.7061719 C63.1154688,86.2967969 63.4896875,85.8069531 63.138125,85.2389844 L60.2857813,78.2741406 C58.9982813,78.8014844 58.4982813,79.9960156 58.785,81.8561719 L58.1748438,82.1061719 L56.935,78.9335156 L65.3232813,75.4991406 L66.6646875,78.6303906 L66.0545313,78.8796094 C64.9545313,77.3522656 63.7592188,76.8522656 62.4717188,77.3796094 L65.3232813,84.3436719 C65.5053125,84.9811719 66.0982813,85.0757031 67.1014063,84.6249219 L67.3084375,85.1335156 L62.225625,87.2147656 L62.0178125,86.7061719 Z M71.1189063,82.3124219 C71.930625,81.7467969 72.10875,81.2225781 71.6532813,80.7397656 L67.6196875,75.3882031 C67.2814063,74.8178906 66.7290625,74.8452344 65.9603125,75.4686719 L65.630625,75.0303906 L69.7095313,71.9553906 L70.0407813,72.3944531 C69.2290625,72.9600781 69.0501563,73.4842969 69.5064063,73.9663281 L73.54,79.3178906 C73.8775,79.8889844 74.430625,79.8624219 75.1985938,79.2374219 L75.5290625,79.6757031 L71.449375,82.7514844 L71.1189063,82.3124219 Z M84.6565625,68.6626563 L84.1448437,68.4626563 C84.539375,67.555625 84.4151562,67.0157813 83.7753125,66.8439063 L77.533125,64.4048438 C77.0104687,64.130625 76.5925,64.3509375 76.2760937,65.061875 L76.31125,65.09 C75.9307812,65.6775 75.9073437,66.2001563 76.2425,66.6595313 L80.7026562,74.1579688 L79.976875,75.0548438 L71.9995312,71.9876563 C71.314375,71.6704688 70.8057812,71.7751563 70.470625,72.3048438 L70.0432812,71.9595313 L72.9815625,68.330625 L73.4089062,68.6759375 C72.8042187,69.365 72.6807812,69.8079688 73.0401562,70.0040625 C72.8573437,69.9970313 74.7604687,70.7603125 78.74875,72.293125 L78.783125,72.2509375 C78.658125,72.055625 78.4870312,71.774375 78.2651562,71.4071875 C76.3573437,68.1196875 75.4784375,66.7017188 75.63,67.1532813 C75.2323437,66.8314063 74.7909375,66.9689063 74.3073437,67.5657813 L73.88,67.2204688 L75.7354687,64.9282813 L78.81125,57.0595313 L82.07375,58.2173438 L81.8542187,58.7798438 C79.9276562,58.5782813 78.658125,59.261875 78.0448437,60.830625 C77.670625,61.5884375 77.8034375,62.0532813 78.4440625,62.224375 L81.001875,63.224375 C81.5448437,62.1384375 81.29875,61.2571875 80.2675,60.5775 L80.4675,60.0665625 L84.0995312,61.4853125 L83.8995312,61.9978125 C82.6807812,61.79625 81.9026562,62.2790625 81.5651563,63.4439063 L84.583125,64.6235938 C85.1503125,64.8853125 85.5628125,64.63375 85.8221875,63.8696875 C86.455,62.1509375 85.9425,60.693125 84.2878125,59.4954688 L84.508125,58.9321875 L87.895625,60.374375 L84.6565625,68.6626563 Z M37.5242188,48.6821875 L42.6507813,48.6821875 L42.6507813,46.0329687 L37.5242188,46.0329687 L37.5242188,48.6821875 Z M37.5242188,43.38375 C37.5242188,43.099375 37.5523438,42.9282812 37.6101563,42.87125 L42.6515625,42.87125 L42.6515625,45.4345312 L37.5242188,45.4345312 L37.5242188,43.38375 Z M39.9171875,37.0603125 C39.8601563,37.1751562 39.7742188,37.374375 39.6609375,37.65875 C39.4898438,37.9446875 39.375,38.17125 39.31875,38.3423437 L44.8734375,38.3423437 C45.784375,36.9189062 46.3539062,36.2064062 46.5820312,36.2064062 C47.6078125,36.6048437 48.6039063,37.34625 49.5726563,38.4275 C49.74375,38.5985937 49.8,38.7415625 49.74375,38.8548437 C49.74375,39.0259375 49.6289062,39.1110937 49.4015625,39.1110937 C48.1484375,39.055625 46.2109375,39.0259375 43.5914063,39.0259375 L38.9773437,39.0259375 C38.4640625,40.2220312 37.8664062,41.2767187 37.1828125,42.1876562 L42.309375,42.1876562 C42.8226563,41.39 43.1921875,40.9626562 43.4203125,40.905625 C44.84375,41.418125 45.9835937,42.1017187 46.8382813,42.9564062 C46.8382813,43.1845312 46.6960938,43.4134375 46.4109375,43.64 C46.1828125,43.7548437 46.0695312,43.9821875 46.0695312,44.3235937 L46.0695312,53.0392187 C46.1257813,54.0079687 45.6132812,54.6634375 44.53125,55.0048437 C43.9617188,55.2892187 43.278125,55.4884375 42.4804688,55.6032812 C41.7398437,55.7735937 41.3976563,55.6314062 41.4554688,55.1759375 C41.340625,54.32125 40.771875,53.6657812 39.7460938,53.2103125 C39.4609375,53.0954687 39.31875,52.9540625 39.31875,52.7829687 C39.31875,52.7259375 39.5179688,52.6978125 39.9171875,52.6978125 L40.2585937,52.6978125 C40.828125,52.8110937 41.340625,52.8689062 41.796875,52.8689062 C42.3664062,52.924375 42.6515625,52.58375 42.6515625,51.843125 L42.6515625,49.2798437 L37.5242188,49.2798437 L37.5242188,54.2360937 C37.58125,54.8048437 37.3539063,55.14625 36.840625,55.2610937 C36.1570312,55.4321875 35.4164062,55.5173437 34.6195313,55.5173437 C34.10625,55.5735937 33.90625,55.3173437 34.0210937,54.7485937 C34.2484375,53.7790625 34.3625,52.2142187 34.3625,50.0485937 L34.3625,45.605625 C32.88125,46.85875 31.2015625,47.9126562 29.3210937,48.7673437 C29.0929688,48.8821875 28.9226562,48.8525 28.8085937,48.6814062 C28.7515625,48.5110937 28.8085937,48.34 28.9796875,48.1689062 C31.8851563,45.605625 33.9640625,42.55875 35.2171875,39.0259375 L32.7390625,39.0259375 C31.4289062,39.0259375 30.4320313,39.1110937 29.7484375,39.2821875 C29.634375,39.2821875 29.4921875,39.2259375 29.3210937,39.1110937 C29.2640625,38.9978125 29.1789063,38.8845312 29.0648438,38.7696875 C28.9507812,38.5985937 28.8648437,38.4853125 28.8085937,38.4275 C28.7515625,38.3142187 28.7515625,38.2282812 28.8085937,38.17125 L28.9796875,38.17125 C30.11875,38.2860937 31.628125,38.3423437 33.5085937,38.3423437 L35.4734375,38.3423437 C35.9867188,36.8610937 36.2992188,35.693125 36.4132812,34.8392187 C36.4703125,34.38375 36.7265625,34.2126562 37.1828125,34.3259375 C39.0054687,34.7251562 40.2585937,35.0392187 40.9421875,35.2657812 C41.1695313,35.380625 41.284375,35.5517187 41.284375,35.7790625 C41.2273438,36.0071875 41.084375,36.1501562 40.8570313,36.2064062 C40.8,36.2064062 40.7421875,36.2353125 40.6859375,36.2915625 C40.3445312,36.4064062 40.0882813,36.6626562 39.9171875,37.0603125 Z M57.3486719,51.8432812 C57.2346094,51.5589062 57.1486719,51.3596875 57.0924219,51.2448437 C55.5541406,52.783125 53.3892969,54.008125 50.5978906,54.9198437 C50.3697656,54.9753125 50.2275781,54.9753125 50.1705469,54.9198437 C50.1135156,54.805 50.1705469,54.6628125 50.3416406,54.4925 C52.6197656,52.9542187 54.3291406,51.045625 55.4689844,48.7667187 C54.6705469,47.7417187 53.7877344,46.801875 52.8197656,45.9471875 C52.6486719,45.8339062 52.5916406,45.720625 52.6486719,45.6057812 C52.7057031,45.4917187 52.8478906,45.4635937 53.0760156,45.5198437 C54.2150781,45.8620312 55.2978906,46.289375 56.3236719,46.801875 C56.6650781,45.9471875 56.8924219,45.0925 57.0072656,44.2385937 C57.0072656,43.7253125 57.3197656,43.5839062 57.9471094,43.81125 C58.8010156,44.039375 59.7416406,44.4089062 60.7666406,44.9221875 C61.0510156,45.0370312 61.1939844,45.2073437 61.1939844,45.4346875 C61.1939844,45.720625 61.0510156,45.8620312 60.7666406,45.8620312 C60.4252344,45.9190625 60.1392969,46.1753125 59.9119531,46.6307812 C59.6838281,47.2010937 59.3994531,47.79875 59.0580469,48.4253125 C59.7978906,48.9378125 60.3392969,49.48 60.6814844,50.04875 C61.3650781,51.3596875 61.2502344,52.3854687 60.3392969,53.1253125 C59.1994531,53.864375 58.2885156,53.6378125 57.6049219,52.4417187 C57.5478906,52.270625 57.4627344,52.0714062 57.3486719,51.8432812 Z M57.5195312,38.5986719 C56.3796875,38.8267969 55.725,38.5705469 55.5539062,37.8299219 C55.3835938,36.6908594 54.984375,35.7791406 54.3578125,35.0955469 C54.1867187,34.9244531 54.1296875,34.8103906 54.1867187,34.7533594 C54.1867187,34.6400781 54.3007812,34.5822656 54.5289062,34.5822656 C56.5796875,34.6400781 57.8898438,35.0955469 58.459375,35.9494531 C59.0289062,37.1463281 58.715625,38.0299219 57.5195312,38.5986719 Z M65.2953906,40.9057812 L66.2352344,40.9057812 C66.1211719,43.1846875 65.7227344,45.2354687 65.0391406,47.058125 C64.6399219,46.0901562 64.2125781,45.0073437 63.7571094,43.81125 C64.3836719,42.9003125 64.8961719,41.9307812 65.2953906,40.9057812 M59.3992969,38.9401562 C60.2539844,37.7440625 60.7375781,37.1464062 60.8524219,37.1464062 C61.3649219,37.2034375 62.1047656,37.7440625 63.0735156,38.7698437 C63.2446094,37.5175 63.3008594,36.2057812 63.2446094,34.8385937 C63.1875781,34.383125 63.3586719,34.1846875 63.7571094,34.2409375 C63.8141406,34.2409375 63.9282031,34.2698437 64.0992969,34.3260937 C65.5797656,34.4971875 66.6625781,34.6682812 67.3461719,34.8385937 C67.8586719,35.2378125 67.8297656,35.58 67.2610156,35.864375 C66.9188281,35.9792187 66.6907031,36.2635937 66.5774219,36.7190625 C66.2352344,37.9721875 65.8938281,39.1409375 65.5516406,40.2221875 L67.4313281,40.2221875 C68.3422656,38.9698437 68.9696094,38.3425 69.3117969,38.3425 C70.0516406,38.6276562 70.8492969,39.2823437 71.7039844,40.3073437 C71.8750781,40.6495312 71.7899219,40.8495312 71.4477344,40.9057812 L67.0899219,40.9057812 C68.5133594,41.020625 69.5110156,41.1620312 70.0805469,41.333125 C70.3649219,41.3901562 70.5078906,41.56125 70.5078906,41.845625 C70.5078906,42.07375 70.3930469,42.2448437 70.1657031,42.358125 C69.8242969,42.4159375 69.6242969,42.7003125 69.5680469,43.2128125 C68.9977344,45.9471875 68.1149219,48.1979687 66.9188281,49.9635937 C67.9446094,51.1034375 69.3680469,52.014375 71.1914844,52.6979687 C71.5899219,52.7542187 71.7899219,52.8690625 71.7899219,53.039375 C71.7899219,53.3245312 71.5899219,53.4948437 71.1914844,53.551875 C70.1657031,53.8370312 69.4250781,54.3495312 68.9696094,55.0901562 C68.6844531,55.7167187 68.3141406,55.801875 67.8586719,55.3464062 C66.6625781,54.3776562 65.7227344,53.3245312 65.0391406,52.1854687 C63.3297656,53.608125 61.0797656,54.776875 58.2883594,55.6885937 C58.0032031,55.7448437 57.8321094,55.7448437 57.7758594,55.6885937 C57.7188281,55.57375 57.8039844,55.4026562 58.0321094,55.1760937 C60.7664844,53.1807812 62.7321094,51.2448437 63.9282031,49.3651562 C63.7000781,48.5682812 63.4438281,47.314375 63.1594531,45.6057812 C63.1016406,45.2635937 63.0735156,45.0073437 63.0735156,44.83625 C62.5610156,45.5198437 61.9914844,46.2034375 61.3649219,46.8870312 C61.1938281,47.001875 61.0508594,47.03 60.9375781,46.9729687 C60.8805469,46.9167187 60.9086719,46.801875 61.0227344,46.6307812 C61.0797656,46.4596875 61.1649219,46.2034375 61.2789844,45.8620312 C61.4500781,45.4635937 61.6774219,44.83625 61.9625781,43.9823437 C61.7922656,44.1526562 61.5641406,44.32375 61.2789844,44.4948437 C60.3672656,44.8932812 59.6555469,44.4948437 59.1430469,43.29875 C58.5157031,42.2167187 57.6617969,41.305 56.5797656,40.564375 C56.4086719,40.4503125 56.3235156,40.3370312 56.3235156,40.2221875 C56.3797656,40.1659375 56.5227344,40.1370312 56.7500781,40.1370312 C59.4852344,40.3073437 61.1649219,40.8495312 61.7922656,41.7604687 C62.0196094,41.9885937 62.1899219,42.33 62.3047656,42.7854687 L62.3047656,42.8714062 C62.5891406,41.789375 62.8172656,40.7346875 62.9883594,39.7096875 L61.5360156,39.7096875 C60.5102344,39.6534375 59.5703906,39.62375 58.7157031,39.62375 L52.8196094,39.62375 C52.3633594,39.62375 51.9078906,39.6815625 51.4524219,39.7948437 C51.2242969,39.7948437 51.0821094,39.7385937 51.0250781,39.62375 C50.7969531,39.5104687 50.6266406,39.339375 50.5125781,39.11125 C50.4555469,38.9979687 50.4555469,38.9120312 50.5125781,38.855 C50.5125781,38.79875 50.5688281,38.79875 50.6836719,38.855 C51.1391406,38.9120312 51.9938281,38.9401562 53.2469531,38.9401562 L59.3992969,38.9401562 Z M50.8545313,46.2890625 C50.6264062,46.4601562 50.4553125,46.5171875 50.3420312,46.4601562 C50.285,46.3460937 50.3420312,46.175 50.513125,45.9476562 C51.9365625,44.2382812 53.019375,42.3304687 53.76,40.221875 C53.8732812,39.9375 54.1014063,39.8523437 54.4435937,39.965625 C55.2404687,40.2515625 56.0951562,40.70625 57.006875,41.3328125 C57.29125,41.5039062 57.4053125,41.7039062 57.3490625,41.93125 C57.3490625,42.159375 57.2060937,42.2726562 56.9217187,42.2726562 L56.8357812,42.2726562 C56.3232812,42.3875 55.9810937,42.5585937 55.8107812,42.7859375 C54.4435937,44.153125 52.79125,45.3210937 50.8545313,46.2890625 Z M74.6559375,23.8678125 C81.9309375,30.7342187 85.9371875,40.0139062 85.9371875,49.9998437 C85.9371875,51.9146875 85.7785937,53.8623437 85.466875,55.7889062 C85.404375,56.1725 85.073125,56.4451562 84.6965625,56.4451562 C84.6551562,56.4451562 84.6129687,56.4420312 84.57,56.4357812 C84.145,56.36625 83.8551562,55.9646875 83.9239063,55.5389062 C84.223125,53.694375 84.3746875,51.8310937 84.3746875,49.9998437 C84.3746875,40.4490625 80.5426562,31.5717187 73.5832812,25.00375 C73.27,24.7076562 73.2551562,24.213125 73.55125,23.8998437 C73.848125,23.5865625 74.341875,23.5717187 74.6559375,23.8678125 Z M26.4167969,25.0038281 C19.4574219,31.5717969 15.6253906,40.4491406 15.6253906,49.9999219 C15.6253906,51.8311719 15.7769531,53.6944531 16.0761719,55.5389844 C16.1449219,55.9647656 15.8550781,56.3663281 15.4300781,56.4350781 C15.3871094,56.4421094 15.3449219,56.4452344 15.3035156,56.4452344 C14.9269531,56.4452344 14.5957031,56.1725781 14.5332031,55.7889844 C14.2214844,53.8616406 14.0628906,51.9147656 14.0628906,49.9999219 C14.0628906,40.0139844 18.0691406,30.7335156 25.3441406,23.8678906 C25.6582031,23.5717969 26.1511719,23.5866406 26.4488281,23.8991406 C26.7449219,24.2132031 26.7300781,24.7077344 26.4167969,25.0038281 Z" id="Fill-1" fill="#FF4466"></path>
    </g>
</svg>