<?xml version="1.0" encoding="UTF-8"?>
<svg width="100px" height="100px" viewBox="0 0 100 100" version="1.1" xmlns="http://www.w3.org/2000/svg" xmlns:xlink="http://www.w3.org/1999/xlink">
    <!-- Generator: Sketch 51.2 (57519) - http://www.bohemiancoding.com/sketch -->
    <title>Img/Smill</title>
    <desc>Created with Sketch.</desc>
    <defs>
        <linearGradient x1="50%" y1="0%" x2="50%" y2="100%" id="linearGradient-1">
            <stop stop-color="#A6CDEB" offset="0%"></stop>
            <stop stop-color="#6D9ED2" offset="100%"></stop>
        </linearGradient>
    </defs>
    <g id="Img/Smill" stroke="none" stroke-width="1" fill="none" fill-rule="evenodd">
        <path d="M76.1511434,60.026996 C72.1183577,70.5382591 61.9305703,78 50,78 C38.0662146,78 27.8761516,70.534237 23.8455976,60.0184976 C23.8416647,60.0122459 23.8384438,60.0060783 23.8359528,60 C23.6104196,59.4496907 24.1897096,58.7812625 25.0106844,58.5240157 C26.2979528,58.1206589 28.1565002,58.1676444 29.2129211,60 C29.2244045,60.0199178 29.2350295,60.0394676 29.2448132,60.0586544 C33.4028101,67.1999124 41.1408448,72 50,72 C58.8833855,72 66.6395095,67.1736194 70.7892234,60.0000067 C71.845987,58.1676444 73.7045343,58.1206589 74.9918028,58.5240157 C75.8127776,58.7812625 76.3920675,59.4496907 76.1665344,60 C76.1629213,60.0088161 76.1577728,60.0178201 76.1511434,60.026996 Z M50,100 C22.3857625,100 0,77.6142375 0,50 C0,22.3857625 22.3857625,-6.43940196e-15 50,-6.43940196e-15 C77.6142375,-6.43940196e-15 100,22.3857625 100,50 C100,77.6142375 77.6142375,100 50,100 Z M50,96 C75.4050985,96 96,75.4050985 96,50 C96,24.5949015 75.4050985,4 50,4 C24.5949015,4 4,24.5949015 4,50 C4,75.4050985 24.5949015,96 50,96 Z M30,44 C26.6862915,44 24,41.3137085 24,38 C24,34.6862915 26.6862915,32 30,32 C33.3137085,32 36,34.6862915 36,38 C36,41.3137085 33.3137085,44 30,44 Z M70,44 C66.6862915,44 64,41.3137085 64,38 C64,34.6862915 66.6862915,32 70,32 C73.3137085,32 76,34.6862915 76,38 C76,41.3137085 73.3137085,44 70,44 Z" id="Oval-3" fill="url(#linearGradient-1)"></path>
    </g>
</svg>