<?xml version="1.0" encoding="UTF-8"?>
<svg width="16px" height="16px" viewBox="0 0 16 16" version="1.1" xmlns="http://www.w3.org/2000/svg" xmlns:xlink="http://www.w3.org/1999/xlink">
    <!-- Generator: Sketch 51.2 (57519) - http://www.bohemiancoding.com/sketch -->
    <title>16/Photo/toTop_Main</title>
    <desc>Created with Sketch.</desc>
    <defs></defs>
    <g id="16/Photo/toTop_Main" stroke="none" stroke-width="1" fill="none" fill-rule="evenodd">
        <path d="M3.5,2 L12.5,2 C12.7761424,2 13,2.22385763 13,2.5 L13,3.5 C13,3.77614237 12.7761424,4 12.5,4 L3.5,4 C3.22385763,4 3,3.77614237 3,3.5 L3,2.5 C3,2.22385763 3.22385763,2 3.5,2 Z M3.85355339,8.14644661 L7.29289322,4.70710678 C7.68341751,4.31658249 8.31658249,4.31658249 8.70710678,4.70710678 L12.1464466,8.14644661 C12.3417088,8.34170876 12.3417088,8.65829124 12.1464466,8.85355339 C12.0526784,8.94732158 11.9255015,9 11.7928932,9 L10.5,9 C10.2238576,9 10,9.22385763 10,9.5 L10,14.5 C10,14.7761424 9.77614237,15 9.5,15 L6.5,15 C6.22385763,15 6,14.7761424 6,14.5 L6,9.5 C6,9.22385763 5.77614237,9 5.5,9 L4.20710678,9 C3.93096441,9 3.70710678,8.77614237 3.70710678,8.5 C3.70710678,8.36739176 3.7597852,8.2402148 3.85355339,8.14644661 Z" id="Rectangle-25" fill="#ffffff" transform="translate(8.000000, 8.500000) scale(-1, 1) translate(-8.000000, -8.500000) "></path>
    </g>
</svg>