<?xml version="1.0" encoding="UTF-8"?>
<svg width="16px" height="16px" viewBox="0 0 16 16" version="1.1" xmlns="http://www.w3.org/2000/svg" xmlns:xlink="http://www.w3.org/1999/xlink">
    <!-- Generator: Sketch 51.2 (57519) - http://www.bohemiancoding.com/sketch -->
    <title>16/Bar/TreeIcon_People_Dark</title>
    <desc>Created with Sketch.</desc>
    <defs></defs>
    <g id="16/Bar/TreeIcon_People_Dark" stroke="none" stroke-width="1" fill="none" fill-rule="evenodd">
        <path d="M5.04765985,7.69886771 C5.77903245,8.49848625 6.83094882,9 8,9 C9.16905118,9 10.2209675,8.49848625 10.9523402,7.69886771 C12.6982981,8.59811055 14,10.3651547 14,13 C13,13 3,13 2,13 C2,10.3651547 3.30170188,8.59811055 5.04765985,7.69886771 Z M8,8 C6.34314575,8 5,6.65685425 5,5 C5,3.34314575 6.34314575,2 8,2 C9.65685425,2 11,3.34314575 11,5 C11,6.65685425 9.65685425,8 8,8 Z" id="Oval-20-Copy" fill="#8899BB"></path>
    </g>
</svg>