<?xml version="1.0" encoding="UTF-8"?>
<svg width="48px" height="48px" viewBox="0 0 48 48" version="1.1" xmlns="http://www.w3.org/2000/svg" xmlns:xlink="http://www.w3.org/1999/xlink">
    <!-- Generator: Sketch 51 (57462) - http://www.bohemiancoding.com/sketch -->
    <title>48/index/icon_3</title>
    <desc>Created with Sketch.</desc>
    <defs>
        <linearGradient x1="50%" y1="0%" x2="50%" y2="100%" id="linearGradient-1">
            <stop stop-color="#FFFFFF" stop-opacity="0.8" offset="0%"></stop>
            <stop stop-color="#FFFFFF" stop-opacity="0.7" offset="100%"></stop>
        </linearGradient>
    </defs>
    <g id="48/index/icon_3" stroke="none" stroke-width="1" fill="none" fill-rule="evenodd">
        <g id="Group-47">
            <rect id="Rectangle-16" stroke-opacity="0.3" stroke="#FFFFFF" x="0.5" y="0.5" width="47" height="47" rx="5"></rect>
            <g id="Group" transform="translate(8.000000, 8.000000)" opacity="0.8">
                <g id="Group-21">
                    <path d="M12.8860941,17.2416084 C10.7113357,15.9168292 9.20000716,13.0572851 9.20000716,10.1619319 C9.20000716,6.20650615 12.020612,3 15.5000045,3 C18.9793969,3 21.8000018,6.20650615 21.8000018,10.1619319 C21.8000018,13.0532921 20.292839,15.9089419 18.1229088,17.2361187 C19.2080854,18.3989132 20.2524487,19.2493258 21.2559986,19.7873566 C21.6889563,20.0194771 22.0898009,20.2396461 22.4585324,20.4478635 C24.0288617,21.334607 25,22.9982701 25,24.8016691 L25,26 L5.9999953,26 L6.00000438,24.7919639 C6.00001058,23.008634 6.94984232,21.360299 8.49275635,20.4660498 C8.9138504,20.2219902 9.37900557,19.95924 9.88822184,19.6777993 C10.9095186,19.1133349 11.9088093,18.3012713 12.8860941,17.2416084 Z M12.6912661,14.3932981 C14.4752999,15.7937416 16.388318,15.7937416 18.2945516,14.4040289 C18.5176906,14.2413526 18.5667053,13.9285874 18.4040289,13.7054484 C18.2413526,13.4823094 17.9285874,13.4332947 17.7054484,13.5959711 C16.1551642,14.7261839 14.734849,14.7261839 13.3087339,13.6067019 C13.0915214,13.4361929 12.777211,13.4740536 12.6067019,13.6912661 C12.4361929,13.9084786 12.4740536,14.222789 12.6912661,14.3932981 Z" id="Combined-Shape" fill="url(#linearGradient-1)"></path>
                    <path d="M0,5 L0,2 C-1.3527075e-16,0.8954305 0.8954305,2.02906125e-16 2,0 L5,0" id="Path-6" stroke="#D8D8D8"></path>
                    <path d="M26,5 L26,2 C26,0.8954305 26.8954305,2.02906125e-16 28,0 L31,0" id="Path-6" stroke="#D8D8D8" transform="translate(28.500000, 2.500000) scale(-1, 1) translate(-28.500000, -2.500000) "></path>
                    <path d="M0,30 L0,27 C-1.3527075e-16,25.8954305 0.8954305,25 2,25 L5,25" id="Path-6" stroke="#D8D8D8" transform="translate(2.500000, 27.500000) scale(1, -1) translate(-2.500000, -27.500000) "></path>
                    <path d="M26,30 L26,27 C26,25.8954305 26.8954305,25 28,25 L31,25" id="Path-6" stroke="#D8D8D8" transform="translate(28.500000, 27.500000) scale(-1, -1) translate(-28.500000, -27.500000) "></path>
                </g>
            </g>
        </g>
    </g>
</svg>