<?xml version="1.0" encoding="UTF-8"?>
<svg width="16px" height="16px" viewBox="0 0 16 16" version="1.1" xmlns="http://www.w3.org/2000/svg" xmlns:xlink="http://www.w3.org/1999/xlink">
    <!-- Generator: Sketch 51.2 (57519) - http://www.bohemiancoding.com/sketch -->
    <title>16/Public/Search_Dark</title>
    <desc>Created with Sketch.</desc>
    <defs></defs>
    <g id="16/Public/Search_Dark" stroke="none" stroke-width="1" fill="none" fill-rule="evenodd">
        <path d="M12.0665809,10.5665809 L14.2928932,12.7928932 C14.6834175,13.1834175 14.6834175,13.8165825 14.2928932,14.2071068 L14.2071068,14.2928932 C13.8165825,14.6834175 13.1834175,14.6834175 12.7928932,14.2928932 L10.5665809,12.0665809 C9.69048264,12.6560242 8.63545293,13 7.5,13 C4.46216667,13 2,10.5378333 2,7.5 C2,4.46216667 4.46216667,2 7.5,2 C10.5378333,2 13,4.46216667 13,7.5 C13,8.63545293 12.6560242,9.69048264 12.0665809,10.5665809 Z M12,7.5 C12,5.01444534 9.98555466,3 7.5,3 C5.01444534,3 3,5.01444534 3,7.5 C3,9.98555466 5.01444534,12 7.5,12 C9.98555466,12 12,9.98555466 12,7.5 Z" id="Stroke-4" fill="#8D96A9"></path>
    </g>
</svg>