<?xml version="1.0" encoding="UTF-8"?>
<svg width="140px" height="100px" viewBox="0 0 140 100" version="1.1" xmlns="http://www.w3.org/2000/svg" xmlns:xlink="http://www.w3.org/1999/xlink">
    <!-- Generator: Sketch 51.2 (57519) - http://www.bohemiancoding.com/sketch -->
    <title>Img/Notice/Big_Yes</title>
    <desc>Created with Sketch.</desc>
    <defs></defs>
    <g id="Img/Notice/Big_Yes" stroke="none" stroke-width="1" fill="none" fill-rule="evenodd">
        <g id="Coin" transform="translate(20.000000, 0.000000)" stroke="#FF8800">
            <circle id="Oval" stroke-width="0.5" cx="50" cy="50" r="49.75"></circle>
            <circle id="Oval" cx="50" cy="50" r="44.5"></circle>
            <circle id="Oval" cx="50" cy="50" r="30.5"></circle>
            <circle id="Oval" stroke-width="0.5" cx="50" cy="50" r="26.75"></circle>
        </g>
        <g id="Word" transform="translate(44.000000, 76.000000)" fill="#FF8800">
            <path d="M3.125,3.5951 L5.525,5.3341 C5.729,5.4821 5.755,5.6581 5.606,5.8641 C5.466,6.0561 5.295,6.0791 5.093,5.9331 L2.692,4.1931 L0.959,6.5831 C0.888,6.6821 0.896,6.7621 0.98,6.8241 L3.566,8.6981 C3.771,8.8471 3.805,9.0181 3.665,9.2101 C3.514,9.4191 3.335,9.4491 3.13,9.3001 L0.458,7.3651 C0.253,7.2151 0.132,7.0431 0.097,6.8491 C0.062,6.6551 0.119,6.4551 0.268,6.2491 L4.057,1.0211 C4.215,0.8031 4.4,0.6651 4.612,0.6101 C4.824,0.5531 5.056,0.6161 5.305,0.7961 L7.919,2.6921 C8.125,2.8401 8.154,3.0161 8.008,3.2181 C7.863,3.4171 7.688,3.4431 7.482,3.2941 L4.935,1.4481 C4.888,1.4131 4.835,1.4021 4.778,1.4131 C4.722,1.4251 4.674,1.4581 4.635,1.5121 L3.125,3.5951 Z" id="Fill-4"></path>
            <path d="M8.2725,6.9398 L10.8175,8.2168 C11.0375,8.3278 11.0915,8.4928 10.9815,8.7118 C10.8715,8.9318 10.7065,8.9868 10.4865,8.8768 L7.9415,7.5998 L6.3565,10.7578 C6.2435,10.9848 6.0795,11.0448 5.8665,10.9378 C5.6285,10.8188 5.5655,10.6498 5.6755,10.4288 L8.7765,4.2498 C8.8975,4.0078 9.0575,3.8428 9.2575,3.7528 C9.4585,3.6638 9.6965,3.6878 9.9715,3.8268 L12.8575,5.2748 C13.0845,5.3878 13.1415,5.5568 13.0295,5.7808 C12.9185,6.0008 12.7515,6.0528 12.5235,5.9398 L9.7015,4.5228 C9.6485,4.4978 9.5955,4.4988 9.5415,4.5288 C9.4875,4.5578 9.4455,4.6018 9.4155,4.6618 L8.2725,6.9398 Z" id="Fill-6"></path>
            <path d="M13.7148,9.3363 L16.4318,10.1903 C16.6658,10.2643 16.7458,10.4183 16.6728,10.6533 C16.5988,10.8883 16.4438,10.9693 16.2098,10.8953 L13.4928,10.0403 L12.4338,13.4113 C12.3578,13.6533 12.2048,13.7383 11.9788,13.6673 C11.7248,13.5873 11.6348,13.4303 11.7088,13.1953 L13.7828,6.6003 C13.8628,6.3433 13.9958,6.1533 14.1788,6.0333 C14.3618,5.9133 14.6008,5.8983 14.8958,5.9913 L17.9758,6.9603 C18.2178,7.0363 18.3008,7.1933 18.2268,7.4323 C18.1518,7.6673 17.9938,7.7463 17.7518,7.6703 L14.7388,6.7233 C14.6838,6.7053 14.6308,6.7153 14.5818,6.7533 C14.5328,6.7913 14.4988,6.8413 14.4798,6.9043 L13.7148,9.3363 Z" id="Fill-8"></path>
            <path d="M19.4717,10.8353 L22.4067,11.2553 C22.6547,11.2903 22.7597,11.4343 22.7237,11.6853 C22.6907,11.9213 22.5497,12.0223 22.3017,11.9853 L19.3677,11.5653 L18.9487,14.4893 C18.9317,14.6083 18.9747,14.6763 19.0787,14.6913 L22.2407,15.1443 C22.4927,15.1803 22.6007,15.3153 22.5677,15.5523 C22.5307,15.8073 22.3867,15.9163 22.1347,15.8803 L18.8697,15.4133 C18.6177,15.3773 18.4317,15.2813 18.3097,15.1263 C18.1887,14.9703 18.1457,14.7673 18.1817,14.5163 L19.0957,8.1233 C19.1337,7.8563 19.2347,7.6483 19.3957,7.5003 C19.5567,7.3523 19.7897,7.2993 20.0957,7.3433 L23.2917,7.8013 C23.5427,7.8363 23.6507,7.9793 23.6157,8.2263 C23.5807,8.4693 23.4377,8.5733 23.1867,8.5373 L20.0717,8.0913 C20.0137,8.0833 19.9617,8.0983 19.9167,8.1353 C19.8717,8.1713 19.8457,8.2233 19.8357,8.2883 L19.4717,10.8353 Z" id="Fill-10"></path>
            <path d="M27.8906,16.0795 C26.8286,16.1135 25.9766,15.7625 25.3346,15.0245 C24.6946,14.2875 24.3526,13.2785 24.3106,11.9975 C24.2706,10.7485 24.5706,9.7255 25.2106,8.9295 C25.8516,8.1325 26.6976,7.7175 27.7466,7.6835 C28.3916,7.6625 28.9466,7.7625 29.4126,7.9835 C29.8796,8.2055 30.1166,8.4195 30.1226,8.6265 C30.1256,8.7275 30.0916,8.8155 30.0196,8.8905 C29.9486,8.9655 29.8726,9.0035 29.7946,9.0065 C29.7476,9.0075 29.7056,9.0015 29.6676,8.9865 C29.6306,8.9725 29.5476,8.9245 29.4196,8.8425 C28.9376,8.5215 28.3866,8.3715 27.7706,8.3925 C26.9266,8.4195 26.2566,8.7605 25.7596,9.4155 C25.2636,10.0705 25.0326,10.9235 25.0666,11.9735 C25.1016,13.0585 25.3756,13.9035 25.8906,14.5085 C26.4046,15.1135 27.0676,15.4025 27.8786,15.3765 C28.2106,15.3655 28.5306,15.3015 28.8376,15.1835 C29.1446,15.0665 29.4726,14.8575 29.8226,14.5575 C29.9286,14.4635 30.0276,14.4155 30.1176,14.4125 C30.2066,14.4095 30.2806,14.4445 30.3366,14.5175 C30.3946,14.5895 30.4236,14.6665 30.4266,14.7485 C30.4326,14.9395 30.1756,15.2035 29.6556,15.5415 C29.1346,15.8785 28.5456,16.0585 27.8906,16.0795" id="Fill-12"></path>
            <path d="M33.3994,7.7924 L34.8284,14.7184 C34.8794,14.9674 34.7834,15.1164 34.5384,15.1674 C34.2894,15.2194 34.1394,15.1204 34.0874,14.8714 L32.6594,7.9444 L30.7084,8.3474 C30.4564,8.3994 30.3044,8.3054 30.2544,8.0634 C30.2054,7.8184 30.3054,7.6704 30.5584,7.6184 L35.2004,6.6604 C35.4494,6.6094 35.5984,6.7064 35.6494,6.9514 C35.6994,7.1924 35.5994,7.3384 35.3504,7.3904 L33.3994,7.7924 Z" id="Fill-14"></path>
            <path d="M39.5332,13.4086 C39.6132,13.6496 39.5332,13.8106 39.2922,13.8906 C39.0542,13.9706 38.8962,13.8886 38.8152,13.6476 L36.4522,6.5546 C36.3732,6.3176 36.4522,6.1596 36.6892,6.0806 C36.9302,6.0006 37.0902,6.0786 37.1692,6.3156 L39.5332,13.4086 Z" id="Fill-16"></path>
            <path d="M43.7744,11.0541 C43.8044,9.9451 43.7474,8.7771 43.6024,7.5481 C43.4584,6.3211 43.2274,5.0321 42.9114,3.6831 C42.8694,3.4911 42.9224,3.3581 43.0704,3.2861 C43.3264,3.1611 43.5044,3.2011 43.6034,3.4061 C43.6614,3.5251 43.7894,4.1121 43.9864,5.1661 C44.1834,6.2221 44.3214,7.1891 44.3984,8.0681 C44.4754,8.9461 44.5024,9.7511 44.4764,10.4821 C44.4524,11.2121 44.4234,11.6201 44.3934,11.7041 C44.3624,11.7881 44.2954,11.8571 44.1894,11.9081 C44.0934,11.9541 44.0124,11.9751 43.9464,11.9711 C43.8784,11.9661 43.7344,11.8831 43.5124,11.7221 C43.2914,11.5601 43.0454,11.3671 42.7754,11.1421 C42.1294,10.6171 41.5024,10.0311 40.8944,9.3811 C40.2864,8.7331 39.6904,8.0431 39.1084,7.3151 C38.5264,6.5851 38.2084,6.1641 38.1534,6.0521 C38.1034,5.9501 38.1044,5.8561 38.1554,5.7681 C38.2064,5.6801 38.2824,5.6121 38.3844,5.5621 C38.5524,5.4801 38.6984,5.5251 38.8204,5.6961 C39.6354,6.8281 40.4564,7.8411 41.2834,8.7341 C42.1094,9.6261 42.9394,10.4001 43.7744,11.0541" id="Fill-18"></path>
            <path d="M46.8779,5.0375 L49.2819,3.3035 C49.4849,3.1565 49.6609,3.1865 49.8099,3.3915 C49.9489,3.5855 49.9169,3.7555 49.7149,3.9015 L47.3099,5.6365 L49.0379,8.0305 C49.1079,8.1295 49.1869,8.1475 49.2729,8.0865 L51.8619,6.2185 C52.0679,6.0685 52.2399,6.0915 52.3799,6.2845 C52.5309,6.4935 52.5029,6.6725 52.2979,6.8215 L49.6219,8.7515 C49.4159,8.8995 49.2149,8.9605 49.0199,8.9335 C48.8239,8.9055 48.6519,8.7885 48.5039,8.5825 L44.7259,3.3465 C44.5679,3.1275 44.4959,2.9085 44.5089,2.6895 C44.5229,2.4715 44.6529,2.2705 44.9039,2.0905 L47.5229,0.2015 C47.7289,0.0535 47.9039,0.0805 48.0509,0.2825 C48.1939,0.4825 48.1639,0.6565 47.9579,0.8055 L45.4059,2.6455 C45.3579,2.6805 45.3309,2.7255 45.3249,2.7835 C45.3179,2.8415 45.3339,2.8965 45.3729,2.9515 L46.8779,5.0375 Z" id="Fill-20"></path>
        </g>
        <g id="www" transform="translate(35.000000, 7.000000)" fill="#FF8800">
            <path d="M3.0986,22.2227 C2.7026,21.9837 2.3096,21.9067 1.9186,21.9907 C1.5286,22.0747 1.2246,22.2957 1.0076,22.6557 C0.7516,23.0787 0.7186,23.5097 0.9086,23.9467 C1.0976,24.3837 1.4456,24.7547 1.9526,25.0607 C2.5016,25.3917 3.0026,25.5387 3.4556,25.5037 C3.9086,25.4687 4.2686,25.2287 4.5376,24.7827 C4.7576,24.4167 4.8126,24.0427 4.7026,23.6607 C4.5926,23.2807 4.3406,22.9707 3.9476,22.7337 L3.0986,22.2227 Z M5.7866,23.1177 C5.9616,23.2227 5.9946,23.3657 5.8876,23.5437 C5.7826,23.7187 5.6416,23.7537 5.4656,23.6487 L5.0516,23.3987 C5.2096,23.6917 5.2846,23.9857 5.2736,24.2797 C5.2636,24.5737 5.1696,24.8687 4.9916,25.1637 C4.6526,25.7277 4.1796,26.0427 3.5726,26.1107 C2.9656,26.1777 2.3196,26.0047 1.6326,25.5917 C0.9576,25.1857 0.5096,24.6947 0.2886,24.1187 C0.0686,23.5417 0.1356,22.9587 0.4916,22.3677 C0.6606,22.0857 0.8656,21.8737 1.1046,21.7337 C1.3426,21.5927 1.6176,21.5207 1.9276,21.5167 L1.5676,21.2997 C1.3946,21.1967 1.3616,21.0557 1.4666,20.8797 C1.5746,20.7017 1.7146,20.6647 1.8876,20.7687 L5.7866,23.1177 Z" id="Fill-28"></path>
            <path d="M9.0713,18.9961 C9.2293,19.1271 9.2443,19.2691 9.1153,19.4251 C8.9803,19.5881 8.8343,19.6041 8.6753,19.4741 L6.4103,17.6001 C6.0613,17.3121 5.7303,17.1721 5.4163,17.1791 C5.1023,17.1851 4.8193,17.3421 4.5663,17.6471 C4.2803,17.9941 4.1693,18.3791 4.2333,18.8021 C4.2983,19.2251 4.5413,19.6091 4.9633,19.9581 L6.9303,21.5851 C7.0893,21.7161 7.1013,21.8611 6.9683,22.0221 C6.8383,22.1801 6.6933,22.1931 6.5363,22.0631 L3.0353,19.1701 C2.8753,19.0371 2.8603,18.8921 2.9903,18.7331 C3.1233,18.5731 3.2703,18.5591 3.4303,18.6921 L3.8373,19.0281 C3.7203,18.7291 3.6903,18.4181 3.7473,18.0951 C3.8023,17.7711 3.9403,17.4771 4.1603,17.2111 C4.5233,16.7721 4.9253,16.5401 5.3653,16.5161 C5.8053,16.4911 6.2423,16.6571 6.6743,17.0151 L9.0713,18.9961 Z" id="Fill-30"></path>
            <path d="M7.7227,14.3857 L9.9227,16.6877 C10.1207,16.8947 10.3047,17.0157 10.4747,17.0517 C10.6447,17.0877 10.8007,17.0367 10.9447,16.8997 C11.0007,16.8457 11.0437,16.7937 11.0737,16.7447 C11.1037,16.6967 11.1447,16.6047 11.1957,16.4707 C11.2127,16.4317 11.2337,16.3997 11.2597,16.3747 C11.3067,16.3297 11.3687,16.3117 11.4467,16.3187 C11.5227,16.3257 11.5867,16.3577 11.6387,16.4107 C11.7197,16.4957 11.7307,16.6317 11.6707,16.8197 C11.6117,17.0067 11.4997,17.1797 11.3347,17.3367 C11.0297,17.6287 10.7297,17.7557 10.4357,17.7167 C10.1417,17.6787 9.8327,17.4897 9.5087,17.1517 L7.2747,14.8147 L6.8687,15.2027 C6.7207,15.3447 6.5817,15.3487 6.4537,15.2147 C6.3217,15.0747 6.3287,14.9357 6.4777,14.7937 L6.8827,14.4057 L6.0737,13.5587 C5.9337,13.4127 5.9387,13.2687 6.0857,13.1267 C6.2377,12.9837 6.3817,12.9847 6.5217,13.1297 L7.3307,13.9767 L7.9457,13.3897 C8.0937,13.2477 8.2347,13.2457 8.3677,13.3857 C8.4947,13.5197 8.4857,13.6567 8.3367,13.7987 L7.7227,14.3857 Z" id="Fill-32"></path>
            <path d="M13.2227,11.8926 C12.9227,11.4986 12.5817,11.2526 12.2017,11.1536 C11.8217,11.0546 11.4617,11.1336 11.1227,11.3926 C10.7677,11.6636 10.5697,12.0056 10.5257,12.4216 C10.4827,12.8366 10.5997,13.2566 10.8767,13.6796 L13.2227,11.8926 Z M11.2127,14.1536 C11.5427,14.5856 11.9387,14.8476 12.3997,14.9376 C12.8617,15.0286 13.2847,14.9266 13.6667,14.6346 C13.8297,14.5106 13.9757,14.3586 14.1037,14.1766 C14.2317,13.9956 14.3257,13.8186 14.3857,13.6456 C14.4277,13.5276 14.4677,13.4546 14.5067,13.4246 C14.5687,13.3766 14.6417,13.3646 14.7257,13.3856 C14.8107,13.4086 14.8757,13.4506 14.9227,13.5116 C15.0117,13.6286 14.9677,13.8596 14.7897,14.2036 C14.6127,14.5466 14.3537,14.8486 14.0147,15.1076 C13.4577,15.5316 12.8727,15.6796 12.2607,15.5526 C11.6487,15.4256 11.1037,15.0496 10.6257,14.4226 C10.1527,13.8016 9.9217,13.1656 9.9347,12.5156 C9.9477,11.8666 10.2287,11.3306 10.7807,10.9116 C11.2667,10.5396 11.7747,10.4126 12.3027,10.5276 C12.8297,10.6436 13.3037,10.9756 13.7217,11.5246 C13.8337,11.6716 13.8867,11.8096 13.8797,11.9376 C13.8727,12.0656 13.8117,12.1736 13.6957,12.2626 L11.2127,14.1536 Z" id="Fill-34"></path>
            <path d="M16.7744,12.7979 C16.8784,12.9679 16.8414,13.1069 16.6654,13.2159 C16.4904,13.3229 16.3504,13.2929 16.2464,13.1239 L12.6054,7.2229 C12.5024,7.0539 12.5374,6.9159 12.7114,6.8079 C12.8884,6.6979 13.0294,6.7289 13.1334,6.8979 L16.7744,12.7979 Z" id="Fill-36"></path>
            <path d="M17.7676,7.3271 C17.3576,7.5251 17.0866,7.8461 16.9576,8.2881 C16.8286,8.7301 16.9136,9.2621 17.2136,9.8841 C17.5116,10.4991 17.8816,10.8911 18.3236,11.0601 C18.7656,11.2301 19.1776,11.2231 19.5616,11.0371 C19.9486,10.8491 20.2136,10.5301 20.3566,10.0771 C20.4986,9.6251 20.4216,9.0911 20.1236,8.4751 C19.8296,7.8661 19.4686,7.4711 19.0426,7.2901 C18.6176,7.1091 18.1926,7.1211 17.7676,7.3271 M19.8176,11.5641 C19.2276,11.8481 18.6426,11.8671 18.0596,11.6201 C17.4766,11.3721 17.0086,10.8831 16.6566,10.1531 C16.2886,9.3941 16.1926,8.7161 16.3666,8.1191 C16.5396,7.5211 16.9206,7.0801 17.5096,6.7951 C18.1046,6.5071 18.6926,6.4831 19.2716,6.7241 C19.8506,6.9651 20.3206,7.4591 20.6826,8.2061 C21.0346,8.9321 21.1246,9.6021 20.9566,10.2151 C20.7886,10.8281 20.4096,11.2781 19.8176,11.5641" id="Fill-38"></path>
            <path d="M24.501,9.0898 C24.948,8.9498 25.254,8.6548 25.417,8.2048 C25.58,7.7558 25.565,7.2228 25.374,6.6078 C25.186,6.0048 24.906,5.5748 24.534,5.3188 C24.163,5.0638 23.743,5.0088 23.273,5.1548 C22.866,5.2818 22.578,5.5248 22.408,5.8828 C22.239,6.2408 22.221,6.6348 22.355,7.0638 L22.658,8.0368 C22.795,8.4758 23.035,8.7918 23.379,8.9858 C23.723,9.1818 24.097,9.2158 24.501,9.0898 M24.666,9.6518 C24.361,9.7468 24.076,9.7688 23.809,9.7168 C23.542,9.6648 23.294,9.5388 23.064,9.3378 L23.806,11.7158 C23.865,11.9048 23.792,12.0308 23.587,12.0958 C23.397,12.1538 23.272,12.0898 23.214,11.9008 L21.239,5.5698 C21.178,5.3708 21.241,5.2418 21.431,5.1828 C21.636,5.1188 21.77,5.1868 21.831,5.3848 L21.942,5.7388 C22.009,5.4728 22.146,5.2378 22.351,5.0338 C22.557,4.8298 22.806,4.6828 23.098,4.5918 C23.754,4.3868 24.334,4.4438 24.84,4.7638 C25.345,5.0838 25.721,5.6368 25.966,6.4228 C26.211,7.2088 26.216,7.8948 25.98,8.4778 C25.744,9.0608 25.306,9.4518 24.666,9.6518" id="Fill-40"></path>
            <path d="M30.5059,5.2949 C30.4289,4.8059 30.2459,4.4279 29.9579,4.1599 C29.6699,3.8929 29.3159,3.7919 28.8949,3.8589 C28.4539,3.9289 28.1159,4.1369 27.8809,4.4819 C27.6459,4.8269 27.5499,5.2519 27.5929,5.7559 L30.5059,5.2949 Z M27.6649,6.3329 C27.7499,6.8699 27.9739,7.2869 28.3379,7.5859 C28.7009,7.8839 29.1209,7.9949 29.5969,7.9199 C29.7999,7.8879 29.9999,7.8219 30.1979,7.7239 C30.3979,7.6249 30.5639,7.5139 30.6989,7.3899 C30.7909,7.3059 30.8609,7.2599 30.9099,7.2519 C30.9869,7.2399 31.0579,7.2639 31.1209,7.3219 C31.1849,7.3819 31.2229,7.4499 31.2349,7.5269 C31.2579,7.6719 31.1099,7.8539 30.7899,8.0719 C30.4709,8.2909 30.0999,8.4339 29.6789,8.4999 C28.9869,8.6099 28.4019,8.4639 27.9239,8.0619 C27.4439,7.6599 27.1439,7.0689 27.0209,6.2919 C26.8989,5.5199 26.9959,4.8509 27.3159,4.2839 C27.6349,3.7189 28.1369,3.3809 28.8209,3.2729 C29.4259,3.1769 29.9329,3.3049 30.3429,3.6559 C30.7529,4.0089 31.0119,4.5249 31.1199,5.2069 C31.1489,5.3909 31.1299,5.5369 31.0639,5.6469 C30.9969,5.7559 30.8909,5.8209 30.7459,5.8449 L27.6649,6.3329 Z" id="Fill-42"></path>
            <path d="M36.1201,3.5762 C36.1221,3.6572 36.0951,3.7292 36.0371,3.7932 C35.9801,3.8562 35.9111,3.8882 35.8291,3.8902 C35.7701,3.8912 35.6791,3.8472 35.5531,3.7602 C35.3351,3.6082 35.1411,3.5082 34.9701,3.4602 C34.8001,3.4122 34.6221,3.3892 34.4361,3.3932 C33.9381,3.4042 33.5401,3.5982 33.2401,3.9762 C32.9411,4.3542 32.7991,4.8592 32.8121,5.4902 C32.8261,6.1222 32.9861,6.6202 33.2921,6.9842 C33.5991,7.3482 34.0001,7.5252 34.4981,7.5142 C34.9011,7.5062 35.2831,7.3572 35.6411,7.0692 C35.7631,6.9722 35.8541,6.9232 35.9161,6.9212 C36.0011,6.9192 36.0701,6.9522 36.1261,7.0192 C36.1811,7.0862 36.2101,7.1572 36.2111,7.2322 C36.2151,7.3892 36.0381,7.5702 35.6811,7.7762 C35.3241,7.9822 34.9281,8.0912 34.4921,8.1002 C33.8181,8.1152 33.2701,7.8862 32.8501,7.4122 C32.4301,6.9372 32.2101,6.3022 32.1921,5.5042 C32.1751,4.7072 32.3781,4.0612 32.8021,3.5662 C33.2251,3.0722 33.7721,2.8172 34.4421,2.8032 C34.9011,2.7922 35.2951,2.8802 35.6231,3.0642 C35.9511,3.2492 36.1171,3.4202 36.1201,3.5762" id="Fill-44"></path>
            <path d="M37.8281,7.8418 C37.8141,8.0398 37.7031,8.1318 37.4951,8.1168 C37.2911,8.1028 37.1951,7.9958 37.2091,7.7978 L37.6971,0.8818 C37.7111,0.6838 37.8201,0.5918 38.0241,0.6068 C38.2321,0.6208 38.3301,0.7278 38.3151,0.9248 L37.8281,7.8418 Z" id="Fill-46"></path>
            <path d="M41.8184,3.9766 C41.3704,3.8986 40.9644,4.0006 40.6004,4.2856 C40.2374,4.5686 39.9974,5.0506 39.8794,5.7306 C39.7614,6.4046 39.8334,6.9386 40.0924,7.3336 C40.3534,7.7296 40.6934,7.9626 41.1134,8.0366 C41.5374,8.1106 41.9384,8.0046 42.3184,7.7206 C42.6984,7.4366 42.9464,6.9566 43.0634,6.2846 C43.1784,5.6166 43.1174,5.0856 42.8774,4.6906 C42.6364,4.2946 42.2844,4.0566 41.8184,3.9766 M41.0124,8.6136 C40.3684,8.5016 39.8814,8.1746 39.5524,7.6336 C39.2234,7.0926 39.1294,6.4226 39.2674,5.6236 C39.4124,4.7936 39.7284,4.1866 40.2184,3.8016 C40.7084,3.4176 41.2754,3.2826 41.9204,3.3936 C42.5714,3.5066 43.0614,3.8306 43.3914,4.3636 C43.7214,4.8966 43.8164,5.5726 43.6734,6.3896 C43.5364,7.1856 43.2194,7.7836 42.7254,8.1826 C42.2314,8.5826 41.6614,8.7266 41.0124,8.6136" id="Fill-48"></path>
            <path d="M48.0166,10.1406 C47.9526,10.3346 47.8216,10.3996 47.6226,10.3336 C47.4286,10.2696 47.3636,10.1396 47.4286,9.9456 L47.5956,9.4406 C47.3306,9.6706 47.0446,9.8156 46.7396,9.8726 C46.4336,9.9306 46.1086,9.9026 45.7616,9.7876 C45.2376,9.6136 44.8846,9.3176 44.7056,8.9016 C44.5276,8.4856 44.5296,8.0006 44.7126,7.4476 L45.6676,4.5756 C45.7336,4.3766 45.8626,4.3106 46.0536,4.3736 C46.2546,4.4406 46.3226,4.5736 46.2556,4.7706 L45.3136,7.6066 C45.1856,7.9926 45.1826,8.3336 45.3046,8.6316 C45.4266,8.9296 45.6686,9.1396 46.0306,9.2596 C46.4846,9.4106 46.8926,9.3766 47.2546,9.1596 C47.6176,8.9416 47.8806,8.5826 48.0466,8.0816 L48.8606,5.6356 C48.9256,5.4386 49.0566,5.3716 49.2506,5.4366 C49.4486,5.5016 49.5146,5.6336 49.4496,5.8306 L48.0166,10.1406 Z" id="Fill-50"></path>
            <path d="M53.4375,9.6885 C53.6465,9.2765 53.6955,8.8785 53.5835,8.4955 C53.4715,8.1115 53.2285,7.8245 52.8545,7.6335 C52.4455,7.4255 52.0225,7.4255 51.5865,7.6325 C51.1515,7.8405 50.7915,8.2245 50.5055,8.7845 C50.2105,9.3655 50.1085,9.8755 50.1965,10.3145 C50.2855,10.7535 50.5485,11.0845 50.9875,11.3075 C51.3615,11.4985 51.7385,11.5225 52.1175,11.3805 C52.4955,11.2395 52.7895,10.9635 52.9975,10.5545 L53.4375,9.6885 Z M52.7375,12.4325 C52.6445,12.6165 52.5075,12.6615 52.3285,12.5705 C52.1395,12.4735 52.0915,12.3345 52.1845,12.1525 L52.3625,11.8035 C52.1225,11.9525 51.8555,12.0275 51.5625,12.0305 C51.2685,12.0325 50.9885,11.9655 50.7215,11.8305 C50.1035,11.5155 49.7285,11.0655 49.5945,10.4795 C49.4615,9.8935 49.5825,9.2345 49.9535,8.5035 C50.3175,7.7875 50.7895,7.2995 51.3675,7.0425 C51.9455,6.7845 52.5305,6.8065 53.1225,7.1075 C53.3985,7.2475 53.6185,7.4345 53.7815,7.6695 C53.9455,7.9045 54.0385,8.1675 54.0615,8.4605 L55.3225,5.9795 C55.4125,5.8025 55.5515,5.7615 55.7405,5.8585 C55.9195,5.9495 55.9645,6.0845 55.8755,6.2605 L52.7375,12.4325 Z" id="Fill-52"></path>
            <path d="M53.8789,13.6387 C53.7619,13.5627 53.6889,13.4597 53.6599,13.3287 C53.6319,13.1987 53.6529,13.0777 53.7239,12.9687 C53.7959,12.8577 53.8979,12.7857 54.0289,12.7567 C54.1599,12.7267 54.2849,12.7497 54.4019,12.8267 C54.5179,12.8997 54.5889,13.0017 54.6169,13.1327 C54.6459,13.2627 54.6229,13.3857 54.5489,13.5007 C54.4799,13.6077 54.3789,13.6747 54.2459,13.7037 C54.1129,13.7327 53.9909,13.7107 53.8789,13.6387" id="Fill-54"></path>
            <path d="M60.8779,13.2354 C60.8269,13.2994 60.7599,13.3384 60.6759,13.3494 C60.5919,13.3624 60.5179,13.3434 60.4529,13.2944 C60.4069,13.2564 60.3629,13.1654 60.3219,13.0174 C60.2499,12.7614 60.1629,12.5614 60.0629,12.4164 C59.9609,12.2704 59.8379,12.1394 59.6909,12.0254 C59.2999,11.7174 58.8679,11.6154 58.3979,11.7174 C57.9269,11.8194 57.4959,12.1194 57.1069,12.6164 C56.7159,13.1124 56.5239,13.5984 56.5289,14.0754 C56.5339,14.5504 56.7329,14.9424 57.1249,15.2504 C57.4419,15.4994 57.8309,15.6264 58.2909,15.6314 C58.4459,15.6324 58.5479,15.6534 58.5969,15.6914 C58.6629,15.7434 58.6969,15.8124 58.6969,15.8994 C58.6969,15.9864 58.6739,16.0594 58.6279,16.1184 C58.5309,16.2414 58.2789,16.2694 57.8729,16.2034 C57.4659,16.1354 57.0909,15.9674 56.7479,15.6984 C56.2179,15.2824 55.9409,14.7574 55.9159,14.1244 C55.8919,13.4914 56.1259,12.8604 56.6179,12.2334 C57.1099,11.6054 57.6779,11.2354 58.3179,11.1224 C58.9599,11.0084 59.5439,11.1594 60.0719,11.5734 C60.4329,11.8564 60.6819,12.1734 60.8179,12.5244 C60.9539,12.8754 60.9739,13.1124 60.8779,13.2354" id="Fill-56"></path>
            <path d="M63.5029,15.4961 C63.1869,15.1681 62.7979,15.0121 62.3369,15.0261 C61.8759,15.0411 61.3979,15.2881 60.9009,15.7671 C60.4089,16.2421 60.1509,16.7161 60.1279,17.1881 C60.1049,17.6611 60.2409,18.0511 60.5369,18.3571 C60.8349,18.6671 61.2219,18.8181 61.6959,18.8131 C62.1699,18.8081 62.6529,18.5681 63.1459,18.0941 C63.6329,17.6231 63.8959,17.1571 63.9359,16.6971 C63.9749,16.2361 63.8299,15.8361 63.5029,15.4961 M60.1149,18.7651 C59.6609,18.2941 59.4609,17.7431 59.5149,17.1111 C59.5679,16.4801 59.8869,15.8841 60.4709,15.3211 C61.0769,14.7351 61.6909,14.4331 62.3139,14.4111 C62.9359,14.3901 63.4739,14.6151 63.9279,15.0861 C64.3869,15.5611 64.5919,16.1111 64.5439,16.7371 C64.4959,17.3621 64.1739,17.9631 63.5759,18.5401 C62.9949,19.1001 62.3869,19.3961 61.7519,19.4281 C61.1169,19.4591 60.5719,19.2371 60.1149,18.7651" id="Fill-58"></path>
            <path d="M66.417,26.5674 C66.245,26.6804 66.104,26.6524 65.993,26.4834 C65.877,26.3064 65.905,26.1624 66.076,26.0484 L68.661,24.3534 C68.981,24.1434 69.177,23.8884 69.246,23.5894 C69.315,23.2924 69.248,22.9874 69.044,22.6774 C68.824,22.3424 68.529,22.1524 68.158,22.1054 C67.787,22.0584 67.377,22.1824 66.928,22.4774 L64.694,23.9424 C64.522,24.0544 64.382,24.0274 64.271,23.8584 C64.155,23.6814 64.183,23.5364 64.354,23.4234 L66.938,21.7284 C67.266,21.5144 67.464,21.2624 67.536,20.9744 C67.607,20.6864 67.543,20.3894 67.344,20.0854 C67.109,19.7284 66.802,19.5304 66.422,19.4894 C66.041,19.4494 65.636,19.5704 65.205,19.8524 L62.973,21.3174 C62.801,21.4294 62.658,21.3994 62.544,21.2244 C62.431,21.0534 62.461,20.9114 62.632,20.7984 L66.429,18.3074 C66.604,18.1934 66.746,18.2224 66.859,18.3934 C66.974,18.5684 66.943,18.7124 66.769,18.8264 L66.418,19.0564 C66.702,19.0464 66.974,19.1044 67.232,19.2354 C67.491,19.3654 67.702,19.5534 67.864,19.8014 C68.061,20.1004 68.166,20.3994 68.181,20.6984 C68.195,20.9964 68.118,21.2934 67.951,21.5894 C68.272,21.5574 68.575,21.6124 68.857,21.7524 C69.14,21.8914 69.374,22.1024 69.56,22.3854 C69.867,22.8544 69.977,23.3024 69.891,23.7314 C69.804,24.1604 69.533,24.5234 69.078,24.8214 L66.417,26.5674 Z" id="Fill-60"></path>
        </g>
        <g id="Line" transform="translate(0.000000, 35.000000)" stroke="#FFAA00" stroke-width="0.25">
            <path d="M0,0 C1.955,0 3.57,0.668 5.44,1.441 C7.806,2.42 10.486,3.529 14.538,3.529 C19.23,3.529 21.613,2.865 23.918,2.223 C26.26,1.57 28.472,0.953 33.021,0.953 C37.572,0.953 39.785,1.57 42.127,2.223 C43.237,2.532 44.372,2.845 45.769,3.088" id="Stroke-62"></path>
            <path d="M94.2305,3.0859 C95.6225,2.8439 96.7535,2.5309 97.8615,2.2229 C100.2045,1.5699 102.4165,0.9529 106.9675,0.9529 C111.5185,0.9529 113.7315,1.5699 116.0745,2.2229 C118.3795,2.8649 120.7635,3.5289 125.4575,3.5289 C129.5095,3.5289 132.1915,2.4209 134.5575,1.4419 C136.4285,0.6689 138.0435,0.0009 140.0005,-0.0001" id="Stroke-64"></path>
            <path d="M0,1.7646 C1.955,1.7646 3.57,2.4326 5.44,3.2056 C7.806,4.1856 10.486,5.2936 14.538,5.2936 C19.23,5.2936 21.613,4.6296 23.918,3.9876 C26.26,3.3346 28.472,2.7176 33.021,2.7176 C37.572,2.7176 39.785,3.3346 42.127,3.9876 C43.036,4.2416 43.964,4.4956 45.033,4.7136" id="Stroke-67"></path>
            <path d="M94.9658,4.7119 C96.0308,4.4939 96.9548,4.2399 97.8618,3.9869 C100.2038,3.3349 102.4158,2.7179 106.9678,2.7179 C111.5188,2.7179 113.7318,3.3349 116.0738,3.9869 C118.3798,4.6299 120.7638,5.2939 125.4568,5.2939 C129.5098,5.2939 132.1918,4.1859 134.5578,3.2069 C136.4288,2.4339 138.0438,1.7659 139.9998,1.7649" id="Stroke-69"></path>
            <path d="M0,3.5293 C1.955,3.5293 3.57,4.1973 5.44,4.9703 C7.806,5.9503 10.486,7.0583 14.538,7.0583 C19.23,7.0583 21.613,6.3943 23.918,5.7523 C26.26,5.0993 28.472,4.4823 33.021,4.4823 C37.572,4.4823 39.785,5.0993 42.127,5.7523 C42.858,5.9563 43.607,6.1603 44.426,6.3453" id="Stroke-71"></path>
            <path d="M95.5742,6.3437 C96.3882,6.1577 97.1332,5.9547 97.8612,5.7517 C100.2042,5.0997 102.4162,4.4827 106.9682,4.4827 C111.5182,4.4827 113.7312,5.0997 116.0742,5.7517 C118.3802,6.3947 120.7632,7.0587 125.4572,7.0587 C129.5102,7.0587 132.1912,5.9497 134.5572,4.9717 C136.4282,4.1977 138.0442,3.5307 140.0002,3.5297" id="Stroke-73"></path>
            <path d="M0,5.2939 C1.955,5.2939 3.57,5.9619 5.44,6.7359 C7.806,7.7149 10.486,8.8229 14.538,8.8229 C19.23,8.8229 21.613,8.1589 23.918,7.5169 C26.26,6.8639 28.472,6.2469 33.021,6.2469 C37.572,6.2469 39.785,6.8639 42.127,7.5169 C42.709,7.6789 43.296,7.8419 43.923,7.9959" id="Stroke-76"></path>
            <path d="M96.0762,7.9932 C96.7002,7.8412 97.2832,7.6782 97.8612,7.5162 C100.2042,6.8642 102.4162,6.2472 106.9682,6.2472 C111.5182,6.2472 113.7312,6.8642 116.0742,7.5162 C118.3802,8.1592 120.7632,8.8232 125.4572,8.8232 C129.5102,8.8232 132.1912,7.7152 134.5572,6.7362 C136.4292,5.9632 138.0442,5.2952 140.0002,5.2952" id="Stroke-78"></path>
            <path d="M0,7.0586 C1.955,7.0586 3.57,7.7266 5.44,8.5006 C7.806,9.4796 10.486,10.5876 14.538,10.5876 C19.23,10.5876 21.613,9.9236 23.918,9.2816 C26.26,8.6286 28.472,8.0116 33.021,8.0116 C37.572,8.0116 39.785,8.6286 42.127,9.2816 C42.584,9.4096 43.05,9.5366 43.53,9.6596" id="Stroke-81"></path>
            <path d="M96.4688,9.6572 C96.9458,9.5342 97.4078,9.4082 97.8618,9.2812 C100.2038,8.6292 102.4158,8.0112 106.9678,8.0112 C111.5188,8.0112 113.7318,8.6292 116.0738,9.2812 C118.3798,9.9242 120.7638,10.5882 125.4568,10.5882 C129.5098,10.5882 132.1918,9.4792 134.5578,8.5012 C136.4288,7.7272 138.0438,7.0592 139.9998,7.0592" id="Stroke-83"></path>
            <path d="M0,8.8232 C1.955,8.8232 3.57,9.4922 5.44,10.2652 C7.806,11.2442 10.486,12.3522 14.538,12.3522 C19.23,12.3522 21.613,11.6882 23.918,11.0462 C26.26,10.3932 28.472,9.7772 33.021,9.7772 C37.572,9.7772 39.785,10.3932 42.127,11.0462 C42.496,11.1492 42.871,11.2512 43.252,11.3522" id="Stroke-85"></path>
            <path d="M96.748,11.3496 C97.125,11.2486 97.496,11.1486 97.861,11.0456 C100.204,10.3936 102.416,9.7776 106.968,9.7776 C111.519,9.7776 113.731,10.3936 116.074,11.0456 C118.38,11.6886 120.764,12.3526 125.457,12.3526 C129.51,12.3526 132.191,11.2446 134.558,10.2656 C136.429,9.4926 138.044,8.8246 140,8.8246" id="Stroke-87"></path>
            <path d="M0,10.5879 C1.955,10.5879 3.57,11.2569 5.44,12.0299 C7.806,13.0089 10.486,14.1169 14.538,14.1169 C19.23,14.1169 21.613,13.4529 23.918,12.8109 C26.26,12.1579 28.472,11.5419 33.021,11.5419 C37.572,11.5419 39.785,12.1579 42.127,12.8109 C42.439,12.8989 42.756,12.9849 43.076,13.0709" id="Stroke-89"></path>
            <path d="M96.9238,13.0684 C97.2398,12.9834 97.5528,12.8974 97.8608,12.8104 C100.2038,12.1584 102.4158,11.5424 106.9678,11.5424 C111.5188,11.5424 113.7318,12.1584 116.0738,12.8104 C118.3798,13.4534 120.7638,14.1174 125.4568,14.1174 C129.5098,14.1174 132.1918,13.0084 134.5578,12.0304 C136.4288,11.2564 138.0438,10.5894 139.9998,10.5894" id="Stroke-91"></path>
            <path d="M0,12.3525 C1.955,12.3525 3.57,13.0215 5.44,13.7945 C7.806,14.7735 10.486,15.8825 14.538,15.8825 C19.23,15.8825 21.613,15.2175 23.918,14.5765 C26.26,13.9225 28.472,13.3065 33.021,13.3065 C37.572,13.3065 39.785,13.9225 42.127,14.5765 C42.417,14.6565 42.708,14.7375 43.005,14.8175" id="Stroke-93"></path>
            <path d="M96.9951,14.8145 C97.2881,14.7355 97.5751,14.6555 97.8611,14.5765 C100.2041,13.9225 102.4161,13.3065 106.9681,13.3065 C111.5181,13.3065 113.7311,13.9225 116.0741,14.5765 C118.3801,15.2175 120.7641,15.8825 125.4571,15.8825 C129.5101,15.8825 132.1911,14.7735 134.5581,13.7945 C136.4291,13.0215 138.0441,12.3535 140.0001,12.3535" id="Stroke-95"></path>
            <path d="M0,14.1172 C1.955,14.1172 3.57,14.7862 5.44,15.5592 C7.806,16.5382 10.486,17.6472 14.538,17.6472 C19.23,17.6472 21.613,16.9822 23.918,16.3412 C26.26,15.6872 28.472,15.0712 33.021,15.0712 C37.572,15.0712 39.785,15.6872 42.127,16.3412 C42.432,16.4262 42.738,16.5102 43.051,16.5942" id="Stroke-98"></path>
            <path d="M96.9492,16.5918 C97.2582,16.5078 97.5602,16.4238 97.8612,16.3408 C100.2042,15.6878 102.4162,15.0708 106.9682,15.0708 C111.5182,15.0708 113.7312,15.6878 116.0742,16.3408 C118.3802,16.9828 120.7632,17.6478 125.4572,17.6478 C129.5102,17.6478 132.1912,16.5378 134.5572,15.5598 C136.4282,14.7858 138.0442,14.1178 140.0002,14.1178" id="Stroke-100"></path>
            <path d="M0,15.8828 C1.955,15.8828 3.57,16.5508 5.44,17.3238 C7.806,18.3028 10.486,19.4118 14.538,19.4118 C19.23,19.4118 21.613,18.7478 23.918,18.1058 C26.26,17.4518 28.472,16.8358 33.021,16.8358 C37.572,16.8358 39.785,17.4518 42.127,18.1058 C42.486,18.2048 42.851,18.3048 43.221,18.4038" id="Stroke-103"></path>
            <path d="M96.7793,18.4004 C97.1463,18.3024 97.5073,18.2044 97.8613,18.1054 C100.2043,17.4524 102.4163,16.8364 106.9673,16.8364 C111.5183,16.8364 113.7313,17.4524 116.0743,18.1054 C118.3803,18.7484 120.7633,19.4124 125.4573,19.4124 C129.5093,19.4124 132.1913,18.3024 134.5573,17.3244 C136.4283,16.5504 138.0443,15.8824 140.0003,15.8824" id="Stroke-105"></path>
            <path d="M96.4873,20.2402 C96.9573,20.1192 97.4143,19.9942 97.8613,19.8702 C100.2043,19.2172 102.4163,18.6002 106.9673,18.6002 C111.5183,18.6002 113.7313,19.2172 116.0743,19.8702 C118.3803,20.5122 120.7633,21.1772 125.4573,21.1772 C129.5093,21.1772 132.1913,20.0672 134.5573,19.0892 C136.4283,18.3152 138.0443,17.6472 140.0003,17.6472" id="Stroke-108"></path>
            <path d="M0,17.6475 C1.955,17.6475 3.57,18.3155 5.44,19.0885 C7.806,20.0675 10.486,21.1765 14.538,21.1765 C19.23,21.1765 21.613,20.5125 23.918,19.8705 C26.26,19.2165 28.472,18.6005 33.021,18.6005 C37.572,18.6005 39.785,19.2165 42.127,19.8705 C42.579,19.9965 43.039,20.1215 43.514,20.2435" id="Stroke-111"></path>
            <path d="M96.0449,22.1182 C96.6799,21.9632 97.2739,21.7992 97.8609,21.6352 C100.2039,20.9812 102.4159,20.3652 106.9679,20.3652 C111.5189,20.3652 113.7319,20.9812 116.0739,21.6352 C118.3799,22.2772 120.7639,22.9412 125.4569,22.9412 C129.5099,22.9412 132.1909,21.8322 134.5579,20.8532 C136.4289,20.0802 138.0439,19.4122 139.9999,19.4122" id="Stroke-113"></path>
            <path d="M0,19.4121 C1.955,19.4121 3.57,20.0801 5.44,20.8531 C7.806,21.8321 10.486,22.9411 14.538,22.9411 C19.23,22.9411 21.613,22.2771 23.918,21.6351 C26.26,20.9811 28.472,20.3651 33.021,20.3651 C37.572,20.3651 39.785,20.9811 42.127,21.6351 C42.719,21.8001 43.316,21.9651 43.956,22.1211" id="Stroke-115"></path>
            <path d="M0,21.1768 C1.955,21.1768 3.57,21.8448 5.44,22.6178 C7.806,23.5968 10.486,24.7058 14.538,24.7058 C19.23,24.7058 21.613,24.0418 23.918,23.3998 C26.26,22.7458 28.472,22.1298 33.021,22.1298 C37.572,22.1298 39.785,22.7458 42.127,23.3998 C42.896,23.6138 43.682,23.8278 44.55,24.0218" id="Stroke-117"></path>
            <path d="M95.4512,24.0186 C96.3142,23.8266 97.0972,23.6126 97.8612,23.3996 C100.2042,22.7466 102.4162,22.1296 106.9682,22.1296 C111.5182,22.1296 113.7312,22.7466 116.0742,23.3996 C118.3802,24.0416 120.7632,24.7056 125.4572,24.7056 C129.5102,24.7056 132.1912,23.5966 134.5572,22.6186 C136.4292,21.8446 138.0442,21.1766 140.0002,21.1766" id="Stroke-119"></path>
            <path d="M0,22.9414 C1.955,22.9414 3.57,23.6094 5.44,24.3824 C7.806,25.3614 10.486,26.4704 14.538,26.4704 C19.23,26.4704 21.613,25.8064 23.918,25.1644 C26.26,24.5104 28.472,23.8944 33.021,23.8944 C37.572,23.8944 39.785,24.5104 42.127,25.1644 C43.114,25.4394 44.127,25.7144 45.318,25.9444" id="Stroke-122"></path>
            <path d="M94.6826,25.9414 C95.8686,25.7124 96.8776,25.4384 97.8616,25.1644 C100.2036,24.5104 102.4156,23.8944 106.9676,23.8944 C111.5186,23.8944 113.7316,24.5104 116.0746,25.1644 C118.3796,25.8064 120.7636,26.4704 125.4566,26.4704 C129.5096,26.4704 132.1916,25.3614 134.5576,24.3824 C136.4286,23.6094 138.0436,22.9414 139.9996,22.9414" id="Stroke-124"></path>
            <path d="M0,24.7061 C1.955,24.7061 3.57,25.3741 5.44,26.1471 C7.806,27.1261 10.486,28.2351 14.538,28.2351 C19.23,28.2351 21.613,27.5711 23.918,26.9291 C26.26,26.2751 28.472,25.6591 33.021,25.6591 C37.572,25.6591 39.785,26.2751 42.127,26.9291 C43.363,27.2731 44.635,27.6201 46.26,27.8721" id="Stroke-126"></path>
            <path d="M93.7412,27.8701 C95.3602,27.6191 96.6292,27.2721 97.8612,26.9291 C100.2042,26.2751 102.4162,25.6591 106.9682,25.6591 C111.5182,25.6591 113.7312,26.2751 116.0742,26.9291 C118.3802,27.5711 120.7632,28.2351 125.4572,28.2351 C129.5102,28.2351 132.1912,27.1261 134.5572,26.1481 C136.4292,25.3741 138.0442,24.7061 140.0002,24.7061" id="Stroke-128"></path>
            <path d="M0,26.4707 C1.955,26.4707 3.57,27.1387 5.44,27.9117 C7.806,28.8907 10.486,29.9997 14.538,29.9997 C19.23,29.9997 21.613,29.3357 23.918,28.6937 C26.26,28.0407 28.472,27.4237 33.021,27.4237 C37.572,27.4237 39.785,28.0407 42.127,28.6937 C43.641,29.1157 45.202,29.5427 47.414,29.7887" id="Stroke-131"></path>
            <path d="M92.5859,29.7881 C94.7929,29.5411 96.3509,29.1141 97.8609,28.6931 C100.2039,28.0411 102.4159,27.4241 106.9679,27.4241 C111.5189,27.4241 113.7319,28.0411 116.0739,28.6931 C118.3799,29.3361 120.7639,30.0001 125.4569,30.0001 C129.5099,30.0001 132.1909,28.8911 134.5579,27.9131 C136.4289,27.1391 138.0439,26.4711 139.9999,26.4711" id="Stroke-133"></path>
        </g>
        <text id="有效" font-family="FZY4JW--GB1-0, FZCuYuan-M03S" font-size="21" font-weight="normal" fill="#FF8800">
            <tspan x="49" y="62">有效</tspan>
        </text>
        <path d="M74.5,32.5 L74.5,40.5 L74.2462113,40.5 C74.0826876,40.5 73.9197812,40.5200547 73.76114,40.559715 L72.59715,40.8507125 C72.200547,40.9498633 71.7932809,41 71.3844719,41 L66.8423292,41 C65.4657263,41 64.265777,40.0631079 63.9319017,38.7276069 L63.0895725,35.35829 C63.030082,35.1203282 63,34.8759685 63,34.6306831 L63,33.5 C63,32.6715729 63.6715729,32 64.5,32 L68.9336089,32 C69.2097513,32 69.4336089,31.7761424 69.4336089,31.5 C69.4336089,31.4792675 69.4323194,31.458555 69.4297478,31.4379826 L69.1240347,28.9922779 C69.063562,28.5084956 69.4067221,28.0672897 69.8905043,28.006817 C69.9268263,28.0022767 69.9633954,28 70,28 L70.4115967,28 C70.7747638,28 71.1093844,28.1968919 71.2857539,28.5143571 L73.2142461,31.9856429 C73.3906156,32.3031081 73.7252362,32.5 74.0884033,32.5 L74.5,32.5 Z M75,32.5 L76,32.5 C76.5522847,32.5 77,32.9477153 77,33.5 L77,39.5 C77,40.0522847 76.5522847,40.5 76,40.5 L75,40.5 L75,32.5 Z" id="Rectangle-8" fill="#FF8800"></path>
    </g>
</svg>