<?xml version="1.0" encoding="UTF-8"?>
<svg width="64px" height="64px" viewBox="0 0 64 64" version="1.1" xmlns="http://www.w3.org/2000/svg" xmlns:xlink="http://www.w3.org/1999/xlink">
    <!-- Generator: Sketch 52.3 (67297) - http://www.bohemiancoding.com/sketch -->
    <title>64/Logo</title>
    <desc>Created with Sketch.</desc>
    <defs>
        <radialGradient cx="30.2218624%" cy="54.573227%" fx="30.2218624%" fy="54.573227%" r="59.6246652%" gradientTransform="translate(0.302219,0.545732),scale(0.967742,1.000000),rotate(90.000000),translate(-0.302219,-0.545732)" id="radialGradient-1">
            <stop stop-color="#FFAA00" offset="0%"></stop>
            <stop stop-color="#FF8800" offset="100%"></stop>
        </radialGradient>
    </defs>
    <g id="64/Logo" stroke="none" stroke-width="1" fill="none" fill-rule="evenodd">
        <path d="M31.1615023,25.8751043 C21.4816,24.893411 5.9993428,18.9968783 2,0 C12.5785852,9.65064964 24.2105207,12.752247 33.9148922,13.7703677 C50.9919493,15.5619833 55.535811,30.1675108 55.2635516,36.4824989 C54.9912921,42.797487 53.2557334,48.7760736 46.4155289,54.3832865 C53.6723585,40.7120213 44.1431216,27.1916432 31.1615023,25.8751043 Z M52.7995211,19.9653866 C50.4841145,17.1314184 47.5814015,14.7756276 44.2720503,13.0743693 C51.4404723,12.2347075 57.9824188,10.0038073 64,6.68464273 C61.4828442,12.0481249 57.7162279,16.6427125 52.7995211,19.9653866 Z M17.8870952,29.1072482 C17.9440711,29.0650681 18.0010471,29.023715 18.0607799,28.9841999 C18.7647083,28.5081801 19.6129146,28.2306551 20.5263674,28.2306551 C21.8202724,28.2306551 22.9837761,28.7875431 23.7905369,29.6752556 C24.503655,30.459126 24.9374072,31.4992935 24.9374072,32.641649 C24.9374072,35.0778961 22.962456,37.0527348 20.5263674,37.0527348 C18.8492533,37.0527348 17.3917722,36.1171446 16.6455713,34.739628 C16.3073916,34.115748 16.1153275,33.4007075 16.1153275,32.641649 C16.1153275,31.4240309 16.6088126,30.3213743 17.4073946,29.5227087 C17.4322067,29.4978969 17.4570188,29.474004 17.4827499,29.4491921 C17.5057241,29.4271372 17.5286982,29.4060012 17.5515805,29.3848651 C17.6582725,29.2865367 17.7703864,29.1937221 17.8870952,29.1072482 Z M13.3112218,22.2841064 C14.4459909,23.1250001 16.5142003,24.4192063 18.0495681,25.1387857 C14.1323577,26.9914216 12.0327974,31.1626058 12.0327974,34.7058908 C12.0327974,39.2862762 15.1979514,45.053347 21.9930451,45.5161947 C27.6275531,45.8999891 32.9923186,41.1420532 32.9923186,34.7058908 C32.9923186,32.6244133 32.3726047,30.599393 31.1407111,28.7701037 C37.6190022,29.3980916 45.2620268,35.4862115 45.2620268,45.053347 C45.2620268,54.6204826 38.5640147,60.2688867 30.9952353,59.990142 C16.5778417,59.459175 8.20384225,46.613155 8.67425836,36.1997095 C8.98935234,29.2245785 10.9293625,25.659073 13.3112218,22.2841064 Z" id="Logo" fill="url(#radialGradient-1)"></path>
    </g>
</svg>