<?xml version="1.0" encoding="UTF-8"?>
<svg width="134px" height="41px" viewBox="0 0 134 41" version="1.1" xmlns="http://www.w3.org/2000/svg" xmlns:xlink="http://www.w3.org/1999/xlink">
    <!-- Generator: Sketch 52.3 (67297) - http://www.bohemiancoding.com/sketch -->
    <title>Logo_Antelope</title>
    <desc>Created with Sketch.</desc>
    <g id="0_Login" stroke="none" stroke-width="1" fill="none" fill-rule="evenodd">
        <g id="1_Login" transform="translate(-808.000000, -929.000000)" fill="#A7AEBC">
            <g id="Down" transform="translate(808.000000, 929.000000)">
                <g id="Logo">
                    <path d="M65.5656175,19.4472342 C65.5656175,19.4472342 70.2881869,21.6415127 71.5053547,27.1868924 C71.7754861,28.4719051 71.8527416,29.9307785 71.6314861,31.5873861 C71.6314861,31.5873861 71.4848584,33.0255 70.5977343,34.8253481 C70.5824934,34.8497405 70.5714569,34.8746519 70.5315153,34.9566519 C69.503019,36.9791456 67.5390482,39.4157911 63.8213255,40.7781329 C63.7509022,40.8040823 63.6815299,40.8284747 63.554873,40.8736266 L15.170873,40.8736266 C6.79154453,40.8736266 -0.000105109489,34.1657152 -0.000105109489,25.8972089 C-0.000105109489,17.6229937 6.79154453,10.9181962 15.170873,10.9181962 C17.6798365,10.9181962 20.0474277,11.5212595 22.1322745,12.5867405 C22.1322745,12.5867405 26.5797081,0.497968354 39.4600993,0.497968354 C42.0744961,0.497968354 47.1580567,0.657890663 52.9966248,6.0433481 C54.7498511,7.66051266 55.7116029,9.16920886 57.1605372,11.9982089 C58.2132088,11.8923354 65.2371504,11.4766266 65.5656175,19.4472342 Z M62.7609938,27.1863734 L59.9914859,21.790981 L62.7609938,20.5723987 L41.8020328,20.5723987 L41.7978453,20.5646139 L35.5103141,14.9143987 L35.5103141,14.9123228 L35.4433141,14.8521203 L35.4412203,14.8526392 L35.4124313,14.8261709 L52.7847984,6.04282911 L52.7382125,5.99975316 L27.6749781,14.8920823 L28.6401969,16.2793354 L32.8036188,16.6748038 L37.2209078,24.0340443 L31.6939313,28.2092975 L41.6146422,35.935462 L43.1514547,36.3978797 L42.2830719,34.1657152 L41.8020328,34.3727911 L40.9676734,34.2892342 L36.0819078,29.4050443 L42.0862594,28.2964873 L52.1786578,30.0221203 L55.7579234,29.5379051 L57.28165,35.1377785 L50.7538609,39.5086899 L49.4860953,40.8731076 L51.9792281,40.8731076 L52.3288844,39.6747658 L59.6193219,36.1181456 L60.3620797,34.9504241 L62.7609938,27.1863734 Z M119.741562,25.6613291 L118.202133,30.4998481 C118.146648,30.6659241 118.122047,30.8179873 118.122047,30.956557 C118.122047,31.2440759 118.264945,31.4625696 118.545508,31.5902405 C118.712484,31.6686076 118.876844,31.7049367 119.04382,31.7049367 L119.619078,31.7049367 L130.034961,31.7049367 C130.541125,31.7049367 130.859898,31.6883291 130.981336,31.652519 C131.312148,31.5476835 131.479648,31.3348987 131.479648,31.0136456 C131.479648,30.8838987 131.459758,30.7681646 131.430445,30.6596962 L131.042578,29.3502911 C130.741602,28.9589747 130.28307,28.8437595 130.029203,28.8141772 L128.781852,28.8141772 L128.28982,27.3848861 L130.459992,27.3848861 L132.295164,27.3848861 L132.413461,27.3848861 L132.413461,27.8031899 L133.157266,30.4386076 C133.27818,30.8408228 133.330523,31.2077468 133.330523,31.529519 C133.330523,32.0651139 133.017508,32.5015823 132.385719,32.8384051 C131.9565,33.0761013 131.28807,33.1897595 130.394039,33.1897595 L118.961117,33.1897595 C118.232492,33.1897595 117.619023,33.044443 117.122281,32.759519 C116.522945,32.4128354 116.220398,31.9312152 116.220398,31.3167342 C116.220398,31.0987595 116.269602,30.8408228 116.368008,30.543962 L117.913719,25.6613291 L115.891156,25.6613291 L115.891156,24.2377468 L133.597477,24.2377468 L133.597477,25.6613291 L119.741562,25.6613291 Z M116.232961,21.401481 L116.232961,20.0022911 L133.295453,20.0022911 L133.295453,21.401481 L116.232961,21.401481 Z M112.353137,20.490243 C112.046403,21.3616228 110.724723,21.7373696 110.724723,21.7373696 L114.200872,21.7373696 L114.200872,23.1791165 L106.514716,23.1791165 L106.514716,25.5368759 L113.837606,25.5368759 L113.837606,26.9843316 L106.514716,26.9843316 L106.514716,29.471838 L114.200872,29.471838 L114.200872,30.9141038 L106.514716,30.9141038 L106.514716,33.1898633 L104.731364,33.1898633 L104.731364,30.9141038 L96.7384734,30.9141038 L96.7384734,29.471838 L104.731364,29.471838 L104.731364,26.9843316 L97.0771375,26.9843316 L97.0771375,25.5368759 L104.731364,25.5368759 L104.731364,23.1791165 L96.7384734,23.1791165 L96.7384734,21.7373696 L100.495708,21.7373696 C100.495708,21.7373696 99.175075,21.3616228 98.8730516,20.490243 L98.6966531,19.9115722 L100.667395,19.9115722 L100.766848,20.2224456 C100.941677,20.5499266 101.450981,21.025319 102.924458,21.025319 L102.924458,21.7373696 L108.301731,21.7373696 L108.301731,21.025319 C109.78777,21.025319 110.291841,20.5379899 110.468239,20.2105089 L110.554083,19.9250658 L110.554083,19.917281 L110.561934,19.9115722 L112.532677,19.9115722 L112.353137,20.4964709 L112.353137,20.490243 Z M82.0806531,21.3249823 L82.4931219,21.3249823 L82.6726609,21.3249823 L82.6726609,22.7734759 L80.2036062,22.7734759 L80.2036062,24.5857797 L82.5281922,24.5857797 L82.5281922,26.0280456 L80.2036062,26.0280456 L80.2036062,27.9939696 L82.6726609,27.9939696 L82.6726609,29.4544 L80.1423641,29.4544 C80.0120281,30.2147165 79.7387938,30.8774633 79.3189969,31.4322608 C78.8479031,32.077362 77.7806141,32.8314506 75.8946688,33.2710329 L75.8946688,31.8017797 C76.3233641,31.668919 77.1399266,31.4021595 77.5476844,30.9931975 C77.9036219,30.6350962 78.1810438,30.1171468 78.3679109,29.4544 L75.83395,29.4544 L75.83395,27.9939696 L78.4736453,27.9939696 L78.4736453,26.0280456 L76.3730906,26.0280456 L76.3730906,24.5857797 L78.4736453,24.5857797 L78.4736453,22.7734759 L75.83395,22.7734759 L75.83395,21.3249823 L75.9067078,21.3249823 L76.4463719,21.3249823 L76.7478719,21.3249823 C76.7478719,21.3249823 76.3814656,21.0561468 76.2453719,20.4904506 L76.1150359,19.9252734 L77.5523953,19.9252734 L77.6858719,20.4904506 L77.6947703,20.5013494 L77.6947703,20.5075772 C77.7193719,20.6170835 77.8648875,21.0317544 78.4495672,21.0317544 L78.4495672,21.3249823 L80.147075,21.3249823 L80.147075,21.0317544 C80.8107938,21.0317544 80.9060594,20.4904506 80.9060594,20.4904506 L80.9107703,20.5013494 L81.0808875,19.9252734 L82.4931219,19.9252734 L82.2403016,20.7753747 C82.0806531,21.1412608 81.8492937,21.3249823 81.8492937,21.3249823 L82.0806531,21.3249823 Z M94.3446367,22.8256861 L94.3446367,22.8339899 L95.0989102,22.8339899 L95.0989102,24.1973696 L94.3446367,24.1973696 L94.1483477,24.1973696 L94.0886758,24.1973696 C93.2098242,24.1973696 92.5659961,23.9949646 92.1530039,23.606762 C92.022668,23.485319 91.7300664,23.0338 91.2678711,22.2677747 C91.0229023,21.8468759 90.8632539,21.6096987 90.7910195,21.556243 C90.6318945,21.4389519 90.423043,21.3860152 90.1597539,21.3860152 L87.6488242,21.3860152 C87.4049023,21.3860152 87.2012852,21.4389519 87.0536758,21.5474203 C86.9432305,21.641357 86.7349023,21.9501544 86.4375898,22.4976861 C85.9942383,23.3015975 85.5676367,23.7951544 85.1781992,23.9586354 C84.8055117,24.1122557 84.279457,24.1895848 83.5848555,24.1973696 L83.5848555,22.8256861 C83.940793,22.8101165 84.1936133,22.7608127 84.3564023,22.6684329 C84.5328008,22.5713823 84.756832,22.2740025 85.0264023,21.7861544 C85.4346836,21.0440025 85.7073945,20.5924835 85.8743711,20.4347114 C86.2009961,20.0952937 86.641207,19.9250658 87.2086133,19.9250658 L90.5460508,19.9250658 C91.1574258,19.9250658 91.6395117,20.0994456 91.9708477,20.4528759 C92.1304961,20.6293316 92.3984961,21.0626861 92.7821758,21.761762 C93.0182461,22.1862937 93.2145352,22.4618759 93.3694727,22.5828 C93.5730898,22.7410911 93.8970977,22.8256861 94.3446367,22.8256861 Z M93.4889211,26.4899962 C93.9443117,26.8548443 94.180382,27.3240089 94.180382,27.8845152 L94.180382,30.7145532 C94.180382,31.3108696 93.9767648,31.7898949 93.5731945,32.1625278 C93.113093,32.5865405 92.4839211,32.7946544 91.6888195,32.7946544 L87.4170461,32.7946544 C85.8823273,32.7946544 85.3855852,31.7499329 85.2552492,31.3959835 L84.8794211,29.7347051 L86.7104055,29.7347051 L87.0045773,31.0010342 C87.1260148,31.3653633 87.677718,31.3466797 88.1765539,31.3466797 L91.530218,31.3466797 C91.7867023,31.3466797 92.0060227,31.255857 92.1771867,31.0861481 C92.3336945,30.9200722 92.4106398,30.7078063 92.4106398,30.4384519 L92.4106398,28.3111228 C92.4106398,27.9877937 92.3221789,27.7485405 92.1300773,27.5907684 C91.961007,27.4511608 91.7746633,27.3852494 91.5584836,27.3852494 L84.2183195,27.3852494 L84.2183195,25.9367557 L87.987593,25.9367557 L87.987593,24.4399962 L89.8185773,24.4399962 L89.8185773,25.9367557 L91.6516555,25.9367557 C92.4106398,25.9367557 93.0256789,26.1189203 93.4889211,26.4899962 Z M76.8712461,39.4522241 L76.5849258,40.2877937 C76.5608477,40.355781 76.5362461,40.4279203 76.512168,40.5057684 C76.4875664,40.5830975 76.4629648,40.6536797 76.4388867,40.7164772 C76.4142852,40.7792747 76.3860195,40.8316924 76.3546133,40.8726924 C76.3226836,40.9136924 76.2849961,40.9344519 76.2410273,40.9344519 C76.172457,40.9344519 76.1232539,40.9100595 76.0944648,40.8617937 C76.0646289,40.8135278 76.0750977,40.7190722 76.1232539,40.5779076 L77.6773398,36.0876291 C77.7260195,35.9371228 77.8259961,35.8623886 77.977793,35.8623886 C78.1390117,35.8623886 78.2442227,35.9371228 78.2929023,36.0876291 L79.8469883,40.5856924 C79.8611211,40.6240975 79.8731602,40.6635405 79.8831055,40.7019456 C79.8935742,40.7408696 79.8951445,40.7782367 79.890957,40.8145658 C79.8857227,40.8508949 79.8710664,40.8799582 79.8469883,40.9017557 C79.8223867,40.9235532 79.7831289,40.9344519 79.7292148,40.9344519 C79.6271445,40.9344519 79.5585742,40.8591987 79.5240273,40.7086924 L79.091668,39.4522241 L76.8712461,39.4522241 Z M78.9890742,39.1397937 L77.9851211,36.2106291 L76.981168,39.1397937 L78.9890742,39.1397937 Z M81.2903672,40.6947316 C81.2903672,40.8499089 81.2343594,40.927238 81.1218203,40.927238 C81.0092812,40.927238 80.9532734,40.8499089 80.9532734,40.6947316 L80.9532734,36.1016937 C80.9532734,35.9371747 81.0071875,35.8551747 81.1144922,35.8551747 C81.1778281,35.8551747 81.2270312,35.8743772 81.2610547,35.9133013 C81.2956016,35.9517063 81.3317188,35.9953013 81.3709766,36.0440861 L84.2074844,40.3023772 L84.2074844,36.087681 C84.2074844,36.005162 84.2184766,35.9459975 84.2404609,35.9091494 C84.2624453,35.8733392 84.3053672,35.8551747 84.3687031,35.8551747 C84.4372734,35.8551747 84.4838594,35.8717823 84.5079375,35.9055165 C84.5320156,35.9397696 84.5445781,36.0004911 84.5445781,36.087681 L84.5445781,40.6729342 C84.5445781,40.842643 84.4906641,40.927238 84.3833594,40.927238 C84.2901875,40.927238 84.20225,40.8639215 84.1195469,40.7383266 L81.2903672,36.5163646 L81.2903672,40.6947316 Z M87.3589969,36.2691709 L87.3589969,40.6945759 C87.3589969,40.7869557 87.3500984,40.8481962 87.3333484,40.8798544 C87.316075,40.9109937 87.2684422,40.9276013 87.19045,40.9276013 C87.1171687,40.9276013 87.0705828,40.9109937 87.0512156,40.8798544 C87.031325,40.8481962 87.0213797,40.7869557 87.0213797,40.6945759 L87.0213797,36.2691709 L85.6949891,36.2691709 C85.6070516,36.2691709 85.5473797,36.2572342 85.5159734,36.2328418 C85.4840437,36.2089684 85.4683406,36.1674494 85.4683406,36.1093228 C85.4683406,36.0029304 85.5437156,35.9494747 85.6949891,35.9494747 L88.6853875,35.9494747 C88.7639031,35.9494747 88.8209578,35.9650443 88.8575984,35.9967025 C88.8947625,36.0283608 88.9130828,36.0683228 88.9130828,36.1165886 C88.9130828,36.1747152 88.8884812,36.2151962 88.8392781,36.2369937 C88.7905984,36.2582722 88.7393016,36.2691709 88.6853875,36.2691709 L87.3589969,36.2691709 Z M90.121857,40.5492595 L92.0784664,40.5492595 C92.1470367,40.5492595 92.2192711,40.5466646 92.2946461,40.5419937 C92.3705445,40.5373228 92.4391148,40.5383608 92.4998336,40.5456266 C92.5610758,40.5528924 92.6113258,40.5674241 92.6500602,40.5892215 C92.689318,40.611019 92.7086852,40.6483861 92.7086852,40.7018418 C92.7086852,40.7698291 92.6903648,40.8123861 92.6542477,40.8289937 C92.617607,40.8461203 92.5574117,40.8544241 92.4741852,40.8544241 L90.0339195,40.8544241 C89.9407477,40.8544241 89.8763648,40.8404114 89.8397242,40.8108291 C89.8030836,40.7817658 89.7842398,40.7111835 89.7842398,40.6001203 L89.7842398,36.2037785 C89.7842398,36.1067278 89.8004664,36.0402975 89.8323961,36.0039684 C89.8643258,35.9676392 89.9313258,35.9494747 90.0339195,35.9494747 L92.4009039,35.9494747 C92.4794195,35.9494747 92.5375211,35.9603734 92.5767789,35.9821709 C92.6160367,36.0039684 92.6359273,36.0439304 92.6359273,36.102057 C92.6359273,36.1601835 92.6160367,36.2001456 92.5767789,36.221943 C92.5375211,36.2437405 92.4794195,36.2546392 92.4009039,36.2546392 L90.121857,36.2546392 L90.121857,38.1655506 L92.3281461,38.1655506 C92.4160836,38.1655506 92.4768023,38.1759304 92.5108258,38.1951329 C92.5453727,38.2143354 92.5621227,38.2579304 92.5621227,38.3259177 C92.5621227,38.3835253 92.5453727,38.4224494 92.5108258,38.4416519 C92.4768023,38.4613734 92.4160836,38.4707152 92.3281461,38.4707152 L90.121857,38.4707152 L90.121857,40.5492595 Z M95.8530789,40.5492595 C95.9949305,40.5492595 96.0655945,40.6001203 96.0655945,40.7018418 C96.0655945,40.8035633 95.9949305,40.8544241 95.8530789,40.8544241 L94.043032,40.8544241 C93.8525008,40.8544241 93.7567117,40.7765759 93.7567117,40.6219177 L93.7567117,36.0657278 C93.7567117,35.9256013 93.813243,35.855019 93.9252586,35.855019 C94.0377977,35.855019 94.0943289,35.9256013 94.0943289,36.0657278 L94.0943289,40.5492595 L95.8530789,40.5492595 Z M99.0192477,40.6729342 C99.3024273,40.6729342 99.5562945,40.6184405 99.7813727,40.5094532 C100.005927,40.4004658 100.196459,40.2478835 100.352966,40.0517063 C100.509474,39.8555291 100.627771,39.6183519 100.70838,39.3396557 C100.78899,39.0609595 100.829295,38.752162 100.829295,38.4132633 C100.829295,38.1174405 100.792654,37.8314785 100.719373,37.5553772 C100.646091,37.2792759 100.535123,37.0332759 100.385943,36.8178962 C100.236763,36.6019975 100.048849,36.4291747 99.8216773,36.2978709 C99.5945055,36.1670861 99.3270289,36.1016937 99.0192477,36.1016937 C98.710943,36.1016937 98.4434664,36.1660481 98.216818,36.294238 C97.9891227,36.4234658 97.8012086,36.5952506 97.6525523,36.8106304 C97.5033727,37.0265291 97.3908336,37.2704532 97.3149352,37.5444785 C97.2395602,37.8185038 97.2013492,38.1003139 97.2013492,38.3914658 C97.2013492,38.6867696 97.2379898,38.9716937 97.3112711,39.244681 C97.3845523,39.5187063 97.4960445,39.7605544 97.6447008,39.9712633 C97.7938805,40.1824911 97.9833648,40.3522 98.2126305,40.4803899 C98.4424195,40.6085797 98.710943,40.6729342 99.0192477,40.6729342 Z M99.0192477,35.7819975 C99.3757086,35.7819975 99.6871539,35.8551747 99.9535836,36.0004911 C100.21949,36.1452886 100.443521,36.3378329 100.624107,36.5776051 C100.804693,36.8178962 100.940263,37.0950354 101.030818,37.4100608 C101.121373,37.7250861 101.166912,38.0520481 101.166912,38.3914658 C101.166912,38.7355544 101.12242,39.0640734 101.034482,39.3796177 C100.946545,39.6941241 100.813591,39.9712633 100.635099,40.2110354 C100.456607,40.4513266 100.233099,40.6423139 99.9645758,40.7855544 C99.6955289,40.9282759 99.3804195,40.9998962 99.0192477,40.9998962 C98.6575523,40.9998962 98.342443,40.9282759 98.0733961,40.7855544 C97.8048727,40.6423139 97.5813648,40.4497696 97.4028727,40.2079215 C97.2243805,39.9655544 97.0914273,39.6884152 97.0034898,39.3759848 C96.9155523,39.0630354 96.8715836,38.7355544 96.8715836,38.3914658 C96.8715836,38.0520481 96.9165992,37.7250861 97.0071539,37.4100608 C97.0977086,37.0950354 97.2317086,36.8163392 97.4102008,36.5744911 C97.588693,36.3321241 97.8122008,36.1395797 98.0807242,35.9963392 C98.3497711,35.8541367 98.6622633,35.7819975 99.0192477,35.7819975 Z M102.404737,38.5944418 L103.548448,38.5944418 C103.964057,38.5944418 104.266604,38.4999861 104.457135,38.3110747 C104.647666,38.1221633 104.742932,37.8289354 104.742932,37.4319101 C104.742932,36.6518722 104.344596,36.2621127 103.548448,36.2621127 L102.404737,36.2621127 L102.404737,38.5944418 Z M102.067643,36.2107329 C102.067643,36.1043405 102.08387,36.0342772 102.115276,36.000543 C102.147205,35.9668089 102.214729,35.9491633 102.316799,35.9491633 L103.548448,35.9491633 C104.051471,35.9491633 104.432534,36.0742392 104.691635,36.3238722 C104.950213,36.5729861 105.080026,36.9399101 105.080026,37.4246443 C105.080026,37.8943278 104.946549,38.258138 104.680643,38.5145177 C104.414213,38.7714165 104.036815,38.8996063 103.548448,38.8996063 L102.404737,38.8996063 L102.404737,40.6947835 C102.404737,40.8499608 102.350823,40.9272899 102.243518,40.9272899 C102.175471,40.9272899 102.128885,40.9075684 102.104807,40.8691633 C102.080205,40.8307582 102.067643,40.7721127 102.067643,40.6947835 L102.067643,36.2107329 Z M106.46546,40.5492595 L108.42207,40.5492595 C108.49064,40.5492595 108.562874,40.5466646 108.638249,40.5419937 C108.714148,40.5373228 108.782718,40.5383608 108.843437,40.5456266 C108.904679,40.5528924 108.954929,40.5674241 108.993663,40.5892215 C109.032921,40.611019 109.052288,40.6483861 109.052288,40.7018418 C109.052288,40.7698291 109.033968,40.8123861 108.997851,40.8289937 C108.96121,40.8461203 108.901015,40.8544241 108.817788,40.8544241 L106.377523,40.8544241 C106.284351,40.8544241 106.219968,40.8404114 106.183327,40.8108291 C106.146687,40.7817658 106.127843,40.7111835 106.127843,40.6001203 L106.127843,36.2037785 C106.127843,36.1067278 106.14407,36.0402975 106.175999,36.0039684 C106.207929,35.9676392 106.274929,35.9494747 106.377523,35.9494747 L108.744507,35.9494747 C108.823023,35.9494747 108.881124,35.9603734 108.920382,35.9821709 C108.95964,36.0039684 108.97953,36.0439304 108.97953,36.102057 C108.97953,36.1601835 108.95964,36.2001456 108.920382,36.221943 C108.881124,36.2437405 108.823023,36.2546392 108.744507,36.2546392 L106.46546,36.2546392 L106.46546,38.1655506 L108.671749,38.1655506 C108.759687,38.1655506 108.820405,38.1759304 108.854429,38.1951329 C108.888976,38.2143354 108.905726,38.2579304 108.905726,38.3259177 C108.905726,38.3835253 108.888976,38.4224494 108.854429,38.4416519 C108.820405,38.4613734 108.759687,38.4707152 108.671749,38.4707152 L106.46546,38.4707152 L106.46546,40.5492595 Z M114.167791,40.9998443 C113.801384,40.9998443 113.470572,40.9406797 113.175353,40.8218316 C112.879087,40.7035025 112.627837,40.5311987 112.420033,40.3059582 C112.212228,40.0807177 112.052056,39.8056544 111.940041,39.4807684 C111.827502,39.1564013 111.771494,38.7905152 111.771494,38.3836291 C111.771494,38.0644519 111.824884,37.7478696 111.932189,37.4354392 C112.040017,37.1230089 112.190244,36.8443127 112.383392,36.5993506 C112.576541,36.3554266 112.810517,36.1576924 113.087416,36.0077051 C113.362744,35.8577177 113.669478,35.7819456 114.006572,35.7819456 C114.568744,35.7819456 115.057111,35.9693 115.472197,36.3414139 C115.555423,36.4244519 115.596775,36.501781 115.596775,36.5744392 C115.596775,36.6663 115.543384,36.7124899 115.43608,36.7124899 C115.396822,36.7124899 115.332439,36.6813506 115.241884,36.6180342 C115.15133,36.5552367 115.042455,36.4851734 114.915783,36.4073253 C114.788587,36.3299962 114.645689,36.2594139 114.486564,36.1966165 C114.327962,36.133819 114.160462,36.1016418 113.984587,36.1016418 C113.700884,36.1016418 113.444923,36.1711861 113.215134,36.3092367 C112.985345,36.4472873 112.788533,36.6253 112.62522,36.8432747 C112.461384,37.0612494 112.334189,37.3062114 112.244158,37.5771228 C112.153603,37.8485532 112.108064,38.1173886 112.108064,38.3836291 C112.108064,38.7422494 112.157267,39.0635025 112.25515,39.3463506 C112.352509,39.6297177 112.490697,39.8710468 112.669189,40.069819 C112.847681,40.2685911 113.063861,40.4211734 113.317728,40.5275658 C113.571595,40.6339582 113.855298,40.6868949 114.167791,40.6868949 C114.578166,40.6868949 114.93515,40.5420975 115.23822,40.2514646 C115.330869,40.1642747 115.406244,40.1206797 115.465392,40.1206797 C115.509361,40.1206797 115.546002,40.1388443 115.574791,40.1751734 C115.604627,40.2109835 115.618759,40.2493886 115.618759,40.2877937 C115.618759,40.3365785 115.578455,40.4004139 115.498369,40.480338 C115.417759,40.560262 115.310455,40.6391481 115.175931,40.7164772 C115.041408,40.7943253 114.885947,40.8602367 114.710072,40.9162873 C114.534197,40.971819 114.353611,40.9998443 114.167791,40.9998443 Z M118.690081,40.5492595 C118.831933,40.5492595 118.902597,40.6001203 118.902597,40.7018418 C118.902597,40.8035633 118.831933,40.8544241 118.690081,40.8544241 L116.880034,40.8544241 C116.689503,40.8544241 116.593714,40.7765759 116.593714,40.6219177 L116.593714,36.0657278 C116.593714,35.9256013 116.650245,35.855019 116.762261,35.855019 C116.8748,35.855019 116.931331,35.9256013 116.931331,36.0657278 L116.931331,40.5492595 L118.690081,40.5492595 Z M121.85625,40.6729342 C122.13943,40.6729342 122.393297,40.6184405 122.618375,40.5094532 C122.84293,40.4004658 123.033461,40.2478835 123.189969,40.0517063 C123.346477,39.8555291 123.464773,39.6183519 123.545383,39.3396557 C123.625992,39.0609595 123.666297,38.752162 123.666297,38.4132633 C123.666297,38.1174405 123.629656,37.8314785 123.556375,37.5553772 C123.483094,37.2792759 123.372125,37.0332759 123.222945,36.8178962 C123.073766,36.6019975 122.885852,36.4291747 122.65868,36.2978709 C122.431508,36.1670861 122.164031,36.1016937 121.85625,36.1016937 C121.547945,36.1016937 121.280469,36.1660481 121.05382,36.294238 C120.826125,36.4234658 120.638211,36.5952506 120.489555,36.8106304 C120.340375,37.0265291 120.227836,37.2704532 120.151937,37.5444785 C120.076562,37.8185038 120.038352,38.1003139 120.038352,38.3914658 C120.038352,38.6867696 120.074992,38.9716937 120.148273,39.244681 C120.221555,39.5187063 120.333047,39.7605544 120.481703,39.9712633 C120.630883,40.1824911 120.820367,40.3522 121.049633,40.4803899 C121.279422,40.6085797 121.547945,40.6729342 121.85625,40.6729342 Z M121.85625,35.7819975 C122.212711,35.7819975 122.524156,35.8551747 122.790586,36.0004911 C123.056492,36.1452886 123.280523,36.3378329 123.461109,36.5776051 C123.641695,36.8178962 123.777266,37.0950354 123.86782,37.4100608 C123.958375,37.7250861 124.003914,38.0520481 124.003914,38.3914658 C124.003914,38.7355544 123.959422,39.0640734 123.871484,39.3796177 C123.783547,39.6941241 123.650594,39.9712633 123.472102,40.2110354 C123.293609,40.4513266 123.070102,40.6423139 122.801578,40.7855544 C122.532531,40.9282759 122.217422,40.9998962 121.85625,40.9998962 C121.494555,40.9998962 121.179445,40.9282759 120.910398,40.7855544 C120.641875,40.6423139 120.418367,40.4497696 120.239875,40.2079215 C120.061383,39.9655544 119.92843,39.6884152 119.840492,39.3759848 C119.752555,39.0630354 119.708586,38.7355544 119.708586,38.3914658 C119.708586,38.0520481 119.753602,37.7250861 119.844156,37.4100608 C119.934711,37.0950354 120.068711,36.8163392 120.247203,36.5744911 C120.425695,36.3321241 120.649203,36.1395797 120.917727,35.9963392 C121.186773,35.8541367 121.499266,35.7819975 121.85625,35.7819975 Z M124.978502,36.0877329 C124.978502,35.9325557 125.03451,35.8552266 125.147049,35.8552266 C125.259588,35.8552266 125.31612,35.9325557 125.31612,36.0877329 L125.31612,38.7615557 C125.31612,39.0381759 125.33444,39.2909228 125.370557,39.5208342 C125.407198,39.7512646 125.480479,39.9484797 125.590924,40.1135177 C125.700846,40.2780367 125.855784,40.4051886 126.05626,40.4949734 C126.256213,40.5847582 126.520026,40.6293911 126.847174,40.6293911 C127.336065,40.6293911 127.708752,40.512619 127.965237,40.2806316 C128.221721,40.0481253 128.349963,39.7185684 128.349963,39.2924797 L128.349963,36.0877329 C128.349963,35.9325557 128.405971,35.8552266 128.51851,35.8552266 C128.631049,35.8552266 128.687057,35.9325557 128.687057,36.0877329 L128.687057,39.3064924 C128.687057,39.5540494 128.643088,39.7787709 128.555151,39.9827329 C128.467213,40.185657 128.342635,40.3600367 128.181416,40.5058722 C128.020721,40.6511886 127.826002,40.7638089 127.59883,40.8437329 C127.371659,40.923138 127.118838,40.963619 126.84037,40.963619 C126.561377,40.963619 126.30751,40.9221 126.078245,40.8401 C125.848455,40.757581 125.651643,40.6434038 125.48833,40.4986063 C125.323971,40.3532899 125.198346,40.1789101 125.110409,39.9749481 C125.022471,39.7720241 124.978502,39.5488595 124.978502,39.3064924 L124.978502,36.0877329 Z M130.005858,40.5422013 L131.288803,40.5422013 C131.806483,40.5422013 132.2111,40.3543278 132.502131,39.9791 C132.792116,39.6033532 132.938155,39.0667203 132.938155,38.3692013 C132.938155,37.6716823 132.785311,37.1459481 132.479623,36.7919987 C132.174459,36.4390873 131.716452,36.2621127 131.1056,36.2621127 L130.005858,36.2621127 L130.005858,40.5422013 Z M131.252162,35.9491633 C131.599202,35.9491633 131.899131,36.0135177 132.153522,36.1417076 C132.407389,36.2709354 132.617287,36.4458342 132.784264,36.6689987 C132.94967,36.8916443 133.073202,37.151138 133.154334,37.4464418 C133.23442,37.7417456 133.274725,38.0567709 133.274725,38.3909987 C133.274725,38.7205557 133.235991,39.0329861 133.157475,39.3282899 C133.079483,39.6235937 132.958569,39.8856823 132.794733,40.1135177 C132.63142,40.3408342 132.424662,40.5214418 132.175506,40.6548215 C131.92635,40.7882013 131.630608,40.8546316 131.288803,40.8546316 L129.91792,40.8546316 C129.854584,40.8546316 129.805381,40.8509987 129.771881,40.8437329 C129.737334,40.8359481 129.712733,40.8245304 129.698077,40.8074038 C129.683944,40.7907962 129.675045,40.7648468 129.672428,40.7311127 C129.669811,40.6973785 129.668764,40.6537835 129.668764,40.5998089 L129.668764,36.2039861 C129.668764,36.1505304 129.669811,36.1069354 129.672428,36.0732013 C129.675045,36.0389481 129.683944,36.0135177 129.698077,35.9963911 C129.712733,35.9797835 129.737334,35.9678468 129.771881,35.960581 C129.805381,35.9527962 129.854584,35.9491633 129.91792,35.9491633 L131.252162,35.9491633 Z" id="Logo_Antelope"></path>
                </g>
            </g>
        </g>
    </g>
</svg>