<?xml version="1.0" encoding="UTF-8"?>
<svg width="64px" height="64px" viewBox="0 0 64 64" version="1.1" xmlns="http://www.w3.org/2000/svg" xmlns:xlink="http://www.w3.org/1999/xlink">
    <!-- Generator: Sketch 51.2 (57519) - http://www.bohemiancoding.com/sketch -->
    <title>64/Notice/Untied</title>
    <desc>Created with Sketch.</desc>
    <defs>
        <linearGradient x1="50%" y1="0%" x2="50%" y2="100%" id="linearGradient-1">
            <stop stop-color="#9FA8B8" offset="0%"></stop>
            <stop stop-color="#8D96A9" stop-opacity="0.95" offset="100%"></stop>
        </linearGradient>
    </defs>
    <g id="64/Notice/Untied" stroke="none" stroke-width="1" fill="none" fill-rule="evenodd">
        <path d="M43.7157288,32 L41.5190296,29.8033009 L49.6238457,21.6984848 C50.4048942,20.9174362 50.4048942,19.6511063 49.6238457,18.8700577 L45.1299423,14.3761543 C44.3488937,13.5951058 43.0825638,13.5951058 42.3015152,14.3761543 L34.1966991,22.4809704 L32,20.2842712 L41.5944084,10.6898628 C42.7659813,9.51828996 44.6654762,9.51828996 45.8370491,10.6898628 L53.3101372,18.1629509 C54.48171,19.3345238 54.48171,21.2340187 53.3101372,22.4055916 L43.7157288,32 Z M20.2842712,32 L22.4809704,34.1966991 L14.3761543,42.3015152 C13.5951058,43.0825638 13.5951058,44.3488937 14.3761543,45.1299423 L18.8700577,49.6238457 C19.6511063,50.4048942 20.9174362,50.4048942 21.6984848,49.6238457 L29.8033009,41.5190296 L32,43.7157288 L22.4055916,53.3101372 C21.2340187,54.48171 19.3345238,54.48171 18.1629509,53.3101372 L10.6898628,45.8370491 C9.51828996,44.6654762 9.51828996,42.7659813 10.6898628,41.5944084 L20.2842712,32 Z M26.9203102,23.991378 L40.008622,37.0796898 C40.3991463,37.4702141 40.3991463,38.1033791 40.008622,38.4939033 L38.4939033,40.008622 C38.1033791,40.3991463 37.4702141,40.3991463 37.0796898,40.008622 L23.991378,26.9203102 C23.6008537,26.5297859 23.6008537,25.8966209 23.991378,25.5060967 L25.5060967,23.991378 C25.8966209,23.6008537 26.5297859,23.6008537 26.9203102,23.991378 Z M17.4246212,17.4246212 C18.0104076,16.8388348 18.9601551,16.8388348 19.5459415,17.4246212 L22.3743687,20.2530483 C22.9601551,20.8388348 22.9601551,21.7885822 22.3743687,22.3743687 C21.7885822,22.9601551 20.8388348,22.9601551 20.2530483,22.3743687 L17.4246212,19.5459415 C16.8388348,18.9601551 16.8388348,18.0104076 17.4246212,17.4246212 Z M11.4497475,27.6776695 C11.4497475,26.8492424 12.1213203,26.1776695 12.9497475,26.1776695 L16.9497475,26.1776695 C17.7781746,26.1776695 18.4497475,26.8492424 18.4497475,27.6776695 C18.4497475,28.5060967 17.7781746,29.1776695 16.9497475,29.1776695 L12.9497475,29.1776695 C12.1213203,29.1776695 11.4497475,28.5060967 11.4497475,27.6776695 Z M27.6776695,11.4497475 C28.5060967,11.4497475 29.1776695,12.1213203 29.1776695,12.9497475 L29.1776695,16.9497475 C29.1776695,17.7781746 28.5060967,18.4497475 27.6776695,18.4497475 C26.8492424,18.4497475 26.1776695,17.7781746 26.1776695,16.9497475 L26.1776695,12.9497475 C26.1776695,12.1213203 26.8492424,11.4497475 27.6776695,11.4497475 Z M46.3743687,46.3743687 C45.7885822,46.9601551 44.8388348,46.9601551 44.2530483,46.3743687 L41.4246212,43.5459415 C40.8388348,42.9601551 40.8388348,42.0104076 41.4246212,41.4246212 C42.0104076,40.8388348 42.9601551,40.8388348 43.5459415,41.4246212 L46.3743687,44.2530483 C46.9601551,44.8388348 46.9601551,45.7885822 46.3743687,46.3743687 Z M52.3492424,36.1213203 C52.3492424,36.9497475 51.6776695,37.6213203 50.8492424,37.6213203 L46.8492424,37.6213203 C46.0208153,37.6213203 45.3492424,36.9497475 45.3492424,36.1213203 C45.3492424,35.2928932 46.0208153,34.6213203 46.8492424,34.6213203 L50.8492424,34.6213203 C51.6776695,34.6213203 52.3492424,35.2928932 52.3492424,36.1213203 Z M36.1213203,52.3492424 C35.2928932,52.3492424 34.6213203,51.6776695 34.6213203,50.8492424 L34.6213203,46.8492424 C34.6213203,46.0208153 35.2928932,45.3492424 36.1213203,45.3492424 C36.9497475,45.3492424 37.6213203,46.0208153 37.6213203,46.8492424 L37.6213203,50.8492424 C37.6213203,51.6776695 36.9497475,52.3492424 36.1213203,52.3492424 Z" id="Combined-Shape" fill="url(#linearGradient-1)"></path>
    </g>
</svg>