<?xml version="1.0" encoding="UTF-8"?>
<svg width="32px" height="32px" viewBox="0 0 32 32" version="1.1" xmlns="http://www.w3.org/2000/svg" xmlns:xlink="http://www.w3.org/1999/xlink">
    <!-- Generator: Sketch 51 (57462) - http://www.bohemiancoding.com/sketch -->
    <title>32/sq/top_menu/0</title>
    <desc>Created with Sketch.</desc>
    <defs>
        <linearGradient x1="50%" y1="0%" x2="50%" y2="94.5095517%" id="linearGradient-1">
            <stop stop-color="#FFFFFF" stop-opacity="0.8" offset="0%"></stop>
            <stop stop-color="#FFFFFF" stop-opacity="0.7" offset="100%"></stop>
        </linearGradient>
        <linearGradient x1="50%" y1="0%" x2="50%" y2="95.1934573%" id="linearGradient-2">
            <stop stop-color="#FFFFFF" stop-opacity="0.8" offset="0%"></stop>
            <stop stop-color="#FFFFFF" stop-opacity="0.7" offset="100%"></stop>
        </linearGradient>
    </defs>
    <g id="32/sq/top_menu/0" stroke="none" stroke-width="1" fill="none" fill-rule="evenodd">
        <g id="Group" transform="translate(0.000000, 3.000000)">
            <path d="M5,0 L16,0 C17.6568542,-3.04359188e-16 19,1.34314575 19,3 L19,25 L2,25 L2,3 C2,1.34314575 3.34314575,3.04359188e-16 5,0 Z M6,4 L6,7 L9,7 L9,4 L6,4 Z M12,4 L12,7 L15,7 L15,4 L12,4 Z M6,10 L6,13 L9,13 L9,10 L6,10 Z M12,10 L12,13 L15,13 L15,10 L12,10 Z M6,16 L6,19 L9,19 L9,16 L6,16 Z M12,16 L12,19 L15,19 L15,16 L12,16 Z" id="Combined-Shape" fill="url(#linearGradient-1)"></path>
            <path d="M20,9 L27,9 C28.6568542,9 30,10.3431458 30,12 L30,25 L20,25 L20,9 Z M23,12 L23,15 L26,15 L26,12 L23,12 Z M23,18 L23,21 L26,21 L26,18 L23,18 Z" id="Combined-Shape" fill="url(#linearGradient-2)"></path>
            <rect id="Rectangle-12" fill-opacity="0.7" fill="#FFFFFF" x="0" y="25" width="32" height="2"></rect>
        </g>
    </g>
</svg>