<?xml version="1.0" encoding="UTF-8"?>
<svg width="32px" height="32px" viewBox="0 0 32 32" version="1.1" xmlns="http://www.w3.org/2000/svg" xmlns:xlink="http://www.w3.org/1999/xlink">
    <!-- Generator: Sketch 51 (57462) - http://www.bohemiancoding.com/sketch -->
    <title>32/sq/top_menu/1</title>
    <desc>Created with Sketch.</desc>
    <defs>
        <linearGradient x1="50%" y1="0%" x2="50%" y2="100%" id="linearGradient-1">
            <stop stop-color="#FFFFFF" stop-opacity="0.8" offset="0%"></stop>
            <stop stop-color="#FFFFFF" stop-opacity="0.7" offset="100%"></stop>
        </linearGradient>
    </defs>
    <g id="32/sq/top_menu/1" stroke="none" stroke-width="1" fill="none" fill-rule="evenodd">
        <g id="Group-25" transform="translate(1.000000, 1.000000)" fill="url(#linearGradient-1)">
            <path d="M14.8396552,18.7677777 C15.5265214,18.7677777 16.0625554,18.1494109 15.9941009,17.4366555 L15.1703256,8.84607677 C15.0508202,7.60934322 14.0530079,6.66666667 12.8614343,6.66666667 L11.8102507,6.66666667 C11.3832798,6.66666667 10.9528283,6.77073622 10.6012735,7.02364944 C9.85871547,7.55609833 8.96880613,7.87677777 8,7.87677777 C7.03119387,7.87677777 6.14012428,7.55609833 5.39872654,7.02364944 C5.04717174,6.77073622 4.61555991,6.66666667 4.18858906,6.66666667 L3.13856566,6.66666667 C1.94699213,6.66666667 0.948019585,7.60934322 0.829674405,8.84607677 L0.00589913443,17.4366555 C-0.0625554303,18.1494109 0.473478619,18.7677777 1.16034476,18.7677777 L1.21603661,18.7677777 C1.78223708,18.7677777 2.26722026,18.3393984 2.36004001,17.7573349 L3.35901256,11.5071111 L3.35901256,18.7677777 L2.32639285,28.6688778 C2.25793829,29.3816332 2.79397234,30 3.48083848,30 L4.71070015,30 C5.27225963,30 5.75260183,29.5813016 5.85238306,29.0064988 L7.69717557,19.294176 C7.75866865,18.9432438 8.24133135,18.9432438 8.30282443,19.294176 L10.1464567,29.0064988 C10.2473982,29.5813016 10.7277404,30 11.2881396,30 L12.5191615,30 C13.2060277,30 13.7420617,29.3816332 13.6736071,28.6688778 L12.6409874,18.7677777 L12.6409874,11.5071111 L13.63996,17.7573349 C13.7327797,18.3393984 14.2166027,18.7677777 14.7839634,18.7677777 L14.8396552,18.7677777 Z M4.8,3.33333333 C4.8,1.49222222 6.23253333,0 8,0 C9.76746667,0 11.2,1.49222222 11.2,3.33333333 C11.2,5.17444444 9.76746667,6.66666667 8,6.66666667 C6.23253333,6.66666667 4.8,5.17444444 4.8,3.33333333" id="Fill-1"></path>
            <g id="Group-24" transform="translate(15.000000, 0.000000)">
                <path d="M12.921242,15.6153822 C13.5598128,15.6153822 14.058157,15.0869293 13.9945156,14.4778123 L12.869466,8.53494608 C12.7583633,7.47804027 11.8307096,6.67243399 10.7229186,6.67243399 L9.74564632,6.67243399 C9.34869687,6.67243399 8.94851141,6.76137127 8.62167531,6.97750954 C7.93132843,7.43253748 7.62481941,7.7065884 6.72413246,7.7065884 C5.82344552,7.7065884 5.4069414,7.43253748 4.71767319,6.97750954 C4.39083709,6.76137127 3.98957296,6.67243399 3.5926235,6.67243399 L2.61642987,6.67243399 C1.90167236,6.67243399 1.28781836,6.97750954 0.469882531,8.53494608 C0.734698376,10.9669655 0.895870751,12.0171657 0.953399658,11.6855469 L2.24783199,9.4104557 L2.99158199,14.90322 L1.28781836,21.4795115 L4.08611755,21.4795115 L5.33472336,30.1973448 L7.697052,30.1973448 L9.30180969,21.4795115 L11.8371816,21.4795115 L10.133418,14.90322 L10.877168,9.4104557 L11.8059003,14.7518632 C11.8921937,15.2492915 12.3419978,15.6153822 12.869466,15.6153822 L12.921242,15.6153822 Z M3.5,2.93243243 C3.5,1.31275225 4.87097917,0 6.5625,0 C8.25402083,0 9.625,1.31275225 9.625,2.93243243 C9.625,4.55211261 8.25402083,5.86486486 6.5625,5.86486486 C4.87097917,5.86486486 3.5,4.55211261 3.5,2.93243243" id="Fill-1"></path>
            </g>
        </g>
    </g>
</svg>