<?xml version="1.0" encoding="UTF-8"?>
<svg width="32px" height="32px" viewBox="0 0 32 32" version="1.1" xmlns="http://www.w3.org/2000/svg" xmlns:xlink="http://www.w3.org/1999/xlink">
    <!-- Generator: Sketch 51 (57462) - http://www.bohemiancoding.com/sketch -->
    <title>32/sq/top_menu/4</title>
    <desc>Created with Sketch.</desc>
    <defs>
        <linearGradient x1="50%" y1="2.75243858%" x2="50%" y2="100%" id="linearGradient-1">
            <stop stop-color="#FFFFFF" stop-opacity="0.8" offset="0%"></stop>
            <stop stop-color="#FFFFFF" stop-opacity="0.7" offset="100%"></stop>
        </linearGradient>
    </defs>
    <g id="32/sq/top_menu/4" stroke="none" stroke-width="1" fill="none" fill-rule="evenodd">
        <path d="M29.4876026,12.2727273 L30.1425138,13.0731734 C30.8734043,13.966484 31.2727273,15.0851505 31.2727273,16.2393623 L31.2727273,26.0909091 C31.2727273,26.6431938 30.825012,27.0909091 30.2727273,27.0909091 L27.1818182,27.0909091 C26.6295334,27.0909091 26.1818182,26.6431938 26.1818182,26.0909091 L26.1818182,24.7660312 L5.93894221,24.9090909 L5.93894221,26.0909091 C5.93894221,26.6431938 5.49122696,27.0909091 4.93894221,27.0909091 L1.72727273,27.0909091 C1.17498798,27.0909091 0.727272727,26.6431938 0.727272727,26.0909091 L0.727272727,16.2393623 C0.727272727,15.0851505 1.1265957,13.966484 1.85748623,13.0731734 L2.51239669,12.2727273 L0.727272727,12.2727273 C0.325611091,12.2727273 1.71029529e-14,11.9471162 1.687539e-14,11.5454545 C-7.18617085e-15,10.8181818 0.727272727,10.0909091 1.45454545,10.0909091 C2.18181818,10.0909091 2.18181818,10.0909091 2.90909091,10.0909091 C3.23635234,10.0909091 3.56361376,10.2565795 3.89087519,10.5879202 L6.54613772,7.34259935 C7.02124991,6.76190668 7.69670817,6.38032129 8.43929766,6.27309999 L8.43929931,6.27311139 C10.9595329,5.90921895 13.4797664,5.72727273 16,5.72727273 C18.5202379,5.72727273 21.0404759,5.90921958 23.5607138,6.27311328 C24.3032991,6.38033416 24.9787535,6.7619175 25.4538631,7.34260694 L28.1091235,10.5879215 C28.4363854,10.2565799 28.7636472,10.0909091 29.0909091,10.0909091 C29.8181818,10.0909091 29.8181818,10.0909091 30.5454545,10.0909091 C31.2727273,10.0909091 32,10.8181818 32,11.5454545 C32,11.9471162 31.6743889,12.2727273 31.2727273,12.2727273 L29.4876026,12.2727273 Z M10.1818182,21.7272727 C9.45454545,21.7272727 8.72727273,21 8.72727273,20.2727273 C8.72727273,19.5454545 10.1818182,18.3238369 11.6363636,18.3238369 C13.0909091,18.3238369 18.9090909,18.3238369 20.3636364,18.3238369 C21.8181818,18.3238369 23.2727273,19.5454545 23.2727273,20.2727273 C23.2727273,21 22.5454545,21.7272727 21.8181818,21.7272727 C21.0909091,21.7272727 10.9090909,21.7272727 10.1818182,21.7272727 Z M9.45454545,7.48215044 C10.0477256,7.16834961 13.0282881,7.18181818 16,7.18181818 C19.0908618,7.18181818 21.9522701,7.16834734 22.5454545,7.48215044 C23.8486821,8.17157657 24.9573011,9.34097065 25.8713115,10.9903327 L25.8713561,10.990308 C25.9784489,11.1835604 25.9086027,11.4270384 25.7153502,11.5341312 C25.6560107,11.5670147 25.5892833,11.5842676 25.5214416,11.5842676 L6.47840919,11.5841617 C6.25755376,11.5841617 6.07851505,11.405123 6.07851505,11.1842676 C6.07851505,11.1164536 6.09576048,11.0497535 6.12863003,10.9904381 C7.04265163,9.34102048 8.15129011,8.17159126 9.45454545,7.48215044 Z M4.41714004,14.4545455 L5.10997789,14.4545455 C5.57571317,14.4545455 6.03505237,14.5629807 6.45161867,14.7712639 L8,15.5454545 C8.34866289,15.719786 8.48998645,16.1437567 8.315655,16.4924196 C8.20734964,16.7090303 7.99555358,16.8549901 7.75457731,16.8790877 L4.32349032,17.2221964 C3.77394645,17.2771508 3.28390379,16.8762068 3.22894941,16.326663 C3.21748981,16.2120669 3.22591186,16.0963526 3.2538441,15.9846236 L3.44699754,15.2120098 C3.55828929,14.7668428 3.9582724,14.4545455 4.41714004,14.4545455 Z M27.58286,14.4545455 C28.0417276,14.4545455 28.4417107,14.7668428 28.5530025,15.2120098 L28.7461559,15.9846236 C28.7740881,16.0963526 28.7825102,16.2120669 28.7710506,16.326663 C28.7160962,16.8762068 28.2260535,17.2771508 27.6765097,17.2221964 L24.2454227,16.8790877 C24.0044464,16.8549901 23.7926504,16.7090303 23.684345,16.4924196 C23.5100135,16.1437567 23.6513371,15.719786 24,15.5454545 L25.5483813,14.7712639 C25.9649476,14.5629807 26.4242868,14.4545455 26.8900221,14.4545455 L27.58286,14.4545455 Z" id="Fill-1" fill="url(#linearGradient-1)"></path>
    </g>
</svg>