<?xml version="1.0" encoding="UTF-8"?>
<svg width="32px" height="32px" viewBox="0 0 32 32" version="1.1" xmlns="http://www.w3.org/2000/svg" xmlns:xlink="http://www.w3.org/1999/xlink">
    <!-- Generator: Sketch 51 (57462) - http://www.bohemiancoding.com/sketch -->
    <title>32/sq/top_menu/6</title>
    <desc>Created with Sketch.</desc>
    <defs>
        <linearGradient x1="50%" y1="0%" x2="50%" y2="100%" id="linearGradient-1">
            <stop stop-color="#FFFFFF" stop-opacity="0.8" offset="0%"></stop>
            <stop stop-color="#FFFFFF" stop-opacity="0.7" offset="100%"></stop>
        </linearGradient>
    </defs>
    <g id="32/sq/top_menu/6" stroke="none" stroke-width="1" fill="none" fill-rule="evenodd">
        <path d="M10.9713472,19.3205328 C11.3260188,19.4631632 11.4994427,19.8723927 11.3586172,20.2363004 L11.0730545,20.9747797 C10.933533,21.3373543 10.5332235,21.5146427 10.178552,21.3706792 L8.75073818,20.7934923 C8.47821482,20.6828537 8.17178903,20.8201522 8.06356205,21.0974152 L7.45592623,22.6636845 C7.19905014,23.323517 6.57576705,23.7567405 5.88076728,23.7580734 L1.91418323,23.7634054 L1.91418323,23.9526907 C1.91418323,24.4925537 1.48649106,24.9311091 0.957091615,24.9311091 C0.428996105,24.9311091 0,24.4925537 0,23.9526907 L0,21.8092346 C0,21.2693716 0.428996105,20.8308162 0.957091615,20.8308162 C1.48649106,20.8308162 1.91418323,21.2693716 1.91418323,21.8092346 L1.91418323,22.0438417 L5.18185569,22.0438417 C5.47002633,22.0438417 5.73081423,21.8692194 5.84686485,21.5999544 L6.35279339,20.4215867 C6.47275583,20.1429907 6.34366581,19.8177399 6.06723063,19.7031024 L4.82457626,19.1832343 C4.46208107,19.0339388 4.29517681,18.6073804 4.45425743,18.2434727 L4.76459504,17.5356523 C4.91454809,17.1904066 5.30442601,17.0291142 5.6473621,17.1677457 L10.9713472,19.3205328 Z M25.0885789,15.1647872 L26.6624339,15.8019589 C27.1683625,16.0059071 27.7081934,16.1085478 28.2506323,16.1045488 L31.5509032,16.0712239 C31.8768881,16.0685579 32.094646,16.4124706 31.9590363,16.7150605 L28.257152,24.9223114 C28.1150226,25.2355652 27.696458,25.2782211 27.4969552,24.9996251 L26.0091602,22.9228187 C25.5984193,22.3482978 25.0546765,21.8870815 24.4261776,21.5818256 L21.6109722,20.2061747 L25.0885789,15.1647872 Z M5.12396078,5.48031123 C5.24653109,5.12706753 5.62988931,4.94711319 5.97152147,5.0817457 L25.1655114,12.6518249 C25.5632129,12.8091183 25.7092541,13.3089915 25.4602017,13.6622352 L20.8142651,20.2805558 C19.9888714,21.4549245 18.489341,21.9081428 17.172362,21.3802768 L2.32831442,15.4271207 C2.0010256,15.2964871 1.83412134,14.9219155 1.95277984,14.5846678 L5.12396078,5.48031123 Z" id="Fill-7" fill="url(#linearGradient-1)"></path>
    </g>
</svg>