<?xml version="1.0" encoding="UTF-8"?>
<svg width="32px" height="32px" viewBox="0 0 32 32" version="1.1" xmlns="http://www.w3.org/2000/svg" xmlns:xlink="http://www.w3.org/1999/xlink">
    <!-- Generator: Sketch 51 (57462) - http://www.bohemiancoding.com/sketch -->
    <title>32/sq/top_menu/7</title>
    <desc>Created with Sketch.</desc>
    <defs>
        <linearGradient x1="50%" y1="2.5486314%" x2="50%" y2="98.2365426%" id="linearGradient-1">
            <stop stop-color="#FFFFFF" stop-opacity="0.8" offset="0%"></stop>
            <stop stop-color="#FFFFFF" stop-opacity="0.7" offset="100%"></stop>
        </linearGradient>
    </defs>
    <g id="32/sq/top_menu/7" stroke="none" stroke-width="1" fill="none" fill-rule="evenodd">
        <g id="Group" transform="translate(0.000000, 4.000000)" fill="url(#linearGradient-1)">
            <path d="M8.50411889,4 L14,11.317082 L14,4 L8.50411889,4 Z M14,13.4237937 L8,20.9702004 L8,21 L14,21 L14,13.4237937 Z M8,19.3633725 L13.5499546,12.3830034 L8,4.99392931 L8,19.3633725 Z M8.03833008,3.03369141 L14.969697,3.03369141 L14.969697,22.0107422 L8.03833008,22.0107422 L8.03833008,24 C8.03833008,24.5522847 7.59061483,25 7.03833008,25 L1,25 C0.44771525,25 -1.05905057e-14,24.5522847 -1.0658141e-14,24 L-1.0658141e-14,1 C-1.07257764e-14,0.44771525 0.44771525,1.01453063e-16 1,0 L7.03833008,0 C7.59061483,-1.01453063e-16 8.03833008,0.44771525 8.03833008,1 L8.03833008,3.03369141 Z" id="Combined-Shape"></path>
            <path d="M31,11.2336016 L31,4 L25,4 L25,4.01404809 L31,11.2336016 Z M31,13.5026567 L25,20.3228816 L25,21 L31,21 L31,13.5026567 Z M25,18.7160537 L30.5714147,12.3830034 L25,5.67914899 L25,18.7160537 Z M25.0383301,3.03369141 L31.969697,3.03369141 L31.969697,22.0107422 L25.0383301,22.0107422 L25.0383301,24 C25.0383301,24.5522847 24.5906148,25 24.0383301,25 L18,25 C17.4477153,25 17,24.5522847 17,24 L17,1 C17,0.44771525 17.4477153,1.01453063e-16 18,0 L24.0383301,-1.11022302e-16 C24.5906148,-2.12475365e-16 25.0383301,0.44771525 25.0383301,1 L25.0383301,3.03369141 Z" id="Combined-Shape" transform="translate(24.484848, 12.500000) scale(-1, 1) translate(-24.484848, -12.500000) "></path>
        </g>
    </g>
</svg>