<?xml version="1.0" encoding="UTF-8"?>
<svg width="32px" height="32px" viewBox="0 0 32 32" version="1.1" xmlns="http://www.w3.org/2000/svg" xmlns:xlink="http://www.w3.org/1999/xlink">
    <!-- Generator: Sketch 51.1 (57501) - http://www.bohemiancoding.com/sketch -->
    <title>32/sq/top_menu/8</title>
    <desc>Created with Sketch.</desc>
    <defs>
        <linearGradient x1="50%" y1="1.41121749%" x2="50%" y2="100%" id="linearGradient-1">
            <stop stop-color="#FFFFFF" stop-opacity="0.8" offset="0%"></stop>
            <stop stop-color="#FFFFFF" stop-opacity="0.7" offset="100%"></stop>
        </linearGradient>
        <linearGradient x1="50%" y1="0%" x2="50%" y2="100%" id="linearGradient-2">
            <stop stop-color="#FFFFFF" stop-opacity="0.8" offset="0%"></stop>
            <stop stop-color="#FFFFFF" stop-opacity="0.7" offset="100%"></stop>
        </linearGradient>
    </defs>
    <g id="32/sq/top_menu/8" stroke="none" stroke-width="1" fill="none" fill-rule="evenodd">
        <g id="Group-35" transform="translate(1.000000, 0.000000)">
            <path d="M26,15.1315789 L26,2.4 C26,1.0745166 24.941764,0 23.6363636,0 L2.36363636,0 C1.05823605,0 0,1.0745166 0,2.4 L0,29.6 C0,30.9254834 1.05823605,32 2.36363636,32 L10.9656723,32 L10.9656723,31 L2.36363636,31 C1.6139671,31 1,30.3765873 1,29.6 L1,2.4 C1,1.62341275 1.6139671,1 2.36363636,1 L23.6363636,1 C24.3860329,1 25,1.62341275 25,2.4 L25,15.1315789 L26,15.1315789 Z M26,2.4 C26,1.0745166 24.941764,0 23.6363636,0 L2.36363636,0 C1.05823605,0 0,1.0745166 0,2.4 L0,29.6 C0,30.9254834 1.05823605,32 2.36363636,32 L10.9656723,32 L10.9656723,31 L2.36363636,31 C1.6139671,31 1,30.3765873 1,29.6 L1,2.4 C1,1.62341275 1.6139671,1 2.36363636,1 L23.6363636,1 C24.3860329,1 25,1.62341275 25,2.4 L25,15.1315789 L26,15.1315789 L26,2.4 Z" id="Rectangle-35" fill="url(#linearGradient-1)" fill-rule="nonzero"></path>
            <path d="M23,14.7871127 L23,4.89623439 C23,3.84897306 22.1728247,3 21.1524522,3 L3.84754783,3 C2.82717534,3 2,3.84897306 2,4.89623439 L2,27.1037656 C2,28.1510269 2.82717534,29 3.84754783,29 L12.045957,29 L12.045957,28 L3.84754783,28 C3.38536512,28 3,27.6044797 3,27.1037656 L3,4.89623439 C3,4.39552025 3.38536512,4 3.84754783,4 L21.1524522,4 C21.6146349,4 22,4.39552025 22,4.89623439 L22,14.7871127 L23,14.7871127 Z M23,4.89623439 C23,3.84897306 22.1728247,3 21.1524522,3 L3.84754783,3 C2.82717534,3 2,3.84897306 2,4.89623439 L2,27.1037656 C2,28.1510269 2.82717534,29 3.84754783,29 L12.045957,29 L12.045957,28 L3.84754783,28 C3.38536512,28 3,27.6044797 3,27.1037656 L3,4.89623439 C3,4.39552025 3.38536512,4 3.84754783,4 L21.1524522,4 C21.6146349,4 22,4.39552025 22,4.89623439 L22,14.7871127 L23,14.7871127 L23,4.89623439 Z" id="Rectangle-35" fill="url(#linearGradient-1)" fill-rule="nonzero"></path>
            <path d="M16.0909091,29 L14.5454545,29 L14.5454545,22.9545455 C14.5454545,19.1136561 17.6591106,16 21.5,16 C25.3408894,16 28.4545455,19.1136561 28.4545455,22.9545455 L28.4545455,29 L17.6363636,29 L17.6363636,24.1727273 C17.6363636,23.7459618 17.2904019,23.4 16.8636364,23.4 C16.4368709,23.4 16.0909091,23.7459618 16.0909091,24.1727273 L16.0909091,29 Z M14.5454545,30 L28.4545455,30 L29,30 C29.5522847,30 30,30.4477153 30,31 C30,31.5522847 29.5522847,32 29,32 L14,32 C13.4477153,32 13,31.5522847 13,31 C13,30.4477153 13.4477153,30 14,30 L14.5454545,30 Z" id="Combined-Shape" fill="url(#linearGradient-2)"></path>
        </g>
    </g>
</svg>