<?xml version="1.0" encoding="UTF-8"?>
<svg width="18px" height="18px" viewBox="0 0 18 18" version="1.1" xmlns="http://www.w3.org/2000/svg" xmlns:xlink="http://www.w3.org/1999/xlink">
    <!-- Generator: Sketch 51 (57462) - http://www.bohemiancoding.com/sketch -->
    <title>18/search_icon/3</title>
    <desc>Created with Sketch.</desc>
    <defs></defs>
    <g id="18/search_icon/3" stroke="none" stroke-width="1" fill="none" fill-rule="evenodd">
        <g id="Group" fill="#44aaff">
            <path d="M9,16 C12.8659932,16 16,12.8659932 16,9 C16,5.13400675 12.8659932,2 9,2 C5.13400675,2 2,5.13400675 2,9 C2,12.8659932 5.13400675,16 9,16 Z M9,18 C4.02943725,18 0,13.9705627 0,9 C0,4.02943725 4.02943725,0 9,0 C13.9705627,0 18,4.02943725 18,9 C18,13.9705627 13.9705627,18 9,18 Z" id="Oval-17" fill-rule="nonzero"></path>
            <rect id="Rectangle-42" x="8" y="1" width="2" height="3" rx="1"></rect>
            <rect id="Rectangle-42" x="8" y="14" width="2" height="3" rx="1"></rect>
            <rect id="Rectangle-42" transform="translate(2.500000, 9.000000) rotate(-90.000000) translate(-2.500000, -9.000000) " x="1.5" y="7.5" width="2" height="3" rx="1"></rect>
            <rect id="Rectangle-42" transform="translate(15.500000, 9.000000) rotate(-90.000000) translate(-15.500000, -9.000000) " x="14.5" y="7.5" width="2" height="3" rx="1"></rect>
            <polygon id="Path-8" points="6 6 12 8 8.81416798 12"></polygon>
        </g>
    </g>
</svg>