<?xml version="1.0" encoding="UTF-8"?>
<svg width="16px" height="16px" viewBox="0 0 16 16" version="1.1" xmlns="http://www.w3.org/2000/svg" xmlns:xlink="http://www.w3.org/1999/xlink">
    <!-- Generator: Sketch 52.1 (67048) - http://www.bohemiancoding.com/sketch -->
    <title>16/Point/4_Door_1_Main</title>
    <desc>Created with Sketch.</desc>
    <g id="16/Point/4_Door_1_Main" stroke="none" stroke-width="1" fill="none" fill-rule="evenodd">
        <path d="M11,7.5 C9.06700338,7.5 7.5,9.06700338 7.5,11 C7.5,12.2731626 8.17979109,13.3875514 9.19620669,14 L4.5,14 C4.22385763,14 4,13.7761424 4,13.5 L4,2.5 C4,2.22385763 4.22385763,2 4.5,2 L10.5,2 C10.7761424,2 11,2.22385763 11,2.5 L11,7.5 Z M5.5,6 C5.22385763,6 5,6.22385763 5,6.5 L5,9.5 C5,9.77614237 5.22385763,10 5.5,10 C5.77614237,10 6,9.77614237 6,9.5 L6,6.5 C6,6.22385763 5.77614237,6 5.5,6 Z M11,14 C9.34314575,14 8,12.6568542 8,11 C8,9.34314575 9.34314575,8 11,8 C12.6568542,8 14,9.34314575 14,11 C14,12.6568542 12.6568542,14 11,14 Z M11,13 C12.1045695,13 13,12.1045695 13,11 C13,9.8954305 12.1045695,9 11,9 C9.8954305,9 9,9.8954305 9,11 C9,12.1045695 9.8954305,13 11,13 Z M11,12.5 C10.1715729,12.5 9.5,11.8284271 9.5,11 C9.5,10.1715729 10.1715729,9.5 11,9.5 C11.8284271,9.5 12.5,10.1715729 12.5,11 C12.5,11.8284271 11.8284271,12.5 11,12.5 Z" id="Rectangle-65" fill="#8899BB"></path>
    </g>
</svg>