<?xml version="1.0" encoding="UTF-8"?>
<svg width="16px" height="16px" viewBox="0 0 16 16" version="1.1" xmlns="http://www.w3.org/2000/svg" xmlns:xlink="http://www.w3.org/1999/xlink">
    <!-- Generator: Sketch 52.1 (67048) - http://www.bohemiancoding.com/sketch -->
    <title>16/Point/5_Car_1_Main</title>
    <desc>Created with Sketch.</desc>
    <g id="16/Point/5_Car_1_Main" stroke="none" stroke-width="1" fill="none" fill-rule="evenodd">
        <path d="M3.5,5.69477461 L13.5570357,3 L13.8158548,3.96592583 L3.5,6.73005079 L3.5,12.5011568 L4,12.5011568 L4,13.0011568 L2,13.0011568 L2,12.5011568 L2.5,12.5011568 L2.5,6.99799998 L1.25881905,7.33057341 L1,6.36464759 L2.5,5.9627238 L2.5,4.50115676 C2.5,4.22501439 2.72385763,4.00115676 3,4.00115676 C3.27614237,4.00115676 3.5,4.22501439 3.5,4.50115676 L3.5,5.69477461 Z M14.2937438,8.21135917 C14.3030054,8.21888934 14.3091045,8.22631037 14.3168979,8.23525927 C14.7294925,8.57870038 14.9984187,9.21330797 15,9.67319385 L15,11.0439026 C15,11.376867 14.8654804,11.6786193 14.647606,11.9039787 L14.647606,12.4355648 C14.647606,12.746157 14.380261,13 14.0510211,13 L13.3294042,13 C13.0002772,13 12.7328193,12.746157 12.7328193,12.4355648 L12.7328193,12.2996944 L6.2670678,12.2996944 L6.2670678,12.4355648 C6.2670678,12.7476848 5.99972277,13 5.6704829,13 L4.94886591,13 C4.61962604,13 4.35228101,12.746157 4.35228101,12.4355648 L4.35228101,11.9039787 C4.13440667,11.6786193 4,11.376867 4,11.0439026 L4,9.67319385 C4,9.21178011 4.26881334,8.57717252 4.68140793,8.23373141 C4.68920126,8.22631037 4.69530039,8.21725235 4.70467497,8.20983131 L5.08948465,7.84849241 C4.76961937,7.77690125 4.42490579,7.51705591 4.42490579,7.2496804 C4.42490579,6.93919741 4.8684478,6.82864582 5.24862667,6.82864582 C5.64427925,6.82864582 5.69058743,7.09296561 5.69521824,7.27969193 L6.68892403,6.34791556 C6.89132466,6.1537682 7.27466604,6 7.56053434,6 L11.4363031,6 C11.7221715,6 12.1055128,6.1537682 12.3079135,6.34791556 L13.3030876,7.28111066 C13.3077184,7.09438433 13.3541395,6.83017368 13.7496791,6.83017368 C14.1299709,6.83017368 14.5734,6.94061613 14.5734,7.25120826 C14.5734,7.51847463 14.2289123,7.77984784 13.9089341,7.85002027 L14.2937438,8.21135917 Z" id="Fill-1" fill="#8899BB"></path>
    </g>
</svg>