<?xml version="1.0" encoding="UTF-8"?>
<svg width="18px" height="18px" viewBox="0 0 18 18" version="1.1" xmlns="http://www.w3.org/2000/svg" xmlns:xlink="http://www.w3.org/1999/xlink">
    <!-- Generator: Sketch 51.1 (57501) - http://www.bohemiancoding.com/sketch -->
    <title>18/search_icon/1</title>
    <desc>Created with Sketch.</desc>
    <defs></defs>
    <g id="18/search_icon/1" stroke="none" stroke-width="1" fill="none" fill-rule="evenodd">
        <g id="Group-18" transform="translate(0.000000, 1.000000)" fill="#8D96A9">
            <path d="M9.5,8.5 L11.5,8.5 L11.5,9.5 L9.5,9.5 L9.5,11.5 L8.5,11.5 L8.5,9.5 L6.5,9.5 L6.5,8.5 L8.5,8.5 L8.5,6.5 L9.5,6.5 L9.5,8.5 Z M4.33333333,2 L4.77207592,0.683772234 C4.90818997,0.275430095 5.29032881,7.90687832e-17 5.72075922,0 L12.2792408,6.66133815e-16 C12.7096712,5.87065032e-16 13.09181,0.275430095 13.2279241,0.683772234 L13.6666667,2 L16,2 C17.1045695,2 18,2.8954305 18,4 L18,14 C18,15.1045695 17.1045695,16 16,16 L2,16 C0.8954305,16 1.3527075e-16,15.1045695 0,14 L0,4 C-1.3527075e-16,2.8954305 0.8954305,2 2,2 L4.33333333,2 Z M9,14 C11.7614237,14 14,11.7614237 14,9 C14,6.23857625 11.7614237,4 9,4 C6.23857625,4 4,6.23857625 4,9 C4,11.7614237 6.23857625,14 9,14 Z" id="Combined-Shape"></path>
        </g>
    </g>
</svg>