<?xml version="1.0" encoding="utf-8"?>
<!-- Generator: Adobe Illustrator 22.1.0, SVG Export Plug-In . SVG Version: 6.00 Build 0)  -->
<svg version="1.1" id="图层_1" xmlns="http://www.w3.org/2000/svg" xmlns:xlink="http://www.w3.org/1999/xlink" x="0px" y="0px"
	 viewBox="0 0 334 154" style="enable-background:new 0 0 334 154;" xml:space="preserve">
<style type="text/css">
	.st0{clip-path:url(#SVGID_2_);fill:#FFFFFF;}
	.st1{clip-path:url(#SVGID_2_);fill:#FEFFFF;}
	.st2{clip-path:url(#SVGID_2_);fill:#FDFEFF;}
	.st3{clip-path:url(#SVGID_2_);fill:#FCFEFF;}
	.st4{clip-path:url(#SVGID_2_);fill:#FBFDFF;}
	.st5{clip-path:url(#SVGID_2_);fill:#FAFDFF;}
	.st6{clip-path:url(#SVGID_2_);fill:#F9FCFF;}
	.st7{clip-path:url(#SVGID_2_);fill:#F8FCFF;}
	.st8{clip-path:url(#SVGID_2_);fill:#F7FBFF;}
	.st9{clip-path:url(#SVGID_2_);fill:#F6FBFF;}
	.st10{clip-path:url(#SVGID_2_);fill:#F5FAFF;}
	.st11{clip-path:url(#SVGID_2_);fill:#F4FAFF;}
	.st12{clip-path:url(#SVGID_2_);fill:#F3F9FF;}
	.st13{clip-path:url(#SVGID_2_);fill:#F2F9FF;}
	.st14{clip-path:url(#SVGID_2_);fill:#F1F9FF;}
	.st15{clip-path:url(#SVGID_2_);fill:#F0F8FF;}
	.st16{clip-path:url(#SVGID_2_);fill:#EFF8FF;}
	.st17{clip-path:url(#SVGID_2_);fill:#EEF7FF;}
	.st18{clip-path:url(#SVGID_2_);fill:#EDF7FF;}
	.st19{clip-path:url(#SVGID_2_);fill:#ECF6FF;}
	.st20{clip-path:url(#SVGID_2_);fill:#EBF6FF;}
	.st21{clip-path:url(#SVGID_2_);fill:#EAF5FF;}
	.st22{clip-path:url(#SVGID_2_);fill:#E9F5FF;}
	.st23{clip-path:url(#SVGID_2_);fill:#E8F4FF;}
	.st24{clip-path:url(#SVGID_2_);fill:#E7F4FF;}
	.st25{clip-path:url(#SVGID_2_);fill:#E6F3FF;}
	.st26{clip-path:url(#SVGID_2_);fill:#E5F3FF;}
	.st27{clip-path:url(#SVGID_2_);fill:#E4F3FF;}
	.st28{clip-path:url(#SVGID_2_);fill:#E3F2FF;}
	.st29{clip-path:url(#SVGID_2_);fill:#E2F2FF;}
	.st30{clip-path:url(#SVGID_2_);fill:#E1F1FF;}
	.st31{clip-path:url(#SVGID_2_);fill:#E0F1FF;}
	.st32{clip-path:url(#SVGID_2_);fill:#DFF0FF;}
	.st33{clip-path:url(#SVGID_2_);fill:#DEF0FF;}
	.st34{clip-path:url(#SVGID_2_);fill:#DDEFFF;}
	.st35{clip-path:url(#SVGID_2_);fill:#DCEFFF;}
	.st36{clip-path:url(#SVGID_2_);fill:#DBEEFF;}
	.st37{clip-path:url(#SVGID_2_);fill:#DAEEFF;}
	.st38{clip-path:url(#SVGID_2_);fill:#D9EDFF;}
	.st39{clip-path:url(#SVGID_2_);fill:#D8EDFF;}
	.st40{clip-path:url(#SVGID_2_);fill:#D7EDFF;}
	.st41{clip-path:url(#SVGID_2_);fill:#D5ECFF;}
	.st42{clip-path:url(#SVGID_2_);fill:#D4ECFF;}
	.st43{clip-path:url(#SVGID_2_);fill:#D3EBFF;}
	.st44{clip-path:url(#SVGID_2_);fill:#D2EBFF;}
	.st45{clip-path:url(#SVGID_2_);fill:#D1EAFF;}
	.st46{clip-path:url(#SVGID_2_);fill:#D0EAFF;}
	.st47{clip-path:url(#SVGID_2_);fill:#CFE9FF;}
	.st48{clip-path:url(#SVGID_2_);fill:#CEE9FF;}
	.st49{clip-path:url(#SVGID_2_);fill:#CDE8FF;}
	.st50{clip-path:url(#SVGID_2_);fill:#CCE8FF;}
	.st51{clip-path:url(#SVGID_2_);fill:#CBE7FF;}
	.st52{clip-path:url(#SVGID_2_);fill:#CAE7FF;}
	.st53{clip-path:url(#SVGID_2_);fill:#C9E6FF;}
	.st54{clip-path:url(#SVGID_2_);fill:#C8E6FF;}
	.st55{clip-path:url(#SVGID_2_);fill:#C7E6FF;}
	.st56{clip-path:url(#SVGID_2_);fill:#C6E5FF;}
	.st57{clip-path:url(#SVGID_2_);fill:#C5E5FF;}
	.st58{clip-path:url(#SVGID_2_);fill:#C4E4FF;}
	.st59{clip-path:url(#SVGID_2_);fill:#C3E4FF;}
	.st60{clip-path:url(#SVGID_2_);fill:#C2E3FF;}
	.st61{clip-path:url(#SVGID_2_);fill:#C1E3FF;}
	.st62{clip-path:url(#SVGID_2_);fill:#C0E2FF;}
	.st63{clip-path:url(#SVGID_2_);fill:#BFE2FF;}
	.st64{clip-path:url(#SVGID_2_);fill:#BEE1FF;}
	.st65{clip-path:url(#SVGID_2_);fill:#BDE1FF;}
	.st66{clip-path:url(#SVGID_2_);fill:#BCE0FF;}
	.st67{clip-path:url(#SVGID_2_);fill:#BBE0FF;}
	.st68{clip-path:url(#SVGID_2_);fill:#BAE0FF;}
	.st69{clip-path:url(#SVGID_2_);fill:#B9DFFF;}
	.st70{clip-path:url(#SVGID_2_);fill:#B8DFFF;}
	.st71{clip-path:url(#SVGID_2_);fill:#B7DEFF;}
	.st72{clip-path:url(#SVGID_2_);fill:#B6DEFF;}
	.st73{clip-path:url(#SVGID_2_);fill:#B5DDFF;}
	.st74{clip-path:url(#SVGID_2_);fill:#B4DDFF;}
	.st75{clip-path:url(#SVGID_2_);fill:#B3DCFF;}
	.st76{clip-path:url(#SVGID_2_);fill:#B2DCFF;}
	.st77{clip-path:url(#SVGID_2_);fill:#B1DBFF;}
	.st78{clip-path:url(#SVGID_2_);fill:#B0DBFF;}
	.st79{clip-path:url(#SVGID_2_);fill:#AFDAFF;}
	.st80{clip-path:url(#SVGID_2_);fill:#AEDAFF;}
	.st81{clip-path:url(#SVGID_2_);fill:#ADDAFF;}
	.st82{clip-path:url(#SVGID_2_);fill:#ACD9FF;}
	.st83{clip-path:url(#SVGID_2_);fill:#ABD9FF;}
	.st84{clip-path:url(#SVGID_2_);fill:#AAD8FF;}
	.st85{clip-path:url(#SVGID_2_);fill:#A9D8FF;}
	.st86{clip-path:url(#SVGID_2_);fill:#A8D7FF;}
	.st87{clip-path:url(#SVGID_2_);fill:#A7D7FF;}
	.st88{clip-path:url(#SVGID_2_);fill:#A6D6FF;}
	.st89{clip-path:url(#SVGID_2_);fill:#A5D6FF;}
	.st90{clip-path:url(#SVGID_2_);fill:#A4D5FF;}
	.st91{clip-path:url(#SVGID_2_);fill:#A3D5FF;}
	.st92{clip-path:url(#SVGID_2_);fill:#A2D5FF;}
	.st93{clip-path:url(#SVGID_2_);fill:#A1D4FF;}
	.st94{clip-path:url(#SVGID_2_);fill:#A0D4FF;}
	.st95{clip-path:url(#SVGID_2_);fill:#9FD3FF;}
	.st96{clip-path:url(#SVGID_2_);fill:#9ED3FF;}
	.st97{clip-path:url(#SVGID_2_);fill:#9DD2FF;}
	.st98{clip-path:url(#SVGID_2_);fill:#9CD2FF;}
	.st99{clip-path:url(#SVGID_2_);fill:#9BD1FF;}
	.st100{clip-path:url(#SVGID_2_);fill:#9AD1FF;}
	.st101{clip-path:url(#SVGID_2_);fill:#99D0FF;}
	.st102{clip-path:url(#SVGID_2_);fill:#98D0FF;}
	.st103{clip-path:url(#SVGID_2_);fill:#97CFFF;}
	.st104{clip-path:url(#SVGID_2_);fill:#96CFFF;}
	.st105{clip-path:url(#SVGID_2_);fill:#95CFFF;}
	.st106{clip-path:url(#SVGID_2_);fill:#94CEFF;}
	.st107{clip-path:url(#SVGID_2_);fill:#93CEFF;}
	.st108{clip-path:url(#SVGID_2_);fill:#92CDFF;}
	.st109{clip-path:url(#SVGID_2_);fill:#91CDFF;}
	.st110{clip-path:url(#SVGID_2_);fill:#90CCFF;}
	.st111{clip-path:url(#SVGID_2_);fill:#8FCCFF;}
	.st112{clip-path:url(#SVGID_2_);fill:#8ECBFF;}
	.st113{clip-path:url(#SVGID_2_);fill:#8DCBFF;}
	.st114{clip-path:url(#SVGID_2_);fill:#8CCAFF;}
	.st115{clip-path:url(#SVGID_2_);fill:#8BCAFF;}
	.st116{clip-path:url(#SVGID_2_);fill:#8ACAFF;}
	.st117{clip-path:url(#SVGID_2_);fill:#89C9FF;}
	.st118{clip-path:url(#SVGID_2_);fill:#88C9FF;}
	.st119{clip-path:url(#SVGID_2_);fill:#87C8FF;}
	.st120{clip-path:url(#SVGID_2_);fill:#86C8FF;}
	.st121{clip-path:url(#SVGID_2_);fill:#85C7FF;}
	.st122{clip-path:url(#SVGID_2_);fill:#84C7FF;}
	.st123{clip-path:url(#SVGID_2_);fill:#83C6FF;}
	.st124{clip-path:url(#SVGID_2_);fill:#82C6FF;}
	.st125{clip-path:url(#SVGID_2_);fill:#81C5FF;}
	.st126{clip-path:url(#SVGID_2_);fill:#80C5FF;}
	.st127{clip-path:url(#SVGID_2_);fill:#7FC4FF;}
	.st128{clip-path:url(#SVGID_2_);fill:#7EC4FF;}
	.st129{clip-path:url(#SVGID_2_);fill:#7DC4FF;}
	.st130{clip-path:url(#SVGID_2_);fill:#7CC3FF;}
	.st131{clip-path:url(#SVGID_2_);fill:#7BC3FF;}
	.st132{clip-path:url(#SVGID_2_);fill:#7AC2FF;}
	.st133{clip-path:url(#SVGID_2_);fill:#79C2FF;}
	.st134{clip-path:url(#SVGID_2_);fill:#77C1FF;}
	.st135{clip-path:url(#SVGID_2_);fill:#76C1FF;}
	.st136{clip-path:url(#SVGID_2_);fill:#75C0FF;}
	.st137{clip-path:url(#SVGID_2_);fill:#74C0FF;}
	.st138{clip-path:url(#SVGID_2_);fill:#73BFFF;}
	.st139{clip-path:url(#SVGID_2_);fill:#72BFFF;}
	.st140{clip-path:url(#SVGID_2_);fill:#71BFFF;}
	.st141{clip-path:url(#SVGID_2_);fill:#70BEFF;}
	.st142{clip-path:url(#SVGID_2_);fill:#6FBEFF;}
	.st143{clip-path:url(#SVGID_2_);fill:#6EBDFF;}
	.st144{clip-path:url(#SVGID_2_);fill:#6DBDFF;}
	.st145{clip-path:url(#SVGID_2_);fill:#6CBCFF;}
	.st146{clip-path:url(#SVGID_2_);fill:#6BBCFF;}
	.st147{clip-path:url(#SVGID_2_);fill:#6ABBFF;}
	.st148{clip-path:url(#SVGID_2_);fill:#69BBFF;}
	.st149{clip-path:url(#SVGID_2_);fill:#68BAFF;}
	.st150{clip-path:url(#SVGID_2_);fill:#67BAFF;}
	.st151{clip-path:url(#SVGID_2_);fill:#66B9FF;}
	.st152{clip-path:url(#SVGID_2_);fill:#65B9FF;}
	.st153{clip-path:url(#SVGID_2_);fill:#64B9FF;}
	.st154{clip-path:url(#SVGID_2_);fill:#63B8FF;}
	.st155{clip-path:url(#SVGID_2_);fill:#62B8FF;}
	.st156{clip-path:url(#SVGID_2_);fill:#61B7FF;}
	.st157{clip-path:url(#SVGID_2_);fill:#60B7FF;}
	.st158{clip-path:url(#SVGID_2_);fill:#5FB6FF;}
	.st159{clip-path:url(#SVGID_2_);fill:#5EB6FF;}
	.st160{clip-path:url(#SVGID_2_);fill:#5DB5FF;}
	.st161{clip-path:url(#SVGID_2_);fill:#5CB5FF;}
	.st162{clip-path:url(#SVGID_2_);fill:#5BB4FF;}
	.st163{clip-path:url(#SVGID_2_);fill:#5AB4FF;}
	.st164{clip-path:url(#SVGID_2_);fill:#59B4FF;}
	.st165{clip-path:url(#SVGID_2_);fill:#58B3FF;}
	.st166{clip-path:url(#SVGID_2_);fill:#57B3FF;}
	.st167{clip-path:url(#SVGID_2_);fill:#56B2FF;}
	.st168{clip-path:url(#SVGID_2_);fill:#55B2FF;}
	.st169{clip-path:url(#SVGID_2_);fill:#54B1FF;}
	.st170{clip-path:url(#SVGID_2_);fill:#53B1FF;}
	.st171{filter:url(#Adobe_OpacityMaskFilter);}
	.st172{fill:#FFFFFF;}
	.st173{opacity:0.4106;mask:url(#mask-3_2_);enable-background:new    ;}
	.st174{filter:url(#Adobe_OpacityMaskFilter_1_);}
	.st175{opacity:0.4106;mask:url(#mask-3_4_);enable-background:new    ;}
	.st176{filter:url(#Adobe_OpacityMaskFilter_2_);}
	.st177{mask:url(#mask-3_3_);}
	.st178{filter:url(#Adobe_OpacityMaskFilter_3_);}
	.st179{mask:url(#mask-5_1_);}
	.st180{opacity:0.6852;enable-background:new    ;}
</style>
<title>clound_bg</title>
<desc>Created with Sketch.</desc>
<g id="clound_bg">
	<g id="云彩底纹">
		<g id="Rectangle-12">
			<g>
				<defs>
					<rect id="SVGID_1_" width="334" height="153"/>
				</defs>
				<clipPath id="SVGID_2_">
					<use xlink:href="#SVGID_1_"  style="overflow:visible;"/>
				</clipPath>
				<polygon class="st0" points="0,86.5 143.2,153 0,153 				"/>
				<polygon class="st0" points="0,84.9 146.8,153 143.2,153 0,86.5 				"/>
				<polygon class="st1" points="0,83.4 150.5,153 146.8,153 0,84.9 				"/>
				<polygon class="st2" points="0,81.8 154.1,153 150.5,153 0,83.4 				"/>
				<polygon class="st3" points="0,80.2 157.8,153 154.1,153 0,81.8 				"/>
				<polygon class="st4" points="0,78.7 161.5,153 157.8,153 0,80.2 				"/>
				<polygon class="st5" points="0,77.1 165.1,153 161.5,153 0,78.7 				"/>
				<polygon class="st6" points="0,75.5 168.8,153 165.1,153 0,77.1 				"/>
				<polygon class="st7" points="0,73.9 172.4,153 168.8,153 0,75.5 				"/>
				<polygon class="st8" points="0,72.4 176.1,153 172.4,153 0,73.9 				"/>
				<polygon class="st9" points="0,70.8 179.8,153 176.1,153 0,72.4 				"/>
				<polygon class="st10" points="0,69.2 183.4,153 179.8,153 0,70.8 				"/>
				<polygon class="st11" points="0,67.7 187.1,153 183.4,153 0,69.2 				"/>
				<polygon class="st12" points="0,66.1 190.8,153 187.1,153 0,67.7 				"/>
				<polygon class="st13" points="0,64.5 194.4,153 190.8,153 0,66.1 				"/>
				<polygon class="st14" points="0,63 198.1,153 194.4,153 0,64.5 				"/>
				<polygon class="st15" points="0,61.4 201.7,153 198.1,153 0,63 				"/>
				<polygon class="st16" points="0,59.8 205.4,153 201.7,153 0,61.4 				"/>
				<polygon class="st17" points="0,58.3 209.1,153 205.4,153 0,59.8 				"/>
				<polygon class="st18" points="0,56.7 212.7,153 209.1,153 0,58.3 				"/>
				<polygon class="st19" points="0,55.1 216.4,153 212.7,153 0,56.7 				"/>
				<polygon class="st20" points="0,53.6 220,153 216.4,153 0,55.1 				"/>
				<polygon class="st21" points="0,52 223.7,153 220,153 0,53.6 				"/>
				<polygon class="st22" points="0,50.4 227.4,153 223.7,153 0,52 				"/>
				<polygon class="st23" points="0,48.8 231,153 227.4,153 0,50.4 				"/>
				<polygon class="st24" points="0,47.3 234.7,153 231,153 0,48.8 				"/>
				<polygon class="st25" points="0,45.7 238.3,153 234.7,153 0,47.3 				"/>
				<polygon class="st26" points="0,44.1 242,153 238.3,153 0,45.7 				"/>
				<polygon class="st27" points="0,42.6 245.7,153 242,153 0,44.1 				"/>
				<polygon class="st28" points="0,41 249.3,153 245.7,153 0,42.6 				"/>
				<polygon class="st29" points="0,39.4 253,153 249.3,153 0,41 				"/>
				<polygon class="st30" points="0,37.9 256.6,153 253,153 0,39.4 				"/>
				<polygon class="st31" points="0,36.3 260.3,153 256.6,153 0,37.9 				"/>
				<polygon class="st32" points="0,34.7 264,153 260.3,153 0,36.3 				"/>
				<polygon class="st33" points="0,33.2 267.6,153 264,153 0,34.7 				"/>
				<polygon class="st34" points="0,31.6 271.3,153 267.6,153 0,33.2 				"/>
				<polygon class="st35" points="0,30 275,153 271.3,153 0,31.6 				"/>
				<polygon class="st36" points="0,28.4 278.6,153 275,153 0,30 				"/>
				<polygon class="st37" points="0,26.9 282.3,153 278.6,153 0,28.4 				"/>
				<polygon class="st38" points="0,25.3 285.9,153 282.3,153 0,26.9 				"/>
				<polygon class="st39" points="0,23.7 289.6,153 285.9,153 0,25.3 				"/>
				<polygon class="st40" points="0,22.2 293.3,153 289.6,153 0,23.7 				"/>
				<polygon class="st41" points="0,20.6 296.9,153 293.3,153 0,22.2 				"/>
				<polygon class="st42" points="0,19 300.6,153 296.9,153 0,20.6 				"/>
				<polygon class="st43" points="0,17.5 304.2,153 300.6,153 0,19 				"/>
				<polygon class="st44" points="0,15.9 307.9,153 304.2,153 0,17.5 				"/>
				<polygon class="st45" points="0,14.3 311.6,153 307.9,153 0,15.9 				"/>
				<polygon class="st46" points="0,12.8 315.2,153 311.6,153 0,14.3 				"/>
				<polygon class="st47" points="0,11.2 318.9,153 315.2,153 0,12.8 				"/>
				<polygon class="st48" points="0,9.6 322.5,153 318.9,153 0,11.2 				"/>
				<polygon class="st49" points="0,8.1 326.2,153 322.5,153 0,9.6 				"/>
				<polygon class="st50" points="0,6.5 329.9,153 326.2,153 0,8.1 				"/>
				<polygon class="st51" points="0,4.9 333.5,153 329.9,153 0,6.5 				"/>
				<polygon class="st52" points="0,3.3 334,151.6 334,153 333.5,153 0,4.9 				"/>
				<polygon class="st53" points="0,1.8 334,150.1 334,151.6 0,3.3 				"/>
				<polygon class="st54" points="0,0.2 334,148.5 334,150.1 0,1.8 				"/>
				<polygon class="st55" points="3.2,0 334,146.9 334,148.5 0,0.2 0,0 				"/>
				<polygon class="st56" points="-5.2,0 334,145.4 334,146.9 3.2,0 				"/>
				<polygon class="st57" points="-1.5,0 334,143.8 334,145.4 -5.2,0 				"/>
				<polygon class="st58" points="2.2,0 334,142.2 334,143.8 -1.5,0 				"/>
				<polygon class="st59" points="5.8,0 334,140.6 334,142.2 2.2,0 				"/>
				<polygon class="st60" points="9.5,0 334,139.1 334,140.6 5.8,0 				"/>
				<polygon class="st61" points="13.1,0 334,137.5 334,139.1 9.5,0 				"/>
				<polygon class="st62" points="16.8,0 334,135.9 334,137.5 13.1,0 				"/>
				<polygon class="st63" points="20.5,0 334,134.4 334,135.9 16.8,0 				"/>
				<polygon class="st64" points="24.1,0 334,132.8 334,134.4 20.5,0 				"/>
				<polygon class="st65" points="27.8,0 334,131.2 334,132.8 24.1,0 				"/>
				<polygon class="st66" points="31.5,0 334,129.7 334,131.2 27.8,0 				"/>
				<polygon class="st67" points="35.1,0 334,128.1 334,129.7 31.5,0 				"/>
				<polygon class="st68" points="38.8,0 334,126.5 334,128.1 35.1,0 				"/>
				<polygon class="st69" points="42.4,0 334,125 334,126.5 38.8,0 				"/>
				<polygon class="st70" points="46.1,0 334,123.4 334,125 42.4,0 				"/>
				<polygon class="st71" points="49.8,0 334,121.8 334,123.4 46.1,0 				"/>
				<polygon class="st72" points="53.4,0 334,120.3 334,121.8 49.8,0 				"/>
				<polygon class="st73" points="57.1,0 334,118.7 334,120.3 53.4,0 				"/>
				<polygon class="st74" points="60.7,0 334,117.1 334,118.7 57.1,0 				"/>
				<polygon class="st75" points="64.4,0 334,115.5 334,117.1 60.7,0 				"/>
				<polygon class="st76" points="68.1,0 334,114 334,115.5 64.4,0 				"/>
				<polygon class="st77" points="71.7,0 334,112.4 334,114 68.1,0 				"/>
				<polygon class="st78" points="75.4,0 334,110.8 334,112.4 71.7,0 				"/>
				<polygon class="st79" points="79,0 334,109.3 334,110.8 75.4,0 				"/>
				<polygon class="st80" points="82.7,0 334,107.7 334,109.3 79,0 				"/>
				<polygon class="st80" points="85.5,0 334,106.5 334,107.7 82.7,0 				"/>
				<polygon class="st81" points="88.3,0 334,105.3 334,106.5 85.5,0 				"/>
				<polygon class="st82" points="91.1,0 334,104.1 334,105.3 88.3,0 				"/>
				<polygon class="st83" points="93.8,0 334,102.9 334,104.1 91.1,0 				"/>
				<polygon class="st84" points="96.6,0 334,101.7 334,102.9 93.8,0 				"/>
				<polygon class="st85" points="99.4,0 334,100.5 334,101.7 96.6,0 				"/>
				<polygon class="st86" points="102.2,0 334,99.3 334,100.5 99.4,0 				"/>
				<polygon class="st87" points="105,0 334,98.2 334,99.3 102.2,0 				"/>
				<polygon class="st88" points="107.8,0 334,97 334,98.2 105,0 				"/>
				<polygon class="st89" points="110.6,0 334,95.8 334,97 107.8,0 				"/>
				<polygon class="st90" points="113.3,0 334,94.6 334,95.8 110.6,0 				"/>
				<polygon class="st91" points="116.1,0 334,93.4 334,94.6 113.3,0 				"/>
				<polygon class="st92" points="118.9,0 334,92.2 334,93.4 116.1,0 				"/>
				<polygon class="st93" points="121.7,0 334,91 334,92.2 118.9,0 				"/>
				<polygon class="st94" points="124.5,0 334,89.8 334,91 121.7,0 				"/>
				<polygon class="st95" points="127.3,0 334,88.6 334,89.8 124.5,0 				"/>
				<polygon class="st96" points="130,0 334,87.4 334,88.6 127.3,0 				"/>
				<polygon class="st97" points="132.8,0 334,86.2 334,87.4 130,0 				"/>
				<polygon class="st98" points="135.6,0 334,85 334,86.2 132.8,0 				"/>
				<polygon class="st99" points="138.4,0 334,83.8 334,85 135.6,0 				"/>
				<polygon class="st100" points="141.2,0 334,82.6 334,83.8 138.4,0 				"/>
				<polygon class="st101" points="144,0 334,81.4 334,82.6 141.2,0 				"/>
				<polygon class="st102" points="146.8,0 334,80.2 334,81.4 144,0 				"/>
				<polygon class="st103" points="149.5,0 334,79.1 334,80.2 146.8,0 				"/>
				<polygon class="st104" points="152.3,0 334,77.9 334,79.1 149.5,0 				"/>
				<polygon class="st105" points="155.1,0 334,76.7 334,77.9 152.3,0 				"/>
				<polygon class="st106" points="157.9,0 334,75.5 334,76.7 155.1,0 				"/>
				<polygon class="st107" points="160.7,0 334,74.3 334,75.5 157.9,0 				"/>
				<polygon class="st108" points="163.5,0 334,73.1 334,74.3 160.7,0 				"/>
				<polygon class="st109" points="166.3,0 334,71.9 334,73.1 163.5,0 				"/>
				<polygon class="st110" points="169,0 334,70.7 334,71.9 166.3,0 				"/>
				<polygon class="st111" points="171.8,0 334,69.5 334,70.7 169,0 				"/>
				<polygon class="st112" points="174.6,0 334,68.3 334,69.5 171.8,0 				"/>
				<polygon class="st113" points="177.4,0 334,67.1 334,68.3 174.6,0 				"/>
				<polygon class="st114" points="180.2,0 334,65.9 334,67.1 177.4,0 				"/>
				<polygon class="st115" points="183,0 334,64.7 334,65.9 180.2,0 				"/>
				<polygon class="st116" points="185.8,0 334,63.5 334,64.7 183,0 				"/>
				<polygon class="st117" points="188.5,0 334,62.3 334,63.5 185.8,0 				"/>
				<polygon class="st118" points="191.3,0 334,61.1 334,62.3 188.5,0 				"/>
				<polygon class="st119" points="194.1,0 334,60 334,61.1 191.3,0 				"/>
				<polygon class="st120" points="196.9,0 334,58.8 334,60 194.1,0 				"/>
				<polygon class="st121" points="199.7,0 334,57.6 334,58.8 196.9,0 				"/>
				<polygon class="st122" points="202.5,0 334,56.4 334,57.6 199.7,0 				"/>
				<polygon class="st123" points="205.2,0 334,55.2 334,56.4 202.5,0 				"/>
				<polygon class="st124" points="208,0 334,54 334,55.2 205.2,0 				"/>
				<polygon class="st125" points="210.8,0 334,52.8 334,54 208,0 				"/>
				<polygon class="st126" points="213.6,0 334,51.6 334,52.8 210.8,0 				"/>
				<polygon class="st127" points="216.4,0 334,50.4 334,51.6 213.6,0 				"/>
				<polygon class="st128" points="219.2,0 334,49.2 334,50.4 216.4,0 				"/>
				<polygon class="st129" points="222,0 334,48 334,49.2 219.2,0 				"/>
				<polygon class="st130" points="224.7,0 334,46.8 334,48 222,0 				"/>
				<polygon class="st131" points="227.5,0 334,45.6 334,46.8 224.7,0 				"/>
				<polygon class="st132" points="230.3,0 334,44.4 334,45.6 227.5,0 				"/>
				<polygon class="st133" points="233.1,0 334,43.2 334,44.4 230.3,0 				"/>
				<polygon class="st134" points="235.9,0 334,42.1 334,43.2 233.1,0 				"/>
				<polygon class="st135" points="238.7,0 334,40.9 334,42.1 235.9,0 				"/>
				<polygon class="st136" points="241.5,0 334,39.7 334,40.9 238.7,0 				"/>
				<polygon class="st137" points="244.2,0 334,38.5 334,39.7 241.5,0 				"/>
				<polygon class="st138" points="247,0 334,37.3 334,38.5 244.2,0 				"/>
				<polygon class="st139" points="249.8,0 334,36.1 334,37.3 247,0 				"/>
				<polygon class="st140" points="252.6,0 334,34.9 334,36.1 249.8,0 				"/>
				<polygon class="st141" points="255.4,0 334,33.7 334,34.9 252.6,0 				"/>
				<polygon class="st142" points="258.2,0 334,32.5 334,33.7 255.4,0 				"/>
				<polygon class="st143" points="260.9,0 334,31.3 334,32.5 258.2,0 				"/>
				<polygon class="st144" points="263.7,0 334,30.1 334,31.3 260.9,0 				"/>
				<polygon class="st145" points="266.5,0 334,28.9 334,30.1 263.7,0 				"/>
				<polygon class="st146" points="269.3,0 334,27.7 334,28.9 266.5,0 				"/>
				<polygon class="st147" points="272.1,0 334,26.5 334,27.7 269.3,0 				"/>
				<polygon class="st148" points="274.9,0 334,25.3 334,26.5 272.1,0 				"/>
				<polygon class="st149" points="277.7,0 334,24.1 334,25.3 274.9,0 				"/>
				<polygon class="st150" points="280.4,0 334,23 334,24.1 277.7,0 				"/>
				<polygon class="st151" points="283.2,0 334,21.8 334,23 280.4,0 				"/>
				<polygon class="st152" points="286,0 334,20.6 334,21.8 283.2,0 				"/>
				<polygon class="st153" points="288.8,0 334,19.4 334,20.6 286,0 				"/>
				<polygon class="st154" points="291.6,0 334,18.2 334,19.4 288.8,0 				"/>
				<polygon class="st155" points="294.4,0 334,17 334,18.2 291.6,0 				"/>
				<polygon class="st156" points="297.2,0 334,15.8 334,17 294.4,0 				"/>
				<polygon class="st157" points="299.9,0 334,14.6 334,15.8 297.2,0 				"/>
				<polygon class="st158" points="302.7,0 334,13.4 334,14.6 299.9,0 				"/>
				<polygon class="st159" points="305.5,0 334,12.2 334,13.4 302.7,0 				"/>
				<polygon class="st160" points="308.3,0 334,11 334,12.2 305.5,0 				"/>
				<polygon class="st161" points="311.1,0 334,9.8 334,11 308.3,0 				"/>
				<polygon class="st162" points="313.9,0 334,8.6 334,9.8 311.1,0 				"/>
				<polygon class="st163" points="316.7,0 334,7.4 334,8.6 313.9,0 				"/>
				<polygon class="st164" points="319.4,0 334,6.2 334,7.4 316.7,0 				"/>
				<polygon class="st165" points="322.2,0 334,5 334,6.2 319.4,0 				"/>
				<polygon class="st166" points="325,0 334,3.9 334,5 322.2,0 				"/>
				<polygon class="st167" points="327.8,0 334,2.7 334,3.9 325,0 				"/>
				<polygon class="st168" points="330.6,0 334,1.5 334,2.7 327.8,0 				"/>
				<polygon class="st169" points="333.4,0 334,0.3 334,1.5 330.6,0 				"/>
				<polygon class="st170" points="334,0.3 333.4,0 334,0 				"/>
			</g>
		</g>
		<g id="Group-5" transform="translate(12.000000, 0.000000)">
			<g id="Mask">
			</g>
			<defs>
				<filter id="Adobe_OpacityMaskFilter" filterUnits="userSpaceOnUse" x="166" y="91" width="156" height="107">
					<feColorMatrix  type="matrix" values="1 0 0 0 0  0 1 0 0 0  0 0 1 0 0  0 0 0 1 0"/>
				</filter>
			</defs>
			<mask maskUnits="userSpaceOnUse" x="166" y="91" width="156" height="107" id="mask-3_2_">
				<g class="st171">
					<rect id="path-2_2_" x="-12" class="st172" width="334" height="154"/>
				</g>
			</mask>
			<g id="Combined-Shape" class="st173">
				<path class="st172" d="M255.3,104.8c5.7-2.4,12-3.8,18.7-3.8c26.5,0,48,21.5,48,48s-21.5,48-48,48c-9.4,0-18.2-2.7-25.7-7.4
					c-8.3,5.3-18.2,8.4-28.8,8.4c-29.5,0-53.5-24-53.5-53.5S190,91,219.5,91C233.3,91,245.8,96.2,255.3,104.8z"/>
			</g>
			<defs>
				<filter id="Adobe_OpacityMaskFilter_1_" filterUnits="userSpaceOnUse" x="16" y="21" width="135" height="135">
					<feColorMatrix  type="matrix" values="1 0 0 0 0  0 1 0 0 0  0 0 1 0 0  0 0 0 1 0"/>
				</filter>
			</defs>
			<mask maskUnits="userSpaceOnUse" x="16" y="21" width="135" height="135" id="mask-3_4_">
				<g class="st174">
					<rect id="path-2_4_" x="-12" class="st172" width="334" height="154"/>
				</g>
			</mask>
			<g id="Oval-5" class="st175">
				<circle class="st172" cx="83.5" cy="88.5" r="67.5"/>
			</g>
			<defs>
				<filter id="Adobe_OpacityMaskFilter_2_" filterUnits="userSpaceOnUse" x="-56" y="-9" width="414" height="226">
					<feColorMatrix  type="matrix" values="1 0 0 0 0  0 1 0 0 0  0 0 1 0 0  0 0 0 1 0"/>
				</filter>
			</defs>
			<mask maskUnits="userSpaceOnUse" x="-56" y="-9" width="414" height="226" id="mask-3_3_">
				<g class="st176">
					<rect id="path-2_3_" x="-12" class="st172" width="334" height="154"/>
				</g>
			</mask>
			<g id="Oval-5_1_" class="st177">
				<g transform="translate(-44.000000, -9.000000)">
					<g>
						<circle class="st172" cx="53" cy="65" r="65"/>
					</g>
					<g>
						<circle class="st172" cx="133" cy="108" r="42"/>
					</g>
					<g>
						<circle class="st172" cx="272" cy="172" r="42"/>
					</g>
					<g>
						<circle class="st172" cx="193.5" cy="150.5" r="53.5"/>
					</g>
					<g>
						<circle class="st172" cx="348.5" cy="172.5" r="53.5"/>
					</g>
					<g>
						<circle class="st172" cx="118.5" cy="161.5" r="53.5"/>
					</g>
				</g>
			</g>
		</g>
		<g id="Group-6" transform="translate(78.000000, 0.000000)">
			<g id="Mask_1_">
			</g>
			<defs>
				<filter id="Adobe_OpacityMaskFilter_3_" filterUnits="userSpaceOnUse" x="-12.5" y="15.5" width="224" height="224">
					<feColorMatrix  type="matrix" values="1 0 0 0 0  0 1 0 0 0  0 0 1 0 0  0 0 0 1 0"/>
				</filter>
			</defs>
			<mask maskUnits="userSpaceOnUse" x="-12.5" y="15.5" width="224" height="224" id="mask-5_1_">
				<g class="st178">
					<rect id="path-4_1_" x="-12" class="st172" width="248" height="154"/>
				</g>
			</mask>
			<g class="st179">
				<g transform="translate(0.000000, 16.000000)">
					<g id="Oval-6" class="st180">
						<path class="st172" d="M98.5,176.5c-36.4,0-66-29.6-66-66s29.6-66,66-66s66,29.6,66,66S134.9,176.5,98.5,176.5z M98.5,45.5
							c-35.8,0-65,29.2-65,65s29.2,65,65,65c35.8,0,65-29.2,65-65S134.3,45.5,98.5,45.5z"/>
					</g>
					<g id="Oval-6_1_" class="st180">
						<path class="st172" d="M99,203.5C48,203.5,6.5,162,6.5,111S48,18.5,99,18.5S191.5,60,191.5,111S150,203.5,99,203.5z M99,19.5
							c-50.5,0-91.5,41-91.5,91.5s41,91.5,91.5,91.5s91.5-41,91.5-91.5S149.5,19.5,99,19.5z"/>
					</g>
					<g id="Oval-6_2_" class="st180">
						<path class="st172" d="M99.5,223.5c-61.8,0-112-50.2-112-112s50.2-112,112-112s112,50.2,112,112S161.3,223.5,99.5,223.5z
							 M99.5,0.5c-61.2,0-111,49.8-111,111c0,61.2,49.8,111,111,111c61.2,0,111-49.8,111-111C210.5,50.3,160.7,0.5,99.5,0.5z"/>
					</g>
					<g id="Oval-2">
						<circle class="st172" cx="130" cy="24" r="3"/>
					</g>
					<g id="Oval-2_1_">
						<circle class="st172" cx="153" cy="74" r="3"/>
					</g>
					<g id="Oval-2_2_">
						<circle class="st172" cx="63" cy="6" r="3"/>
					</g>
				</g>
			</g>
		</g>
	</g>
</g>
</svg>
