<?xml version="1.0" encoding="UTF-8"?>
<svg width="16px" height="16px" viewBox="0 0 16 16" version="1.1" xmlns="http://www.w3.org/2000/svg" xmlns:xlink="http://www.w3.org/1999/xlink">
    <!-- Generator: Sketch 52.4 (67378) - http://www.bohemiancoding.com/sketch -->
    <title>16/Public/Follow_No_Main</title>
    <desc>Created with Sketch.</desc>
    <g id="16/Public/Follow_No_Main" stroke="none" stroke-width="1" fill="none" fill-rule="evenodd">
        <path d="M10,13.7372568 C9.38928014,14.1661636 8.72261348,14.587078 8,15 C3.33334958,12.3333426 1.00001625,9.33335422 1,6.00003481 C1,3.790861 2.790861,2 5,2 C6.19469253,2 7.26705555,2.52375489 8,3.3541756 C8.73294445,2.52375489 9.80530747,2 11,2 C12.8638394,2 14.4299397,3.27477279 14.8739825,5 L13.8292943,5 C13.4174579,3.83480763 12.3062188,3 11,3 C9.69378117,3 8.58254212,3.83480763 8.17070571,5 L7.82929429,5 C7.41745788,3.83480763 6.30621883,3 5,3 C3.36088279,3 2.02879337,4.31454226 2,5.94736842 C2,5.95778399 2.0000249,5.96819592 2.0000747,5.97860421 C2.00002493,5.98573026 2,5.99286222 2,6 C2,6.0383501 2.00071959,6.07653213 2.00214602,6.11453333 C2.07546212,8.96467349 4.02734623,11.5403934 7.85779835,13.8416931 L7.875,14 C7.91688145,13.9755279 7.95854812,13.9510245 8,13.9264896 C8.04145188,13.9510245 8.08311855,13.9755279 8.125,14 L8.14220165,13.8416931 C8.60259497,13.5650931 9.03584985,13.2845287 9.4419663,13 L10,13 L10,13.7372568 Z M15,6 L15,6.00003481 L15,6 Z M9.5,8.5 L11.5,8.5 L11.5,6.5 C11.5,6.22385763 11.7238576,6 12,6 L12,6 C12.2761424,6 12.5,6.22385763 12.5,6.5 L12.5,8.5 L14.5,8.5 C14.7761424,8.5 15,8.72385763 15,9 L15,9 C15,9.27614237 14.7761424,9.5 14.5,9.5 L12.5,9.5 L12.5,11.5 C12.5,11.7761424 12.2761424,12 12,12 L12,12 C11.7238576,12 11.5,11.7761424 11.5,11.5 L11.5,9.5 L9.5,9.5 C9.22385763,9.5 9,9.27614237 9,9 L9,9 C9,8.72385763 9.22385763,8.5 9.5,8.5 Z" id="Oval-2" fill="#FFAA00"></path>
    </g>
</svg>