<?xml version="1.0" encoding="UTF-8"?>
<svg width="24px" height="24px" viewBox="0 0 24 24" version="1.1" xmlns="http://www.w3.org/2000/svg" xmlns:xlink="http://www.w3.org/1999/xlink">
    <!-- Generator: Sketch 51.1 (57501) - http://www.bohemiancoding.com/sketch -->
    <title>24/search_icon/4 copy</title>
    <desc>Created with Sketch.</desc>
    <defs></defs>
    <g id="24/search_icon/4-copy" stroke="none" stroke-width="1" fill="none" fill-rule="evenodd">
        <circle id="Combined-Shape" fill="#44aaff" cx="12" cy="12" r="12"></circle>
        <path d="M12,18 C7.3608081,18 4.6,12.59483 4.6,12 C4.6,11.40517 7.3608081,6 12,6 C16.6391919,6 19.4,11.40517 19.4,12 C19.4,12.59483 16.6391919,18 12,18 Z M11.9,15.4 C13.8329966,15.4 15.4,13.8329966 15.4,11.9 C15.4,9.96700338 13.8329966,8.4 11.9,8.4 C9.96700338,8.4 8.4,9.96700338 8.4,11.9 C8.4,13.8329966 9.96700338,15.4 11.9,15.4 Z" id="Combined-Shape" fill="#FFFFFF"></path>
        <circle id="Oval-2" fill="#FFFFFF" cx="12" cy="12" r="1.2"></circle>
    </g>
</svg>