<?xml version="1.0" encoding="UTF-8"?>
<svg width="24px" height="24px" viewBox="0 0 24 24" version="1.1" xmlns="http://www.w3.org/2000/svg" xmlns:xlink="http://www.w3.org/1999/xlink">
    <!-- Generator: Sketch 52 (66869) - http://www.bohemiancoding.com/sketch -->
    <title>24/Bar/ImageSearch_Dark</title>
    <desc>Created with Sketch.</desc>
    <g id="24/Bar/ImageSearch_Dark" stroke="none" stroke-width="1" fill="none" fill-rule="evenodd">
        <path d="M15.2465562,14.3370875 C15.720672,13.679633 16,12.8724048 16,12 C16,9.79107692 14.2092308,8 12,8 C9.79076923,8 8,9.79107692 8,12 C8,14.2089231 9.79076923,16 12,16 C12.8724684,16 13.679673,15.720661 14.3370902,15.2465634 C14.3714081,15.3390055 14.4257114,15.4257114 14.5,15.5 L16.5,17.5 C16.7761424,17.7761424 17.2238576,17.7761424 17.5,17.5 C17.7761424,17.2238576 17.7761424,16.7761424 17.5,16.5 L15.5,14.5 C15.4257095,14.4257095 15.339001,14.3714053 15.2465562,14.3370875 Z M9.41421356,3.58578644 C9.78928632,3.21071368 10.2979941,3 10.8284271,3 L13.1715729,3 C13.7020059,3 14.2107137,3.21071368 14.5857864,3.58578644 L16.1213203,5.12132034 C16.6839295,5.68392948 17.4469912,6 18.2426407,6 L21,6 C21.5522847,6 22,6.44771525 22,7 L22,19 C22,19.5522847 21.5522847,20 21,20 L3,20 C2.44771525,20 2,19.5522847 2,19 L2,7 C2,6.44771525 2.44771525,6 3,6 L5.75735931,6 C6.55300878,6 7.31607052,5.68392948 7.87867966,5.12132034 L9.41421356,3.58578644 Z M3.5,4 L5.5,4 C5.77614237,4 6,4.22385763 6,4.5 C6,4.77614237 5.77614237,5 5.5,5 L3.5,5 C3.22385763,5 3,4.77614237 3,4.5 C3,4.22385763 3.22385763,4 3.5,4 Z M12,9 C13.6569231,9 15,10.3433077 15,12 C15,13.6566923 13.6569231,15 12,15 C10.3430769,15 9,13.6566923 9,12 C9,10.3433077 10.3430769,9 12,9 Z" id="Fill-1" fill="#8899BB"></path>
    </g>
</svg>