<?xml version="1.0" encoding="UTF-8"?>
<svg width="16px" height="16px" viewBox="0 0 16 16" version="1.1" xmlns="http://www.w3.org/2000/svg" xmlns:xlink="http://www.w3.org/1999/xlink">
    <!-- Generator: Sketch 51 (57462) - http://www.bohemiancoding.com/sketch -->
    <title>16/men</title>
    <desc>Created with Sketch.</desc>
    <defs></defs>
    <g id="16/men" stroke="none" stroke-width="1" fill="none" fill-rule="evenodd">
        <g id="men" transform="translate(1.000000, 0.000000)">
            <ellipse id="Oval-4" stroke="#2066FF" fill="#D7E4FF" cx="6.96428571" cy="7.99242424" rx="6.46428571" ry="6.49242424"></ellipse>
            <g id="Group-10" transform="translate(7.398059, 7.640225) rotate(-145.000000) translate(-7.398059, -7.640225) translate(3.898059, 1.640225)" fill="#2066FF" fill-rule="nonzero">
                <path d="M3.32142857,6.16161616 C1.76274427,6.16161616 0.5,4.8937699 0.5,3.33080808 C0.5,1.76784627 1.76274427,0.5 3.32142857,0.5 C4.88011287,0.5 6.14285714,1.76784627 6.14285714,3.33080808 C6.14285714,4.8937699 4.88011287,6.16161616 3.32142857,6.16161616 Z M3.32142857,5.16161616 C4.32692346,5.16161616 5.14285714,4.34238578 5.14285714,3.33080808 C5.14285714,2.31923038 4.32692346,1.5 3.32142857,1.5 C2.31593368,1.5 1.5,2.31923038 1.5,3.33080808 C1.5,4.34238578 2.31593368,5.16161616 3.32142857,5.16161616 Z" id="Oval-5"></path>
                <polygon id="Line-5" points="2.82142857 5.62777778 3.82142857 5.62777778 3.82142857 10.3570707 2.82142857 10.3570707"></polygon>
                <path d="M1.88795239,7.88066117 C1.63153447,7.88067952 1.42365186,7.67198673 1.42363358,7.41453278 C1.42361531,7.15707883 1.63146828,6.94835629 1.8878862,6.94833794 L4.84770897,6.94812612 L5.22241145,9.9159609 C5.25465811,10.1713709 5.07458167,10.4046683 4.82019948,10.4370453 C4.56581728,10.4694222 4.33345868,10.2886182 4.30121202,10.0332082 L4.02942394,7.88050792 L1.88795239,7.88066117 Z" id="Path-2" transform="translate(3.324890, 8.694461) rotate(-220.000000) translate(-3.324890, -8.694461) "></path>
            </g>
        </g>
    </g>
</svg>