<?xml version="1.0" encoding="UTF-8"?>
<svg width="166px" height="196px" viewBox="0 0 166 196" version="1.1" xmlns="http://www.w3.org/2000/svg" xmlns:xlink="http://www.w3.org/1999/xlink">
    <!-- Generator: Sketch 51.1 (57501) - http://www.bohemiancoding.com/sketch -->
    <title>没有任何数据</title>
    <desc>Created with Sketch.</desc>
    <defs>
        <linearGradient x1="50%" y1="-11.6607576%" x2="50%" y2="22.2163274%" id="linearGradient-1">
            <stop stop-color="#F5F8FA" offset="0%"></stop>
            <stop stop-color="#E8EFF2" offset="100%"></stop>
        </linearGradient>
        <linearGradient x1="50%" y1="85.6223076%" x2="50%" y2="100%" id="linearGradient-2">
            <stop stop-color="#FFFFFF" offset="0%"></stop>
            <stop stop-color="#F5F7FA" offset="100%"></stop>
        </linearGradient>
        <linearGradient x1="50%" y1="-23.2338393%" x2="50%" y2="97.8255961%" id="linearGradient-3">
            <stop stop-color="#FFF9F0" offset="0%"></stop>
            <stop stop-color="#FEDDA6" offset="100%"></stop>
        </linearGradient>
    </defs>
    <g id="没有任何数据" stroke="none" stroke-width="1" fill="none" fill-rule="evenodd">
        <g id="Group-4" transform="translate(17.000000, 24.000000)">
            <g id="Group" transform="translate(18.000000, 9.000000)" stroke="#B5C4CC" stroke-linecap="round">
                <path d="M0,3.33333333 L2,3.33333333" id="Stroke-1"></path>
                <path d="M2.66666667,2 L2.66666667,0" id="Stroke-2"></path>
                <path d="M6,2.66666667 L4,2.66666667" id="Stroke-3"></path>
                <path d="M2.66666667,4 L2.66666667,6" id="Stroke-4"></path>
            </g>
            <g id="Group" transform="translate(113.000000, 12.000000)" stroke="#B5C4CC" stroke-linecap="round">
                <path d="M0,3 L1.8,3" id="Stroke-1"></path>
                <path d="M3,1.8 L3,0" id="Stroke-2"></path>
                <path d="M6,3 L4.2,3" id="Stroke-3"></path>
                <path d="M3,4.2 L3,6" id="Stroke-4"></path>
            </g>
            <path d="M124,45 C124,46.6568343 122.657011,48 120.999605,48 C119.342989,48 118,46.6568343 118,45 C118,43.3423756 119.342989,42 120.999605,42 C122.657011,42 124,43.3423756 124,45 Z" id="Stroke-5" stroke="#B5C4CC"></path>
            <path d="M67,3 C67,4.65683434 65.6570112,6 63.999605,6 C62.3429888,6 61,4.65683434 61,3 C61,1.34237556 62.3429888,0 63.999605,0 C65.6570112,0 67,1.34237556 67,3 Z" id="Stroke-5" stroke="#B5C4CC"></path>
            <g id="Group-2" transform="translate(0.000000, 28.000000)" stroke="#B5C4CC" stroke-linecap="round">
                <path d="M0.268164706,3.14981136 L1.94534118,3.14981136" id="Stroke-7"></path>
                <path d="M3.09169412,1.8295632 L3.09169412,0.1530576" id="Stroke-9"></path>
                <path d="M5.92277647,3.08369664 L4.24489412,3.08369664" id="Stroke-11"></path>
                <path d="M3.09169412,4.29507072 L3.09169412,5.97228192" id="Stroke-13"></path>
            </g>
            <path d="M98,17.5 C98,18.8806165 96.8807627,20 95.5003265,20 C94.1192373,20 93,18.8806165 93,17.5 C93,16.1193835 94.1192373,15 95.5003265,15 C96.8807627,15 98,16.1193835 98,17.5 Z" id="Stroke-17" stroke="#B5C4CC"></path>
            <path d="M100.838095,28.1557727 L62.5,28.1557727 L62.5,24.1803434 C62.5,22.4319496 61.0771429,21 59.3380952,21 L36.0190476,21 C34.28,21 32.8571429,22.4319496 32.8571429,24.1803434 L32.8571429,28.1557727 L24.1619048,28.1557727 C22.4228571,28.1557727 21,29.5877223 21,31.3361161 L21,79.8196566 C21,81.5696405 26.3752381,83 28.1142857,83 L100.838095,83 C102.577143,83 104,81.5696405 104,79.8196566 L104,31.3361161 C104,29.5877223 102.577143,28.1557727 100.838095,28.1557727" id="Fill-19" fill="url(#linearGradient-1)"></path>
            <path d="M100.838095,28.1557727 L62.5,28.1557727 L62.5,24.1803434 C62.5,22.4319496 61.0771429,21 59.3380952,21 L36.0190476,21 C34.28,21 32.8571429,22.4319496 32.8571429,24.1803434 L32.8571429,28.1557727 L24.1619048,28.1557727 C22.4228571,28.1557727 21,29.5877223 21,31.3361161 L21,79.8196566 C21,81.5696405 26.3752381,83 28.1142857,83 L100.838095,83 C102.577143,83 104,81.5696405 104,79.8196566 L104,31.3361161 C104,29.5877223 102.577143,28.1557727 100.838095,28.1557727 Z" id="Stroke-21" stroke="#D2DADF"></path>
            <polygon id="Fill-23" fill="#FFFFFF" points="28 59 98 59 98 31 28 31"></polygon>
            <polygon id="Stroke-25" stroke="#D2DADF" points="28 59 98 59 98 31 28 31"></polygon>
            <polygon id="Fill-26" fill="#FFFFFF" points="26 61 96 61 96 33 26 33"></polygon>
            <polygon id="Stroke-27" stroke="#D2DADF" points="26 61 96 61 96 33 26 33"></polygon>
            <path d="M100.887229,95 L24.1127709,95 C22.3740935,95 20.9515394,93.5884936 20.9515394,91.8633191 L17,38.1366809 C17,36.4122906 18.4225542,35 20.1612315,35 L104.838769,35 C106.577446,35 108,36.4122906 108,38.1366809 L104.048461,91.8633191 C104.048461,93.5884936 102.625906,95 100.887229,95" id="Fill-28" fill="url(#linearGradient-2)"></path>
            <path d="M100.887229,95 L24.1127709,95 C22.3740935,95 20.9515394,93.5884936 20.9515394,91.8633191 L17,38.1366809 C17,36.4122906 18.4225542,35 20.1612315,35 L104.838769,35 C106.577446,35 108,36.4122906 108,38.1366809 L104.048461,91.8633191 C104.048461,93.5884936 102.625906,95 100.887229,95 Z" id="Stroke-29" stroke="#D2DADF"></path>
            <path d="M108.799796,100.799825 C107.199525,102.400058 104.579248,102.400058 102.978976,100.799825 L86.2002037,84.0214496 C84.5999321,82.4212159 84.5999321,79.801001 86.2002037,78.2007674 C87.8004753,76.5997442 90.4207522,76.5997442 92.0210238,78.2007674 L108.799796,94.978353 C110.400068,96.5793762 110.400068,99.1988016 108.799796,100.799825" id="Fill-30" fill="#E7ECF0"></path>
            <path d="M108.799796,100.799825 C107.199525,102.400058 104.579248,102.400058 102.978976,100.799825 L86.2002037,84.0214496 C84.5999321,82.4212159 84.5999321,79.801001 86.2002037,78.2007674 C87.8004753,76.5997442 90.4207522,76.5997442 92.0210238,78.2007674 L108.799796,94.978353 C110.400068,96.5793762 110.400068,99.1988016 108.799796,100.799825 Z" id="Stroke-31" stroke="#D2DADF"></path>
            <path d="M95.8492726,57.1506119 C104.050242,65.3514279 104.050242,78.6479806 95.8492726,86.8487965 C87.6490913,95.0504012 74.3515002,95.0504012 66.151319,86.8487965 C57.9495603,78.6479806 57.9495603,65.3514279 66.151319,57.1506119 C74.3515002,48.949796 87.6490913,48.949796 95.8492726,57.1506119" id="Fill-32" fill="#FFFFFF"></path>
            <path d="M95.8492726,57.1506119 C104.050242,65.3514279 104.050242,78.6479806 95.8492726,86.8487965 C87.6490913,95.0504012 74.3515002,95.0504012 66.151319,86.8487965 C57.9495603,78.6479806 57.9495603,65.3514279 66.151319,57.1506119 C74.3515002,48.949796 87.6490913,48.949796 95.8492726,57.1506119 Z" id="Stroke-33" stroke="#D2DADF"></path>
            <path d="M91.4602045,61.5397664 C97.5132652,67.5927883 97.5132652,77.4072117 91.4602045,83.4602336 C85.4071439,89.5132555 75.5934516,89.5132555 69.540391,83.4602336 C63.4865363,77.4072117 63.4865363,67.5927883 69.540391,61.5397664 C75.5934516,55.4867445 85.4071439,55.4867445 91.4602045,61.5397664" id="Fill-34" fill="url(#linearGradient-3)"></path>
            <path d="M91.4602045,61.5397664 C97.5132652,67.5927883 97.5132652,77.4072117 91.4602045,83.4602336 C85.4071439,89.5132555 75.5934516,89.5132555 69.540391,83.4602336 C63.4865363,77.4072117 63.4865363,67.5927883 69.540391,61.5397664 C75.5934516,55.4867445 85.4071439,55.4867445 91.4602045,61.5397664 Z" id="Stroke-35" stroke="#D2DADF"></path>
            <g id="Group-38" transform="translate(70.000000, 66.000000)" stroke="#FFFFFF" stroke-linecap="round" stroke-width="3">
                <path d="M3.28348235,13.8910554 C-1.07698824,10.077993 -1.07698824,3.89493776 3.28348235,0.08269856" id="Stroke-37"></path>
            </g>
        </g>
        <text id="没有相关数据" font-family="PingFangSC-Regular, PingFang SC" font-size="14" font-weight="normal" fill="#A2A7B8">
            <tspan x="39" y="164">没有相关数据</tspan>
        </text>
    </g>
</svg>