<?xml version="1.0" encoding="UTF-8"?>
<svg width="24px" height="24px" viewBox="0 0 24 24" version="1.1" xmlns="http://www.w3.org/2000/svg" xmlns:xlink="http://www.w3.org/1999/xlink">
    <!-- Generator: Sketch 52 (66869) - http://www.bohemiancoding.com/sketch -->
    <title>24/Bar/Search_Light</title>
    <desc>Created with Sketch.</desc>
    <g id="24/Bar/Search_Light" stroke="none" stroke-width="1" fill="none" fill-rule="evenodd">
        <path d="M17,11 C17,7.68595142 14.3140486,5 11,5 C7.68595142,5 5,7.68595142 5,11 C5,14.3140486 7.68595142,17 11,17 C14.3140486,17 17,14.3140486 17,11 Z M16.6337822,17.6337822 L16.1349735,17.1349735 C14.7455361,18.2991363 12.9546901,19 11,19 C6.58138192,19 3,15.4186181 3,11 C3,6.58138192 6.58138192,3 11,3 C15.4186181,3 19,6.58138192 19,11 C19,12.9546901 18.2991363,14.7455361 17.1349735,16.1349735 L17.6337822,16.6337822 C18.1055876,16.5077862 18.6298588,16.6298588 19,17 L21,19 C21.5522847,19.5522847 21.5522847,20.4477153 21,21 C20.4477153,21.5522847 19.5522847,21.5522847 19,21 L17,19 C16.6298588,18.6298588 16.5077862,18.1055876 16.6337822,17.6337822 Z" id="Stroke-4" fill="#FFFFFF" fill-rule="nonzero"></path>
    </g>
</svg>