<?xml version="1.0" encoding="UTF-8"?>
<svg width="18px" height="18px" viewBox="0 0 18 18" version="1.1" xmlns="http://www.w3.org/2000/svg" xmlns:xlink="http://www.w3.org/1999/xlink">
    <!-- Generator: Sketch 51.1 (57501) - http://www.bohemiancoding.com/sketch -->
    <title>18/search_icon/2</title>
    <desc>Created with Sketch.</desc>
    <defs></defs>
    <g id="18/search_icon/2" stroke="none" stroke-width="1" fill="none" fill-rule="evenodd">
        <path d="M13.5903267,12.2135269 L16.7347994,15.3205858 C17.1253236,15.7111101 17.1253236,16.3442751 16.7347994,16.7347994 C16.3442751,17.1253236 15.7111101,17.1253236 15.3205858,16.7347994 L12.1707058,13.6223974 C11.0058404,14.487916 9.56272204,15 8,15 C4.13400675,15 1,11.8659932 1,8 C1,4.13400675 4.13400675,1 8,1 C11.8659932,1 15,4.13400675 15,8 C15,9.58192741 14.4752519,11.0412933 13.5903267,12.2135269 Z M8,13 C10.7614237,13 13,10.7614237 13,8 C13,5.23857625 10.7614237,3 8,3 C5.23857625,3 3,5.23857625 3,8 C3,10.7614237 5.23857625,13 8,13 Z" id="Combined-Shape" fill="#44AAFF" fill-rule="nonzero"></path>
    </g>
</svg>