<?xml version="1.0" encoding="UTF-8"?>
<svg width="96px" height="96px" viewBox="0 0 96 96" version="1.1" xmlns="http://www.w3.org/2000/svg" xmlns:xlink="http://www.w3.org/1999/xlink">
    <!-- Generator: Sketch 51.1 (57501) - http://www.bohemiancoding.com/sketch -->
    <title>user-bg-2</title>
    <desc>Created with Sketch.</desc>
    <defs>
        <rect id="path-1" x="0" y="0" width="96" height="96"></rect>
        <linearGradient x1="50%" y1="0%" x2="50%" y2="97.6878613%" id="linearGradient-3">
            <stop stop-color="#D5DAE2" offset="1.46992413%"></stop>
            <stop stop-color="#D5DAE2" offset="97.5478685%"></stop>
        </linearGradient>
    </defs>
    <g id="user-bg-2" stroke="none" stroke-width="1" fill="none" fill-rule="evenodd">
        <g id="Group">
            <mask id="mask-2" fill="white">
                <use xlink:href="#path-1"></use>
            </mask>
            <use id="Mask" fill="#E6EAF0" xlink:href="#path-1"></use>
            <g mask="url(#mask-2)">
                <rect id="Rectangle-4-Copy" fill="#E6EAF0" x="0" y="0" width="96" height="118"></rect>
                <path d="M96,92.0322622 L96,114 L0,114 L0,93.8633639 C2.17715941,90.336988 4.78814331,87.5607704 7.81358188,85.878165 C14.6757474,82.068185 22.7888917,80.4379242 29.9121838,76.9902244 C32.2866145,75.7463957 34.6549725,74.2248189 35.6083884,71.8820737 C36.08206,68.700046 36.0091875,63.8636054 35.9241695,62.3420286 C34.6610452,61.4242521 33.5740296,60.0838154 32.7359953,58.8037588 C31.2542533,56.4489375 30.203674,53.9190142 29.7785841,51.2924828 C28.09037,51.0147347 26.8758274,49.8675141 26.2989197,48.5753814 C25.5580487,47.1504126 25.2422677,45.6771399 25.0843771,44.1555631 C25.0357954,42.5917202 25.7705937,41.1184475 27.1430268,40.1523669 C25.8252481,35.5453705 24.7685961,30.757234 24.981141,26.0113635 C25.1390315,23.0225519 25.7705937,20.0699684 27.3009173,17.401171 C28.406151,15.1429578 30.2522557,13.2107967 32.6266864,11.77979 C37.3208934,8.92985249 43.1749886,8.09660805 48.8165388,8 C52.0350766,8.04830403 55.3568505,8.47096425 58.1017167,9.895933 C59.1583687,10.4031253 59.9478214,11.1820277 60.6340379,11.9669681 C63.3242497,12.2869823 65.9598071,13.1141887 68.0670384,14.7746396 C71.0244496,17.0328528 72.39081,20.3899825 72.7612454,23.7108843 C73.447462,29.2839612 72.1843377,34.8087341 70.2289242,40.1040629 C71.7106661,41.0701434 72.5487005,42.7728603 72.2875738,44.3850072 C72.0750289,46.1843321 71.6013573,48.0681891 70.4414691,49.6380699 C69.7552526,50.4652764 68.8079094,51.0630387 67.6480212,51.2502168 C67.2229313,54.0518503 66.0630432,56.7749897 64.5327196,59.214343 C63.7979213,60.3615636 62.8991598,61.5631262 61.6360356,62.3420286 C61.6360356,65.5240563 61.478145,68.700046 61.9518166,71.8820737 C62.8991598,74.2248189 65.2735905,75.7463957 67.6480212,76.9902244 C74.7652407,80.4379242 82.9391121,81.989691 89.7466232,85.878165 C92.4419692,87.417645 93.4342491,87.4929675 96,92.0322622 Z" id="Combined-Shape" fill="url(#linearGradient-3)"></path>
            </g>
        </g>
    </g>
</svg>