<?xml version="1.0" encoding="UTF-8"?>
<svg width="1048px" height="193px" viewBox="0 0 1048 193" version="1.1" xmlns="http://www.w3.org/2000/svg" xmlns:xlink="http://www.w3.org/1999/xlink">
    <!-- Generator: Sketch 51.1 (57501) - http://www.bohemiancoding.com/sketch -->
    <title>vid_bg</title>
    <desc>Created with Sketch.</desc>
    <defs>
        <linearGradient x1="50%" y1="0%" x2="50%" y2="98.2794436%" id="linearGradient-1">
            <stop stop-color="#FFFFFF" offset="0%"></stop>
            <stop stop-color="#F0F3F6" offset="100%"></stop>
        </linearGradient>
        <path d="M3,0 L1045,0 C1046.65685,-3.04359188e-16 1048,1.34314575 1048,3 L1048,193 L0,193 L0,3 C-2.02906125e-16,1.34314575 1.34314575,3.04359188e-16 3,0 Z" id="path-2"></path>
    </defs>
    <g id="vid_bg" stroke="none" stroke-width="1" fill="none" fill-rule="evenodd">
        <g id="Group-51">
            <mask id="mask-3" fill="white">
                <use xlink:href="#path-2"></use>
            </mask>
            <path stroke="#D8DCE3" d="M0.5,192.5 L1047.5,192.5 L1047.5,3 C1047.5,1.61928813 1046.38071,0.5 1045,0.5 L3,0.5 C1.61928813,0.5 0.5,1.61928813 0.5,3 L0.5,192.5 Z"></path>
            <g opacity="0.3" mask="url(#mask-3)" id="Group-50">
                <g transform="translate(0.000000, 33.000000)">
                    <g>
                        <g id="Group" stroke="#B5BBC7" stroke-width="2">
                            <polyline id="Stroke-10" points="329.611183 136.099742 469.564123 136.099742 494.930784 162.390065"></polyline>
                            <path d="M316.052193,138.355715 C316.052193,141.985532 318.989385,144.928295 322.612446,144.928295 C326.235506,144.928295 329.172699,141.985532 329.172699,138.355715 C329.172699,134.725021 326.235506,131.783134 322.612446,131.783134 C318.989385,131.783134 316.052193,134.725021 316.052193,138.355715 Z" id="Stroke-12"></path>
                            <polyline id="Stroke-14" points="224.583171 44.959957 315.616064 44.959957 383.405346 112.876624 515.04933 112.876624"></polyline>
                            <path d="M210.046687,43.7147597 C210.046687,47.3454532 212.983879,50.2873403 216.60694,50.2873403 C220.230001,50.2873403 223.167193,47.3454532 223.167193,43.7147597 C223.167193,40.0849425 220.230001,37.142179 216.60694,37.142179 C212.983879,37.142179 210.046687,40.0849425 210.046687,43.7147597 Z" id="Stroke-18"></path>
                            <polyline id="Stroke-20" points="286.750863 80.0137204 197.530373 80.0137204 140.674846 23.0513548 23.3573109 23.0513548 0.617194338 0.212951613"></polyline>
                            <path d="M287.32687,79.2059065 C287.32687,82.8357237 290.264063,85.7784871 293.887123,85.7784871 C297.510184,85.7784871 300.447377,82.8357237 300.447377,79.2059065 C300.447377,75.5752129 297.510184,72.6333258 293.887123,72.6333258 C290.264063,72.6333258 287.32687,75.5752129 287.32687,79.2059065 Z" id="Stroke-22"></path>
                            <path d="M119.745562,72.6333258 C119.745562,76.263143 122.682754,79.2059065 126.305815,79.2059065 C129.928876,79.2059065 132.866068,76.263143 132.866068,72.6333258 C132.866068,69.0026323 129.928876,66.0607452 126.305815,66.0607452 C122.682754,66.0607452 119.745562,69.0026323 119.745562,72.6333258 Z" id="Stroke-30"></path>
                            <polyline id="Stroke-32" points="118.807336 72.1283763 75.9466664 72.1283763 53.6419803 94.4751505 0.721907077 94.4751505"></polyline>
                            <polyline id="Stroke-34" points="75.9470155 162.390065 124.676834 111.562108 317.78545 111.562108"></polyline>
                            <path d="M318.671233,112.00028 C318.671233,115.630973 321.608425,118.57286 325.231486,118.57286 C328.854547,118.57286 331.791739,115.630973 331.791739,112.00028 C331.791739,108.370462 328.854547,105.427699 325.231486,105.427699 C321.608425,105.427699 318.671233,108.370462 318.671233,112.00028 Z" id="Stroke-42"></path>
                        </g>
                        <g id="Group" transform="translate(781.000000, 81.500000) scale(-1, 1) translate(-781.000000, -81.500000) translate(514.000000, 0.000000)" stroke="#B5BBC7" stroke-width="2">
                            <polyline id="Stroke-10" points="329.611183 136.099742 469.564123 136.099742 494.930784 162.390065"></polyline>
                            <path d="M316.052193,138.355715 C316.052193,141.985532 318.989385,144.928295 322.612446,144.928295 C326.235506,144.928295 329.172699,141.985532 329.172699,138.355715 C329.172699,134.725021 326.235506,131.783134 322.612446,131.783134 C318.989385,131.783134 316.052193,134.725021 316.052193,138.355715 Z" id="Stroke-12"></path>
                            <polyline id="Stroke-14" points="224.583171 44.959957 315.616064 44.959957 383.405346 112.876624 533.04933 112.876624"></polyline>
                            <path d="M210.046687,43.7147597 C210.046687,47.3454532 212.983879,50.2873403 216.60694,50.2873403 C220.230001,50.2873403 223.167193,47.3454532 223.167193,43.7147597 C223.167193,40.0849425 220.230001,37.142179 216.60694,37.142179 C212.983879,37.142179 210.046687,40.0849425 210.046687,43.7147597 Z" id="Stroke-18"></path>
                            <polyline id="Stroke-20" points="286.750863 80.0137204 197.530373 80.0137204 140.674846 23.0513548 23.3573109 23.0513548 0.617194338 0.212951613"></polyline>
                            <path d="M287.32687,79.2059065 C287.32687,82.8357237 290.264063,85.7784871 293.887123,85.7784871 C297.510184,85.7784871 300.447377,82.8357237 300.447377,79.2059065 C300.447377,75.5752129 297.510184,72.6333258 293.887123,72.6333258 C290.264063,72.6333258 287.32687,75.5752129 287.32687,79.2059065 Z" id="Stroke-22"></path>
                            <path d="M119.745562,72.6333258 C119.745562,76.263143 122.682754,79.2059065 126.305815,79.2059065 C129.928876,79.2059065 132.866068,76.263143 132.866068,72.6333258 C132.866068,69.0026323 129.928876,66.0607452 126.305815,66.0607452 C122.682754,66.0607452 119.745562,69.0026323 119.745562,72.6333258 Z" id="Stroke-30"></path>
                            <polyline id="Stroke-32" points="118.807336 72.1283763 75.9466664 72.1283763 53.6419803 94.4751505 0.721907077 94.4751505"></polyline>
                            <polyline id="Stroke-34" points="75.9470155 162.390065 124.676834 111.562108 317.78545 111.562108"></polyline>
                            <path d="M318.671233,112.00028 C318.671233,115.630973 321.608425,118.57286 325.231486,118.57286 C328.854547,118.57286 331.791739,115.630973 331.791739,112.00028 C331.791739,108.370462 328.854547,105.427699 325.231486,105.427699 C321.608425,105.427699 318.671233,108.370462 318.671233,112.00028 Z" id="Stroke-42"></path>
                        </g>
                    </g>
                </g>
            </g>
        </g>
    </g>
</svg>